<svg xmlns="http://www.w3.org/2000/svg" xmlns:xlink="http://www.w3.org/1999/xlink" viewBox="0 0 369.11 379.31"><defs><style>.cls-1{fill:#ecf2fb;}.cls-2,.cls-4,.cls-5,.cls-7{fill:none;stroke-miterlimit:10;}.cls-2{stroke:#a7b1dd;stroke-dasharray:2 2;}.cls-3{fill:url(#linear-gradient);}.cls-4,.cls-5{stroke:#fff;}.cls-4,.cls-7{stroke-width:0.5px;}.cls-6{fill:url(#linear-gradient-2);}.cls-7{stroke:#e9edf1;}.cls-8{fill:url(#linear-gradient-3);}.cls-9{fill:url(#linear-gradient-4);}.cls-10{fill:url(#linear-gradient-5);}.cls-11{fill:url(#linear-gradient-6);}.cls-12{fill:url(#linear-gradient-7);}.cls-13{fill:url(#linear-gradient-8);}.cls-14{fill:url(#linear-gradient-9);}.cls-15{fill:url(#linear-gradient-10);}.cls-16{fill:url(#linear-gradient-11);}.cls-17{fill:url(#linear-gradient-12);}.cls-18{fill:url(#linear-gradient-13);}.cls-19{fill:url(#linear-gradient-14);}.cls-20{fill:#260089;}.cls-21{fill:#fff;}.cls-22{fill:url(#linear-gradient-15);}.cls-23{fill:url(#linear-gradient-16);}.cls-24{fill:url(#linear-gradient-17);}.cls-25{fill:url(#linear-gradient-18);}.cls-26{fill:url(#linear-gradient-19);}.cls-27{fill:url(#linear-gradient-20);}.cls-28{fill:url(#linear-gradient-21);}.cls-29{fill:url(#linear-gradient-22);}.cls-30{fill:url(#linear-gradient-23);}.cls-31{fill:url(#linear-gradient-24);}.cls-32{fill:url(#linear-gradient-25);}.cls-33{fill:#847dfb;}.cls-34{fill:url(#linear-gradient-26);}.cls-35{fill:url(#linear-gradient-27);}</style><linearGradient id="linear-gradient" x1="112.5" y1="351.58" x2="283.6" y2="351.58" gradientTransform="translate(-181.89 479.81) rotate(-103.78)" gradientUnits="userSpaceOnUse"><stop offset="0.23" stop-color="#5c52cf"/><stop offset="0.43" stop-color="#5f55d6"/><stop offset="0.92" stop-color="#655ae2"/></linearGradient><linearGradient id="linear-gradient-2" x1="363.23" y1="239.84" x2="488" y2="239.84" gradientTransform="matrix(-0.85, 0.53, 0.53, 0.85, 348.65, -282.57)" gradientUnits="userSpaceOnUse"><stop offset="0.22" stop-color="#cfdce5"/><stop offset="0.44" stop-color="#cbd8e4"/><stop offset="0.64" stop-color="#c1cde2"/><stop offset="0.84" stop-color="#afbadf"/><stop offset="0.92" stop-color="#a7b1dd"/></linearGradient><linearGradient id="linear-gradient-3" x1="212.96" y1="139.49" x2="369.11" y2="139.49" gradientUnits="userSpaceOnUse"><stop offset="0.08" stop-color="#a7b1dd"/><stop offset="0.16" stop-color="#afbadf"/><stop offset="0.36" stop-color="#c1cde2"/><stop offset="0.56" stop-color="#cbd8e4"/><stop offset="0.78" stop-color="#cfdce5"/></linearGradient><linearGradient id="linear-gradient-4" x1="212.96" y1="70.38" x2="284" y2="70.38" gradientTransform="matrix(1, 0, 0, 1, 0, 0)" xlink:href="#linear-gradient"/><linearGradient id="linear-gradient-5" x1="287.86" y1="104.05" x2="355.81" y2="104.05" gradientUnits="userSpaceOnUse"><stop offset="0.22" stop-color="#a7b1dd"/><stop offset="0.42" stop-color="#a5addf"/><stop offset="0.61" stop-color="#9da2e6"/><stop offset="0.79" stop-color="#908ff0"/><stop offset="0.92" stop-color="#847dfb"/></linearGradient><linearGradient id="linear-gradient-6" x1="287.86" y1="115.1" x2="355.81" y2="115.1" xlink:href="#linear-gradient-5"/><linearGradient id="linear-gradient-7" x1="287.86" y1="126.16" x2="355.81" y2="126.16" xlink:href="#linear-gradient-5"/><linearGradient id="linear-gradient-8" x1="225.49" y1="173.42" x2="355.81" y2="173.42" xlink:href="#linear-gradient-5"/><linearGradient id="linear-gradient-9" x1="225.49" y1="180.23" x2="355.81" y2="180.23" xlink:href="#linear-gradient-5"/><linearGradient id="linear-gradient-10" x1="225.49" y1="187.03" x2="355.81" y2="187.03" xlink:href="#linear-gradient-5"/><linearGradient id="linear-gradient-11" x1="225.49" y1="150.66" x2="355.81" y2="150.66" xlink:href="#linear-gradient-5"/><linearGradient id="linear-gradient-12" x1="225.49" y1="157.47" x2="355.81" y2="157.47" xlink:href="#linear-gradient-5"/><linearGradient id="linear-gradient-13" x1="225.49" y1="164.28" x2="355.81" y2="164.28" xlink:href="#linear-gradient-5"/><linearGradient id="linear-gradient-14" x1="224.02" y1="113.78" x2="273.2" y2="113.78" gradientTransform="matrix(1, 0, 0, 1, 0, 0)" xlink:href="#linear-gradient"/><linearGradient id="linear-gradient-15" x1="132.04" y1="139.68" x2="205.48" y2="139.68" gradientUnits="userSpaceOnUse"><stop offset="0.01" stop-color="#fbbe52"/><stop offset="0.27" stop-color="#fabb54"/><stop offset="0.4" stop-color="#f9b656"/><stop offset="0.88" stop-color="#fc952e"/></linearGradient><linearGradient id="linear-gradient-16" x1="209.48" y1="174.49" x2="279.72" y2="174.49" xlink:href="#linear-gradient-3"/><linearGradient id="linear-gradient-17" x1="209.48" y1="185.92" x2="279.72" y2="185.92" xlink:href="#linear-gradient-3"/><linearGradient id="linear-gradient-18" x1="209.48" y1="197.35" x2="279.72" y2="197.35" xlink:href="#linear-gradient-3"/><linearGradient id="linear-gradient-19" x1="145" y1="246.21" x2="279.72" y2="246.21" xlink:href="#linear-gradient-3"/><linearGradient id="linear-gradient-20" x1="145" y1="253.25" x2="279.72" y2="253.25" xlink:href="#linear-gradient-3"/><linearGradient id="linear-gradient-21" x1="145" y1="260.29" x2="279.72" y2="260.29" xlink:href="#linear-gradient-3"/><linearGradient id="linear-gradient-22" x1="145" y1="222.69" x2="279.72" y2="222.69" xlink:href="#linear-gradient-3"/><linearGradient id="linear-gradient-23" x1="145" y1="229.72" x2="279.72" y2="229.72" xlink:href="#linear-gradient-3"/><linearGradient id="linear-gradient-24" x1="145" y1="236.77" x2="279.72" y2="236.77" xlink:href="#linear-gradient-3"/><linearGradient id="linear-gradient-25" x1="143.61" y1="184.56" x2="194.46" y2="184.56" xlink:href="#linear-gradient-5"/><linearGradient id="linear-gradient-26" x1="282.14" y1="78.83" x2="329.69" y2="31.28" xlink:href="#linear-gradient-15"/><linearGradient id="linear-gradient-27" x1="300.88" y1="286.4" x2="348.43" y2="238.85" xlink:href="#linear-gradient-15"/></defs><g id="Capa_2" data-name="Capa 2"><g id="Capa_1-2" data-name="Capa 1"><path class="cls-1" d="M335.09,127c4.15,14.55,1.77,36.64-.45,51.17-3.14,20.49-5.23,33.45-13.36,58.61C300.71,300.42,234.43,351,162,329.91c-48.59-14.15-86-54-113.08-94.81C9.1,175.15-20.13,47.56,81.85,29.84c54.82-9.53,106.5,29.36,156.56,46.6,29.32,10.1,55,4.47,76.08,20.09C328.27,106.72,330.55,111.09,335.09,127Z"/><path class="cls-2" d="M346.32,86.47c6,14.35,8.77,31,8.71,47.26-.09,22.92-4.9,46.11-10.63,68.82C325.89,276,278.45,351.4,207.11,350.67c-47.85-.49-88.75-31.93-120-67.51-46-52.28-57.52-179,36.25-228.88,50.4-26.81,54.8-25.58,104.47-22.23,29.1,2,68.39,11.71,90.52,22.08C332.74,60.9,339.81,70.77,346.32,86.47Z"/><path class="cls-3" d="M224.71,264.25s-121.28-.46-164-40.33S.12,143.14.12,143.14,61.89,137.83,104.17,160,224.71,264.25,224.71,264.25Z"/><line class="cls-4" x1="224.71" y1="264.25" x2="0.12" y2="143.14"/><line class="cls-5" x1="50.86" y1="214.24" x2="110.36" y2="203.42"/><line class="cls-5" x1="116.68" y1="250.67" x2="165.02" y2="232.06"/><line class="cls-5" x1="13.2" y1="166.67" x2="43.75" y2="166.67"/><line class="cls-5" x1="92.75" y1="154.72" x2="110.36" y2="203.42"/><line class="cls-5" x1="34.52" y1="143.14" x2="43.75" y2="166.67"/><path class="cls-6" d="M86.71,61.19c9.06,8.21,14.65,18.22,24.49,25,5.58,3.81,9,2.91,15.43,2.84,8.15-.09,19.17,1.84,26,6.61,10.22,7.15,17.19,20.78,19.21,33.1,2.5,15.3-5.4,31.15-2.1,46.69,2.28,10.7,13.67,18.64,15.11,29.55,1.47,11.16-7.4,31-20.91,28.81-15.3-2.46-21.12-20-34.89-24.48-7.86-2.56-17.26-1.52-25.53-3.77C92.67,202.55,80.28,197,71.8,189.4c-16-14.35-28.53-35.69-22.55-57.31,1.39-5,4.3-10,4.41-15.38.14-6.83-3.84-9.6-7.2-15-4.54-7.36-4.58-20.05-2.7-28.68,1.5-6.86,5.45-8.52,11.28-12.52C55,60.48,75.07,50.65,86.71,61.19Z"/><line class="cls-7" x1="55.04" y1="60.48" x2="174.6" y2="230.78"/><line class="cls-7" x1="149.14" y1="93.56" x2="130.27" y2="167.8"/><line class="cls-7" x1="47.93" y1="147.38" x2="130.27" y2="167.8"/><line class="cls-7" x1="86.71" y1="61.19" x2="85.34" y2="103.96"/><line class="cls-7" x1="42.59" y1="84.84" x2="85.34" y2="103.96"/><line class="cls-7" x1="161.08" y1="182.33" x2="162.39" y2="213.43"/><path class="cls-8" d="M363.66,78.11H213V192.69a8.19,8.19,0,0,0,8.19,8.19H360.93a8.19,8.19,0,0,0,8.18-8.19V85.82A8.19,8.19,0,0,0,363.66,78.11Z"/><path class="cls-9" d="M284,78.67V72.78a10.69,10.69,0,0,0-10.7-10.69H223.65A10.69,10.69,0,0,0,213,72.78v5.89Z"/><rect class="cls-10" x="287.86" y="100.71" width="67.94" height="6.68"/><rect class="cls-11" x="287.86" y="111.76" width="67.94" height="6.68"/><rect class="cls-12" x="287.86" y="122.82" width="67.94" height="6.68"/><rect class="cls-13" x="225.49" y="171.36" width="130.31" height="4.12"/><rect class="cls-14" x="225.49" y="178.17" width="130.31" height="4.11"/><rect class="cls-15" x="225.49" y="184.98" width="130.31" height="4.11"/><rect class="cls-16" x="225.49" y="148.6" width="130.31" height="4.11"/><rect class="cls-17" x="225.49" y="155.41" width="130.31" height="4.11"/><rect class="cls-18" x="225.49" y="162.22" width="130.31" height="4.12"/><rect class="cls-19" x="224.02" y="89.19" width="49.18" height="49.18"/><path class="cls-20" d="M256.66,115.26a10.3,10.3,0,1,0-16.1,0c-7.06,3.21-12.4,10.51-13.94,19.46h44C269.06,125.77,263.72,118.47,256.66,115.26Z"/><path class="cls-21" d="M287.84,147.68H132V266.14a8.46,8.46,0,0,0,8.46,8.46H285a8.47,8.47,0,0,0,8.47-8.46V155.65A8.46,8.46,0,0,0,287.84,147.68Z"/><path class="cls-22" d="M205.48,148.26v-6.09a11.06,11.06,0,0,0-11.06-11.06H143.1A11.06,11.06,0,0,0,132,142.17v6.09Z"/><rect class="cls-23" x="209.48" y="171.04" width="70.24" height="6.9"/><rect class="cls-24" x="209.48" y="182.47" width="70.24" height="6.91"/><rect class="cls-25" x="209.48" y="193.9" width="70.24" height="6.91"/><rect class="cls-26" x="145" y="244.08" width="134.72" height="4.26"/><rect class="cls-27" x="145" y="251.13" width="134.72" height="4.25"/><rect class="cls-28" x="145" y="258.16" width="134.72" height="4.26"/><rect class="cls-29" x="145" y="220.56" width="134.72" height="4.25"/><rect class="cls-30" x="145" y="227.6" width="134.72" height="4.26"/><rect class="cls-31" x="145" y="234.64" width="134.72" height="4.26"/><rect class="cls-32" x="143.61" y="159.13" width="50.84" height="50.85"/><path class="cls-20" d="M185.84,191.51c-1.58-9.27-8.51-19.88-16.81-19.88s-15.22,10.61-16.81,19.88Z"/><path class="cls-20" d="M176.41,192.14a9.45,9.45,0,1,0-14.75,0c-6.47,2.94-11.37,9.64-12.78,17.84h40.31C187.78,201.78,182.88,195.08,176.41,192.14Z"/><path class="cls-33" d="M147.42,308.13a33.63,33.63,0,1,1-33.63-33.62A33.62,33.62,0,0,1,147.42,308.13Z"/><path class="cls-21" d="M123.83,291.77H103.75a6.32,6.32,0,0,0-6.32,6.33v20.08a6.33,6.33,0,0,0,6.32,6.32h20.08a6.34,6.34,0,0,0,6.33-6.32V298.1A6.34,6.34,0,0,0,123.83,291.77Zm1.82,3.77h.72v5.55h-5.53l0-5.54Zm-16.53,9.23a5.75,5.75,0,1,1-1.09,3.36A5.75,5.75,0,0,1,109.12,304.77ZM127,318.18a3.14,3.14,0,0,1-3.14,3.13H103.75a3.13,3.13,0,0,1-3.13-3.13V304.77h4.88a9,9,0,1,0,16.58,0H127Z"/><path class="cls-34" d="M339.53,55.05a33.62,33.62,0,1,1-33.62-33.62A33.62,33.62,0,0,1,339.53,55.05Z"/><polygon class="cls-21" points="321.77 43.4 289.68 43.4 305.73 53.34 321.77 43.4"/><polygon class="cls-21" points="305.73 58.15 285.79 45.8 285.79 68.07 325.65 68.07 325.65 45.8 305.73 58.15"/><path class="cls-33" d="M218.71,31.37A31.38,31.38,0,1,1,187.33,0,31.38,31.38,0,0,1,218.71,31.37Z"/><path class="cls-21" d="M194,37.17a3.06,3.06,0,0,0-3.43,1.43c-.33.7-.37,1.66-1.08,2a1.86,1.86,0,0,1-1.58-.29c-2.39-1.35-7.18-10.87-6.82-13.58a1.87,1.87,0,0,1,.7-1.45c.68-.38,1.47.15,2.23.31a3,3,0,0,0,3.19-1.9,6.94,6.94,0,0,0,.31-3.94,8.22,8.22,0,0,0-1.66-4.32c-2.94-3.34-7.26,0-9,2.83a15.41,15.41,0,0,0-2,6c-.64,4.45,7.37,20.38,11.33,22.54a15.38,15.38,0,0,0,6,2c3.3.29,8.57-1.17,7.65-5.52a8.26,8.26,0,0,0-2.46-3.9A7.12,7.12,0,0,0,194,37.17Z"/><path class="cls-35" d="M358.28,262.63A33.62,33.62,0,1,1,324.66,229,33.62,33.62,0,0,1,358.28,262.63Z"/><path class="cls-21" d="M343.4,250.13a6.46,6.46,0,0,0-6.25-6.25h-25a6.47,6.47,0,0,0-6.26,6.25v25a6.47,6.47,0,0,0,6.26,6.25h12.49V267.21h-4.59V261h4.59v-2.41c0-4.21,3.17-8,7-8h5v6.26h-5a1.52,1.52,0,0,0-1.2,1.66V261h6.24v6.25H330.5v14.16h6.65a6.46,6.46,0,0,0,6.25-6.25Z"/><path class="cls-33" d="M250.74,345.69a33.62,33.62,0,1,1-33.62-33.62A33.62,33.62,0,0,1,250.74,345.69Z"/><path class="cls-21" d="M227.37,327.08H206.86a8.35,8.35,0,0,0-8.35,8.35V356a8.36,8.36,0,0,0,8.35,8.35h20.51a8.35,8.35,0,0,0,8.36-8.35V335.43A8.35,8.35,0,0,0,227.37,327.08Zm.14,12.87a8.19,8.19,0,0,1-1.54,1.46.15.15,0,0,0-.07.13,10.88,10.88,0,0,1-.09,1.89,12.44,12.44,0,0,1-3.37,7.1,11.41,11.41,0,0,1-5.82,3.24,12.37,12.37,0,0,1-2.35.28,12,12,0,0,1-6.78-1.81l-.1-.07a8.58,8.58,0,0,0,4.23-.58,7.88,7.88,0,0,0,2-1.17,4.27,4.27,0,0,1-3.94-2.93,4.14,4.14,0,0,0,1.82-.07l0,0a4.22,4.22,0,0,1-3.36-4.19,4.18,4.18,0,0,0,1.88.52,4.27,4.27,0,0,1-1.74-2.57,4.18,4.18,0,0,1,.45-3.07,12.13,12.13,0,0,0,8.73,4.43,4.66,4.66,0,0,1-.06-.47,4.22,4.22,0,0,1,3.48-4.68,4.15,4.15,0,0,1,3.71,1.17.22.22,0,0,0,.23.07,8.64,8.64,0,0,0,2.46-.94.07.07,0,0,1,.06,0h0a4.32,4.32,0,0,1-1.82,2.3,8.39,8.39,0,0,0,2.37-.63v0C227.83,339.53,227.68,339.75,227.51,340Z"/></g></g></svg>