<svg xmlns="http://www.w3.org/2000/svg" viewBox="0 0 3354.33 1911.57"><defs><style>.cls-1{isolation:isolate;}.cls-2{fill:#f4a640;}.cls-3{fill:#adcfd8;}.cls-4{fill:#55769f;}.cls-5{fill:#daeef7;}.cls-6{fill:#feb546;}.cls-11,.cls-21,.cls-7{fill:#fff;}.cls-17,.cls-7{opacity:0.2;}.cls-8{fill:#ff5b7e;}.cls-9{fill:#e03268;}.cls-10{fill:#07085b;}.cls-11{opacity:0.1;mix-blend-mode:color-dodge;}.cls-12{fill:#ffc0bb;}.cls-13{fill:#fee4cb;}.cls-14{fill:#f50;}.cls-15,.cls-17,.cls-29{fill:#f99893;}.cls-16{fill:#333;}.cls-17,.cls-29{mix-blend-mode:multiply;}.cls-18{fill:#c0efff;}.cls-19{fill:#1e1e1e;}.cls-20{fill:#282828;}.cls-22{fill:#06bfad;}.cls-23,.cls-24{fill:#f3fdff;}.cls-23{opacity:0.5;}.cls-25{fill:#02ccc0;}.cls-26{fill:#fbf9eb;}.cls-27,.cls-28{fill:#fc8d84;}.cls-28{opacity:0.6;}.cls-29{opacity:0.3;}.cls-30{fill:#050849;}.cls-31{fill:#050842;}.cls-32{fill:#0a9;}.cls-33{fill:#752911;}.cls-34{fill:#040744;}.cls-35{fill:#444;}.cls-36{fill:#caf0ff;}.cls-37{fill:#076493;}.cls-38{fill:#1e1e1d;}.cls-39{fill:#b5dbe8;}.cls-40{fill:#f3fcff;}.cls-41{fill:#cfe4ff;}.cls-42{fill:#026eaf;}.cls-43{fill:#6db1b5;}.cls-44{fill:#8fd0d6;}</style></defs><g class="cls-1"><g id="Capa_2" data-name="Capa 2"><g id="Layer_1" data-name="Layer 1"><path class="cls-2" d="M1272.48,787.56,1439,854.44l206.15-513.31L1504.4,284.59A27.77,27.77,0,0,0,1468.29,300Z"/><rect class="cls-3" x="1290.14" y="344.89" width="323.85" height="455.33" transform="translate(2781.89 1389.78) rotate(-169.95)"/><rect class="cls-4" x="1411.52" y="392.89" width="144.62" height="3.25" transform="translate(2876.01 1041.98) rotate(-169.95)"/><rect class="cls-4" x="1382.57" y="384.78" width="205.38" height="3.25" transform="translate(2880.27 1026.14) rotate(-169.95)"/><rect class="cls-4" x="1353.29" y="426.46" width="249.17" height="3.25" transform="translate(2858.34 1107.56) rotate(-169.95)"/><rect class="cls-4" x="1350.56" y="441.83" width="249.17" height="3.25" transform="translate(2850.24 1137.6) rotate(-169.95)"/><rect class="cls-4" x="1345.11" y="472.59" width="249.17" height="3.25" transform="translate(2834.05 1197.68) rotate(-169.95)"/><rect class="cls-4" x="1342.39" y="487.96" width="249.17" height="3.25" transform="translate(2825.96 1227.72) rotate(-169.95)"/><rect class="cls-4" x="1339.66" y="503.34" width="249.17" height="3.25" transform="translate(2817.87 1257.76) rotate(-169.95)"/><rect class="cls-4" x="1327.67" y="570.96" width="249.17" height="3.25" transform="translate(2782.27 1389.88) rotate(-169.95)"/><rect class="cls-4" x="1324.85" y="586.91" width="249.17" height="3.25" transform="translate(2773.88 1421.04) rotate(-169.95)"/><rect class="cls-4" x="1322.02" y="602.85" width="249.17" height="3.25" transform="translate(2765.48 1452.18) rotate(-169.95)"/><rect class="cls-4" x="1319.19" y="618.8" width="249.17" height="3.25" transform="matrix(-0.98, -0.17, 0.17, -0.98, 2757.09, 1483.33)"/><rect class="cls-4" x="1316.37" y="634.74" width="249.17" height="3.25" transform="translate(2748.7 1514.48) rotate(-169.95)"/><rect class="cls-4" x="1313.54" y="650.68" width="249.17" height="3.25" transform="translate(2740.31 1545.63) rotate(-169.95)"/><rect class="cls-4" x="1310.71" y="666.63" width="249.17" height="3.25" transform="translate(2731.91 1576.78) rotate(-169.95)"/><rect class="cls-5" x="1315.05" y="342.64" width="323.85" height="455.33" transform="translate(2760.16 1497.73) rotate(-165.26)"/><rect class="cls-4" x="1450.88" y="393.83" width="144.62" height="3.25" transform="translate(2895.57 1165.55) rotate(-165.26)"/><rect class="cls-4" x="1422.59" y="385.87" width="205.38" height="3.25" transform="matrix(-0.97, -0.25, 0.25, -0.97, 2901.72, 1150.43)"/><rect class="cls-4" x="1389.93" y="426.8" width="249.17" height="3.25" transform="translate(2870.12 1228.2) rotate(-165.26)"/><rect class="cls-4" x="1385.95" y="441.9" width="249.17" height="3.25" transform="translate(2858.46 1256.89) rotate(-165.26)"/><rect class="cls-4" x="1378" y="472.11" width="249.17" height="3.25" transform="translate(2835.13 1314.28) rotate(-165.26)"/><rect class="cls-4" x="1374.03" y="487.21" width="249.17" height="3.25" transform="matrix(-0.97, -0.25, 0.25, -0.97, 2823.47, 1342.97)"/><rect class="cls-4" x="1370.06" y="502.31" width="249.17" height="3.25" transform="matrix(-0.97, -0.25, 0.25, -0.97, 2811.81, 1371.67)"/><rect class="cls-4" x="1352.58" y="568.73" width="249.17" height="3.25" transform="translate(2760.52 1497.87) rotate(-165.26)"/><rect class="cls-4" x="1348.45" y="584.39" width="249.17" height="3.25" transform="translate(2748.43 1527.63) rotate(-165.26)"/><rect class="cls-4" x="1344.33" y="600.05" width="249.17" height="3.25" transform="translate(2736.34 1557.38) rotate(-165.26)"/><rect class="cls-4" x="1340.21" y="615.71" width="249.17" height="3.25" transform="translate(2724.24 1587.14) rotate(-165.26)"/><rect class="cls-4" x="1336.09" y="631.37" width="249.17" height="3.25" transform="translate(2712.15 1616.89) rotate(-165.26)"/><rect class="cls-4" x="1331.97" y="647.03" width="249.17" height="3.25" transform="translate(2700.06 1646.64) rotate(-165.26)"/><rect class="cls-4" x="1327.85" y="662.69" width="249.17" height="3.25" transform="matrix(-0.97, -0.25, 0.25, -0.97, 2687.97, 1676.4)"/><path class="cls-6" d="M1335.67,812.94,1671,947.59,1866.5,460.67l-281.74-173.8a30,30,0,0,0-43.58,14.35Z"/><polygon class="cls-2" points="1807.1 514.43 1578.83 383.87 1547.98 444.98 1781.55 568.55 1807.1 514.43"/><path class="cls-7" d="M928.39,489.82a70.44,70.44,0,0,0-86.32-52.29,103.67,103.67,0,0,0-124.62-55,127.67,127.67,0,0,0-229.33,22.31A87.58,87.58,0,0,0,358,481.32c0,2.87.14,5.71.41,8.5Z"/><path class="cls-7" d="M2407,374.82a53.39,53.39,0,0,0-65.46-39.64A78.61,78.61,0,0,0,2247,293.43a96.81,96.81,0,0,0-173.89,16.92,66.41,66.41,0,0,0-98.7,58c0,2.18.12,4.32.32,6.44Z"/><path class="cls-7" d="M622.92,224a31.87,31.87,0,0,0-39-23.65,46.88,46.88,0,0,0-56.37-24.9A57.74,57.74,0,0,0,423.8,185.51a39.61,39.61,0,0,0-58.87,34.62,37.69,37.69,0,0,0,.19,3.84Z"/><path class="cls-7" d="M2935.34,332.19a31.82,31.82,0,0,1,39-23.65,46.88,46.88,0,0,1,56.37-24.9,57.73,57.73,0,0,1,103.71,10.09,39.61,39.61,0,0,1,58.87,34.61,37.74,37.74,0,0,1-.19,3.85Z"/><path class="cls-7" d="M3067.43,169.09a70.42,70.42,0,0,0-86.31-52.29,103.63,103.63,0,0,0-124.63-55,127.67,127.67,0,0,0-229.33,22.31A87.58,87.58,0,0,0,2497,160.59c0,2.87.15,5.7.42,8.5Z"/><path class="cls-2" d="M93.65,345.4C269.55,623,703.1,870.29,703.1,870.29s-344.64-28-515.67-250.72l62-51.36s-49.29,4.77-90.58,9.54C120.83,514.64,96.19,438.13,93.65,345.4Z"/><path class="cls-6" d="M555.19,460.19c-26.75,12.13-66.32,30.62-66.32,30.62L527,436c-44.41-34.55-93.27-57.57-141.7-72.65-19.63,28.58-42.7,60.53-42.7,60.53L338,351c-129.79-28-244.37-5.6-244.37-5.6C269.55,623,703.1,870.29,703.1,870.29,701.14,666.36,639.05,539,555.19,460.19Z"/><path class="cls-8" d="M29.07,737a408.35,408.35,0,0,1,155.24-53.48c15.37,17.54,34.23,38.17,34.23,38.17l1-41.3C415.65,671,581,794.49,581,794.49c-112.2,68.26-208.75,87.4-288.3,81.73-5-14.43-12.15-36-12.15-36l-13.31,33.25a361.89,361.89,0,0,1-101.35-30.08c7.06-17.25,14.46-37,14.46-37l-41.8,22.91C66.73,788.78,29.07,737,29.07,737Z"/><path class="cls-9" d="M292.65,876.22c-5-14.43-12.15-36-12.15-36l-13.31,33.25a361.89,361.89,0,0,1-101.35-30.08c7.06-17.25,14.46-37,14.46-37l-41.8,22.91C66.73,788.78,29.07,737,29.07,737,257.18,711,581,794.49,581,794.49,468.75,862.75,372.2,881.89,292.65,876.22Z"/><path class="cls-10" d="M2685.82,1705.34s-215.24-285.75-107.45-341.48c0,0,18.85-31.14,99.24,77.32,0,0,48.66,15,50.33-41.18s-79.39-139.93-29.7-189.54,77.53,37.38,113.54,53.32,14.78-207.36,63.8-232.31,64.2,63,92.1,72.77,104.71-252.38,238-206.52-16,146.35-78.38,208,68.13,25.37,83.32,102.3-220,19.29-197.39,93.94,88.9,30.58,102.48,86.41c22,90.26-211.59,7.61-205.15,69.93,5.13,49.69,88.58,15.32,98.28,53.62S2875.68,1690.9,2685.82,1705.34Z"/><path class="cls-11" d="M2571.08,1368.32c1-.68,1.93-1.33,2.94-2,4.21,11.83,9.38,24.75,15.66,38.17,23.09,49.29,66.5,115.59,142.22,152.61q27.49-62.73,68.37-131.36c-22.08-112.92-63.05-175.45-93.52-208-2.64-2.82-5.25-5.45-7.81-8,.84-.82,1.68-1.6,2.51-2.35,2.5,2.43,5,5,7.6,7.73,30.52,32.54,71.4,94.64,93.85,206.19.12-.19.23-.38.34-.57,28.14-46.81,60.89-95.57,97.91-145.83a819.14,819.14,0,0,0,4.69-110.15c-1.07-41.13-6.07-93.44-21.85-136.62a33.44,33.44,0,0,1,3.37-.73c15.82,43.56,20.84,96,21.92,137.26a839.9,839.9,0,0,1-4.06,104.73q42.51-57.36,92.26-117.09c92.37-110.89,181.46-201.1,227.94-246.48,1.1.55,2.17,1.11,3.21,1.67-46.19,45.06-135.68,135.57-228.51,247-15.61,18.74-31.73,38.58-48,59.31a829.56,829.56,0,0,1,101.3-12.58c42.14-2.7,99.16-3.14,157.15,6.12l.12.56c.2,1,.35,2,.47,3-58.05-9.4-115.25-9-157.46-6.26-57.23,3.67-99.19,12.13-104.85,13.31-36.06,46-73,96.41-107.45,149,81.26-11.73,211.51,13.83,275.62,28.4.12,1.23.19,2.42.2,3.57-64.33-14.67-197.48-40.93-278.35-28.11-48.86,75-92.61,154.31-121.78,232,68.38,9.76,148.7-22.06,204.31-50.68a824.74,824.74,0,0,0,83-49.35,20.76,20.76,0,0,1,2,2.79,827.87,827.87,0,0,1-83.35,49.59c-56.27,29-137.71,61.18-207.17,51-12.39,33.46-22,66.61-28.21,99-.6,0-1.19.1-1.79.15l-1.38-1.86c8.57-44.42,24-92.28,46.07-143.18q-7.4-3.61-14.59-7.67a286.44,286.44,0,0,1-75.24-62.14c-21-24.23-39.22-52.7-54.16-84.61C2580.35,1392.7,2575.26,1380,2571.08,1368.32Z"/><path class="cls-8" d="M2661.45,1667.52s86.15-205.17,351.52-284.14l-23.92,78.2,53.46-82.47s156-39.4,272.12-37.78c0,0-182.11,193.17-234.69,222.67l-82.52,3.4,59.73,42.07s-99,109.85-229.49,139S2661.45,1667.52,2661.45,1667.52Z"/><path class="cls-6" d="M3354.33,1653.64c-46.46,61-98.91,100.78-153.27,125.33-23.56-22.47-52.13-48.68-52.13-48.68l14,63.39C2948,1863.16,2718.57,1721,2718.57,1721c99.9-135.81,200.41-192.19,291.09-205.91,10.89,20.63,26.73,51.5,26.73,51.5l2.62-54.53c44.54-2.43,86.29,5,123.91,17.45-1.53,28.33-2.53,60.52-2.53,60.52l38.15-46.75C3293.37,1585.16,3354.33,1653.64,3354.33,1653.64Z"/><path class="cls-2" d="M3009.66,1515.11c10.89,20.63,26.73,51.5,26.73,51.5l2.62-54.53c44.54-2.43,86.29,5,123.91,17.45-1.53,28.33-2.53,60.52-2.53,60.52l38.15-46.75c94.83,41.86,155.79,110.34,155.79,110.34-244.49,104-635.76,67.38-635.76,67.38C2818.47,1585.21,2919,1528.83,3009.66,1515.11Z"/><path class="cls-12" d="M2978.56,1443.88a5,5,0,0,1,3.27,3.41,103.75,103.75,0,0,1,3.05,15c0,.73-5.75-2.3-5.75-2.3s-1.93-9.87-1.17-11.56A12,12,0,0,0,2978.56,1443.88Z"/><path class="cls-12" d="M3087.38,1484.14l-33.75-15.62,3.07,35.73s-63.89-29-67.12-31.93c-1.08-1-2.3-3.52-3.48-6.51a65.26,65.26,0,0,1-2.82-9.7c-1.12-5-5.36-8.93-6.79-10.23a20.42,20.42,0,0,1-2.85-5.48,1,1,0,0,0-2,.1l-.34,2.24a11.32,11.32,0,0,0,.92,5.67l-.89-.34-1.47,15,1.8,13.14,10.11,7.61s89,64.08,97.17,55.71C3087.67,1530.57,3087.38,1484.14,3087.38,1484.14Z"/><rect class="cls-13" x="2249.93" y="1264.1" width="577.59" height="577.59" rx="44.3"/><path class="cls-12" d="M2505.36,1682.85h93.78l-3.93,15-59.46,40.25s-13.46-26.25-16-29.06S2505.36,1682.85,2505.36,1682.85Z"/><rect class="cls-12" x="2523.42" y="1645.93" width="57.7" height="101.26"/><path class="cls-8" d="M2719.89,1762.92c-7.59-19.71-17.56-38.73-30.38-51.17-37.79-36.68-90-28.9-90-28.9A82.82,82.82,0,0,1,2582,1696.4a57.94,57.94,0,0,1-59.16,0,82.86,82.86,0,0,1-17.48-13.55s-52.24-7.78-90,28.9c-7.86,7.62-16.9,26.87-26,51.17Z"/><path class="cls-14" d="M2553.72,1417.53s97.61-5.47,102.78,114c0,0-7.09-.52-12.38,2.33,0,0-77.3-19.34-96.49-94.25Z"/><path class="cls-15" d="M2581,1663.23V1628.7h-57.6v29.38C2535.82,1664.74,2554.18,1668.58,2581,1663.23Z"/><path class="cls-9" d="M2552.25,1706.57c50.23,21.45,47.31-19.51,46.92-23.42A82.52,82.52,0,0,1,2582,1696.4a57.94,57.94,0,0,1-59.16,0,82.86,82.86,0,0,1-17.48-13.55S2499.54,1729.09,2552.25,1706.57Z"/><path class="cls-12" d="M2661.84,1533.2c-5.52-2.73-11.92-2.24-17.72.7a94.15,94.15,0,1,0-188.29,0c-5.8-2.94-12.2-3.43-17.72-.7-10.58,5.22-13.87,20.18-7.35,33.41s20.4,19.72,31,14.5a17.45,17.45,0,0,0,4-2.72c6.06,43.13,42.05,75.46,84.27,74.86,42.21.6,78.2-31.73,84.26-74.86a17.45,17.45,0,0,0,4,2.72c10.58,5.22,24.45-1.27,31-14.5S2672.42,1538.42,2661.84,1533.2Z"/><path class="cls-16" d="M2526.19,1552.43a7.93,7.93,0,1,1-8.35-7.48A7.92,7.92,0,0,1,2526.19,1552.43Z"/><path class="cls-16" d="M2594.4,1553.17a7.93,7.93,0,1,1-8.35-7.48A7.93,7.93,0,0,1,2594.4,1553.17Z"/><path class="cls-14" d="M2534.88,1536.21a76.33,76.33,0,0,0-11.5-3.12,39.09,39.09,0,0,0-11.08-.45,36.21,36.21,0,0,0-10.69,2.73l-1.35.5c-.44.18-.85.44-1.29.64l-2.65,1.28c-1.78.9-3.43,2-5.41,2.91a35.24,35.24,0,0,1,3.67-5.15c1.55-1.41,3-3.1,4.87-4.17a25.72,25.72,0,0,1,12.28-4.49,27.12,27.12,0,0,1,12.93,1.86A25.06,25.06,0,0,1,2534.88,1536.21Z"/><path class="cls-14" d="M2566.82,1536.09a24.89,24.89,0,0,1,10.16-7.53,27,27,0,0,1,12.91-2,25.68,25.68,0,0,1,12.32,4.39c1.9,1.06,3.34,2.74,4.9,4.14a35.26,35.26,0,0,1,3.71,5.12c-2-.87-3.64-2-5.43-2.87l-2.66-1.26c-.45-.2-.85-.46-1.3-.63l-1.35-.49a36.25,36.25,0,0,0-10.71-2.65,39.17,39.17,0,0,0-11.08.54A74.77,74.77,0,0,0,2566.82,1536.09Z"/><path class="cls-15" d="M2552.21,1552.87a49.73,49.73,0,0,0,.76,13.87,38.28,38.28,0,0,0,2,6.86,18.09,18.09,0,0,0,4.12,6.47l.86.68.77.58a6.75,6.75,0,0,1,1,.79,5.16,5.16,0,0,1,1.39,2,6.25,6.25,0,0,1-.35,5c-1.66,3.56-5.44,6.23-9.58,8.2,4.56-.22,9.59-2,12.57-6.5a9.49,9.49,0,0,0,1.31-8.1,7.21,7.21,0,0,0-1-2,8.07,8.07,0,0,0-1.36-1.7,10.85,10.85,0,0,0-1.64-1.33c-.34-.24-.41-.33-.59-.47l-.48-.38a17.27,17.27,0,0,1-3.28-4.89,59.85,59.85,0,0,1-2.45-6.06C2554.85,1561.65,2553.59,1557.29,2552.21,1552.87Z"/><path class="cls-14" d="M2439.23,1532.64s-5.83-108,114.49-115.11c0,0-3.74,106.07-97.89,116.37Z"/><path class="cls-14" d="M2455.83,1533.9s134.63-17.51,148.9-84.11l-32.35-25.21-44.47,4.28s-24,38.05-27.36,41.86S2455.83,1533.9,2455.83,1533.9Z"/><path class="cls-14" d="M2581,1448.36s11.17,67.38,63.1,85.54c0,0,4.85-14.19,5.8-17.51s-14.75-52.33-14.75-52.33-7.13-8.56-13.79-12.84-35.58-11.58-35.58-11.58Z"/><path class="cls-17" d="M2535.92,1608.58s10-4.35,20,1.28c0,0,9.93-7.21,18.54-1.56,0,0-2.74,15.71-19.87,15.84S2535.92,1608.58,2535.92,1608.58Z"/><path class="cls-15" d="M2526.61,1603.66a50.69,50.69,0,0,0,6.34,3.84,51.61,51.61,0,0,0,6.72,3,44.3,44.3,0,0,0,14.25,2.78,37.88,37.88,0,0,0,14.22-2.56,53.43,53.43,0,0,0,12.69-7.47,45,45,0,0,1-5.62,5,40.72,40.72,0,0,1-6.51,3.83,34.78,34.78,0,0,1-7.22,2.4,37.12,37.12,0,0,1-7.59.72,39.08,39.08,0,0,1-14.75-3.33A42.63,42.63,0,0,1,2526.61,1603.66Z"/><ellipse class="cls-14" cx="2547.36" cy="1390.91" rx="86.13" ry="66.95"/><path class="cls-10" d="M2480.88,1438.83v0a4,4,0,0,1,2.64-5.12c14.17-4.07,64.14-15.82,130.27-2a4,4,0,0,1,3,4.75h0a4,4,0,0,1-4.72,3c-63.79-13.29-113.09-1.83-126.42,1.91A4,4,0,0,1,2480.88,1438.83Z"/><polygon class="cls-18" points="3052.95 1900.56 3069.88 1900.56 2851.55 805 2834.62 805 3052.95 1900.56"/><polygon class="cls-18" points="2874.14 1911.57 2891.07 1911.57 2670.14 805 2653.2 805 2874.14 1911.57"/><polygon class="cls-18" points="2667.26 833.01 2848.67 833.01 2846.41 821.67 2664.99 821.67 2667.26 833.01"/><polygon class="cls-18" points="2681.91 906.54 2863.33 906.54 2861.07 895.2 2679.65 895.2 2681.91 906.54"/><polygon class="cls-18" points="2696.56 980.07 2877.98 980.07 2875.72 968.73 2694.3 968.73 2696.56 980.07"/><polygon class="cls-18" points="2711.21 1053.6 2892.63 1053.6 2890.37 1042.26 2708.95 1042.26 2711.21 1053.6"/><polygon class="cls-18" points="2725.87 1127.13 2907.28 1127.13 2905.02 1115.79 2723.61 1115.79 2725.87 1127.13"/><polygon class="cls-18" points="2740.52 1200.66 2921.94 1200.66 2919.68 1189.32 2738.26 1189.32 2740.52 1200.66"/><polygon class="cls-18" points="2755.17 1274.19 2936.59 1274.19 2934.33 1262.85 2752.91 1262.85 2755.17 1274.19"/><polygon class="cls-18" points="2769.82 1347.72 2951.24 1347.72 2948.98 1336.38 2767.56 1336.38 2769.82 1347.72"/><polygon class="cls-18" points="2784.48 1421.25 2965.89 1421.25 2963.64 1409.91 2782.22 1409.91 2784.48 1421.25"/><polygon class="cls-18" points="2799.13 1494.78 2980.55 1494.78 2978.29 1483.44 2796.87 1483.44 2799.13 1494.78"/><polygon class="cls-18" points="2813.78 1568.31 2995.2 1568.31 2992.94 1556.97 2811.52 1556.97 2813.78 1568.31"/><polygon class="cls-18" points="2828.44 1641.84 3009.86 1641.84 3007.59 1630.5 2826.18 1630.5 2828.44 1641.84"/><polygon class="cls-18" points="2843.09 1715.37 3024.51 1715.37 3022.25 1704.03 2840.83 1704.03 2843.09 1715.37"/><polygon class="cls-12" points="128.94 1889 128.94 1871.91 148.49 1866.49 152.84 1868.4 153.58 1889 147.43 1906.95 128.94 1889"/><polygon class="cls-19" points="171.46 1538.45 157.59 1876.63 125.27 1876.63 96.8 1621.02 134.13 1506.5 171.46 1538.45"/><polygon class="cls-12" points="3.98 1889 3.98 1871.91 23.53 1866.49 27.89 1868.4 28.63 1889 22.47 1906.95 3.98 1889"/><path class="cls-20" d="M157.59,1539.17,31,1876.63,0,1874.1s38.6-309.39,61.69-338.81,73.71-23.09,73.71-23.09Z"/><path class="cls-21" d="M182.39,1911.2l-56.39,0a1.7,1.7,0,0,1-1.71-1.71v-2.59a1.72,1.72,0,0,1,1.71-1.72l56.39,0a1.72,1.72,0,0,1,1.72,1.71v2.6A1.71,1.71,0,0,1,182.39,1911.2Z"/><path class="cls-16" d="M127,1886.86l-2,16.74c-.25,2.06.91,3.94,2.42,3.94l52.71,0a3.85,3.85,0,0,0,3.45-2.46c.74-1.64.88-4.13-1.47-7.46-4.59-6.49-19.36-8.22-27.15-13.54a2.67,2.67,0,0,0-1.52-.47l-23.69,0C128.43,1883.62,127.26,1885,127,1886.86Z"/><path class="cls-21" d="M58.1,1911.2l-56.39,0A1.71,1.71,0,0,1,0,1909.45v-2.59a1.72,1.72,0,0,1,1.72-1.72l56.39,0a1.72,1.72,0,0,1,1.71,1.71v2.6A1.72,1.72,0,0,1,58.1,1911.2Z"/><path class="cls-16" d="M2.75,1886.86l-2,16.74c-.25,2.06.91,3.94,2.43,3.94l52.71,0a3.83,3.83,0,0,0,3.44-2.46c.74-1.64.89-4.13-1.47-7.46-4.58-6.49-19.36-8.22-27.15-13.54a2.65,2.65,0,0,0-1.52-.47l-23.68,0C4.14,1883.62,3,1885,2.75,1886.86Z"/><path class="cls-9" d="M146.12,1333.66s25.66,30.49,86.08,35.87,15.18,37.28,15.18,37.28-72.81,10.48-98.25-6.6S146.12,1333.66,146.12,1333.66Z"/><path class="cls-20" d="M3180.49,1307.26c9.83,0,26.5-6.53,44.65,5.28,5.13,3.34,8.44,8.79,10.5,14.56a95.07,95.07,0,0,1,3.93,15.78c1.78,10.41,26.7,7.77,35.24,26,11.1,23.69-8.46,45.08-22.68,61.45-30.89,35.57-70.77,26.15-80.57,30.86-7,3.38-1.84-10.92-9.64-10.41s-16.84.33-21.24-6c-2.52-3.62-2.71-8.34-4.48-12.37-2.49-5.65-7.81-9.44-12.89-12.94-6.41-4.42-12.86-8.86-19.89-12.19-7.48-3.53-49.25-7.84-36.77-61.69,4.83-20.86,17.17-33.26,30-42.22,9.19-6.43,17.7-8.74,30.55-9.08C3156.67,1293.49,3154.57,1307.26,3180.49,1307.26Z"/><polygon class="cls-12" points="3070.24 1646.57 3074.06 1890 3080.27 1907.57 3098.92 1890 3116.62 1640.34 3070.24 1646.57"/><path class="cls-12" d="M3181.61,1654.81h-46.67s22,233.74,21.81,235.19,7.87,12,7.87,12l17-12Z"/><path class="cls-16" d="M3059.08,1852.92c13.26,5.31,33.86,10.63,56.6,5.77l4.23-194.41,3.15-34.23a46.76,46.76,0,0,0,3.8,3.07l11.36,222.11s25.21,9.21,56,3.51c.1-13.36-8.19-217.26-8.27-226.72-.6-68.37-21.74-78.38-21.74-78.38l-36-9.11-7.9,1.37c-12.58-4.14-35.33-8.85-44.71,6.85-13.27,22.25-12.49,90.82-12.49,90.82S3059,1843.51,3059.08,1852.92Z"/><path class="cls-22" d="M3079.71,1408.54s-6.92,1.65-16.91,14-18.91,46.6-18.91,46.6l31.92,17.44,20.77-41.34Z"/><path class="cls-23" d="M3170.14,1605.87q-5,1.86-10,4c-3.28,1.43-6.52,2.94-9.75,4.49s-6.41,3.15-9.58,4.8-6.33,3.33-9.43,5.07l-.25-.59a63.43,63.43,0,0,1,7.08-1.09,71.29,71.29,0,0,1,7.15-.34,56.66,56.66,0,0,1,7.14.41l1.78.23,1.75.32.88.15.87.21,1.73.42-1.75-.34-.87-.17-.88-.12-1.77-.25-1.77-.17c-.59-.07-1.18-.1-1.77-.12s-1.18-.08-1.78-.09l-1.77,0c-.6,0-1.19,0-1.78,0-2.37,0-4.74.21-7.09.47a65.24,65.24,0,0,0-7,1.13l-2.13.47,1.88-1.07q4.66-2.65,9.44-5.11t9.64-4.74c3.25-1.51,6.55-2.93,9.86-4.3,1.67-.66,3.34-1.32,5-1.92S3168.44,1606.42,3170.14,1605.87Z"/><path class="cls-23" d="M3075.66,1604.51c1.71.56,3.43,1.1,5.1,1.73s3.37,1.26,5,1.92c3.32,1.37,6.62,2.79,9.87,4.3s6.45,3.11,9.64,4.75,6.33,3.33,9.44,5.1l1.88,1.07-2.13-.47a65.21,65.21,0,0,0-7-1.12c-2.35-.26-4.72-.43-7.09-.48-.59,0-1.18,0-1.78,0l-1.77,0c-.6,0-1.19.06-1.78.09s-1.18.06-1.77.12l-1.77.17-1.77.25-.88.13-.87.17-1.75.34,1.73-.43.87-.2.88-.16,1.75-.31,1.78-.24a58.59,58.59,0,0,1,7.14-.41,71.29,71.29,0,0,1,7.15.34,68.43,68.43,0,0,1,7.08,1.09l-.25.6c-3.1-1.75-6.27-3.41-9.43-5.08s-6.36-3.25-9.59-4.8-6.46-3.06-9.74-4.48S3079,1605.75,3075.66,1604.51Z"/><path class="cls-24" d="M3149.67,1576.05a8.18,8.18,0,0,0,.47,1l.52,1,1,2,1.73,3.22,4.94,8.56c.68,1.3,7.15,12.57,8.69,15.09-1.91-2.27-4.21-4.53-5.76-7-.79-1.26-1.51-2.54-2.25-3.81s-1.43-2.58-2.12-3.88c-1.37-2.61-2.69-5.24-3.92-7.91-.62-1.33-1.21-2.68-1.79-4-.28-.68-.56-1.36-.83-2A19,19,0,0,1,3149.67,1576.05Z"/><path class="cls-25" d="M3212.48,1448.38c-14.51-17.51-31.28-36.51-45.94-43.91-5.61-2.83-18.92-3.39-26.67-4.66,0,0-20.18-2.49-40.09.14-10.74,3.93-29.5,10.58-29.75,17-1.22,31.78-1.58,56.15-1.41,74.83,0,.06-.53,67.73,0,82.18,0,0,73.57,15.86,111.2,6.33,0,0,6.22-88.52-2.71-112.42l3.81,4.84S3196,1469.22,3212.48,1448.38Z"/><path class="cls-12" d="M3210.26,1451.13c-10,12.14-21,18.59-26.56,20.61l35.58,42.62-65.09,70.16,11.46,20c9-4.39,11.09-21,11.09-21s80.55-53.86,80.55-66.74C3257.29,1499.44,3210.26,1451.13,3210.26,1451.13Z"/><path class="cls-26" d="M3210.83,1450.29c-.56.63-1.06,1.3-1.65,1.9l-1.72,1.83-.86.92-.9.87-1.81,1.74c-.61.58-1.25,1.11-1.88,1.67-1.22,1.13-2.59,2.1-3.88,3.16a69.45,69.45,0,0,1-8.41,5.4l-1.11.58-1.12.55c-.74.37-1.51.7-2.27,1-.38.17-.77.31-1.16.46s-.77.31-1.16.44-1.07.38-1.6.53l-3.9-4.65-4.42-5.2c-2.94-3.48-5.95-6.9-8.93-10.34s-6-6.83-9.09-10.21-6.14-6.74-9.31-10c2.71,3.66,5.5,7.25,8.31,10.83s5.66,7.12,8.52,10.66,5.75,7,8.68,10.53l4.38,5.24,4.43,5.19.48.57.7-.18c.93-.25,1.73-.52,2.57-.83s1.63-.63,2.42-1,1.59-.73,2.35-1.14l1.16-.6,1.12-.64a61.67,61.67,0,0,0,8.45-5.9l1.91-1.7c.65-.56,1.25-1.17,1.85-1.77s1.22-1.19,1.8-1.81l1.68-1.9.84-1,.78-1,1.55-2c1-1.35,1.91-2.78,2.85-4.16Z"/><path class="cls-12" d="M3107.39,1399.23s14.61,8.66,26,0h0l-2.68-21.13-22.65-4.67-.66,25.8Z"/><path class="cls-27" d="M3107.7,1387.21l.35-13.78,23,7.14.64,5.17C3126.57,1387.59,3116.89,1389.84,3107.7,1387.21Z"/><path class="cls-15" d="M3091.19,1339c.61,4.14-1.65,7.86-5.06,8.3s-6.67-2.56-7.28-6.69,1.65-7.86,5.06-8.3S3090.58,1334.85,3091.19,1339Z"/><path class="cls-12" d="M3086.67,1361.17a30.56,30.56,0,0,1-1.11-5.73,57.68,57.68,0,0,1,.46-15.2c.15-1,.24-2,.31-3a31.44,31.44,0,0,1,3.35-12c6.44-12.67,21-19.77,35.4-17.23,19.4,3.42,31.41,21.94,26.78,39.93a7.39,7.39,0,0,1,6.41,1.11c3.41,2.62,3.47,8.07.13,12.17s-8.79,5.3-12.2,2.68a6.27,6.27,0,0,1-1.22-1.25,31.09,31.09,0,0,1-37,19.31,30.24,30.24,0,0,1-17.63-12.88,14.48,14.48,0,0,1-.84-1.26A28.22,28.22,0,0,1,3086.67,1361.17Z"/><path class="cls-16" d="M3122.15,1343.42a2.85,2.85,0,0,0,2.06,3.47,2.89,2.89,0,0,0,3.56-2,2.84,2.84,0,0,0-2.06-3.47A2.88,2.88,0,0,0,3122.15,1343.42Z"/><path class="cls-16" d="M3097.61,1338.47a2.86,2.86,0,0,0,2.06,3.48,2.9,2.9,0,0,0,3.56-2,2.85,2.85,0,0,0-2.06-3.47A2.89,2.89,0,0,0,3097.61,1338.47Z"/><path class="cls-20" d="M3120.25,1337.12a27.18,27.18,0,0,1,4.36-.21,14.77,14.77,0,0,1,4,.68,13.57,13.57,0,0,1,3.63,1.77l.45.28c.15.09.27.22.41.32l.86.65c.57.44,1.08,1,1.72,1.42a13.14,13.14,0,0,0-.93-2.07,10.76,10.76,0,0,0-1.44-1.82,9.64,9.64,0,0,0-4.07-2.49,10.23,10.23,0,0,0-4.78-.34A9.16,9.16,0,0,0,3120.25,1337.12Z"/><path class="cls-20" d="M3108.79,1334.64a9.09,9.09,0,0,0-3.08-3.39,10.14,10.14,0,0,0-4.49-1.66,9.66,9.66,0,0,0-4.75.58,11,11,0,0,0-2.07,1.07,12.18,12.18,0,0,0-1.71,1.49c.77-.15,1.45-.41,2.16-.58l1.05-.24.51-.12.52-.07a13.46,13.46,0,0,1,4.05-.1,14.64,14.64,0,0,1,3.93,1A28,28,0,0,1,3108.79,1334.64Z"/><path class="cls-15" d="M3113.29,1335.34a20.94,20.94,0,0,1-.63,6.05,15.63,15.63,0,0,1-1,2.95,7.9,7.9,0,0,1-2,2.72l-.41.28-.35.23a3.64,3.64,0,0,0-.48.32,2.27,2.27,0,0,0-.67.82,2.65,2.65,0,0,0,.06,2.2,8.63,8.63,0,0,0,4.14,3.82,7.17,7.17,0,0,1-5.53-3.15,4.08,4.08,0,0,1-.42-3.57,3.36,3.36,0,0,1,.47-.85,4,4,0,0,1,.65-.71,5.08,5.08,0,0,1,.77-.54,2.62,2.62,0,0,0,.27-.19l.23-.16a7.31,7.31,0,0,0,1.57-2,23.77,23.77,0,0,0,1.24-2.59C3111.92,1339.11,3112.58,1337.24,3113.29,1335.34Z"/><path class="cls-21" d="M3100.5,1352.57c.38,3.57,4.14,6.8,9.14,7.57s9.56-1.18,11-4.48Z"/><path class="cls-21" d="M3127.13,1911.35l55.54,0a3.11,3.11,0,0,0,3.11-3.11h0a3.11,3.11,0,0,0-3.11-3.11l-55.54,0a3.11,3.11,0,0,0-3.11,3.11h0A3.09,3.09,0,0,0,3127.13,1911.35Z"/><path class="cls-8" d="M3182.93,1886.22l2.06,17.29c.26,2.13-.94,4.06-2.5,4.07l-54.42,0a4,4,0,0,1-3.56-2.54c-.76-1.7-.91-4.26,1.52-7.71,4.73-6.69,20-8.48,28-14a2.82,2.82,0,0,1,1.57-.48l24.45,0C3181.5,1882.88,3182.71,1884.3,3182.93,1886.22Z"/><path class="cls-21" d="M3158.59,1892.93h0a1.18,1.18,0,0,0,.31-1.41c-1.07-2.36-4.42-8.13-11.21-6.94-.4.07-.66.59-.59,1.13v0c.06.52.42.86.8.79,6.09-1,8.93,4,9.8,6A.61.61,0,0,0,3158.59,1892.93Z"/><path class="cls-21" d="M3152.94,1895.16h0a1.18,1.18,0,0,0,.31-1.41c-1.07-2.36-4.42-8.13-11.21-6.94-.4.07-.66.59-.59,1.13v0c.06.52.42.86.8.79,6.09-1,8.93,4,9.8,6C3152.23,1895.2,3152.61,1895.36,3152.94,1895.16Z"/><path class="cls-21" d="M3147.68,1897.24h0a1.15,1.15,0,0,0,.31-1.41c-1.07-2.37-4.41-8.13-11.21-6.94a1,1,0,0,0-.59,1.13h0c.07.53.42.87.8.8,6.09-1,8.93,4,9.8,6C3147,1897.28,3147.36,1897.44,3147.68,1897.24Z"/><path class="cls-21" d="M3046.33,1911.35l55.54,0a3.1,3.1,0,0,0,3.1-3.11h0a3.11,3.11,0,0,0-3.11-3.11l-55.54,0a3.1,3.1,0,0,0-3.1,3.11h0A3.09,3.09,0,0,0,3046.33,1911.35Z"/><path class="cls-8" d="M3102.13,1886.22l2.06,17.29c.25,2.13-.94,4.06-2.5,4.07l-54.42,0a4,4,0,0,1-3.56-2.54c-.76-1.7-.92-4.26,1.52-7.71,4.73-6.69,20-8.48,28-14a2.85,2.85,0,0,1,1.58-.48l24.45,0C3100.7,1882.88,3101.9,1884.3,3102.13,1886.22Z"/><path class="cls-21" d="M3077.78,1892.93h0a1.15,1.15,0,0,0,.31-1.41c-1.07-2.36-4.41-8.13-11.21-6.94-.39.07-.65.59-.59,1.13v0c.06.52.41.86.8.79,6.08-1,8.93,4,9.79,6C3077.08,1893,3077.46,1893.13,3077.78,1892.93Z"/><path class="cls-21" d="M3072.13,1895.16h0a1.15,1.15,0,0,0,.31-1.41c-1.07-2.36-4.41-8.13-11.21-6.94-.39.07-.65.59-.59,1.13v0c.06.52.41.86.79.79,6.09-1,8.94,4,9.8,6C3071.43,1895.2,3071.81,1895.36,3072.13,1895.16Z"/><path class="cls-21" d="M3066.88,1897.24h0a1.17,1.17,0,0,0,.31-1.41c-1.07-2.37-4.42-8.13-11.21-6.94a1,1,0,0,0-.59,1.13h0c.06.53.42.87.8.8,6.09-1,8.93,4,9.8,6C3066.17,1897.28,3066.55,1897.44,3066.88,1897.24Z"/><path class="cls-20" d="M3155.9,1343.85l-.76-.17.16-6.9-2.25-6.61s-9.54-18.12-9.89-18.58-8.36-6.78-8.86-7.11-12.66.61-12.66.61-20.56-6.9-18.22,6,17,21,17.89,20.49c-2.22-3.06-1.7-11.1-1.7-11.1,10.4,15.78,31.7,27.57,31.7,27.57s2.51-1.68,6.4.33Z"/><rect class="cls-13" x="315.78" y="581.39" width="577.59" height="577.59" rx="44.3"/><rect class="cls-13" x="972.7" y="1254.63" width="577.59" height="577.59" rx="44.3"/><rect class="cls-18" x="1613.41" y="1264.1" width="577.59" height="577.59" rx="44.3"/><rect class="cls-18" x="981.82" y="581.39" width="577.59" height="577.59" rx="44.3"/><rect class="cls-13" x="1613.41" y="581.39" width="577.59" height="577.59" rx="44.3"/><path class="cls-21" d="M1008.83,742.28l41.32-18a2.52,2.52,0,0,0,1.3-3.32h0a2.52,2.52,0,0,0-3.32-1.3l-41.31,18a2.52,2.52,0,0,0-1.31,3.31h0A2.52,2.52,0,0,0,1008.83,742.28Z"/><path class="cls-10" d="M1042.22,705.52l7.12,12.2c.88,1.5.62,3.33-.54,3.83l-40.48,17.64a3.23,3.23,0,0,1-3.47-.74c-1.12-1-2.06-2.87-1.36-6.23,1.35-6.51,12.12-12.78,16.32-19.47a2.33,2.33,0,0,1,1-.87L1039,704C1040.07,703.5,1041.43,704.16,1042.22,705.52Z"/><path class="cls-21" d="M1026.28,718.39h0a1,1,0,0,0-.23-1.15c-1.56-1.41-5.92-4.62-10.59-1.53a.78.78,0,0,0-.07,1h0a.62.62,0,0,0,.85.33c4.19-2.74,8,.12,9.24,1.31A.5.5,0,0,0,1026.28,718.39Z"/><path class="cls-21" d="M1022.79,721.88h0a.94.94,0,0,0-.22-1.15c-1.57-1.41-5.92-4.62-10.59-1.54a.79.79,0,0,0-.08,1v0c.22.36.59.5.85.33,4.2-2.75,8,.11,9.24,1.31A.51.51,0,0,0,1022.79,721.88Z"/><path class="cls-21" d="M1019.56,725.13h0a1,1,0,0,0-.23-1.15c-1.56-1.42-5.92-4.62-10.59-1.54a.78.78,0,0,0-.07,1h0c.22.37.6.51.86.34,4.19-2.75,8,.11,9.24,1.31A.51.51,0,0,0,1019.56,725.13Z"/><path class="cls-21" d="M1050.28,740.79l41.31-18a2.51,2.51,0,0,0,1.31-3.31h0a2.52,2.52,0,0,0-3.32-1.31l-41.31,18a2.52,2.52,0,0,0-1.31,3.32h0A2.52,2.52,0,0,0,1050.28,740.79Z"/><path class="cls-10" d="M1083.67,704l7.12,12.19c.88,1.5.62,3.33-.54,3.84l-40.48,17.63a3.22,3.22,0,0,1-3.47-.73c-1.12-1-2.06-2.88-1.36-6.23,1.35-6.52,12.12-12.78,16.32-19.47a2.27,2.27,0,0,1,1-.87l18.19-7.93C1081.52,702,1082.88,702.68,1083.67,704Z"/><path class="cls-21" d="M1067.73,716.91h0a1,1,0,0,0-.23-1.15c-1.56-1.42-5.92-4.62-10.59-1.54a.78.78,0,0,0-.07,1h0a.63.63,0,0,0,.85.34c4.19-2.75,8,.11,9.24,1.31A.51.51,0,0,0,1067.73,716.91Z"/><path class="cls-21" d="M1064.24,720.39h0a.93.93,0,0,0-.22-1.14c-1.57-1.42-5.92-4.63-10.59-1.54a.79.79,0,0,0-.08,1h0c.22.37.59.51.85.33,4.2-2.74,8,.12,9.24,1.31C1063.73,720.65,1064.06,720.65,1064.24,720.39Z"/><path class="cls-21" d="M1061,723.64h0a1,1,0,0,0-.23-1.15c-1.56-1.41-5.92-4.62-10.59-1.53a.78.78,0,0,0-.07,1h0a.64.64,0,0,0,.86.33c4.19-2.74,8,.11,9.24,1.31A.5.5,0,0,0,1061,723.64Z"/><path class="cls-9" d="M1186.13,525.4s10.2,48-36.05,59.35-104.59,12.54-104.59,12.54L1044.41,709l-24.34,2.79S947.44,561.25,1033,531.61l78.23-4.56,32.06-4.33s32.08-10.11,32.56-8.6S1185.42,526.21,1186.13,525.4Z"/><path class="cls-16" d="M1005.41,397.58c-7-8.78-4.29-16.15,5.15-29.17,14.33-19.77,31.94-22.73,47-35.94,5.28-4.63,14-19.26,19.72-29.47a151.28,151.28,0,0,0,7.8-16.36c12.81-31,42.74-26,42.74-26s-1.55,39.24-1.66,40.34c0,.22-1.24.86-3.14,1.72,6,5.89,15.63,15.44,17.53,18.61,2.77,4.6,14.14,24.57,14.14,24.57s-19.7,54.71-21.56,70c-1,8.09-13.19,10.41-27,11.18-8.71,16.77-20.81,33.76-33.68,32.64-25-2.17-24.16-11.84-32.35-19.78s-25.63.4-36.85-13.22C994.73,416.33,1009.75,403.06,1005.41,397.58Z"/><path class="cls-12" d="M1095.14,429.78s8.71,88.54.51,100h33.46V424.51Z"/><path class="cls-16" d="M1181.83,277.56s9.78,14.72,14.77,20.55c12.56,14.69,14.18,10.08,22,22.71,8.42,13.63-.1,22.16-4.95,26.09s3.26,18.46-5.76,26.61c-11.82,10.66-22.75.6-30.88,6.58s-9.91,14.82-29.18,13.15-19.08-64.68-19.08-64.68,15.77-33.4,16.4-33.68S1181.83,277.56,1181.83,277.56Z"/><path class="cls-12" d="M1131.69,367.12s32.16-5.92,47-5.42-9,38.95-9,38.95l-24.16.54s-14.8-16.54-13.83-18.46,0-14.54,0-14.54Z"/><path class="cls-12" d="M1160.37,336.43l8.48,25.75s-7.39,15.27-30,8.68c0,0,2.58-5.33-.89-16.31C1134.43,343.32,1160.37,336.43,1160.37,336.43Z"/><path class="cls-28" d="M1160.37,336.43l4,12c-2.37,8.79-10.07,14.77-24.59,16.63a34.67,34.67,0,0,0-1.8-10.54C1134.43,343.32,1160.37,336.43,1160.37,336.43Z"/><path class="cls-15" d="M1108.62,317.58c1.84,4.18.61,8.76-2.73,10.23s-7.55-.73-9.38-4.92-.61-8.76,2.73-10.23S1106.78,313.4,1108.62,317.58Z"/><path class="cls-12" d="M1110.49,342.27a34.4,34.4,0,0,1-2.81-5.71,65.12,65.12,0,0,1-4-16.15c-.14-1.08-.33-2.15-.55-3.21a35.32,35.32,0,1,1,69.93-8,7.61,7.61,0,0,1,6.86-.72c4.24,1.76,5.9,7.49,3.69,12.79s-7.42,8.17-11.66,6.41a6.94,6.94,0,0,1-1.6-1c-1.31,17.33-15.12,31.06-32.11,31.23a31.7,31.7,0,0,1-21.74-8.38c-.38-.31-.79-.67-1.22-1.09A30.63,30.63,0,0,1,1110.49,342.27Z"/><path class="cls-15" d="M1118.56,311.15a21.53,21.53,0,0,1,1.13,6,16.17,16.17,0,0,1-.11,3.1,7.75,7.75,0,0,1-1.07,3.17l-.29.38-.26.32c-.11.16-.28.28-.35.45a2.26,2.26,0,0,0-.39,1,2.7,2.7,0,0,0,.68,2.08,8.34,8.34,0,0,0,4.91,2.47,6.84,6.84,0,0,1-6-1.43,4.13,4.13,0,0,1-1.4-3.29,3,3,0,0,1,.19-.95,3.56,3.56,0,0,1,.4-.86,5.07,5.07,0,0,1,.55-.74,2,2,0,0,0,.2-.26l.17-.21a7.69,7.69,0,0,0,.87-2.41,25.17,25.17,0,0,0,.41-2.82C1118.36,315.14,1118.44,313.17,1118.56,311.15Z"/><path class="cls-16" d="M1130.52,315.26a3.08,3.08,0,1,0,3-3.12A3.08,3.08,0,0,0,1130.52,315.26Z"/><path class="cls-16" d="M1107.61,315.82a3.09,3.09,0,1,0,3.06-3.12A3.09,3.09,0,0,0,1107.61,315.82Z"/><path class="cls-29" d="M1131,335.74a9.85,9.85,0,0,0-8.14,1.09s-4.27-2.67-7.63-.12a8.1,8.1,0,0,0,8.57,5.92A7.24,7.24,0,0,0,1131,335.74Z"/><path class="cls-15" d="M1134.64,333.47a21.44,21.44,0,0,1-2.49,1.75,20.49,20.49,0,0,1-2.66,1.41,18.17,18.17,0,0,1-5.75,1.54,15.48,15.48,0,0,1-5.89-.65,21.67,21.67,0,0,1-5.4-2.7,17.73,17.73,0,0,0,2.44,1.87,15.94,15.94,0,0,0,2.77,1.39,14.09,14.09,0,0,0,3,.77,14.79,14.79,0,0,0,3.12.09,16.12,16.12,0,0,0,5.94-1.78A17.46,17.46,0,0,0,1134.64,333.47Z"/><path class="cls-16" d="M1129.37,306a32.36,32.36,0,0,1,4.54-.92,15.76,15.76,0,0,1,4.29.06,14.49,14.49,0,0,1,4.07,1.25,21.26,21.26,0,0,1,2,1c.68.37,1.31.83,2.07,1.2a13.1,13.1,0,0,0-1.29-2.11,10.6,10.6,0,0,0-1.8-1.74,10,10,0,0,0-4.71-2,10.43,10.43,0,0,0-5.09.49A9.47,9.47,0,0,0,1129.37,306Z"/><path class="cls-16" d="M1115.29,306a9.43,9.43,0,0,0-4.41-2.25,10.42,10.42,0,0,0-5.11.14,9.91,9.91,0,0,0-4.42,2.57,10.47,10.47,0,0,0-1.58,1.95,13,13,0,0,0-1,2.25c.72-.46,1.28-1,1.91-1.45s1.21-.92,1.88-1.25a14.31,14.31,0,0,1,3.89-1.73,15.64,15.64,0,0,1,4.25-.59A32.9,32.9,0,0,1,1115.29,306Z"/><path class="cls-25" d="M1114.36,439.74s6.27,18.35,7.41,28.1c2.84,24.21-2.4,45-7.41,58.78-7,19.33,52.54,8.6,53.71,8S1218.44,515,1218.44,515l3.71-37.95,5.67-37.32-2.64-22Z"/><path class="cls-12" d="M1208.72,386.37s-7.62.67-6.79,13.92,7,38.5,7,38.5,60.13,130.3,73.31,141.54a4.1,4.1,0,0,0,2.55,1l23.15.3,17.24-.22c-1.71-2.33-2.47-2.84-5.26-3.58l-18.89-5a2.81,2.81,0,0,1-1.74-1.37l-6-11L1247.65,424c-4.65-10.84-15.72-17-23.32-26C1218.77,391.39,1212.71,385.72,1208.72,386.37Z"/><path class="cls-25" d="M1131.69,367.12s21.86,25.52,47-5.42c0,0,27.41-2.23,47.62,12.12s32.31,46.58,32.31,46.58-36.61,18.46-45.69,19.34H1111.25a90.42,90.42,0,0,1-30.46-8.79S1083.36,379.71,1131.69,367.12Z"/><path class="cls-5" d="M1196.6,401.19c1.05,3.13,2,6.3,2.91,9.47s1.8,6.35,2.64,9.54,1.62,6.41,2.32,9.64,1.37,6.47,1.89,9.75l-.77-.77a19.83,19.83,0,0,0,3.35,0c1.16-.07,2.32-.24,3.47-.41,2.3-.41,4.61-.85,6.88-1.48l1.71-.46,1.69-.51c1.12-.36,2.26-.68,3.37-1.08l3.35-1.16,3.31-1.28c2.22-.83,4.38-1.81,6.58-2.71l6.48-2.95,6.42-3.11c2.11-1.09,4.23-2.18,6.37-3.24-2,1.28-4,2.52-6.09,3.76s-4.14,2.38-6.22,3.54-4.24,2.2-6.38,3.27l-3.25,1.51c-1.09.51-2.17,1-3.29,1.45a103,103,0,0,1-13.57,4.79l-1.74.47-1.76.4c-1.17.29-2.37.47-3.57.68s-2.4.33-3.62.4a19.93,19.93,0,0,1-3.78,0l-.67-.07-.1-.7c-1-6.48-2.31-12.93-3.68-19.37l-2.09-9.66Z"/><path class="cls-5" d="M1119.33,393.78q-2.14,5.63-3.89,11.3a96.6,96.6,0,0,0-2.83,11.51,57.64,57.64,0,0,0-.78,5.84,42.59,42.59,0,0,0-.15,5.87c.15,3.91,6,22.32,7.65,26-2.4-3.23-8.72-21.79-9.14-25.84a42.06,42.06,0,0,1,.53-12.17c.38-2,.82-4,1.37-5.91s1.19-3.86,1.93-5.74A61.68,61.68,0,0,1,1119.33,393.78Z"/><path class="cls-16" d="M1173.1,309.23s-37.55-9.06-55.49-34.57c0,0-.31-23.24,34.16-18C1185.27,261.81,1193.11,294.41,1173.1,309.23Z"/><path class="cls-8" d="M1220.1,513.63a43,43,0,0,1,4.71,44.88c-5,10.09-14.38,19.51-31.72,23.78-46.24,11.38-104.6,12.54-104.6,12.54l-1.08,111.71-24.34,2.79S990.44,558.79,1076,529.15l78.23-4.56,32.06-4.33s32.08-10.11,32.56-8.6A10,10,0,0,0,1220.1,513.63Z"/><path class="cls-5" d="M1075.49,597.81c1.24-.22,2.48-.43,3.71-.72s2.43-.62,3.63-1c.6-.18,1.2-.39,1.8-.6a12.78,12.78,0,0,1-1.83-.53,15.31,15.31,0,0,1-3.32-1.7,19.12,19.12,0,0,1-2.78-2.45,17.76,17.76,0,0,1-2.18-2.94l1.23,1.33c.44.42.85.86,1.31,1.24a17.87,17.87,0,0,0,2.87,2.12,16.57,16.57,0,0,0,3.19,1.5,12.38,12.38,0,0,0,3.38.68l2,.08-1.78.83a24.12,24.12,0,0,1-3.66,1.28,37.16,37.16,0,0,1-3.74.8c-1.26.2-2.52.38-3.79.47s-2.53.16-3.8.15C1073,598.19,1074.25,598,1075.49,597.81Z"/><path class="cls-12" d="M1379.31,1622.83l-16.6-4.07-57.64-13.47-18.8,11.9s-11.9,51.06-11,51.06,31.64,17.86,37.28,16.61,68.91,4.07,71.42-2.82,14.41-30.08,12.84-31S1379.31,1622.83,1379.31,1622.83Z"/><polygon class="cls-12" points="1308.06 1561.48 1305.07 1605.29 1347.78 1631.61 1364.78 1623.24 1365.73 1569 1308.06 1561.48"/><path class="cls-15" d="M1365.11,1604.27l.62-35.27-57.67-7.52-1.24,18.15A114.2,114.2,0,0,0,1365.11,1604.27Z"/><path class="cls-16" d="M1248.71,1495.37s-28-69.86,12-102.8,86.71-36.11,120.41-24.11,60.14,66,50.34,100.28l-108.75-16.86Z"/><path class="cls-15" d="M1419.59,1483.34c-2.42,10.22,2.49,20,11,21.74s17.32-5.07,19.74-15.3-2.49-20-11-21.74S1422,1473.11,1419.59,1483.34Z"/><path class="cls-12" d="M1426.27,1539.68a76.75,76.75,0,0,0,4-14.11c2.66-13.08,2.84-26.53,2-38.1-.17-2.48-.19-5-.16-7.46a78,78,0,0,0-5.89-30.62c-13.5-32.94-48.63-53.56-85.39-50.06-49.53,4.72-83.64,48.63-75.81,94.54-5.67-1.91-11.61-1.57-16.37,1.5-9.13,5.88-10.43,19.49-2.91,30.4s21,15,30.14,9.11a16.79,16.79,0,0,0,3.33-2.88,78,78,0,0,0,89.06,55.59,76.88,76.88,0,0,0,47.07-28.7,35.78,35.78,0,0,0,2.37-3A70.26,70.26,0,0,0,1426.27,1539.68Z"/><path class="cls-16" d="M1343.86,1494.52a7.72,7.72,0,0,1-6.37,8.91,7.8,7.8,0,0,1-9.18-6,7.72,7.72,0,0,1,6.37-8.91A7.8,7.8,0,0,1,1343.86,1494.52Z"/><path class="cls-16" d="M1408.19,1485.91a7.92,7.92,0,1,1-9.19-6A7.73,7.73,0,0,1,1408.19,1485.91Z"/><path class="cls-16" d="M1348.77,1481.08a49.86,49.86,0,0,0-11.58-2.59,36.48,36.48,0,0,0-11.53.69,30.2,30.2,0,0,0-5.48,1.77c-.9.35-1.74.8-2.61,1.22-.44.21-.84.48-1.27.71s-.85.46-1.25.73a60.06,60.06,0,0,0-9.22,7.4,31.4,31.4,0,0,1,7.93-9.11,28.74,28.74,0,0,1,11.27-5.37,29.87,29.87,0,0,1,12.52-.13,32.12,32.12,0,0,1,5.9,1.77A25.14,25.14,0,0,1,1348.77,1481.08Z"/><path class="cls-16" d="M1380.35,1476.85a24.52,24.52,0,0,1,4.36-4.21,31.84,31.84,0,0,1,5.23-3.26,30.06,30.06,0,0,1,12.11-3.17,28.28,28.28,0,0,1,6.3.44,27.68,27.68,0,0,1,6,1.78,31.16,31.16,0,0,1,10.05,6.7,60.21,60.21,0,0,0-10.83-4.71,14,14,0,0,0-1.41-.38c-.47-.11-.93-.26-1.4-.35-1-.18-1.89-.39-2.85-.49a31.62,31.62,0,0,0-5.75-.27,36.68,36.68,0,0,0-11.31,2.37A49.75,49.75,0,0,0,1380.35,1476.85Z"/><path class="cls-16" d="M1265.08,1493.87s53.79-29.66,79.48-67.23c0,0,1.79,18.47-3.72,25.77,2.18,1,39.38-19.24,44.6-49.3s-47-11.76-47-11.76-31.16-.75-32.41.08-21.37,16.32-22.25,17.42-24.23,43.94-24.23,43.94l-5.35,15.49-5.51,27.09Z"/><path class="cls-29" d="M1357.8,1537.32s8.77-4.4,18.15-.11c0,0,8.6-6.88,16.69-2.49,0,0-1.63,13.85-17.12,15S1357.8,1537.32,1357.8,1537.32Z"/><path class="cls-15" d="M1349.11,1533.6a47.63,47.63,0,0,0,5.94,3,48.29,48.29,0,0,0,6.25,2.2,41.41,41.41,0,0,0,13,1.55,35.52,35.52,0,0,0,12.72-3.1,49.06,49.06,0,0,0,11.08-7.27,40.87,40.87,0,0,1-4.82,4.66,38.38,38.38,0,0,1-5.68,3.73,33.44,33.44,0,0,1-6.4,2.53,35.75,35.75,0,0,1-6.83,1.09,36.49,36.49,0,0,1-13.52-2A38.55,38.55,0,0,1,1349.11,1533.6Z"/><path class="cls-15" d="M1372.37,1487.17a87.83,87.83,0,0,1,7.22,9.9,82.9,82.9,0,0,1,5.89,10.75,31.15,31.15,0,0,1,2,6,11.38,11.38,0,0,1,.17,1.69c0,.3,0,.63-.07.94a4.15,4.15,0,0,1-.33,1c-.1.18-.21.36-.32.53l-.29.32c-.2.2-.38.42-.58.61-.42.36-.83.74-1.27,1.06a30.75,30.75,0,0,1-5.46,3.32,40.73,40.73,0,0,1-5.88,2.35,70.57,70.57,0,0,0,10-7.11c.37-.33.68-.7,1-1l.45-.54.22-.26a.58.58,0,0,1,0-.14,4.4,4.4,0,0,0-.12-2.29,32.23,32.23,0,0,0-2-5.45c-1.59-3.64-3.45-7.2-5.27-10.79S1374.13,1490.85,1372.37,1487.17Z"/><path class="cls-16" d="M1305.07,1383.19s-49.5-95.23-132.19-87.08-100.87,75.18-97.11,108.38,26.31,70.17,5,116.53-16.29,115.92,48.87,110.59,50.74-71.94,51.37-95.65,46.36-21.23,35.09-64.45-41.35-87.69.62-94,67,13.16,67,13.16Z"/><path class="cls-21" d="M1286.52,1764.73l1-105.87c54.5,27.56,104.62-5.64,104.62-5.64l13.71,111.51Z"/><path class="cls-6" d="M1383.86,1764.73l-4.55-141.9s58.26,7.52,68.6,87.4c1.78,13.72,3,32.49,3.86,54.5Z"/><path class="cls-6" d="M1140.65,1764.73c8.44-21.45,17-41.38,25.55-58.78a155.15,155.15,0,0,1,89.26-78.24l30.81-10.52s9,63.39,17.43,147.54Z"/><path class="cls-12" d="M1198.52,1002.37s63.67-10.38,154.26,0-50.21,90.61-64.19,85.44-80.75-21.75-83.34-26.92S1198.52,1002.37,1198.52,1002.37Z"/><rect class="cls-12" x="1245.16" y="955.65" width="58.71" height="102.87"/><path class="cls-15" d="M1303.77,973.23V938.14h-58.61V968C1257.77,974.76,1276.46,978.65,1303.77,973.23Z"/><path class="cls-12" d="M1396.18,833.4c-6.11-3-13.21-2.48-19.64.77a104.36,104.36,0,0,0-208.72,0c-6.43-3.25-13.53-3.78-19.64-.77-11.74,5.78-15.38,22.33-8.15,37s22.61,21.83,34.35,16a19.2,19.2,0,0,0,4.39-3c6.73,47.74,46.61,83.52,93.41,82.86,46.8.66,86.69-35.12,93.41-82.86a19.2,19.2,0,0,0,4.39,3c11.74,5.78,27.11-1.4,34.35-16S1407.92,839.18,1396.18,833.4Z"/><path class="cls-16" d="M1245.81,854.69a8.79,8.79,0,1,1-9.25-8.28A8.78,8.78,0,0,1,1245.81,854.69Z"/><path class="cls-16" d="M1321.42,855.5a8.78,8.78,0,1,1-9.25-8.28A8.77,8.77,0,0,1,1321.42,855.5Z"/><path class="cls-10" d="M1255.45,836.74a82.94,82.94,0,0,0-12.75-3.46,43.51,43.51,0,0,0-12.28-.5,40.47,40.47,0,0,0-11.85,3l-1.5.56c-.49.19-.94.48-1.43.7l-2.94,1.42c-2,1-3.8,2.24-6,3.22a39.32,39.32,0,0,1,4.06-5.69c1.72-1.57,3.3-3.44,5.4-4.63a28.66,28.66,0,0,1,13.62-5,29.9,29.9,0,0,1,14.33,2.06A27.68,27.68,0,0,1,1255.45,836.74Z"/><path class="cls-10" d="M1290.85,836.6a27.71,27.71,0,0,1,11.27-8.34,29.94,29.94,0,0,1,14.31-2.16,28.61,28.61,0,0,1,13.65,4.85c2.11,1.18,3.71,3,5.44,4.59a38.58,38.58,0,0,1,4.1,5.66c-2.19-1-4-2.2-6-3.17l-2.95-1.4c-.5-.21-.94-.5-1.44-.69l-1.5-.55a40.57,40.57,0,0,0-11.87-2.93,43.2,43.2,0,0,0-12.28.6A82.54,82.54,0,0,0,1290.85,836.6Z"/><path class="cls-10" d="M1385.72,721c-16.59-36.42-89.9-64.6-136.86-58.24,0,0-.17,11.88,3.69,18.48-4.72-6.05-23.46-24.48-70.44-13.42,0,0,6.32,15.36,9.79,21.17,0,0-16.42-.08-29.79-6.55,0,0-14.85,25.16-3.27,49.48l-15.9-6.36s5.16,55.24,11.62,89.1h0c.66,10.25,1.56,16.78,1.56,16.78.86,0,10.11-1.28,22.66,11.38l2.64-1.33c10.49-5.31,12.6-52.61,29.26-71.6,28.74-12.16,92.17-14.2,114.6-7,26.15,8.46,26.91,72.33,39.19,78.55l2.64,1.33c10.12-13.63,21.79-11.24,22.65-11.27C1389.76,831.53,1402.32,757.4,1385.72,721Z"/><path class="cls-15" d="M1274.1,829.05a126.06,126.06,0,0,1,7.9,15.16,119.17,119.17,0,0,1,6,16.09,45.26,45.26,0,0,1,1.6,8.69,14.92,14.92,0,0,1-.08,2.39,11.73,11.73,0,0,1-.25,1.29,5.5,5.5,0,0,1-.63,1.39,8.32,8.32,0,0,1-.53.68l-.44.39c-.3.24-.59.52-.9.74-.62.43-1.23.88-1.88,1.25a40.89,40.89,0,0,1-7.93,3.61,54.52,54.52,0,0,1-8.3,2.18c5.13-2.44,10.31-4.87,14.71-8.06a19.22,19.22,0,0,0,1.55-1.25l.7-.67.34-.32a.76.76,0,0,1,.09-.18,6.52,6.52,0,0,0,.25-3.22,45.48,45.48,0,0,0-1.67-8c-1.46-5.37-3.33-10.69-5.12-16S1275.79,834.51,1274.1,829.05Z"/><path class="cls-21" d="M1300,903.57c-2.13,8.76-12.34,15.47-24.69,15.61s-22.71-6.36-25-15.07Z"/><path class="cls-10" d="M1335.26,887.4s-20.94,10.69-34.3,0a23.35,23.35,0,0,0-26.45-2.33,23.35,23.35,0,0,0-26.45,2.33c-13.36,10.69-34.3,0-34.3,0s7.31,13.21,22.13,17.85l-4.11,1.6c8,3.33,18.81.8,26-1.7,1.55-.44,3.12-.94,4.75-1.58a32.57,32.57,0,0,0,8.49-4.66s2.82-.33,3.45-1.86c.63,1.53,3.45,1.86,3.45,1.86a32.57,32.57,0,0,0,8.49,4.66c1.63.64,3.2,1.14,4.75,1.58,7.23,2.5,18,5,26,1.7l-4.11-1.6C1328,900.61,1335.26,887.4,1335.26,887.4Z"/><path class="cls-10" d="M1376,834.17l-14-11.92c-3.15,25.45-13.8,80.91-48.43,112.65l-.07.07a16.56,16.56,0,0,1-21,1,27,27,0,0,1-9-11.9h-15a26.51,26.51,0,0,1-21,16.8,23.39,23.39,0,0,1-19-5.94l-.07-.06c-34.62-31.74-45.28-87.2-48.43-112.65l-14.2,11s11.74,16.9,11.18,50.21a101.07,101.07,0,0,0,4,23.27h0s5.61,31,17.51,43.17l1.73-6.52a80,80,0,0,0,23.41,18.59c5.71,5.89,16.1,15.29,26.76,18.28l-4.21-9.85.39-.37c6.7,3.37,25,11.34,28.69,14.9,0,0,14.66-8.57,25.9-14.44,1.12-.59,2.07-1.13,2.93-1.65l-1.48,8.69c2.61-.83,11.28-9.75,17.59-16.54a79.69,79.69,0,0,0,20.59-16.43l1.22,8.71c10.29-9.52,16.89-39.78,16.89-39.78h0a105.66,105.66,0,0,0,6.15-30C1364.51,850.1,1376,834.17,1376,834.17Z"/><path class="cls-8" d="M1491.5,1088c-26.07-40.39-83.76-81.79-139.47-92.94-11.59,16.54-36.73,42.14-81.55,42.49-43.55.34-61.6-24-68.87-40.82-21.52,5.5-57.7,18-85.23,44.36-10.57,10.12-26,26.91-43.06,46.91Z"/><path class="cls-30" d="M2123.32,1764.32c-13.72-42.13-25.91-73.34-34.56-83.87-38.79-47.2-113-50.34-113-50.34s-4.58,63.58-9.65,134.21Z"/><path class="cls-10" d="M1822.8,1466.38s-18.53-93.49,35.65-126.37,110-27.06,147.32-4.93,57.3,95.46,38.58,136.31l-125-44Z"/><polygon class="cls-12" points="1880.08 1551.45 1871.03 1655.84 1965.8 1651.44 1954.87 1558.99 1880.08 1551.45"/><path class="cls-15" d="M1960.07,1603l-5.2-44-74.79-7.54L1877,1587.6C1891.81,1602,1918.56,1616.93,1960.07,1603Z"/><path class="cls-15" d="M2018.17,1481.11c-5.69,11.45-2.67,24.33,6.76,28.76s21.69-1.26,27.38-12.71,2.68-24.34-6.75-28.77S2023.87,1469.65,2018.17,1481.11Z"/><path class="cls-12" d="M2010.21,1549.69a94.86,94.86,0,0,0,8.65-15.62c6.78-14.77,10.75-30.65,13.07-44.57.49-3,1.16-5.94,1.9-8.88a96,96,0,0,0,1.68-37.9c-6.59-42.71-41.94-76.76-86-82.68-59.29-8-111.53,34.71-115.22,91.23-6.1-3.8-13.15-5-19.57-2.7-12.34,4.47-17.68,20.24-11.93,35.22s20.4,23.51,32.73,19a19.3,19.3,0,0,0,4.71-2.5c1.9,48.41,40,88,88.7,90.25a92.5,92.5,0,0,0,63.14-21.11c1.14-.82,2.34-1.78,3.62-2.91A85.75,85.75,0,0,0,2010.21,1549.69Z"/><path class="cls-16" d="M1924.51,1465.39a8.84,8.84,0,1,1-8.41-9A8.74,8.74,0,0,1,1924.51,1465.39Z"/><path class="cls-16" d="M2000.11,1473.68a8.84,8.84,0,1,1-8.42-9A8.76,8.76,0,0,1,2000.11,1473.68Z"/><path class="cls-10" d="M1935.61,1446a91.71,91.71,0,0,0-12.92-3,46.52,46.52,0,0,0-12.28-.26,42.75,42.75,0,0,0-11.81,3c-2,.62-3.82,1.79-5.88,2.63s-3.83,2.19-6.06,3.14a35.45,35.45,0,0,1,3.92-5.73,30,30,0,0,1,5.35-4.68,29.09,29.09,0,0,1,13.7-5.12,30.47,30.47,0,0,1,14.52,1.88A27.09,27.09,0,0,1,1935.61,1446Z"/><path class="cls-10" d="M1974.55,1450.25a27.55,27.55,0,0,1,12.86-5.81,30.7,30.7,0,0,1,14.63.9,28.73,28.73,0,0,1,12.41,7.61,29.56,29.56,0,0,1,4.31,5.6,35.09,35.09,0,0,1,2.7,6.37c-2-1.36-3.56-2.91-5.31-4.23s-3.37-2.7-5.25-3.68a42.08,42.08,0,0,0-11-5.22,46.17,46.17,0,0,0-12.1-2.06A93.17,93.17,0,0,0,1974.55,1450.25Z"/><path class="cls-10" d="M1835.74,1452.66c-5.61-5.11-10.09-4.91-10.09-4.91l3.84-29.87,10.3-17.69s39.48-47.16,40.85-48.31,30.64-15.78,32.44-16.52,41.68,6.67,41.68,6.67,71.12-11.34,57.78,24.07-65.63,52.27-68.21,50.57c8.69-7.72,10.46-30.52,10.46-30.52C1916.77,1423.22,1846.65,1448.82,1835.74,1452.66Z"/><path class="cls-15" d="M1955.77,1464.68a106.57,106.57,0,0,1,6.78,12.63,98.14,98.14,0,0,1,5.11,13.42A36.1,36.1,0,0,1,1969,1498a13.47,13.47,0,0,1-.07,2c0,.35-.14.72-.21,1.08a5.17,5.17,0,0,1-.54,1.15c-.15.2-.3.39-.46.57l-.38.32c-.26.21-.5.44-.77.62-.53.36-1.06.74-1.61,1a35.45,35.45,0,0,1-6.8,3,48.87,48.87,0,0,1-7.12,1.81,80.51,80.51,0,0,0,12.62-6.71c.48-.33.89-.7,1.33-1l.6-.55.29-.28a.44.44,0,0,1,.08-.15,5.4,5.4,0,0,0,.21-2.68,36.72,36.72,0,0,0-1.43-6.64c-1.26-4.48-2.86-8.91-4.4-13.37S1957.22,1469.23,1955.77,1464.68Z"/><path class="cls-12" d="M1829.92,1630.84s142-.28,144.24-.14,13.09-1,17.1,3.19,10.94,27.32-8.82,38.65,22.24,11.81-31.36,21.25-37.53,22.18-78.16,5.66-45.87-9.44-47.27-24.07S1829.92,1630.84,1829.92,1630.84Z"/><path class="cls-15" d="M1919.93,1527c8.32,1,16.42,2.39,24.56,3.53a234.22,234.22,0,0,0,24.56,2.49c-8.15,2.19-16.77,1.78-25,.66A94.22,94.22,0,0,1,1919.93,1527Z"/><path class="cls-10" d="M2097.67,1764.32c-9.71-34.18-22.39-60.53-36-80.8a120.89,120.89,0,0,0-70.46-49.63c-.12.49-7.19,26.89-43.7,31.1-36.85,4.25-116.23-34.23-117.64-34.15h0c-41,2.55-76.47,10.25-94.94,31.79-11.66,13.59-31.84,52.94-53.88,101.69Z"/><path class="cls-31" d="M713.54,905s45.61-5.06,54.45,90l6,93H719.2s5.94-112.07,5-116.06S713.54,905,713.54,905Z"/><path class="cls-10" d="M526.52,1088c9-23,15.84-41.17,17-45.41l8.57,45.41H736.92c11.19-66.72,23.46-185.4-31.36-183.74L602.65,903s-67.37-7.4-88.73,18.9c-13.09,16.1-45.27,90.74-69.2,166.18Z"/><polygon class="cls-12" points="664.84 878.11 664.98 889.47 666.27 917.7 610.58 910.38 604.58 904.95 604.03 880.7 602.2 860.61 639.22 860.61 664.84 878.11"/><path class="cls-15" d="M711.73,788.78c-3.4,9.25-.16,19,7.24,21.68s16.16-2.57,19.56-11.82.17-19-7.23-21.68S715.14,779.53,711.73,788.78Z"/><path class="cls-15" d="M601.6,855.52s1.47,11.39,2.43,25.18a59.7,59.7,0,0,0,45.31,13A58.91,58.91,0,0,0,665,889.47c-.39-9-.26-17.33,1.13-21.32C669.94,857.18,601.6,855.52,601.6,855.52Z"/><path class="cls-12" d="M711,842.24a73.88,73.88,0,0,0,5.3-12.68,141.18,141.18,0,0,0,6.42-35.32c.15-2.34.43-4.67.75-7a76.26,76.26,0,1,0-151.73-8c-4.85-2.48-10.23-2.91-14.87-.64-8.91,4.35-11.72,16.9-6.28,28s17.07,16.63,26,12.28a14.4,14.4,0,0,0,3.34-2.28c5.09,37.18,36.65,64.93,73.3,63.07a68.45,68.45,0,0,0,45.73-20.92,32.92,32.92,0,0,0,2.49-2.51A66.08,66.08,0,0,0,711,842.24Z"/><path class="cls-16" d="M642.37,789.75a7.16,7.16,0,1,1-7.52-6.79A7.16,7.16,0,0,1,642.37,789.75Z"/><path class="cls-16" d="M701.18,789.75a7.16,7.16,0,1,1-7.52-6.79A7.16,7.16,0,0,1,701.18,789.75Z"/><path class="cls-15" d="M664.25,776.1c0,2.31-.07,4.61,0,6.92s.2,4.59.42,6.87a48.59,48.59,0,0,0,1.11,6.74,16.78,16.78,0,0,0,2.57,6.1,7.49,7.49,0,0,0,.51.61c.19.19.35.37.58.59s.44.43.64.67a6.43,6.43,0,0,1,.57.72,7.69,7.69,0,0,1,1.42,3.44,8.46,8.46,0,0,1-2.25,6.8,14,14,0,0,1-5.91,3.86,20.68,20.68,0,0,1-6.86,1.12,32.23,32.23,0,0,0,3.4-.6,19.21,19.21,0,0,0,3.23-1.1,14,14,0,0,0,5.38-3.92,7.54,7.54,0,0,0,1.81-6,6.63,6.63,0,0,0-1.23-2.89,4.94,4.94,0,0,0-.51-.62,7.67,7.67,0,0,0-.56-.58l-.64-.64a6.82,6.82,0,0,1-.6-.71,13.3,13.3,0,0,1-1.71-3.19,21.74,21.74,0,0,1-1-3.4,43,43,0,0,1-.92-6.94A73.84,73.84,0,0,1,664.25,776.1Z"/><path class="cls-8" d="M648.4,777.81a44.38,44.38,0,0,0-10.09-3.87,32,32,0,0,0-10.44-.8,28,28,0,0,0-5.13,1c-.85.22-1.67.53-2.5.82-.41.14-.81.34-1.22.5a10.82,10.82,0,0,0-1.21.53,54.56,54.56,0,0,0-9.17,5.75,29,29,0,0,1,8.22-7.51,24,24,0,0,1,5.16-2.41,24.4,24.4,0,0,1,5.61-1.2A26.13,26.13,0,0,1,638.88,772a28.2,28.2,0,0,1,5.09,2.4A22.57,22.57,0,0,1,648.4,777.81Z"/><path class="cls-8" d="M677.27,777.81a22.51,22.51,0,0,1,4.42-3.38,28.52,28.52,0,0,1,5.09-2.4A26.17,26.17,0,0,1,698,770.59a24.32,24.32,0,0,1,5.6,1.2,24,24,0,0,1,5.16,2.41,29,29,0,0,1,8.22,7.51,54.48,54.48,0,0,0-9.16-5.75,11.84,11.84,0,0,0-1.22-.53c-.41-.16-.81-.36-1.22-.5-.83-.29-1.65-.6-2.5-.82a28,28,0,0,0-5.13-1,32.06,32.06,0,0,0-10.44.8A44.31,44.31,0,0,0,677.27,777.81Z"/><path class="cls-12" d="M590,902.15s8.77,11.12,19.85,25.83c23.11,30.71,72.49,15.85,74-22.55,0-.47,0-.94,0-1.42Z"/><path class="cls-21" d="M543.49,1042.63a88.84,88.84,0,0,0,2.52-10.76c.69-3.62,1.18-7.27,1.65-10.91.87-7.31,1.34-14.66,1.54-22l.14-5.52,0-5.52c.06-3.68-.19-7.36-.24-11,0-1.85-.19-3.68-.27-5.52l-.27-5.53c-.23-3.68-.57-7.36-.76-11.05.61,3.64,1.12,7.31,1.66,11,.37,3.68.82,7.35,1.08,11l.34,5.54c.13,1.85.17,3.7.21,5.56l.09,5.55-.1,5.56a180.6,180.6,0,0,1-2,22.15c-.33,1.83-.61,3.66-1,5.48s-.74,3.63-1.22,5.43A72.31,72.31,0,0,1,543.49,1042.63Z"/><path class="cls-8" d="M719.09,718.74c-14.1-48.46-78.48-50.17-78.48-50.17-99.55,6.9-83.87,94.23-80.58,108.68,2.88-.67,6.84-.58,11.66,2a27,27,0,0,1,5,3.43c11.73-3.58,15.28-23.05,21.35-32.43,8.24-12.73,44.53-6.16,58.31-15.19a34,34,0,0,0,15.18-23c53.1,8.41,52.28,64.53,52.28,64.53a19.9,19.9,0,0,1,5.13-.26S731.69,762,719.09,718.74Z"/><path class="cls-29" d="M647,832.06a18,18,0,0,1,14.81,2s7.75-4.85,13.87-.22c0,0-2.84,11.56-15.58,10.78S647,832.06,647,832.06Z"/><path class="cls-15" d="M640.29,827.92a43.32,43.32,0,0,0,9.37,5.76,33.4,33.4,0,0,0,10.46,2.8,28.16,28.16,0,0,0,10.7-1.19,39.56,39.56,0,0,0,9.82-4.9,33.56,33.56,0,0,1-4.43,3.4,31.62,31.62,0,0,1-5,2.52,26.35,26.35,0,0,1-5.49,1.41,28.38,28.38,0,0,1-5.68.15,29.25,29.25,0,0,1-10.81-3.22A32.16,32.16,0,0,1,640.29,827.92Z"/><path class="cls-8" d="M594,703.49S503.27,664,457.85,727.75s-31.53,112.09-73,143.37c0,0,87.09,57.62,117.53-34.9S602.2,728.37,602.2,728.37Z"/><path class="cls-18" d="M636.75,1858.26l-477.86-110A43.6,43.6,0,0,1,126.18,1696l110-477.86a43.6,43.6,0,0,1,52.28-32.71l477.86,110a43.6,43.6,0,0,1,32.71,52.28L689,1825.55A43.6,43.6,0,0,1,636.75,1858.26Z"/><path class="cls-32" d="M523.44,1750.54c15.38-44.61,43.56-124.78,43.56-124.78s12.59,61.06,11.75,137.52Z"/><path class="cls-12" d="M407.51,1652.7c0-.1,0-.2,0-.3C407.5,1652.5,407.5,1652.6,407.51,1652.7Z"/><path class="cls-12" d="M407.12,1646.09c0-.14,0-.27,0-.4C407.11,1645.82,407.12,1646,407.12,1646.09Z"/><path class="cls-12" d="M406.76,1639.63a1.93,1.93,0,0,1,0-.24A1.93,1.93,0,0,0,406.76,1639.63Z"/><path class="cls-12" d="M406.13,1627.87v0Z"/><path class="cls-25" d="M253.62,1688.42c43.49-115.49,75.81-142.46,77.84-143.65C375,1519.18,508,1571.34,508,1571.34s51.38,18.42,58.82,54.38c3,14.63-4.62,70.4-14.76,131.42Z"/><path class="cls-32" d="M286.69,1696c.46-8.08,1.23-16.12,2.35-24,14.1-99.75,73.45-148.87,105.67-97.51a75.85,75.85,0,0,1,11.08,36.88c1,22.9,5.06,70.68,10.48,114.51Z"/><path class="cls-12" d="M405.39,1613c0-.16,0-.31,0-.47C405.38,1612.67,405.38,1612.82,405.39,1613Z"/><path class="cls-12" d="M405.61,1617.52c0-.11,0-.21,0-.33C405.6,1617.31,405.6,1617.41,405.61,1617.52Z"/><path class="cls-12" d="M405.87,1622.72c0-.22,0-.44,0-.66C405.84,1622.28,405.85,1622.5,405.87,1622.72Z"/><path class="cls-12" d="M493,1567.8l9.35-58.12-55.48-22-24.54,65.54a16.38,16.38,0,0,0,9.35,21c10.34,4.08,24.61,8.94,37.9,10.82A20.74,20.74,0,0,0,493,1567.8Z"/><path class="cls-15" d="M496.59,1545.36l5.74-35.68-55.48-22-10.39,27.75C444.64,1529.94,461.78,1547.42,496.59,1545.36Z"/><path class="cls-15" d="M565.15,1439.31c-6.08,9.93-4.57,21.92,3.37,26.78s19.31.75,25.39-9.17,4.57-21.92-3.38-26.78S571.22,1429.38,565.15,1439.31Z"/><path class="cls-12" d="M551.9,1501a87.55,87.55,0,0,0,9.06-13.46c7.34-12.85,12.29-26.95,15.6-39.42.71-2.68,1.57-5.31,2.48-7.92A90.06,90.06,0,1,0,405.14,1396c-5.05-4-11.18-5.74-17.08-4.18-11.31,3-17.47,16.86-13.74,31S390.25,1446,401.57,1443a17.29,17.29,0,0,0,4.39-1.87c-2.69,44.23,27.46,83.65,70.34,89.94a80.79,80.79,0,0,0,57.79-13.66,39.05,39.05,0,0,0,3.47-2.33A78,78,0,0,0,551.9,1501Z"/><path class="cls-15" d="M514.08,1412.94c-.34,5.15-.79,10.16-1,15.1s-.14,10,1.45,13.59l.33.57a5.87,5.87,0,0,0,.41.72,12.65,12.65,0,0,1,1.16,2.07,10,10,0,0,1,.87,4.84,10.6,10.6,0,0,1-4.73,7.9c-5,3.4-10.93,3.17-15.72,1.48,5.1-.39,10.07-1.64,13.19-4.63,1.46-1.5,2.5-3.23,2.36-5a5.63,5.63,0,0,0-.63-2.52,7,7,0,0,0-.72-1.22l-.55-.91-.62-1.07a20,20,0,0,1-1.61-8.43,41.1,41.1,0,0,1,.82-7.9A54,54,0,0,1,514.08,1412.94Z"/><path class="cls-33" d="M495.25,1400.09a81.31,81.31,0,0,0-11.16-3.89,40.2,40.2,0,0,0-10.84-1.31,36.73,36.73,0,0,0-10.73,1.73c-1.86.38-3.54,1.29-5.44,1.87s-3.59,1.66-5.65,2.33a33,33,0,0,1,4-4.87,26.6,26.6,0,0,1,5.16-3.79,25.31,25.31,0,0,1,12.58-3.46,26.47,26.47,0,0,1,12.69,3A24.08,24.08,0,0,1,495.25,1400.09Z"/><path class="cls-33" d="M529.33,1407.39a24.19,24.19,0,0,1,11.91-4.16,26.53,26.53,0,0,1,12.86,2.11,25.4,25.4,0,0,1,10.3,8,26.37,26.37,0,0,1,3.3,5.47,32.88,32.88,0,0,1,1.82,6c-1.64-1.4-2.89-2.95-4.32-4.31s-2.74-2.75-4.31-3.82a36.9,36.9,0,0,0-9.24-5.71,40,40,0,0,0-10.52-2.94A80.91,80.91,0,0,0,529.33,1407.39Z"/><path class="cls-16" d="M480.34,1418.94a8.06,8.06,0,1,1-8.61-7.47A8.06,8.06,0,0,1,480.34,1418.94Z"/><path class="cls-16" d="M548.35,1432.72a8.06,8.06,0,1,1-8.61-7.47A8,8,0,0,1,548.35,1432.72Z"/><path class="cls-33" d="M601.4,1386.34s15.29,1.92,21.33-3.41c0,0-19.88,2.8-23.66-20.71s-19.78-49.74-47.6-62.07-104.27-22.53-127.26-6.91-33.68,33.09-37.16,59.66-13.35,36-21,34.64a24.15,24.15,0,0,0,19.49,2.25s-3,11.37-13.64,12.72c0,0,24.37,2.63,32.48-11.25,0,0-5.74,28.57-13.17,33.79,0,0,20.69-4.18,34.82-50.24,0,0,84-14.47,104.57-48.77,0,0-18.17,34.85-31.77,38.14,0,0,32.51,8.46,56.57-20.86,0,0,20.34,23.88,24.16,38,3.68,13.59,2.3,45.61,1.9,47.86l17.4-33.21s7.06,8.53,19.9,5.91C618.79,1401.85,602.93,1393.72,601.4,1386.34Z"/><path class="cls-15" d="M466.85,1458.41a41.71,41.71,0,0,0,5.74,8.39,26.75,26.75,0,0,0,7.66,6,13.46,13.46,0,0,0,2.2,1.05,12.93,12.93,0,0,0,2.28.83l2.36.71c.81.11,1.63.25,2.45.41l1.23.22,1.25.07,2.54.2c1.7,0,3.41-.06,5.19,0a47.18,47.18,0,0,1-5.09,1.43l-2.65.3-1.34.13-1.34,0a23.17,23.17,0,0,1-10.5-2.69c-.78-.48-1.61-.9-2.34-1.44s-1.47-1.11-2.17-1.7l-1.9-1.95c-.59-.69-1.13-1.43-1.67-2.15A22.56,22.56,0,0,1,466.85,1458.41Z"/><rect class="cls-12" x="2480.2" y="759.31" width="51.3" height="21.18" transform="translate(1413.16 3152.77) rotate(-82.45)"/><path class="cls-12" d="M2471.5,695a7.85,7.85,0,0,1,7,1.21,37.66,37.66,0,0,1,74.66,9.9,7.87,7.87,0,0,1,7.06.65c3.92,2.63,4.44,8.72,1.16,13.62s-9.13,6.73-13,4.11a7.05,7.05,0,0,1-1.43-1.29c-4.67,16.76-20.63,27.67-37.34,25.21-16.77-2-29.34-16.68-29.48-34.07a7,7,0,0,1-1.72.87c-4.47,1.51-9.63-1.79-11.52-7.37S2467,696.49,2471.5,695Z"/><path class="cls-16" d="M2524.28,709.73a3.17,3.17,0,1,0,3.7-2.53A3.16,3.16,0,0,0,2524.28,709.73Z"/><path class="cls-16" d="M2497.19,706.43a3.17,3.17,0,1,0,3.7-2.52A3.17,3.17,0,0,0,2497.19,706.43Z"/><path class="cls-16" d="M2521.68,702.85a28.92,28.92,0,0,1,4.72-.63,15.74,15.74,0,0,1,4.42.4,14.7,14.7,0,0,1,4.1,1.65l.5.26c.17.1.32.22.48.32l1,.65c.66.45,1.25,1,2,1.44a14.06,14.06,0,0,0-1.19-2.23,11,11,0,0,0-1.71-1.91,10.28,10.28,0,0,0-4.63-2.42,10.84,10.84,0,0,0-5.22,0A10.09,10.09,0,0,0,2521.68,702.85Z"/><path class="cls-16" d="M2509,701.12a10,10,0,0,0-3.63-3.52,10.79,10.79,0,0,0-5-1.45,10.29,10.29,0,0,0-5.11,1.09,11.5,11.5,0,0,0-2.16,1.38,14.26,14.26,0,0,0-1.74,1.83c.83-.24,1.55-.59,2.3-.85l1.12-.36c.19,0,.36-.13.55-.18l.56-.12a14.66,14.66,0,0,1,4.39-.49,15.93,15.93,0,0,1,4.36.8A29.69,29.69,0,0,1,2509,701.12Z"/><path class="cls-34" d="M2480.57,655.26c7.67-12.24,35.23-18.84,51.72-14.33,0,0-.5,4.25-2.2,6.43,2-1.94,9.56-7.64,25.84-1.46,0,0-3,5.2-4.51,7.11a28.68,28.68,0,0,0,11-.93s4.11,9.7-1.18,17.85l6-1.52s-4.47,19.52-8.38,31.32h0c-.73,3.64-1.36,5.93-1.36,5.93-.31,0-3.56-.94-8.64,3l-.89-.61c-3.5-2.39-2-19.41-7.07-27-9.7-5.72-32.29-9.46-40.66-7.93-9.75,1.79-13,24.6-17.74,26.24l-1,.35c-3-5.35-7.26-5.05-7.56-5.1C2473.89,694.62,2472.91,667.5,2480.57,655.26Z"/><path class="cls-15" d="M2515.37,699.22a46.54,46.54,0,0,0-3.54,5,43.37,43.37,0,0,0-2.9,5.48,16.05,16.05,0,0,0-1,3,5.84,5.84,0,0,0-.08.86,2.53,2.53,0,0,0,0,.47,2,2,0,0,0,.16.53,2.2,2.2,0,0,0,.15.26l.14.16c.1.11.19.22.29.31a7.61,7.61,0,0,0,.61.54,15.25,15.25,0,0,0,2.67,1.67,21.05,21.05,0,0,0,2.87,1.17,33.81,33.81,0,0,1-4.89-3.58c-.18-.16-.33-.35-.49-.52l-.22-.27-.11-.14a.14.14,0,0,0,0-.06,2.41,2.41,0,0,1,.06-1.17,16.66,16.66,0,0,1,1-2.77c.78-1.85,1.7-3.66,2.59-5.49S2514.51,701.09,2515.37,699.22Z"/><path class="cls-21" d="M2502.56,724.64c.35,3.23,3.68,6.12,8.09,6.75s8.42-1.19,9.67-4.2Z"/><path class="cls-12" d="M2533.48,759.39l-51.67-6.85,11,24.89s23,4.13,25.28,3.36S2533.48,759.39,2533.48,759.39Z"/><path class="cls-20" d="M2546.27,919.43s22.85,203.77,19.15,274.78l-40.36,4.81-42-235.75-5.31.21-27.08,237.11H2414s-6.05-236.7,13.71-303.39S2546.27,919.43,2546.27,919.43Z"/><path class="cls-12" d="M2532.07,1209.4l.83,29.52,19.6,14.2s7.43-14.18,7.25-15.9,0-35.58,0-35.58Z"/><path class="cls-12" d="M2443.83,1209.4l-.84,29.52-19.59,14.2s-6.41-14.18-6.23-15.9-1-35.58-1-35.58Z"/><path class="cls-35" d="M2566.57,1191.57l-42.45,5.06a2,2,0,0,0-1.76,2.4l2.87,15a2,2,0,0,0,2.28,1.63l39.76-5.5a2,2,0,0,0,1.76-2l-.18-14.53A2,2,0,0,0,2566.57,1191.57Z"/><path class="cls-12" d="M2591.83,799.88l-13.11-38.43,10.9-2.44c23.1-.7,44.89-11.48,48.41-15.15,7.47-7.78-18.88-59.84-18.88-59.84l20.39-4.12s46.92,62.87,26.9,84.36-69,35.1-69,35.1Z"/><path class="cls-12" d="M2415,776.42l22.68-33.68-9.89-5.19c-22.12-6.7-40.35-22.79-42.79-27.25-5.18-9.46,33.83-52.84,33.83-52.84l-18.61-9.3s-61.69,48.47-48,74.43,57.49,51.88,57.49,51.88Z"/><path class="cls-35" d="M2410.44,1192.7l42.46,5.06a2,2,0,0,1,1.75,2.4l-2.87,15a2,2,0,0,1-2.28,1.63l-39.76-5.49a2,2,0,0,1-1.76-2l.18-14.54A2,2,0,0,1,2410.44,1192.7Z"/><path class="cls-6" d="M2405.7,776.08l21.81-41.1c13.41,6.09,34.36,11.56,45.08,14.15a42.67,42.67,0,0,1,12.55,5.28l.43.27a53.67,53.67,0,0,0,43.72,5.8l.49-.15a42.8,42.8,0,0,1,13.49-1.83c11,.29,32.68.48,47.21-1.9L2600.82,802a183.71,183.71,0,0,1-42.34,3.77l-6.59,130.56h0A304.43,304.43,0,0,1,2419,918.9l-1.06-.38,27.68-127.76A184,184,0,0,1,2405.7,776.08Z"/><path class="cls-35" d="M2587.47,1264.1l-55.44,0a3.11,3.11,0,0,1-3.11-3.11h0a3.12,3.12,0,0,1,3.11-3.1l55.44,0a3.1,3.1,0,0,1,3.1,3.1h0A3.1,3.1,0,0,1,2587.47,1264.1Z"/><path class="cls-6" d="M2531.76,1239l-2.05,17.26c-.26,2.13.93,4.06,2.5,4.06l54.32,0a4,4,0,0,0,3.55-2.53c.76-1.7.91-4.26-1.52-7.69-4.72-6.69-19.95-8.47-28-14a2.77,2.77,0,0,0-1.57-.48l-24.41,0C2533.2,1235.68,2532,1237.09,2531.76,1239Z"/><path class="cls-21" d="M2556.07,1245.71h0a1.14,1.14,0,0,1-.31-1.4c1.07-2.37,4.4-8.12,11.19-6.93.39.06.65.59.59,1.12v0c-.06.52-.41.86-.79.79-6.08-1-8.92,4-9.78,6C2556.77,1245.75,2556.39,1245.91,2556.07,1245.71Z"/><path class="cls-21" d="M2561.71,1247.94h0a1.16,1.16,0,0,1-.31-1.41c1.07-2.36,4.4-8.12,11.19-6.93.39.07.65.59.59,1.13h0c-.06.52-.41.86-.79.8-6.08-1-8.92,4-9.78,6C2562.41,1248,2562,1248.14,2561.71,1247.94Z"/><path class="cls-21" d="M2567,1250h0a1.17,1.17,0,0,1-.31-1.4c1.07-2.37,4.41-8.12,11.19-6.93a1,1,0,0,1,.59,1.12v0c-.06.52-.42.86-.8.8-6.08-1-8.91,4-9.78,6A.61.61,0,0,1,2567,1250Z"/><path class="cls-35" d="M2389.83,1264.1l55.44,0a3.1,3.1,0,0,0,3.1-3.11h0a3.1,3.1,0,0,0-3.1-3.1l-55.44,0a3.09,3.09,0,0,0-3.1,3.1h0A3.1,3.1,0,0,0,2389.83,1264.1Z"/><path class="cls-6" d="M2445.54,1239l2.05,17.26c.25,2.13-.94,4.06-2.5,4.06l-54.32,0a4,4,0,0,1-3.55-2.53c-.76-1.7-.92-4.26,1.51-7.69,4.73-6.69,20-8.47,28-14a2.74,2.74,0,0,1,1.57-.48l24.41,0C2444.1,1235.68,2445.31,1237.09,2445.54,1239Z"/><path class="cls-21" d="M2421.23,1245.71h0a1.16,1.16,0,0,0,.31-1.4c-1.07-2.37-4.41-8.12-11.19-6.93-.39.06-.66.59-.59,1.12v0c.07.52.42.86.8.79,6.08-1,8.92,4,9.78,6C2420.53,1245.75,2420.9,1245.91,2421.23,1245.71Z"/><path class="cls-21" d="M2415.59,1247.94h0a1.17,1.17,0,0,0,.31-1.41c-1.07-2.36-4.41-8.12-11.19-6.93a1,1,0,0,0-.59,1.13h0c.07.52.42.86.8.8,6.08-1,8.92,4,9.78,6C2414.88,1248,2415.26,1248.14,2415.59,1247.94Z"/><path class="cls-21" d="M2410.34,1250h0a1.14,1.14,0,0,0,.31-1.4c-1.07-2.37-4.4-8.12-11.19-6.93-.39.07-.65.59-.59,1.12v0c.06.52.41.86.79.8,6.08-1,8.92,4,9.78,6C2409.64,1250.05,2410,1250.21,2410.34,1250Z"/><path class="cls-18" d="M2251,627.26l501.29,69.09a43.6,43.6,0,0,0,49.15-37.24l69.09-501.29a43.61,43.61,0,0,0-37.25-49.15L2332,39.58a43.61,43.61,0,0,0-49.16,37.24l-69.09,501.29A43.61,43.61,0,0,0,2251,627.26Z"/><path class="cls-12" d="M2617.4,677s-5.86-2.33-6-7.18-3.41-2.6-3.69-.49S2604,681,2619.15,684s20.39-4.12,20.39-4.12Z"/><path class="cls-12" d="M2422.38,651.09s6.26-.72,7.68-5.36,4-1.62,3.69.49.52,12.28-14.9,11.24-18.61-9.3-18.61-9.3Z"/><path class="cls-9" d="M2608.83,603c11.56-46.71,32.88-130.68,32.88-130.68s18.33,60.86,24.44,138.58Z"/><path class="cls-12" d="M2482.2,514.15c0-.1,0-.21,0-.31C2482.17,513.94,2482.19,514.05,2482.2,514.15Z"/><path class="cls-12" d="M2481.21,507.47l-.06-.41Z"/><path class="cls-12" d="M2480.25,500.94a2,2,0,0,0,0-.24A2,2,0,0,1,2480.25,500.94Z"/><path class="cls-12" d="M2478.54,489.06l0-.19Z"/><path class="cls-8" d="M2329.18,564.42c33.66-121.24,64-151.56,66-153,41.91-29.94,181.69,10.93,181.69,10.93s53.85,14,64.68,49.86c4.4,14.58,1.71,71.91-3,134.8Z"/><path class="cls-9" d="M2363.45,569.14c-.26-8.25-.21-16.48.2-24.63,5.25-102.57,61-157.85,98.44-108.63a77.3,77.3,0,0,1,14.6,36.45c3.15,23.16,11.58,71.31,21.07,115.32Z"/><path class="cls-12" d="M2506.49,353.4l-10.08,73.16a10.57,10.57,0,0,0,4.68,10.32c10.45,6.78,34.22,18.81,59.41,8.33a10.45,10.45,0,0,0,6.24-8.28l9.11-66.08Z"/><path class="cls-15" d="M2501.09,392.58l5.4-39.18,69.36,17.45-4.58,33.24C2557.5,406.28,2532.36,406.89,2501.09,392.58Z"/><path class="cls-15" d="M2632.73,290.57c-5.41,11.08-2.63,23.57,6.21,27.9s20.39-1.13,25.8-12.2,2.63-23.56-6.2-27.9S2638.15,279.5,2632.73,290.57Z"/><path class="cls-12" d="M2624.91,357a92.19,92.19,0,0,0,8.21-15.09c6.44-14.27,10.25-29.64,12.5-43.12.48-2.89,1.12-5.75,1.83-8.59a95.57,95.57,0,0,0,1.77-36.7c-6-41.41-39-74.55-80.37-80.47a95.28,95.28,0,0,0-108.73,87.88c-5.71-3.72-12.33-4.93-18.38-2.71-11.61,4.28-16.71,19.53-11.39,34.07s19.06,22.86,30.67,18.59a18.22,18.22,0,0,0,4.43-2.4c1.55,46.9,37.18,85.45,82.91,87.8a85.29,85.29,0,0,0,59.44-20.17,43.4,43.4,0,0,0,3.42-2.8A82.65,82.65,0,0,0,2624.91,357Z"/><path class="cls-16" d="M2544.8,274.94a8.31,8.31,0,1,1-7.87-8.74A8.33,8.33,0,0,1,2544.8,274.94Z"/><path class="cls-16" d="M2615.79,283.29a8.31,8.31,0,1,1-7.86-8.74A8.31,8.31,0,0,1,2615.79,283.29Z"/><path class="cls-33" d="M2555.67,259a77.65,77.65,0,0,0-11.64-4.53,40.91,40.91,0,0,0-11.49-1.71,38.06,38.06,0,0,0-11.45,1.66l-1.46.38c-.48.13-.93.36-1.42.52l-2.9,1c-1.95.74-3.8,1.74-6,2.44a36.83,36.83,0,0,1,4.4-5c1.77-1.3,3.45-2.91,5.54-3.82a27,27,0,0,1,13.3-3.31,28.06,28.06,0,0,1,13.26,3.38A26.23,26.23,0,0,1,2555.67,259Z"/><path class="cls-33" d="M2589,262.4a26.05,26.05,0,0,1,11.43-6.74,28.19,28.19,0,0,1,13.67-.61,27,27,0,0,1,12.35,5.95c1.86,1.32,3.17,3.23,4.64,4.87a36.68,36.68,0,0,1,3.29,5.76c-2-1.13-3.57-2.48-5.33-3.6l-2.63-1.62c-.45-.25-.84-.56-1.29-.79l-1.35-.67a38,38,0,0,0-10.87-3.95,40.63,40.63,0,0,0-11.6-.67A77.39,77.39,0,0,0,2589,262.4Z"/><path class="cls-15" d="M2572.31,268.74a119.25,119.25,0,0,1,7.37,14.19,112.29,112.29,0,0,1,5.55,15.08,42.76,42.76,0,0,1,1.49,8.14,15.55,15.55,0,0,1-.08,2.24,10.61,10.61,0,0,1-.24,1.2,5.35,5.35,0,0,1-.59,1.3,5.23,5.23,0,0,1-.5.64l-.41.37c-.28.23-.55.48-.84.69-.58.4-1.16.83-1.76,1.17a38.26,38.26,0,0,1-7.42,3.37,52.42,52.42,0,0,1-7.76,2c4.8-2.28,9.64-4.55,13.75-7.53.53-.37,1-.78,1.46-1.18l.65-.62.32-.31a.6.6,0,0,1,.08-.16,6.17,6.17,0,0,0,.24-3,43.58,43.58,0,0,0-1.55-7.47c-1.36-5-3.1-10-4.76-15S2573.88,273.85,2572.31,268.74Z"/><path class="cls-33" d="M2499.89,143.86s29.3-20.59,89.85-10.22,68.67,44.55,67.16,91.92l-7,51.37s-16.53-14.36-32.21-63.28c0,0-38.31,35.95-52.68,29.65s9.13-32.63,9.13-32.63S2501,266,2460.06,261.48c0,0-16.94-75.71,16.29-99,0,0-23-1.34-23.75-6.14s12.16-10.46,33.9-5.45c0,0-12.34-33.46-3.22-35.82S2499.89,143.86,2499.89,143.86Z"/><path class="cls-21" d="M2590.27,339.83c-4,9.62-16.86,15.46-31,13.38s-24.7-11.38-25.77-21.75Z"/><path class="cls-12" d="M2476.44,474c0-.17-.05-.32-.07-.48C2476.39,473.69,2476.41,473.84,2476.44,474Z"/><path class="cls-12" d="M2477.07,478.6c0-.11,0-.22-.05-.33C2477,478.38,2477.06,478.49,2477.07,478.6Z"/><path class="cls-12" d="M2477.8,483.85l-.09-.66Z"/><path class="cls-2" d="M2006.17,1087.57h87.51c-8.87-43.79-23.27-100.89-41.69-125.24-25.36-33.52-89-37.55-89-37.55s38.24,126.14,38.24,130.33C2001.25,1056.38,2003.31,1069.7,2006.17,1087.57Z"/><path class="cls-6" d="M2065,1087.57c-.46-8.36-1.1-16.68-2-24.86a191.51,191.51,0,0,0-69.36-127.77,40.33,40.33,0,0,0-16.16-8c-16.06-3.84-37-4.58-47.29-4.69H1896.4s-53.17,8.3-78.32,10.54c-63.32,5.63-66.5,111.14-77.56,154.76Z"/><path class="cls-8" d="M1849,787.81s-18.56-76.16,25.66-104.68,91.07-25.35,123-8.26,51,76.67,36.72,110.72l-105.94-32.51Z"/><path class="cls-12" d="M2019.29,960.32A192.37,192.37,0,0,0,1993.67,935a40.54,40.54,0,0,0-16.21-8c-16.06-3.84-37-4.58-47.3-4.69H1896.4s-9.23.51-21.76,1.64C1901.9,944.72,1953,972.84,2019.29,960.32Z"/><path class="cls-12" d="M1907.82,929.72l71.08,1.47c-1.44-15.78-2.68-36.69-.05-44.23,4.43-12.71-74.75-14.63-74.75-14.63S1908.31,905,1907.82,929.72Z"/><path class="cls-15" d="M1904.1,872.33s1.7,13.2,2.81,29.17a69.13,69.13,0,0,0,52.5,15.12,68.09,68.09,0,0,0,18.12-5c-.45-10.42-.29-20.07,1.32-24.7C1983.28,874.25,1904.1,872.33,1904.1,872.33Z"/><path class="cls-8" d="M1895.82,771.38S1858,768,1819.51,799.91s-56.37,118.32-1.57,171.89,84.68,54.82,98.94,106.49c0,0,38-49.35,0-118.7,0,0,15.25,5.3,23.76,20.57,0,0,9-49.86-29.44-81.1s-42.54-74.25-12.66-83S1895.82,771.38,1895.82,771.38Z"/><path class="cls-15" d="M2020.58,799c-3.77,10.25-.19,21,8,24s17.9-2.84,21.67-13.09.19-21-8-24S2024.35,788.79,2020.58,799Z"/><path class="cls-12" d="M2019.71,858.26a81.55,81.55,0,0,0,5.87-14c4.39-13.17,6.36-27.05,7.12-39.13.16-2.59.47-5.17.83-7.74a84.47,84.47,0,1,0-168.07-8.83c-5.38-2.75-11.34-3.22-16.48-.71-9.86,4.82-13,18.72-7,31.05s18.91,18.42,28.77,13.6a16.34,16.34,0,0,0,3.7-2.52c5.63,41.18,40.59,71.92,81.19,69.85a75.79,75.79,0,0,0,50.65-23.16,36.35,36.35,0,0,0,2.76-2.78A73.1,73.1,0,0,0,2019.71,858.26Z"/><path class="cls-16" d="M1943.75,800.12a7.94,7.94,0,1,1-8.33-7.52A7.93,7.93,0,0,1,1943.75,800.12Z"/><path class="cls-16" d="M2008.89,800.12a7.94,7.94,0,1,1-8.33-7.52A7.94,7.94,0,0,1,2008.89,800.12Z"/><path class="cls-8" d="M1950.42,786.89a49.09,49.09,0,0,0-11.17-4.28,35.64,35.64,0,0,0-11.57-.89,29.81,29.81,0,0,0-5.68,1.08c-.94.23-1.84.58-2.76.9-.46.16-.9.37-1.36.55s-.91.36-1.34.59a59,59,0,0,0-10.15,6.38,31.82,31.82,0,0,1,9.1-8.33,27.37,27.37,0,0,1,5.72-2.67,26.74,26.74,0,0,1,6.21-1.32,28.88,28.88,0,0,1,12.46,1.59,31.58,31.58,0,0,1,5.64,2.65A25.36,25.36,0,0,1,1950.42,786.89Z"/><path class="cls-8" d="M1982.4,786.89a25.36,25.36,0,0,1,4.9-3.75,31.58,31.58,0,0,1,5.64-2.65,28.92,28.92,0,0,1,12.47-1.59,27,27,0,0,1,6.21,1.32,27.29,27.29,0,0,1,5.71,2.67,31.82,31.82,0,0,1,9.1,8.33,59,59,0,0,0-10.15-6.38c-.43-.23-.89-.4-1.34-.59s-.89-.39-1.36-.55c-.92-.32-1.82-.67-2.76-.9a29.81,29.81,0,0,0-5.68-1.08,35.66,35.66,0,0,0-11.57.89A49.27,49.27,0,0,0,1982.4,786.89Z"/><path class="cls-8" d="M1865.46,788.52s57.47-23.22,88-58.53c0,0-.68,19.35-7.13,26.14,2,1.36,41.73-14.44,50.93-44.82s-45.16-18.67-45.16-18.67-30.9-5.1-32.26-4.42-23.43,13.92-24.45,14.94-30,42.11-30,42.11l-7.39,15.28-1.7,21.05Z"/><path class="cls-29" d="M1951.91,846.33a21.87,21.87,0,0,1,18.07,2.4s9.47-5.92,16.93-.26c0,0-3.46,14.1-19,13.15S1951.91,846.33,1951.91,846.33Z"/><path class="cls-15" d="M1943.76,841.28a47.68,47.68,0,0,0,5.52,3.88,46,46,0,0,0,5.92,3.14,40.26,40.26,0,0,0,12.77,3.42,34.5,34.5,0,0,0,13.07-1.45,48.33,48.33,0,0,0,12-6,39.79,39.79,0,0,1-5.41,4.15,37.1,37.1,0,0,1-6.14,3.08,32.12,32.12,0,0,1-6.71,1.73,35,35,0,0,1-6.94.18,35.7,35.7,0,0,1-13.19-3.94A39,39,0,0,1,1943.76,841.28Z"/><path class="cls-15" d="M1973.09,796.47a93.74,93.74,0,0,1,5.87,11.24,89.27,89.27,0,0,1,4.42,11.94,33.49,33.49,0,0,1,1.19,6.44,10.74,10.74,0,0,1-.06,1.78c0,.3-.12.64-.18,1a4.28,4.28,0,0,1-.47,1c-.12.17-.26.35-.39.51l-.33.28a8.49,8.49,0,0,1-.67.55c-.46.32-.91.66-1.39.93a30.72,30.72,0,0,1-5.88,2.68,41.7,41.7,0,0,1-6.16,1.62,69.31,69.31,0,0,0,10.91-6c.41-.29.77-.62,1.15-.93l.52-.49.25-.25a.54.54,0,0,1,.07-.13,4.91,4.91,0,0,0,.18-2.39,34.56,34.56,0,0,0-1.23-5.91c-1.09-4-2.48-7.93-3.81-11.9S1974.35,800.51,1973.09,796.47Z"/><path class="cls-12" d="M257.07,1448.52a1,1,0,0,0,.38,1.64c5.7,1.55,23.63,6.53,23.56,8.07-.07,1.83-16.19-2.23-17.14-.81s14.88,5,14.49,6.92-14.72-1.78-15.17-1,12.88,5.8,13.34,7.09-14.44-2.37-15.25-1.6,8.62,6.71,8.21,7.57-.55,1.52-25.63-5.75l-9.76-3.28-6.51-7,4.88-10.39s31.41-12,32.54-11.14S265.86,1440.72,257.07,1448.52Z"/><path class="cls-12" d="M143.54,1334s-15.64,9.27-27.82,0h0l2.87-22.62,24.24-5,.71,27.61Z"/><path class="cls-27" d="M143.21,1321.11l-.38-14.75L118.24,1314l-.69,5.53C123,1321.51,133.38,1323.92,143.21,1321.11Z"/><path class="cls-8" d="M237.58,1437.22c-12.39,3-41.55,1.49-63.64-.25-.18-18.26-.88-35.26-2.48-47.2-5.69-42.39-25.34-56.11-25.34-56.11a48.8,48.8,0,0,1-33.18-8.11c-26.26.32-41.44,14.56-41.44,14.56-40.34,34.79-9.81,106-9.81,106l-11.07,94.05c25,8.54,127.17,3.4,127.17,3.4s-5-30-4.27-60.43c32.39-1.81,64.06-7,64.06-7C238.84,1469.18,237.58,1437.22,237.58,1437.22Z"/><path class="cls-36" d="M102.71,1373.85c-.07,14.08,6.1,27.64,15.84,37.32a68.81,68.81,0,0,0,16.62,12.16,95.32,95.32,0,0,0,19.22,7.71c.84.24,1.65.53,2.49.75l2.53.62c1.69.4,3.37.85,5.07,1.22l5.12,1,2.57.48,2.59.36c3.44.49,6.89,1,10.37,1.27l5.21.48c1.74.13,3.49.2,5.23.3a411.82,411.82,0,0,0,42-.26,271.59,271.59,0,0,1-42.1,2.48c-14.07-.39-28.26-1.89-41.89-5.93a95.69,95.69,0,0,1-19.71-8.08,68.09,68.09,0,0,1-16.93-13,56.92,56.92,0,0,1-6.55-8.46,58.29,58.29,0,0,1-4.73-9.57,54.92,54.92,0,0,1-2.63-10.29A40,40,0,0,1,102.71,1373.85Z"/><path class="cls-36" d="M237.58,1476.14a356.44,356.44,0,0,1-46.48,7.08,313.6,313.6,0,0,1-47.09.83c-15.67-1.07-31.45-3.41-46.31-8.93A80.29,80.29,0,0,1,76.84,1464a52.09,52.09,0,0,1-15.15-17.89,53.84,53.84,0,0,0,16,16.76A83.65,83.65,0,0,0,98.45,1473,143.08,143.08,0,0,0,121,1478.6a219.24,219.24,0,0,0,23.17,2.61,377.87,377.87,0,0,0,46.75-.19q11.69-.72,23.35-2C222.08,1478.31,229.83,1477.29,237.58,1476.14Z"/><path class="cls-10" d="M87,1276.3s-6.73-34.91,12.94-47.19,39.93-10.11,53.48-1.85,20.8,35.66,14,50.91L122,1261.74Z"/><path class="cls-15" d="M159.59,1275.58c-1.4,4.26.32,8.59,3.83,9.67s7.5-1.49,8.9-5.74-.32-8.59-3.84-9.67S161,1271.32,159.59,1275.58Z"/><path class="cls-12" d="M160.34,1299.8a33.12,33.12,0,0,0,2.21-5.84,61.9,61.9,0,0,0,2.26-16.13c0-1.06.1-2.12.21-3.18a33.64,33.64,0,0,0-1.37-13.25c-4.49-14.52-18.57-24.65-34.22-24.57-21.09.09-37.11,17.45-35.48,37.27a8,8,0,0,0-7,0c-4.07,2.15-5.12,7.89-2.34,12.82s8.32,7.18,12.39,5a6.7,6.7,0,0,0,1.51-1.09,33.27,33.27,0,0,0,35.58,27.07,32.39,32.39,0,0,0,20.93-10.39c.35-.34.72-.73,1.11-1.19A29.81,29.81,0,0,0,160.34,1299.8Z"/><path class="cls-16" d="M128.46,1275.06a3,3,0,0,1-2.8,3.29,3.1,3.1,0,0,1-3.4-2.71,3.05,3.05,0,0,1,2.8-3.3A3.09,3.09,0,0,1,128.46,1275.06Z"/><path class="cls-16" d="M152.9,1273.87a3,3,0,0,1-2.8,3.29,3.1,3.1,0,0,1-3.4-2.71,3.12,3.12,0,0,1,6.2-.58Z"/><path class="cls-10" d="M131.61,1268.76a29.81,29.81,0,0,0-4.56-1,15.92,15.92,0,0,0-4.36,0,14.49,14.49,0,0,0-4.15,1.21l-.52.21c-.17.07-.33.18-.5.26l-1,.53c-.68.37-1.31.83-2.07,1.19a13.15,13.15,0,0,1,1.36-2,11.23,11.23,0,0,1,1.84-1.66,10.23,10.23,0,0,1,4.75-1.89,11,11,0,0,1,5.1.5A9.81,9.81,0,0,1,131.61,1268.76Z"/><path class="cls-10" d="M141.8,1267.81a9.73,9.73,0,0,1,3.87-3,10.91,10.91,0,0,1,5-1,10.4,10.4,0,0,1,4.9,1.48,11.28,11.28,0,0,1,2,1.5,13.61,13.61,0,0,1,1.54,1.88c-.79-.3-1.46-.7-2.18-1l-1.06-.44c-.18-.07-.34-.16-.52-.22l-.54-.17a14.71,14.71,0,0,0-4.25-.84,15.66,15.66,0,0,0-4.34.38A29.51,29.51,0,0,0,141.8,1267.81Z"/><path class="cls-15" d="M136.93,1267.73a22.09,22.09,0,0,0-.43,6.49,18.16,18.16,0,0,0,.54,3.3,8.49,8.49,0,0,0,1.61,3.24l.38.36.33.31a3.68,3.68,0,0,1,.45.43,2.34,2.34,0,0,1,.55,1,2.85,2.85,0,0,1-.45,2.31c-1,1.57-3,2.6-5.07,3.28a7.7,7.7,0,0,0,6.41-2.32,4.37,4.37,0,0,0,1.09-3.69,3.76,3.76,0,0,0-.35-1,3.7,3.7,0,0,0-.55-.86,4.77,4.77,0,0,0-.71-.71c-.15-.13-.18-.18-.26-.25l-.21-.21A7.88,7.88,0,0,1,139,1277a25.1,25.1,0,0,1-.83-3C137.69,1272,137.34,1269.87,136.93,1267.73Z"/><path class="cls-21" d="M146.55,1292.64c-1,3.69-5.6,6.42-11,6.33s-9.87-3-10.78-6.71Z"/><path class="cls-10" d="M94.86,1275.18c-2-1.9-3.66-1.83-3.66-1.83l1.39-11.15,3.74-6.61s14.33-17.61,14.83-18,11.12-5.9,11.77-6.17,15.13,2.49,15.13,2.49,25.82-4.24,21,9-23.82,19.52-24.76,18.88c3.15-2.88,3.8-11.39,3.8-11.39C124.27,1264.19,98.82,1273.75,94.86,1275.18Z"/><path class="cls-12" d="M2964.15,1470.83a20.66,20.66,0,0,1-.53-2.78,3.13,3.13,0,0,1,1.49-2.81l1.12-.69.84,2.7h0c.46,2.11.38,2,3.61,2.45,4.6.69,3.45,3.31,3.45,3.31s-.73,1.84-6.45.67C2967.68,1473.68,2964.92,1473.07,2964.15,1470.83Z"/><path class="cls-12" d="M2961.22,1460.94a23.72,23.72,0,0,1-.65-3.45,3.87,3.87,0,0,1,1.85-3.49l1.38-.86,1,3.36h0c.57,2.62.47,2.45,4.47,3,5.72.85,4.3,4.1,4.3,4.1s-.91,2.29-8,.84C2965.61,1464.48,2962.18,1463.72,2961.22,1460.94Z"/><path class="cls-12" d="M2963.3,1467.65a19.2,19.2,0,0,1-.53-2.78,3.1,3.1,0,0,1,1.49-2.81l1.11-.7.85,2.71h0c.45,2.11.37,2,3.6,2.45,4.6.68,3.46,3.3,3.46,3.3s-.73,1.84-6.45.68C2966.83,1470.5,2964.06,1469.88,2963.3,1467.65Z"/><path class="cls-12" d="M2961.47,1464a22.62,22.62,0,0,1-.62-3.29,3.69,3.69,0,0,1,1.76-3.32l1.32-.82,1,3.2h0c.54,2.49.45,2.33,4.26,2.9,5.44.8,4.09,3.9,4.09,3.9s-.87,2.18-7.62.8C2965.65,1467.36,2962.38,1466.63,2961.47,1464Z"/><path class="cls-15" d="M2971.84,1460.24a3.19,3.19,0,0,1,2,1.86,2.71,2.71,0,0,1,0,1.44,1,1,0,0,1-.17.37,1.45,1.45,0,0,1-.26.29,2.87,2.87,0,0,1-.62.43,6.7,6.7,0,0,1-2.83.6,16.69,16.69,0,0,1-2.83-.19c-.47,0-.93-.16-1.39-.24a7,7,0,0,1-3.7-2.08,5.14,5.14,0,0,1-.78-1.18,5.21,5.21,0,0,1-.24-.66l-.15-.68a20.63,20.63,0,0,1-.31-2.71c.16.89.36,1.78.6,2.65l.18.64a6.39,6.39,0,0,0,.26.6,4.93,4.93,0,0,0,.79,1,6.84,6.84,0,0,0,2.21,1.43,6.22,6.22,0,0,0,1.27.39c.45.07.9.17,1.35.23a18.06,18.06,0,0,0,2.74.21,6.84,6.84,0,0,0,2.63-.45,1.59,1.59,0,0,0,.89-.79,2.44,2.44,0,0,0,.06-1.26,2.57,2.57,0,0,0-.62-1.13A4.61,4.61,0,0,0,2971.84,1460.24Z"/><path class="cls-15" d="M2973.19,1470.53a2.21,2.21,0,0,1,1.17,1.36,2,2,0,0,1,0,.95.84.84,0,0,1-.22.49,1.52,1.52,0,0,1-.38.34,4.08,4.08,0,0,1-1.82.62,9,9,0,0,1-1.87,0,13.89,13.89,0,0,1-1.83-.25,7.92,7.92,0,0,1-.91-.21,6,6,0,0,1-.86-.36,4.2,4.2,0,0,1-2.35-2.67,4.74,4.74,0,0,0,2.55,2.26c.27.11.55.2.82.28s.57.1.86.16a17.78,17.78,0,0,0,1.77.21,9.41,9.41,0,0,0,1.76,0,4,4,0,0,0,1.63-.44,1.44,1.44,0,0,0,.3-.24.35.35,0,0,0,.1-.13.75.75,0,0,0,.07-.18,1.81,1.81,0,0,0,.07-.8,1.87,1.87,0,0,0-.3-.78A3,3,0,0,0,2973.19,1470.53Z"/><path class="cls-15" d="M2972.33,1467.34a2.22,2.22,0,0,1,1.18,1.36,2.34,2.34,0,0,1,0,1c0,.08,0,.16-.07.25a1.67,1.67,0,0,1-.15.24,1.8,1.8,0,0,1-.38.35,4.29,4.29,0,0,1-1.83.62,9.75,9.75,0,0,1-1.87,0,16.1,16.1,0,0,1-1.83-.25c-.29-.07-.6-.11-.91-.21a5.44,5.44,0,0,1-.86-.37,4.22,4.22,0,0,1-2.34-2.66,4.69,4.69,0,0,0,2.55,2.25,7.22,7.22,0,0,0,.82.29,7,7,0,0,0,.86.15,14.75,14.75,0,0,0,1.77.21,9.41,9.41,0,0,0,1.76,0,4,4,0,0,0,1.62-.45,1.83,1.83,0,0,0,.31-.24l.1-.12a1,1,0,0,0,.06-.18,1.85,1.85,0,0,0,.07-.81,1.9,1.9,0,0,0-.29-.78A3.28,3.28,0,0,0,2972.33,1467.34Z"/><path class="cls-15" d="M2973,1464.37a2.3,2.3,0,0,1,.54,1.88,1.29,1.29,0,0,1-.18.53,1.76,1.76,0,0,1-.37.4,3.22,3.22,0,0,1-.94.52,9.65,9.65,0,0,1-4.09.32c-.67-.09-1.34-.19-2-.33a6.13,6.13,0,0,1-1.93-.71,6.71,6.71,0,0,1-1.6-1.25,4.27,4.27,0,0,1-.93-1.74,5.42,5.42,0,0,0,2.75,2.59,6.94,6.94,0,0,0,1.83.57c.65.12,1.3.21,1.95.28a14.38,14.38,0,0,0,2,.1,7.22,7.22,0,0,0,1.92-.25,3.13,3.13,0,0,0,.85-.39,1.57,1.57,0,0,0,.33-.3,1,1,0,0,0,.16-.39A2.32,2.32,0,0,0,2973,1464.37Z"/><path class="cls-14" d="M908.41,1559.17s6.57,23.36,2.08,40.59c-3.86,14.82-7.55,40.08,17.16,46.92s47.94-21.09,47.92-22.58,4.77-19.89,0-31.77-4.12-28.2-17.51-35.2S908.41,1559.17,908.41,1559.17Z"/><path class="cls-12" d="M693.06,1902l19.49-12,16.83,10.17-5.88,4.19-20.41,2.87s-8-1-8.32-1.25A27.36,27.36,0,0,1,693.06,1902Z"/><path class="cls-8" d="M693.06,1902l-4.94,3.18a2.71,2.71,0,0,0,1.43,5l37.39.17a2.38,2.38,0,0,0,2.4-2.37l0-7.83C704.44,1907.92,695.85,1905.47,693.06,1902Z"/><path class="cls-14" d="M1030.15,1570.28c-13.56-14.21-18.89-27.57-22.42-40.29-1.48-5.33-4.39-21-19.31-31.82-21.61-15.64-42.37-16.36-61.71-5.89-22.38,12.11-27.11,45.5-19.86,62.76l43.89-13.47-11.22,6.34c-4.29,83.9,14.76,80.7,22.76,88.69s41.17,8,63.31-3.85C1061.23,1613.71,1047.22,1588.17,1030.15,1570.28Z"/><path class="cls-12" d="M788.28,1902l19.49-12,16.83,10.17-5.88,4.18-20.41,2.88s-8-1-8.32-1.25A27.36,27.36,0,0,1,788.28,1902Z"/><path class="cls-8" d="M788.28,1902l-4.94,3.18a2.7,2.7,0,0,0,1.43,5l37.39.18a2.38,2.38,0,0,0,2.4-2.38l0-7.82C799.66,1907.94,791.07,1905.49,788.28,1902Z"/><path class="cls-37" d="M958.83,1607.21s-58.11,71.5-68,82.86L832,1632s-11.88,6.57-17.94,13.64c0,0,23.75,54.82,44.21,69.22l40.93,27.54-7.84,18.7L906,1772.43l7.7-18.44,21.1-46.74,20-62.14,3.79-30.83Z"/><polygon class="cls-38" points="850.7 1801.49 824.6 1901.09 800.93 1893.95 800.68 1807.3 835.29 1783.55 850.7 1801.49"/><path class="cls-39" d="M958.58,1614.28s-24.51,39.92-29.56,55.33-1,16.68-3.29,35.37-19.45,68.72-19.45,68.72l28.55,19.2s15.41-49.27,15.41-51.29,14.4-92.21,14.4-92.21l11.87-33.6Z"/><path class="cls-16" d="M932.05,1790.88s-49-44-86.91-52.8-135.66,152.84-135.66,152.84l20.21,9.6s88.17-63.41,104.84-91.71c0,0,71.63,94.46,95.63,96.74s51.07-2.8,83-41.16C1049.32,1820.91,932.05,1790.88,932.05,1790.88Z"/><path class="cls-12" d="M980.81,1575.38l10.86,29.3s-7.86,17.91-34.2,11.28c0,0,2.75-6.26-1.7-18.76C951.21,1584.42,980.81,1575.38,980.81,1575.38Z"/><path class="cls-28" d="M980.81,1575.38l5.09,13.69c-2.36,10.22-11,17.45-27.62,20.2a40.29,40.29,0,0,0-2.51-12.07C951.21,1584.42,980.81,1575.38,980.81,1575.38Z"/><path class="cls-21" d="M830.24,1780.14a35.9,35.9,0,0,0-.7,7.32,51.64,51.64,0,0,0,.59,7.34,63.51,63.51,0,0,0,1.59,7.21,51.34,51.34,0,0,0,2.45,7l.57-.49a32.22,32.22,0,0,1-3.75-3c-1.2-1.08-2.36-2.2-3.47-3.38s-2.15-2.42-3.18-3.68-2-2.57-3-3.88q1.26,2.1,2.68,4.09c.94,1.34,2,2.59,3,3.84s2.2,2.43,3.39,3.55a34.34,34.34,0,0,0,3.83,3.13l1.1.75-.53-1.25a70.51,70.51,0,0,1-2.38-6.87,63.61,63.61,0,0,1-1.66-7.1,53.15,53.15,0,0,1-.84-7.24A43.47,43.47,0,0,1,830.24,1780.14Z"/><path class="cls-15" d="M920.39,1555.85c2.29,4.74,1.08,10.07-2.71,11.9s-8.73-.52-11-5.26-1.07-10.07,2.72-11.9S918.1,1551.11,920.39,1555.85Z"/><path class="cls-12" d="M923.59,1584.22a39.24,39.24,0,0,1-3.47-6.46,75.2,75.2,0,0,1-5.26-18.44c-.2-1.24-.47-2.46-.76-3.67a40.73,40.73,0,1,1,80.23-12.15,8.78,8.78,0,0,1,7.87-1.11c5,1.84,7.11,8.37,4.8,14.57s-8.21,9.73-13.17,7.88a8.06,8.06,0,0,1-1.89-1c-.77,20-16.1,36.42-35.67,37.34a36.58,36.58,0,0,1-25.4-8.73c-.45-.34-.94-.74-1.45-1.21A35.22,35.22,0,0,1,923.59,1584.22Z"/><path class="cls-15" d="M944.55,1546.26c.09,2.31.16,4.59.1,6.84a25.92,25.92,0,0,1-.29,3.32,8.51,8.51,0,0,1-.93,2.95l-.2.28c-.08.1-.11.18-.23.32a5.72,5.72,0,0,0-.57.82,3.91,3.91,0,0,0-.4.94,3.46,3.46,0,0,0-.18,1,4.52,4.52,0,0,0,1.61,3.52,6.91,6.91,0,0,0,3.29,1.58,9.8,9.8,0,0,0,3.5,0,13.67,13.67,0,0,1-3.3-.74,6.71,6.71,0,0,1-2.66-1.71,3.43,3.43,0,0,1-1-2.59,3.11,3.11,0,0,1,.14-.66,2.74,2.74,0,0,1,.29-.63,4.47,4.47,0,0,1,.42-.58c.16-.19.4-.52.59-.78a9.21,9.21,0,0,0,1.06-3.56,19.86,19.86,0,0,0,.05-3.53A28.54,28.54,0,0,0,944.55,1546.26Z"/><path class="cls-16" d="M958.06,1549.34a3.55,3.55,0,1,0,3.38-3.71A3.56,3.56,0,0,0,958.06,1549.34Z"/><path class="cls-16" d="M927.66,1552.77a3.55,3.55,0,1,0,3.38-3.71A3.56,3.56,0,0,0,927.66,1552.77Z"/><path class="cls-14" d="M953.6,1541.32a36.39,36.39,0,0,1,5.19-1.25,17.86,17.86,0,0,1,4.94-.11,16.88,16.88,0,0,1,4.75,1.26c.82.26,1.54.74,2.37,1.09s1.54.9,2.43,1.3a14.83,14.83,0,0,0-1.57-2.38,12.36,12.36,0,0,0-2.15-1.93,11.53,11.53,0,0,0-5.51-2.12,11.9,11.9,0,0,0-5.84.78A10.79,10.79,0,0,0,953.6,1541.32Z"/><path class="cls-14" d="M937.94,1543.08a10.9,10.9,0,0,0-5.18-2.4,12,12,0,0,0-5.88.37,11.51,11.51,0,0,0-5,3.15,11.77,11.77,0,0,0-1.73,2.32,14.31,14.31,0,0,0-1.09,2.63c.8-.56,1.43-1.2,2.14-1.75a24.3,24.3,0,0,1,2.11-1.52,16.56,16.56,0,0,1,4.41-2.16,17.69,17.69,0,0,1,4.87-.85A36.31,36.31,0,0,1,937.94,1543.08Z"/><path class="cls-14" d="M989.52,1545c1.91-1.06,2.2-1,4.81-1.49l1.94-1L995,1540.1,994,1540l-.61-7.54-3.37-7s-13.21-18.75-13.67-19.21-10.54-6.51-11.16-6.82-14.71,2-14.71,2-24.81-5.34-20.61,8.52,22.31,21.07,23.24,20.45c-2.94-3.1-3.25-11.93-3.25-11.93C962.68,1533.28,985.76,1543.41,989.52,1545Z"/><path class="cls-14" d="M981.18,1541.09s6.67,11.6,0,16c0,0,11.9-.21,16-14.92s-4.63-8.82-5.54-8.59S981.18,1541.09,981.18,1541.09Z"/><path class="cls-14" d="M919.07,1510.93l-10.66,38.12s14.69-31.14,26.35-35.15-2.59-10-2.59-10Z"/><path class="cls-21" d="M962.85,1572.07c0,5-3.75,9.57-9.21,10.74s-10.78-1.48-12.78-6Z"/><path class="cls-9" d="M713.41,1638.57l109.8-35.26a4.39,4.39,0,0,1,5.52,2.84l50.4,156.94a4.39,4.39,0,0,1-2.84,5.52l-109.8,35.26A4.4,4.4,0,0,1,761,1801l-50.39-156.94A4.39,4.39,0,0,1,713.41,1638.57Z"/><rect class="cls-40" x="740.57" y="1625.3" width="105.82" height="148.04" transform="translate(-481.56 323.98) rotate(-17.8)"/><path class="cls-41" d="M797.15,1624.4l-54.55,17.52-2.31-7.17a10,10,0,0,1,6.44-12.53l35.59-11.43a10,10,0,0,1,12.53,6.44Z"/><rect class="cls-41" x="732.36" y="1650.27" width="55.66" height="4.13" transform="translate(-468.79 311.55) rotate(-17.8)"/><rect class="cls-41" x="736.99" y="1664.71" width="55.66" height="4.13" transform="translate(-472.98 313.66) rotate(-17.8)"/><rect class="cls-41" x="741.63" y="1679.15" width="55.66" height="4.13" transform="translate(-477.18 315.77) rotate(-17.8)"/><rect class="cls-41" x="746.27" y="1693.59" width="55.66" height="4.13" transform="translate(-481.35 317.86) rotate(-17.8)"/><rect class="cls-41" x="750.91" y="1708.03" width="55.66" height="4.13" transform="translate(-485.57 319.99) rotate(-17.8)"/><rect class="cls-41" x="755.54" y="1722.48" width="55.66" height="4.13" transform="translate(-489.76 322.1) rotate(-17.8)"/><rect class="cls-41" x="760.18" y="1736.92" width="55.66" height="4.13" transform="translate(-493.95 324.2) rotate(-17.8)"/><rect class="cls-41" x="764.82" y="1751.36" width="55.66" height="4.13" transform="translate(-498.12 326.29) rotate(-17.8)"/><rect class="cls-41" x="797.03" y="1634.03" width="31.57" height="30.3" transform="matrix(0.95, -0.31, 0.31, 0.95, -465.31, 327.49)"/><rect class="cls-41" x="808.65" y="1670.21" width="31.57" height="30.3" transform="translate(-475.81 332.77) rotate(-17.8)"/><rect class="cls-41" x="820.88" y="1708.3" width="31.57" height="30.3" transform="translate(-486.87 338.34) rotate(-17.8)"/><path class="cls-12" d="M836.91,1700.2a.94.94,0,0,1-1.07,1.27c-5.68-1.2-23.58-4.86-24.22-3.49-.75,1.64,15.16,5.3,15.36,7s-15.25-2.31-15.77-.43,13.67,5,13.72,5.89-13.86-.69-14.83.23,13.68,4.4,14,5.43-10.55,2-10.57,3-.2,1.58,25,6.44l10,1.49,8.83-3.19.38-11.28s-22.14-24.5-23.49-24.3S832.7,1689.45,836.91,1700.2Z"/><path class="cls-42" d="M990.91,1599.76s50,60.25,43.2,166.36-7.95,106.86-7.95,106.86-30.7-3.28-53.44-21.47-50.52-30.57-50.52-30.57l18.44-59.87s-24,.75-41.43-6.57-53.82-26.78-53.82-26.78,3-17.94,6.83-23.5c0,0,46.23,14.15,69.47,14.4C921.69,1718.62,948.72,1635.25,990.91,1599.76Z"/><path class="cls-21" d="M987.31,1619.08a212.74,212.74,0,0,0-21.23,21.44,251.2,251.2,0,0,0-18.36,24l-2.09,3.15c-.71,1-1.41,2.1-2,3.18l-3.93,6.47c-.67,1.06-1.24,2.19-1.85,3.29l-1.81,3.32-1.8,3.33c-.59,1.11-1.1,2.27-1.65,3.4l-3.24,6.83-2.84,7-1.39,3.51-1.19,3.59c-.79,2.38-1.57,4.78-2.33,7.17q1.41-3.51,2.76-7l1.36-3.51,1.56-3.42,3.09-6.85,3.41-6.7c.58-1.11,1.11-2.25,1.72-3.34l1.85-3.27,1.85-3.27c.62-1.09,1.2-2.19,1.89-3.24l3.94-6.4c.64-1.07,1.35-2.11,2-3.15l2.09-3.11q8.39-12.46,18-24.1l4.85-5.75c1.66-1.87,3.29-3.78,5-5.63C980.26,1626.24,983.74,1622.62,987.31,1619.08Z"/><path class="cls-21" d="M1008.91,1661.15c-4.12,9.27-8.51,18.39-13,27.44-2.3,4.51-4.62,9-7.05,13.45s-4.88,8.86-7.48,13.19-5.24,8.65-8.06,12.84c-1.37,2.11-2.84,4.17-4.29,6.23s-3,4.07-4.57,6a113.41,113.41,0,0,1-10.08,11.27,53.23,53.23,0,0,1-12.11,9,49.76,49.76,0,0,0,12.68-8.4,101.77,101.77,0,0,0,10.54-11c3.29-3.9,6.29-8,9.17-12.21s5.59-8.5,8.19-12.87c5.18-8.74,9.89-17.76,14.25-26.93S1005.4,1670.67,1008.91,1661.15Z"/><path class="cls-43" d="M3130.86,539.31l-.49,53.62,34.09-32,107.47-72.73-87.71,19.06s-43.84,16.55-46,19.07S3130.86,539.31,3130.86,539.31Z"/><polygon class="cls-44" points="3087.65 512.3 3271.93 488.21 3130.86 539.31 3087.65 512.3"/><polygon class="cls-44" points="3196.7 585.07 3143.58 552.21 3271.93 488.21 3196.7 585.07"/><path class="cls-43" d="M2937.92,852.56l2-3.9a50.12,50.12,0,0,1-11.29-7.93l-3,3.2A54.07,54.07,0,0,0,2937.92,852.56Z"/><path class="cls-43" d="M2900.56,792.8l4.29-.87a123.06,123.06,0,0,0,8.28,26.43l-4,1.81A127,127,0,0,1,2900.56,792.8Zm-3.38-32.17a120.32,120.32,0,0,1,2.87-24.8l4.27.94c-.84,3.81-1.5,7.67-2,11.48a115.74,115.74,0,0,0-.8,12.43c0,1.2,0,2.41,0,3.62l-4.37.09C2897.18,763.12,2897.17,761.85,2897.18,760.63Zm12-52a168,168,0,0,1,14.1-24.87l3.62,2.47a161.92,161.92,0,0,0-13.73,24.21ZM3045.86,683l-.81-.4,2-3.91.67.33a1.94,1.94,0,0,0,.46.08c2.43.29,8.65-.48,11.88-3a18.65,18.65,0,0,0,6-8.84l4.14,1.43a23.2,23.2,0,0,1-7.5,10.86c-4.48,3.48-12,4.24-15.08,3.88A5.77,5.77,0,0,1,3045.86,683Zm-104.77-21.54a228.12,228.12,0,0,1,20.59-19.72l2.83,3.34a223.52,223.52,0,0,0-20.2,19.34Zm83.24-10.21a53.43,53.43,0,0,1,0-12.95,63.86,63.86,0,0,1,1.32-7.26l4.25,1a57.14,57.14,0,0,0-1.22,6.75,48.68,48.68,0,0,0,0,11.88,40.45,40.45,0,0,0,1.85,8l-4.14,1.42A44.86,44.86,0,0,1,3024.33,651.28Zm18.14-24.69-.58-.2,1.36-4.16.63.22c9.5,3.23,17.78,9.53,22.73,17.27l-3.69,2.36C3058.5,635.16,3051,629.51,3042.47,626.59Zm-55.79.9c4.64-2.06,13.11-5.65,17.7-6.44,3.57-.61,6.85-1,10-1.35l.4,4.36c-3.07.28-6.24.71-9.69,1.31-3,.51-9.09,2.75-16.67,6.12Zm50.8-22.75a97.72,97.72,0,0,1,19.24-21.42l2.79,3.37a93.34,93.34,0,0,0-18.38,20.46Z"/><path class="cls-43" d="M3083.05,572.49a84.67,84.67,0,0,1,13.4-4.28l-1-4.26a87.9,87.9,0,0,0-14.09,4.5Z"/></g></g></g></svg>