<svg xmlns="http://www.w3.org/2000/svg" xmlns:xlink="http://www.w3.org/1999/xlink" viewBox="0 0 471.49 475.88"><defs><style>.cls-1{isolation:isolate;}.cls-2{fill:#f9b95a;}.cls-3{fill:#4b6dff;}.cls-4{fill:#ff2e2e;}.cls-5{fill:#0b0042;}.cls-6{fill:#ffc3c5;}.cls-7{fill:#ff9798;}.cls-8{fill:#ffc7c9;}.cls-18,.cls-35,.cls-9{fill:#fff;}.cls-10{fill:#e80c0c;}.cls-11{opacity:0.17;fill:url(#linear-gradient);}.cls-12{fill:url(#linear-gradient-2);}.cls-13{opacity:0.26;fill:url(#linear-gradient-3);}.cls-14{fill:url(#linear-gradient-4);}.cls-15{opacity:0.43;fill:url(#linear-gradient-5);}.cls-16,.cls-23,.cls-24,.cls-25{fill:#238df0;}.cls-16{opacity:0.67;}.cls-17{fill:url(#linear-gradient-6);}.cls-18{opacity:0.33;}.cls-19{fill:url(#linear-gradient-7);}.cls-20{fill:url(#linear-gradient-8);}.cls-21{opacity:0.31;}.cls-22{fill:url(#linear-gradient-9);}.cls-23{opacity:0.45;}.cls-24{opacity:0.25;}.cls-25,.cls-35{opacity:0.48;}.cls-26{fill:none;}.cls-27{fill:#1d1d1b;fill-rule:evenodd;}.cls-28{mix-blend-mode:multiply;}.cls-29,.cls-30{fill:#f49595;}.cls-30{opacity:0.18;}.cls-31{fill:#e88585;}.cls-32{fill:url(#linear-gradient-10);}.cls-33{fill:url(#linear-gradient-11);}.cls-34{fill:url(#linear-gradient-12);}</style><linearGradient id="linear-gradient" x1="308.63" y1="84.78" x2="341.72" y2="127.9" gradientUnits="userSpaceOnUse"><stop offset="0" stop-color="#b0daff"/><stop offset="1" stop-color="#1484ef"/></linearGradient><linearGradient id="linear-gradient-2" x1="408.29" y1="183.84" x2="333" y2="126.61" xlink:href="#linear-gradient"/><linearGradient id="linear-gradient-3" x1="280.7" y1="121.31" x2="233.82" y2="79.21" xlink:href="#linear-gradient"/><linearGradient id="linear-gradient-4" x1="235.56" y1="48.59" x2="235.9" y2="84.73" xlink:href="#linear-gradient"/><linearGradient id="linear-gradient-5" x1="192.9" y1="56.01" x2="135.68" y2="125.07" xlink:href="#linear-gradient"/><linearGradient id="linear-gradient-6" x1="372.74" y1="256.94" x2="327.94" y2="329.73" gradientUnits="userSpaceOnUse"><stop offset="0" stop-color="#1384ef"/><stop offset="1" stop-color="#001376"/></linearGradient><linearGradient id="linear-gradient-7" x1="590.01" y1="256.25" x2="544.08" y2="330.9" gradientTransform="matrix(-0.93, -0.37, -0.37, 0.93, 832.43, 161.98)" xlink:href="#linear-gradient-6"/><linearGradient id="linear-gradient-8" x1="365.98" y1="157.82" x2="298.65" y2="314.77" gradientUnits="userSpaceOnUse"><stop offset="0" stop-color="#b0daff"/><stop offset="1" stop-color="#0e81ee"/></linearGradient><linearGradient id="linear-gradient-9" x1="525.03" y1="157.82" x2="457.7" y2="314.77" gradientTransform="matrix(-1, 0, 0, 1, 651.51, 0)" xlink:href="#linear-gradient-8"/><linearGradient id="linear-gradient-10" x1="253.65" y1="392.55" x2="195.15" y2="351.76" gradientUnits="userSpaceOnUse"><stop offset="0" stop-color="#fff"/><stop offset="1" stop-color="#acccef"/></linearGradient><linearGradient id="linear-gradient-11" x1="41.77" y1="275.95" x2="169.85" y2="275.95" xlink:href="#linear-gradient-10"/><linearGradient id="linear-gradient-12" x1="61.3" y1="366.79" x2="154.17" y2="159.98" xlink:href="#linear-gradient-10"/></defs><g class="cls-1"><g id="Capa_2" data-name="Capa 2"><g id="OBJECTS"><g id="Capa_2-2" data-name="Capa 2"><path class="cls-2" d="M59.16,134.14a2.4,2.4,0,0,0,.23,1.15.13.13,0,0,0,.17.05l.27-.12a.14.14,0,0,0,0-.18.13.13,0,0,0-.17,0l-.27.12.18,0a2.11,2.11,0,0,1-.19-1,.13.13,0,0,0-.13-.13.14.14,0,0,0-.13.13Z"/><path class="cls-3" d="M468.19,153.2c6,22.59,2.57,56.9-.65,79.46-4.55,31.82-7.58,52-19.36,91-29.83,98.83-125.94,177.41-231,144.63-70.46-22-124.69-83.87-164-147.24C-4.5,228-46.87,29.81,101,2.3c79.49-14.8,154.43,45.6,227,72.36,42.52,15.69,79.69,7,110.32,31.21C458.32,121.69,461.62,128.49,468.19,153.2Z"/><ellipse class="cls-4" cx="205.89" cy="167.94" rx="8.45" ry="14.71"/><path class="cls-5" d="M232.81,202.34a9.68,9.68,0,0,1-5.57.5c-4.85-.61-9.75-1.86-13.83-4.73s-7.25-7.59-7.48-12.81c-.16-3.55,1-7,1.77-10.44a47.3,47.3,0,0,0,.81-15.38"/><path class="cls-6" d="M251.3,186.53a21,21,0,0,0-1,14,19.59,19.59,0,0,0,8,11.1,2.42,2.42,0,0,1,1.15,1.19,2.33,2.33,0,0,1-.85,2.15,20.08,20.08,0,0,1-9,5.63c-5.07,1.5-10.45.84-15.65,0-4-.66-8.4-1.65-10.93-5.07A20.82,20.82,0,0,0,226.84,194"/><path class="cls-7" d="M252.22,181.91c-2.08,5.23-1.38,6.42-4.76,10.36-.73.85-3.05,3.85-4.13,4.95a29,29,0,0,1-4.84,3.21,15.86,15.86,0,0,1-5.08,1.9c-2.26.28-3.33.4-5.07-.89,0,0-.23-4.94-1.17-6.53"/><path class="cls-5" d="M202.81,154.57c1.83,7-2.44,13.91-3.81,21-1.46,7.59.85,16.17,6.61,20.86a23.58,23.58,0,0,1-.64-15.66c1.12-3.6,3.11-6.87,3.95-10.55.9-4,.42-8.1-.07-12.13"/><path class="cls-5" d="M227.19,122.33c10.05-7.43,27.92-3.68,35.83,5.78,6.12,7.32,8.81,17.15,13.71,25.46A44.93,44.93,0,0,1,282,167.1c1.58,8.7-.08,17.63-7.61,22.22,4.53-8,1.8-17-4.62-20.43"/><path class="cls-8" d="M217.47,141.61c-3.48,2.7-7.17,7.9-7.87,12.44s2.34,8.81,3,13c1,6.15-.3,11.48,2.17,17.13a31.41,31.41,0,0,0,6.2,8.93c2.21,2,3.86,4.16,6.69,4.73,2.23.45,3.71-.24,5.91-.84,5-1.36,12.49-5.29,16.93-10,5-5.25,6.64-7.59,8.26-14.85a51.09,51.09,0,0,0-.43-22.18"/><path class="cls-7" d="M210,159.93a36.42,36.42,0,0,1,7.69-12,4.12,4.12,0,0,1,1.52-1.12c2.12-.74,3.72,1.94,5.09,3.82,3.67,5.05,13.73,9.58,19.66,8.82a104.66,104.66,0,0,1,17.86-1c-3.86-9.76-14.28-23.25-23-28.35-3.5-2-7.46-3.63-11.42-3.11-6,.8-10.48,6-14.19,11.12-1.86,2.54-3.77,5.54-3.26,8.73"/><path class="cls-5" d="M221.58,132.66c-.6,8.39-8.26,13.17-9.73,21.43a32.18,32.18,0,0,0,0,8.32c.38,3.32,2,7.41,3.41,10.41-3.94-.66-8.81-5.67-10.32-9.62a31.64,31.64,0,0,1-.16-22.59c2.81-7.12,8.53-18.87,23.59-18.33"/><path class="cls-5" d="M211.45,134.43c7.22,3.45,10,13.13,16.4,18a24.81,24.81,0,0,0,12.56,5.43c1.32.19,7.21-.63,8.4-1.26-2.82-2.84-7-6.59-7-10.73a29.49,29.49,0,0,0,19.75,12.59l-7.32-20.35a43.15,43.15,0,0,0-2-4.93,21.7,21.7,0,0,0-16.48-11.36c-6.73-.84-13.63,1.38-19.29,5.39-2.53,1.79-5,4.11-5.85,7.22"/><path class="cls-5" d="M264,138.63a42.21,42.21,0,0,0-3.06-5.16,24,24,0,0,0-7.16-6.75,19.5,19.5,0,0,0-14.1-2.29l9.27,22.42c.28.9.59,1.84.9,2.8l-3.56,1.13s6,4.45,6,17.79c0,10.45-2.89,14.84-3.79,20.38a15.18,15.18,0,0,0-.2,5v0c.17,1.67.49,3.44.74,5.54a2.38,2.38,0,0,0,.67,1.69,2,2,0,0,0,1.65.12A40.83,40.83,0,0,0,263,197.21c3.63-2.09,7.71-5.42,9.28-9.51a28.59,28.59,0,0,0,1.77-8.6C274.69,165,270.36,151,264,138.63Z"/><path class="cls-7" d="M222.77,164.7A31.64,31.64,0,0,1,220.7,174a1.13,1.13,0,0,0,0,.85.78.78,0,0,0,.47.37,9.81,9.81,0,0,0,4.19.69,39.5,39.5,0,0,0-2.63-11.16"/><path class="cls-5" d="M219,157.07a19.06,19.06,0,0,0-7.62.67,9.23,9.23,0,0,0-2.8,1.37,5.7,5.7,0,0,0-1.82,2.65c-.33.83.94,1.2,1.27.37a4.06,4.06,0,0,1,1.53-2,9.68,9.68,0,0,1,2.6-1.13,19,19,0,0,1,6.84-.49c.84.08.84-1.33,0-1.41Z"/><ellipse class="cls-5" cx="216.51" cy="165.23" rx="1.36" ry="1.85"/><ellipse class="cls-5" cx="235.63" cy="163.41" rx="1.36" ry="1.85"/><path class="cls-9" d="M219.58,181.41l16.19-2s-3.85,7.11-8.32,7.77C221.39,188.09,219.58,181.41,219.58,181.41Z"/><ellipse class="cls-7" cx="241.27" cy="173.11" rx="3.97" ry="4.25"/><ellipse class="cls-7" cx="215.52" cy="176.96" rx="2.35" ry="4.24" transform="translate(-23.7 33.64) rotate(-8.46)"/><path class="cls-5" d="M231,156.82a19,19,0,0,1,6.73-1.54,9.28,9.28,0,0,1,2.72.3,4,4,0,0,1,2.14,1.65c.54.71,1.46-.3.94-1a5.31,5.31,0,0,0-2.4-1.91,9.57,9.57,0,0,0-3.09-.46,19.5,19.5,0,0,0-7.39,1.59c-.78.33-.44,1.7.35,1.37Z"/><ellipse class="cls-4" cx="256.88" cy="167.94" rx="10.66" ry="14.71"/><path class="cls-4" d="M258.1,154.53a49,49,0,0,0-2.38-9.45c-2.11-6.05-5.27-12-10.06-16a21.44,21.44,0,0,0-9.31-4.73,25.17,25.17,0,0,0-12.13.45c-6.51,1.89-11.51,6.91-14.41,13.34a50.78,50.78,0,0,0-3.8,15.22l-.12,1.08a1.22,1.22,0,0,0,1.16,1.25,1.24,1.24,0,0,0,1.17-1.25l.12-1.08.06-.57c0-.11,0-.22,0-.33a1.24,1.24,0,0,1,0-.18c.14-1.05.3-2.1.49-3.15a45.89,45.89,0,0,1,2.09-7.83c2.1-5.66,5.94-10.92,11.5-13.28a21.06,21.06,0,0,1,20.26,1.89c4.77,3.4,8.1,9,10.18,14.51a57.47,57.47,0,0,1,2.12,7c.29,1.22.47,2.46.73,3.69a.88.88,0,0,1,0,.17,1.17,1.17,0,0,0,1.44.87,1.29,1.29,0,0,0,.81-1.53Z"/><ellipse class="cls-10" cx="258.08" cy="167.08" rx="8.52" ry="11.77"/><path class="cls-5" d="M256,175a66.76,66.76,0,0,1-14.26,10.21,68.28,68.28,0,0,1-8.18,3.83c-.8.3-.45,1.67.35,1.36a73.28,73.28,0,0,0,21.68-13.18c.45-.39.91-.8,1.34-1.22.63-.61-.3-1.61-.93-1Z"/><ellipse class="cls-5" cx="232.61" cy="190.43" rx="3.03" ry="1.88" transform="translate(-55.78 105.55) rotate(-22.9)"/><path class="cls-5" d="M389.18,319h-371c-5,0-10-.1-15,0H2.44c-2.49,0-2.49,4.15,0,4.15h371c5,0,10,.1,15,0h.66c2.49,0,2.5-4.15,0-4.15Z"/><ellipse class="cls-11" cx="349.28" cy="137.75" rx="26" ry="27.84"/><path class="cls-12" d="M348.41,155.25a11.26,11.26,0,0,0,7.16-5.61,10.45,10.45,0,0,0,.66-1.46c1.65-3.41,1.52-9.07,1.4-11a22.85,22.85,0,0,0-2.65-11,6.56,6.56,0,0,0-.87-1.5c-2.84-3.28-4.91-4.16-8.09-4.57-1.47-.18-2.9.66-2.83,1.66l.68,9.83c.07,1,1.57,1.59,3,1.19a16.41,16.41,0,0,0,4.19-1.8,20.28,20.28,0,0,1,1.14,6.56v.07a32,32,0,0,1-.22,6.06,16.26,16.26,0,0,0-4.4-1.14c-1.47-.19-2.9.65-2.83,1.65l.68,9.84C345.5,155.05,347,155.65,348.41,155.25Z"/><ellipse class="cls-13" cx="235.83" cy="81.02" rx="18.77" ry="20.1"/><path class="cls-14" d="M243.32,77.4c0-4.66-3.35-8.43-7.49-8.43s-7.49,3.77-7.49,8.43a9.13,9.13,0,0,0,.45,2.84h0l0,.09a8.42,8.42,0,0,0,.55,1.31l6.72,11.42L242.61,81h0A9.19,9.19,0,0,0,243.32,77.4ZM236.05,81a3.87,3.87,0,1,1,3.6-3.86A3.74,3.74,0,0,1,236.05,81Z"/><path class="cls-15" d="M152.68,130.39A22.16,22.16,0,0,0,157,117.1c0-11.75-8.9-21.28-19.87-21.28s-19.86,9.53-19.86,21.28,8.89,21.28,19.86,21.28a18.71,18.71,0,0,0,7.14-1.42h0l9.88,4-1.5-10.58Z"/><ellipse class="cls-9" cx="129.66" cy="117.97" rx="1.62" ry="1.73"/><ellipse class="cls-9" cx="136.78" cy="117.97" rx="1.62" ry="1.73"/><ellipse class="cls-9" cx="143.89" cy="117.97" rx="1.62" ry="1.73"/><ellipse class="cls-16" cx="166.85" cy="211.05" rx="1.93" ry="2.07"/><ellipse class="cls-16" cx="156.71" cy="194.1" rx="2.17" ry="2.33"/><path class="cls-17" d="M313.33,319c4.61-9.66,11-18.75,19.86-24,8.36-4.91,18.22-6,26.92-10.17a44,44,0,0,0,11.06-7.57c-1.27,8.69-2.6,17.58-6.47,25.34-2.86,5.73-7.08,10.78-8.76,17"/><path class="cls-18" d="M369.26,280.85a74.43,74.43,0,0,1-11.92,15.54c-4.3,4.25-9,8-13.43,12a88.92,88.92,0,0,0-1.29-12.92c-.11-.64-1-.37-.92.28A87.39,87.39,0,0,1,343,308.91a.41.41,0,0,0,.12.28c-.42.39-.85.77-1.26,1.16a37.4,37.4,0,0,0-7,9c-.31.58.52,1.09.83.52,3.42-6.36,9-10.8,14.22-15.31,1.24-1.07,2.49-2.15,3.71-3.26a.41.41,0,0,0,.24.06c3-.64,6.11-1.12,9.18-1.46.61-.07.62-1.1,0-1-2.73.3-5.45.74-8.16,1.27a83.76,83.76,0,0,0,9-9.51,78.55,78.55,0,0,0,6.25-9.29C370.41,280.81,369.59,280.29,369.26,280.85Z"/><path class="cls-19" d="M222,263.08c-.94-10.8-3.72-21.78-10.15-30.15-6.07-7.88-14.85-12.81-21.49-20.13a47.35,47.35,0,0,1-7.65-11.42c-1.83,8.58-3.67,17.36-2.76,26.1.68,6.47,2.85,12.83,2.24,19.3"/><path class="cls-18" d="M183.24,205.46a79,79,0,0,0,5.69,19.16c2.52,5.66,5.6,11,8.31,16.53a86.26,86.26,0,0,1,5.66-11.49c.33-.56,1.09.06.76.61A84.26,84.26,0,0,0,198,242a.45.45,0,0,1-.21.22c.25.52.52,1,.76,1.57a39.88,39.88,0,0,1,3.42,11.19.48.48,0,1,1-.95.15c-1-7.27-4.59-13.59-7.91-19.87q-1.19-2.24-2.33-4.5a.41.41,0,0,1-.24,0q-3.9-2.7-8-5c-.54-.31-.19-1.26.36-1,2.44,1.37,4.81,2.85,7.14,4.42a91.9,91.9,0,0,1-5.1-12.41,84.06,84.06,0,0,1-2.58-11.11A.48.48,0,1,1,183.24,205.46Z"/><path class="cls-20" d="M271.05,319.51a84.11,84.11,0,0,1,21.07-46.67c8.41-9.17,18.77-16.12,27-25.44a78.39,78.39,0,0,0,18.32-39.13,103.76,103.76,0,0,1,1.85,78c-4.4,11.37-10.86,21.9-13.59,33.85"/><g class="cls-21"><path class="cls-9" d="M310.88,259.67c-.66,8.16.09,16.4.52,24.56,0,.65,1,.66,1,0-.42-8.16-1.18-16.4-.51-24.56.05-.66-.91-.65-1,0Z"/><path class="cls-9" d="M320.6,271.32l17.85-8.23c.57-.26.08-1.14-.48-.88l-17.85,8.23c-.57.26-.08,1.14.48.88Z"/><path class="cls-9" d="M302.42,299.59l17.85-8.23c.57-.26.08-1.15-.48-.89l-17.85,8.23c-.57.26-.08,1.14.48.89Z"/><path class="cls-9" d="M291.47,281.88a131.45,131.45,0,0,0,5.38,24.66.48.48,0,1,0,.93-.27,128.65,128.65,0,0,1-5.35-24.39c-.08-.65-1-.65-1,0Z"/><path class="cls-9" d="M291.58,320.35c4.77-14.75,14.82-26.41,22.94-39.07A186.23,186.23,0,0,0,326,259.51,194.74,194.74,0,0,0,335,237.64a71.88,71.88,0,0,0,3.65-26.1.48.48,0,1,0-1,0,69.46,69.46,0,0,1-3,23.78,164.86,164.86,0,0,1-8.85,22c-3.49,7.51-6.95,15-11.31,22-4,6.33-8.39,12.29-12.52,18.49-4.6,6.91-8.81,14.17-11.42,22.23a.49.49,0,1,0,.93.28Z"/></g><path class="cls-22" d="M221.42,319.51a84.25,84.25,0,0,0-21.07-46.67c-8.41-9.17-18.77-16.12-27-25.44A78.22,78.22,0,0,1,155,208.27a103.76,103.76,0,0,0-1.85,78c4.39,11.37,10.85,21.9,13.58,33.85"/><g class="cls-21"><path class="cls-9" d="M181.59,259.67c.66,8.16-.09,16.4-.52,24.56a.48.48,0,1,1-1,0c.43-8.16,1.18-16.4.52-24.56-.06-.66.9-.65,1,0Z"/><path class="cls-9" d="M171.86,271.32,154,263.09c-.56-.26-.08-1.14.48-.88l17.86,8.23c.56.26.07,1.14-.49.88Z"/><path class="cls-9" d="M190,299.59l-17.85-8.23c-.56-.26-.08-1.15.48-.89l17.86,8.23c.56.26.07,1.14-.49.89Z"/><path class="cls-9" d="M201,281.88a130.67,130.67,0,0,1-5.38,24.66.48.48,0,1,1-.92-.27A130.22,130.22,0,0,0,200,281.88c.07-.65,1-.65,1,0Z"/><path class="cls-9" d="M200.89,320.35c-4.78-14.75-14.83-26.41-22.95-39.07a184.65,184.65,0,0,1-11.43-21.77,191.07,191.07,0,0,1-9.08-21.87,72.1,72.1,0,0,1-3.66-26.1c0-.65,1-.66,1,0a69.71,69.71,0,0,0,3,23.78,164.91,164.91,0,0,0,8.86,22c3.48,7.51,6.94,15,11.31,22,4,6.33,8.38,12.29,12.51,18.49,4.6,6.91,8.81,14.17,11.42,22.23a.48.48,0,1,1-.92.28Z"/></g><ellipse class="cls-23" cx="137.65" cy="209.12" rx="0.89" ry="0.95"/><ellipse class="cls-23" cx="166.85" cy="211.11" rx="1.93" ry="2.07"/><ellipse class="cls-24" cx="156.71" cy="194.16" rx="2.17" ry="2.33"/><ellipse class="cls-25" cx="370.16" cy="315.28" rx="0.89" ry="0.95"/><ellipse class="cls-25" cx="375.96" cy="298.46" rx="1.93" ry="2.07"/><ellipse class="cls-25" cx="362.25" cy="271.37" rx="1.93" ry="2.07"/><ellipse class="cls-25" cx="304.61" cy="230.03" rx="0.89" ry="0.95"/><ellipse class="cls-25" cx="326.15" cy="208.83" rx="1.93" ry="2.07"/><ellipse class="cls-25" cx="307.71" cy="204.95" rx="2.17" ry="2.33"/><path class="cls-26" d="M124.81,248.15l-.41-.93-.42-1c-.28-.71-.56-1.42-.82-2.15-.54-1.44-1-2.92-1.51-4.41L110.93,243c.52,1.64,1.07,3.27,1.67,4.89.29.81.61,1.62.94,2.44l.5,1.23c.18.43.34.8.58,1.33Z"/><path class="cls-27" d="M116.71,243.88l1.07-.37c-.2-.57-.4-1.14-.58-1.72l-1.07.35C116.32,242.72,116.51,243.3,116.71,243.88Z"/><polygon class="cls-27" points="117.82 246.97 118.88 246.57 118.25 244.87 117.19 245.25 117.82 246.97"/><path class="cls-27" d="M119.05,250l1-.45c-.24-.55-.47-1.1-.69-1.66l-1,.41C118.57,248.88,118.8,249.45,119.05,250Z"/><path class="cls-26" d="M121.65,239.62c-.94-3-1.76-6-2.48-9.05l-11,2.56c.79,3.33,1.68,6.63,2.72,9.9Z"/><polygon class="cls-27" points="113.91 234.43 115 234.15 114.56 232.39 113.47 232.65 113.91 234.43"/><polygon class="cls-27" points="114.76 237.6 115.84 237.29 115.36 235.54 114.27 235.83 114.76 237.6"/><polygon class="cls-27" points="115.68 240.74 116.76 240.4 116.24 238.66 115.16 238.98 115.68 240.74"/><path class="cls-26" d="M119.17,230.57c-.73-3-1.29-6.13-1.8-9.22l-11.12,1.72c.56,3.38,1.17,6.74,2,10.06Z"/><polygon class="cls-27" points="111.85 224.79 112.95 224.6 112.65 222.81 111.54 222.99 111.85 224.79"/><polygon class="cls-27" points="112.45 228.02 113.56 227.79 113.2 226.02 112.1 226.22 112.45 228.02"/><polygon class="cls-27" points="113.14 231.22 114.24 230.97 113.84 229.2 112.74 229.43 113.14 231.22"/><path class="cls-26" d="M117.37,221.35c-.45-3.1-.86-6.21-1.07-9.34l-11.22.88c.24,3.41.69,6.8,1.17,10.18Z"/><path class="cls-27" d="M110.51,215l1.12-.11c-.08-.6-.11-1.2-.16-1.81l-1.12.1C110.4,213.82,110.43,214.43,110.51,215Z"/><polygon class="cls-27" points="110.87 218.29 111.98 218.15 111.78 216.35 110.67 216.47 110.87 218.29"/><polygon class="cls-27" points="111.31 221.53 112.43 221.37 112.17 219.57 111.06 219.72 111.31 221.53"/><path class="cls-26" d="M116.3,212c-.27-3.11-.35-6.24-.37-9.36l-11.25,0c0,3.42.11,6.85.4,10.26Z"/><polygon class="cls-27" points="109.94 205.19 111.06 205.17 111.04 203.36 109.92 203.36 109.94 205.19"/><polygon class="cls-27" points="110.05 208.47 111.17 208.42 111.09 206.61 109.96 206.65 110.05 208.47"/><path class="cls-27" d="M110.23,211.74l1.13-.08c0-.61-.11-1.21-.13-1.81l-1.12.06C110.13,210.52,110.19,211.13,110.23,211.74Z"/><path class="cls-26" d="M115.93,202.65c0-1.57.07-3.12.1-4.68l.29-4.67-11.21-1-.32,5.14c0,1.72-.12,3.43-.11,5.15Z"/><polygon class="cls-27" points="110.16 195.34 111.28 195.41 111.4 193.6 110.27 193.51 110.16 195.34"/><path class="cls-27" d="M110,198.62l1.12,0c0-.61,0-1.21.07-1.81l-1.12-.06C110,197.4,110,198,110,198.62Z"/><polygon class="cls-27" points="109.9 201.89 111.03 201.9 111.08 200.09 109.95 200.06 109.9 201.89"/><polygon class="cls-26" points="116.32 193.3 116.82 188.65 117.52 184.04 106.44 182.12 105.67 187.22 105.11 192.34 116.32 193.3"/><polygon class="cls-27" points="111.2 185.54 112.31 185.71 112.58 183.91 111.47 183.73 111.2 185.54"/><path class="cls-27" d="M110.75,188.79l1.11.13c.06-.6.15-1.19.24-1.79L111,187C110.89,187.58,110.8,188.18,110.75,188.79Z"/><polygon class="cls-27" points="110.4 192.04 111.52 192.15 111.71 190.34 110.59 190.22 110.4 192.04"/><polygon class="cls-26" points="117.52 184.04 118.42 179.46 119.52 174.94 108.65 172.03 107.43 177.05 106.44 182.12 117.52 184.04"/><polygon class="cls-27" points="113.09 175.87 114.19 176.13 114.61 174.37 113.53 174.09 113.09 175.87"/><path class="cls-27" d="M112.35,179.06l1.1.24c.11-.6.26-1.18.4-1.77l-1.1-.25C112.61,177.87,112.46,178.46,112.35,179.06Z"/><polygon class="cls-27" points="111.73 182.28 112.84 182.48 113.18 180.7 112.08 180.48 111.73 182.28"/><polygon class="cls-26" points="119.52 174.94 120.83 170.47 122.34 166.06 111.78 162.18 110.1 167.07 108.65 172.03 119.52 174.94"/><polygon class="cls-27" points="115.85 166.4 116.92 166.77 117.51 165.05 116.45 164.67 115.85 166.4"/><path class="cls-27" d="M114.83,169.52l1.07.33c.17-.58.34-1.16.54-1.73l-1.06-.34C115.16,168.35,115,168.94,114.83,169.52Z"/><polygon class="cls-27" points="113.91 172.66 114.99 172.96 115.5 171.22 114.42 170.91 113.91 172.66"/><path class="cls-26" d="M122.34,166.06c1.11-2.9,2.27-5.78,3.63-8.57l-10.16-4.83c-1.51,3.1-2.8,6.3-4,9.52Z"/><polygon class="cls-27" points="119.45 157.22 120.48 157.68 121.24 156.04 120.22 155.56 119.45 157.22"/><polygon class="cls-27" points="118.16 160.25 119.2 160.67 119.88 158.99 118.85 158.55 118.16 160.25"/><polygon class="cls-27" points="116.94 163.28 117.99 163.68 118.67 162 117.62 161.58 116.94 163.28"/><path class="cls-26" d="M126,157.49c.62-1.43,1.37-2.79,2.1-4.16l1.09-2.06c.37-.68.79-1.34,1.18-2l-9.69-5.71c-.43.74-.89,1.47-1.31,2.22l-1.21,2.28c-.8,1.52-1.63,3-2.32,4.61Z"/><path class="cls-27" d="M123.86,148.41l1,.55c.28-.54.61-1.05.92-1.57l-1-.56C124.48,147.35,124.14,147.87,123.86,148.41Z"/><polygon class="cls-27" points="122.32 151.31 123.32 151.83 124.17 150.23 123.18 149.69 122.32 151.31"/><path class="cls-27" d="M120.84,154.23l1,.49c.25-.55.5-1.1.79-1.63l-1-.51C121.35,153.12,121.1,153.67,120.84,154.23Z"/><path class="cls-26" d="M130.34,149.26l1.2-2c.39-.68.8-1.33,1.25-2l2.61-3.88-9.16-6.53-2.88,4.28c-.49.7-1,1.43-1.38,2.17l-1.33,2.22Z"/><polygon class="cls-27" points="129.07 140.04 130 140.67 131.01 139.17 130.09 138.52 129.07 140.04"/><polygon class="cls-27" points="127.23 142.76 128.18 143.37 129.19 141.86 128.26 141.24 127.23 142.76"/><polygon class="cls-27" points="125.54 145.56 126.51 146.14 127.44 144.58 126.48 143.99 125.54 145.56"/><path class="cls-26" d="M161.19,112.62l.68-.6.8-.67c.53-.45,1.11-.89,1.68-1.33,1.15-.87,2.31-1.75,3.54-2.56l-6.34-9.29c-1.39.92-2.72,1.92-4.07,2.93-.66.53-1.33,1-2,1.59-.33.28-.66.54-1,.84s-.63.55-1.07,1Z"/><path class="cls-27" d="M162.49,103.89l.66.91c.47-.33.93-.68,1.41-1l-.64-.92C163.43,103.2,163,103.55,162.49,103.89Z"/><path class="cls-27" d="M160,105.78l.69.88c.46-.35.9-.71,1.37-1l-.68-.9C160.9,105.06,160.45,105.42,160,105.78Z"/><path class="cls-27" d="M157.57,107.78l.75.84c.42-.38.86-.74,1.31-1.11l-.72-.87C158.46,107,158,107.39,157.57,107.78Z"/><path class="cls-26" d="M167.89,107.46c2.41-1.67,5-3.16,7.53-4.6L170,93c-2.89,1.61-5.74,3.29-8.48,5.18Z"/><polygon class="cls-27" points="170.4 98.78 170.97 99.75 172.47 98.9 171.93 97.92 170.4 98.78"/><polygon class="cls-27" points="167.72 100.4 168.31 101.35 169.78 100.44 169.2 99.47 167.72 100.4"/><path class="cls-27" d="M165.09,102.09l.62.93c.49-.31.95-.65,1.44-1l-.6-.95C166.05,101.42,165.57,101.77,165.09,102.09Z"/><path class="cls-26" d="M175.42,102.86c1.29-.71,2.62-1.35,3.93-2s2.69-1.22,4-1.84l-4.45-10.33c-1.5.69-3,1.33-4.5,2.06s-3,1.47-4.4,2.27Z"/><polygon class="cls-27" points="178.77 94.46 179.24 95.48 180.82 94.77 180.36 93.74 178.77 94.46"/><path class="cls-27" d="M175.94,95.81l.5,1c.52-.26,1-.54,1.55-.77l-.48-1C177,95.27,176.46,95.55,175.94,95.81Z"/><polygon class="cls-27" points="173.15 97.23 173.69 98.22 175.23 97.44 174.71 96.44 173.15 97.23"/><path class="cls-26" d="M183.38,99c2.73-1.14,5.48-2.24,8.3-3.11l-3.48-10.7c-3.16,1-6.23,2.21-9.27,3.48Z"/><polygon class="cls-27" points="187.49 90.92 187.87 91.98 189.51 91.44 189.15 90.37 187.49 90.92"/><polygon class="cls-27" points="184.56 92.02 184.97 93.07 186.57 92.44 186.19 91.39 184.56 92.02"/><polygon class="cls-27" points="181.65 93.17 182.09 94.2 183.7 93.57 183.28 92.52 181.65 93.17"/><path class="cls-26" d="M191.68,95.88l2.1-.7,2.14-.57c1.44-.36,2.84-.82,4.3-1.09l-2.48-11c-1.63.3-3.2.81-4.8,1.21l-2.39.65-2.35.77Z"/><path class="cls-27" d="M196.51,88.22l.28,1.09c.56-.14,1.11-.32,1.67-.43l-.25-1.1C197.63,87.9,197.08,88.07,196.51,88.22Z"/><polygon class="cls-27" points="193.48 89.03 193.79 90.11 195.46 89.66 195.17 88.58 193.48 89.03"/><polygon class="cls-27" points="190.49 89.93 190.83 91 192.48 90.46 192.15 89.38 190.49 89.93"/><path class="cls-26" d="M200.22,93.52l4.34-.89c1.45-.27,2.92-.42,4.38-.64l-1.45-11.15c-1.64.24-3.28.42-4.9.72l-4.85,1Z"/><polygon class="cls-27" points="205.74 86.36 205.91 87.47 207.63 87.23 207.47 86.12 205.74 86.36"/><path class="cls-27" d="M202.65,86.88l.21,1.1c.56-.1,1.12-.25,1.69-.32l-.18-1.11C203.79,86.63,203.22,86.77,202.65,86.88Z"/><polygon class="cls-27" points="199.59 87.5 199.83 88.6 201.52 88.25 201.3 87.15 199.59 87.5"/><polygon class="cls-26" points="208.94 91.99 211.13 91.69 213.34 91.52 217.77 91.2 217.34 79.96 212.41 80.31 209.94 80.5 207.49 80.84 208.94 91.99"/><polygon class="cls-27" points="215.1 85.36 215.17 86.48 216.9 86.36 216.85 85.24 215.1 85.36"/><polygon class="cls-27" points="211.97 85.58 212.08 86.7 213.8 86.58 213.72 85.46 211.97 85.58"/><polygon class="cls-27" points="208.87 85.92 209.01 87.04 210.72 86.8 210.6 85.68 208.87 85.92"/><g class="cls-28"><path class="cls-26" d="M256.8,88.92l1.06,0h1.19c.81,0,1.63,0,2.45.08,1.64.08,3.29.2,4.95.38l1.17-11.19q-2.78-.29-5.58-.43c-.93,0-1.87-.08-2.82-.09h-1.45c-.5,0-.93,0-1.57,0Z"/><path class="cls-27" d="M264.33,83.13l-.08,1.12c.64.06,1.29.1,1.93.17l.11-1.12C265.64,83.23,265,83.18,264.33,83.13Z"/><polygon class="cls-27" points="260.81 82.93 260.77 84.05 262.71 84.15 262.78 83.03 260.81 82.93"/><path class="cls-27" d="M257.29,82.88l0,1.13c.64,0,1.29,0,1.93,0l0-1.12C258.6,82.88,258,82.87,257.29,82.88Z"/><path class="cls-26" d="M266.45,89.37c3.3.34,6.6.87,9.87,1.54l2.26-11c-3.62-.74-7.27-1.33-11-1.71Z"/><polygon class="cls-27" points="274.84 84.49 274.64 85.59 276.55 85.95 276.77 84.85 274.84 84.49"/><path class="cls-27" d="M271.36,83.92,271.19,85c.65.09,1.28.2,1.93.3l.18-1.11C272.65,84.12,272,84,271.36,83.92Z"/><polygon class="cls-27" points="267.87 83.47 267.74 84.59 269.68 84.82 269.82 83.7 267.87 83.47"/><path class="cls-26" d="M276.32,90.91q4.92,1,9.71,2.47l3.3-10.76Q284,81,278.58,79.89Z"/><polygon class="cls-27" points="285.16 86.85 284.85 87.93 286.72 88.48 287.04 87.4 285.16 86.85"/><path class="cls-27" d="M281.75,86l-.27,1.1c.63.14,1.25.32,1.88.48l.29-1.08C283,86.28,282.39,86.1,281.75,86Z"/><path class="cls-27" d="M278.32,85.17l-.23,1.1c.63.13,1.27.27,1.9.42l.25-1.09C279.6,85.44,279,85.31,278.32,85.17Z"/><path class="cls-26" d="M286,93.38q4.79,1.47,9.41,3.4l4.32-10.39q-5.13-2.11-10.43-3.77Z"/><polygon class="cls-27" points="295.2 90.2 294.8 91.25 296.61 91.95 297.03 90.91 295.2 90.2"/><polygon class="cls-27" points="291.89 88.97 291.52 90.04 293.36 90.69 293.75 89.64 291.89 88.97"/><polygon class="cls-27" points="288.56 87.86 288.22 88.94 290.07 89.54 290.43 88.47 288.56 87.86"/><path class="cls-26" d="M295.44,96.78c3.08,1.26,6.07,2.73,9,4.29l5.35-9.89c-3.28-1.74-6.61-3.38-10-4.79Z"/><polygon class="cls-27" points="304.87 94.5 304.37 95.51 306.1 96.39 306.63 95.4 304.87 94.5"/><polygon class="cls-27" points="301.7 92.96 301.23 93.98 302.99 94.81 303.48 93.8 301.7 92.96"/><polygon class="cls-27" points="298.49 91.53 298.05 92.57 299.84 93.33 300.3 92.31 298.49 91.53"/><path class="cls-26" d="M304.45,101.07c2.93,1.57,5.75,3.34,8.52,5.18L319.31,97c-3.09-2.07-6.24-4-9.51-5.78Z"/><polygon class="cls-27" points="314.06 99.77 313.45 100.71 315.08 101.78 315.71 100.84 314.06 99.77"/><polygon class="cls-27" points="311.06 97.91 310.49 98.88 312.15 99.88 312.75 98.93 311.06 97.91"/><polygon class="cls-27" points="308.01 96.16 307.47 97.15 309.17 98.09 309.73 97.12 308.01 96.16"/><path class="cls-26" d="M313,106.25a95,95,0,0,1,7.91,6l7.28-8.59A109.31,109.31,0,0,0,319.31,97Z"/><path class="cls-27" d="M322.66,105.94l-.7.88c.52.39,1,.83,1.5,1.24l.72-.86C323.67,106.78,323.19,106.34,322.66,105.94Z"/><polygon class="cls-27" points="319.88 103.78 319.2 104.68 320.74 105.88 321.43 104.99 319.88 103.78"/><polygon class="cls-27" points="317.02 101.73 316.38 102.66 317.96 103.79 318.62 102.88 317.02 101.73"/><path class="cls-26" d="M320.88,112.3c2.56,2.12,4.94,4.45,7.28,6.81l8.12-7.79c-2.61-2.64-5.27-5.23-8.12-7.61Z"/><polygon class="cls-27" points="330.56 113 329.77 113.8 331.15 115.17 331.95 114.39 330.56 113"/><polygon class="cls-27" points="328.01 110.56 327.25 111.39 328.68 112.71 329.46 111.89 328.01 110.56"/><path class="cls-27" d="M325.39,108.22l-.73.85c.5.42,1,.84,1.46,1.28l.75-.83C326.39,109.07,325.9,108.64,325.39,108.22Z"/></g><path class="cls-26" d="M361.48,164l.45,1,.48,1.08c.32.74.62,1.49.92,2.25.58,1.52,1.15,3.06,1.66,4.62l10.67-3.55c-.56-1.74-1.19-3.46-1.86-5.17-.34-.86-.68-1.72-1.05-2.58l-.57-1.29c-.2-.45-.38-.84-.65-1.39Z"/><path class="cls-27" d="M369.82,168.47l-1.06.38c.21.6.44,1.2.64,1.81l1.06-.36C370.26,169.68,370,169.08,369.82,168.47Z"/><path class="cls-27" d="M368.58,165.21l-1.05.43c.25.59.47,1.19.7,1.78l1-.4C369.05,166.42,368.83,165.81,368.58,165.21Z"/><path class="cls-27" d="M367.2,162l-1,.47c.27.58.53,1.16.78,1.75l1-.44C367.74,163.2,367.48,162.61,367.2,162Z"/><path class="cls-26" d="M365,172.93c1,3.12,1.92,6.31,2.68,9.52l11-2.54c-.83-3.55-1.81-7.06-3-10.53Z"/><polygon class="cls-27" points="372.89 178.46 371.8 178.74 372.26 180.6 373.36 180.34 372.89 178.46"/><polygon class="cls-27" points="371.98 175.1 370.9 175.41 371.41 177.26 372.5 176.97 371.98 175.1"/><path class="cls-27" d="M371,171.78l-1.07.35c.21.6.38,1.22.57,1.83l1.07-.33C371.34,173,371.17,172.39,371,171.78Z"/><path class="cls-26" d="M367.67,182.45c.72,3.21,1.33,6.46,1.77,9.72l11.15-1.5c-.49-3.62-1.16-7.2-2-10.76Z"/><polygon class="cls-27" points="375.02 188.69 373.9 188.86 374.18 190.76 375.3 190.6 375.02 188.69"/><polygon class="cls-27" points="374.41 185.26 373.31 185.47 373.65 187.36 374.76 187.17 374.41 185.26"/><polygon class="cls-27" points="373.71 181.86 372.61 182.11 373.01 183.99 374.12 183.76 373.71 181.86"/><path class="cls-26" d="M369.44,192.17a98,98,0,0,1,.82,9.81l11.24-.37c-.1-3.67-.45-7.31-.91-10.94Z"/><path class="cls-27" d="M376.15,199.07l-1.12.07c.06.64.09,1.28.1,1.92l1.12-.05C376.24,200.36,376.21,199.72,376.15,199.07Z"/><path class="cls-27" d="M375.9,195.6l-1.12.11c.06.63.09,1.27.14,1.91l1.13-.08C376,196.89,376,196.24,375.9,195.6Z"/><polygon class="cls-27" points="375.52 192.15 374.4 192.29 374.61 194.2 375.73 194.08 375.52 192.15"/><path class="cls-26" d="M370.26,202l.07,2.46,0,2.45c0,1.64-.13,3.27-.22,4.9l11.22.83c.1-1.84.26-3.67.25-5.51l0-2.75-.07-2.75Z"/><polygon class="cls-27" points="376.24 209.52 375.12 209.47 375 211.39 376.12 211.46 376.24 209.52"/><polygon class="cls-27" points="376.32 206.04 375.2 206.03 375.17 207.95 376.3 207.99 376.32 206.04"/><path class="cls-27" d="M376.3,202.57l-1.13,0c0,.64.05,1.28.05,1.92h1.13C376.35,203.87,376.31,203.22,376.3,202.57Z"/><path class="cls-26" d="M370.07,211.79c-.09,1.63-.33,3.24-.49,4.87s-.5,3.21-.76,4.82l11.05,2.1c.3-1.82.61-3.64.87-5.47s.45-3.66.55-5.49Z"/><polygon class="cls-27" points="375.17 219.92 374.06 219.75 373.76 221.64 374.86 221.84 375.17 219.92"/><path class="cls-27" d="M375.66,216.48l-1.12-.14c-.07.64-.12,1.27-.23,1.9l1.11.16C375.54,217.76,375.58,217.12,375.66,216.48Z"/><path class="cls-27" d="M376,213l-1.12-.09c-.05.64-.14,1.27-.2,1.91l1.12.11C375.89,214.31,376,213.67,376,213Z"/><path class="cls-26" d="M368.82,221.48c-.36,1.58-.67,3.18-1.06,4.75s-.83,3.14-1.34,4.69l10.73,3.4c.57-1.76,1-3.56,1.52-5.33s.8-3.61,1.2-5.41Z"/><polygon class="cls-27" points="372.93 230.13 371.84 229.82 371.33 231.67 372.41 232 372.93 230.13"/><path class="cls-27" d="M373.83,226.77l-1.09-.26c-.12.62-.33,1.23-.49,1.85l1.09.29C373.5,228,373.71,227.41,373.83,226.77Z"/><polygon class="cls-27" points="374.57 223.38 373.46 223.16 373.06 225.03 374.15 225.27 374.57 223.38"/><path class="cls-26" d="M366.42,230.92c-.54,1.52-1,3.08-1.61,4.59s-1.19,3-1.89,4.48l10.23,4.67c.79-1.67,1.44-3.41,2.16-5.11s1.22-3.49,1.84-5.23Z"/><polygon class="cls-27" points="369.47 240 368.44 239.56 367.71 241.34 368.74 241.8 369.47 240"/><path class="cls-27" d="M370.78,236.77l-1-.39c-.22.6-.48,1.18-.72,1.78l1.05.41C370.3,238,370.56,237.38,370.78,236.77Z"/><polygon class="cls-27" points="371.91 233.49 370.84 233.14 370.22 234.95 371.28 235.32 371.91 233.49"/><path class="cls-26" d="M362.92,240c-.72,1.45-1.39,2.93-2.15,4.37l-2.4,4.24,9.6,5.86,2.73-4.82c.87-1.63,1.64-3.32,2.45-5Z"/><polygon class="cls-27" points="364.85 249.38 363.87 248.82 362.93 250.49 363.89 251.07 364.85 249.38"/><path class="cls-27" d="M366.54,246.33l-1-.52c-.26.59-.61,1.12-.92,1.69l1,.53C365.92,247.46,366.27,246.92,366.54,246.33Z"/><polygon class="cls-27" points="368.06 243.21 367.04 242.73 366.2 244.45 367.21 244.95 368.06 243.21"/><path class="cls-26" d="M358.37,248.6l-2.67,4.09c-.94,1.34-1.95,2.62-2.91,3.94l8.88,6.9c1.09-1.48,2.23-2.93,3.28-4.44l3-4.63Z"/><polygon class="cls-27" points="359.17 258.15 358.26 257.48 357.11 259.02 358 259.7 359.17 258.15"/><path class="cls-27" d="M361.18,255.31l-.93-.63c-.36.52-.68,1.08-1.08,1.58l.92.65C360.49,256.41,360.81,255.84,361.18,255.31Z"/><polygon class="cls-27" points="363.07 252.4 362.12 251.8 361.07 253.41 362.01 254.03 363.07 252.4"/><path class="cls-26" d="M352.79,256.63l-.74,1-.8.93-1.59,1.87c-.54.62-1,1.26-1.6,1.86L346.34,264l8.13,7.79,1.9-2c.62-.67,1.2-1.39,1.8-2.08l1.78-2.09.89-1.05.83-1.1Z"/><polygon class="cls-27" points="352.57 266.26 351.74 265.5 350.41 266.88 351.23 267.65 352.57 266.26"/><polygon class="cls-27" points="354.84 263.62 353.98 262.89 352.74 264.35 353.58 265.09 354.84 263.62"/><path class="cls-27" d="M357.07,261l-.89-.7c-.36.52-.81,1-1.22,1.48l.87.71C356.24,262,356.69,261.48,357.07,261Z"/><path class="cls-26" d="M346.34,264c-2.21,2.43-4.72,4.59-7.14,6.84l7.36,8.51c2.68-2.47,5.43-4.86,7.91-7.56Z"/><polygon class="cls-27" points="345.14 273.6 344.39 272.77 342.97 274.07 343.71 274.91 345.14 273.6"/><polygon class="cls-27" points="347.7 271.25 346.93 270.44 345.51 271.74 346.28 272.56 347.7 271.25"/><polygon class="cls-27" points="350.14 268.78 349.33 268 348 269.38 348.79 270.18 350.14 268.78"/><path class="cls-9" d="M252.86,206.12c-5.36,4.73-10.65,6.64-18.22,6.14a10.94,10.94,0,0,1-7.71-3.14c-2.93,2.9-5.4,6.77-6.07,10.61-2.17,12.2-2.29,24.61-2.41,37l-.58,59.05a.74.74,0,0,0,.11.51,1,1,0,0,0,.62.27,108.81,108.81,0,0,0,26.25,1.59c4-.24,8.06-.68,11.78.53-.54-5.3,1-10.56,2.36-15.74,3-11.37,5.2-23,4.77-34.64-.15-3.9-.59-7.79-.74-11.69-.24-6.56.37-13.13.29-19.7a94.22,94.22,0,0,0-2-18.31c-1-4.87-5-8.52-8.41-12.44"/><path class="cls-29" d="M226.93,209.12c-.26,8.54-1.08,16.21-1.15,26,0,4.51-.25,8-.24,12.47,0,3.1-.22,6.2-.43,9.29L221,315.49a1.64,1.64,0,0,1-.31,1,2.27,2.27,0,0,1-1.8.44l-20.59-.81,1.69-15.8a93.14,93.14,0,0,0,.79-16.08c-.36-5.35-1.64-10.64-1.75-16a72.68,72.68,0,0,1,.81-10.61l1.87-15c1.12-8.92,2.48-18.39,8.93-25.35a52,52,0,0,1,6.1-5.31c2.78-2.17,6.51-2.48,10.2-2.89"/><path class="cls-29" d="M221.29,210.26c-3.33,0-6.47,2-10.41,3.51-4.24,1.59-7,4.55-10,7.68-2.71,2.76-8.87,11.76-11.29,14.81-6.9,8.67-13.58,18.71-19.77,28-4.77,7.13-8.28,8.57-14.72,14-4.48,3.76-9.72,6.28-14.76,9.1a145.91,145.91,0,0,0-20.18,13.61,3.89,3.89,0,0,0-1.37,1.61,4.38,4.38,0,0,0-.06,2.07l1,7.61a2.37,2.37,0,0,0,.42,1.26,2,2,0,0,0,1.37.54,78,78,0,0,0,13.41.14,73.6,73.6,0,0,0,13.38-1.73A87.75,87.75,0,0,0,161,307.81c6.24-2.62,12.53-5.27,18.19-9.12,10.69-7.29,18.53-18.45,25.52-29.78a46.34,46.34,0,0,0,3.55-6.54,51.14,51.14,0,0,0,2.49-8.66q1.92-8.55,3.79-17.13"/><path class="cls-29" d="M252.86,206.12c.32,7.5.19,24.5-.64,34.83-2.38,29.5-2.72,46.88-8.16,75.9a2,2,0,0,0,.33,1.95,2.66,2.66,0,0,0,1.71.42l23.51.42a2.64,2.64,0,0,0,1.38-.22,2.05,2.05,0,0,0,.82-1.2c3.14-8.82,3.64-18.18,3.91-27.43q.55-18.37,0-36.77c-.33-11.8-1-23.84,2.75-35.18.54-1.66,1.77-3.22.65-4.65a9.49,9.49,0,0,0-3-1.95c-6.28-2.79-16.47-4.46-23.24-6.12"/><path class="cls-30" d="M226.43,209.62s1,.17,2,3.35,4.09,18,2.09,32-2.5,32.72-1.34,37.2c.92,3.55,4.4,13.87,24.51-.25s1.48,14.92,1.48,14.92l-35.86,9.89S212,275,212.61,273.85"/><path class="cls-31" d="M247.81,290.4s7.18-3,14-12.37,5.89-16,5.89-21.22-.81-34.08,8.48-33.21,1.63,49.26,1.63,49.26L265.7,287.79,252.22,294"/><path class="cls-29" d="M278.52,213.77a54.13,54.13,0,0,0-6.78,18c-1.79,9.1-1.09,13-1.17,23.46,0,5.93.93,12-.92,19.47-1.44,5.8-5.75,8.55-10.81,11.1S248.38,290,243.12,292c-12.54,4.83-24.44,8.34-36.22,15-3.63,2.06.36,6.93.32,7.71a2.94,2.94,0,0,0,.5,1.56c2.19,4,2.55,3.2,4.61,4.65.74.52,3.06-.65,3.84-.19s2.81-.08,3.65-.12a73.73,73.73,0,0,0,9.64-.63c15.64-2.93,29.13,1.93,43.76-4.69,4-1.81,8-3.81,11.16-7,4.47-4.53,6.73-11,8.38-17.34,6.23-24,5.31-51-7.08-72-1.58-2.69-4.57-4.91-7.16-5.13"/><path class="cls-8" d="M205.41,308.91s-10.9-2-15.43-1-10.85,2.57-10.72,6.41l26.15,0"/><path class="cls-31" d="M199.16,307.94s2.33-19.48.89-31.78c0,0,3.35-24.5,5.47-22.1s2.66,12.4,1.58,20.28S204,302.23,205,309.22"/><rect class="cls-32" x="49.75" y="314.32" width="191.09" height="5.35" rx="1.62"/><path class="cls-33" d="M166.82,319.67H52.75a3.11,3.11,0,0,1-3-2.9l-8-81a3.15,3.15,0,0,1,3-3.57H159.93a3.1,3.1,0,0,1,3,2.94l6.9,81A3.15,3.15,0,0,1,166.82,319.67Z"/><path class="cls-34" d="M163.11,319.67H49a3.11,3.11,0,0,1-3-2.9l-8-81a3.16,3.16,0,0,1,3-3.57H156.21a3.11,3.11,0,0,1,3,2.94l6.9,81A3.16,3.16,0,0,1,163.11,319.67Z"/><ellipse class="cls-35" cx="97.62" cy="277.02" rx="6.32" ry="6.77"/></g></g></g></g></svg>