<svg xmlns="http://www.w3.org/2000/svg" viewBox="0 0 2567.71 1619.78"><defs><style>.cls-1{fill:#ebf3fa;}.cls-2{fill:#dfebfd;}.cls-3{fill:#d2e2f9;}.cls-4{fill:#b4cffc;}.cls-5{fill:#9ec3f6;}.cls-6{fill:#fff;}.cls-7{fill:#c0d8fb;}.cls-8{fill:#f99746;}.cls-9{fill:#f0f6ff;}.cls-10{fill:#2c3a64;}.cls-11{fill:#97bdff;}.cls-12{fill:#4c88f2;}.cls-13{fill:#ed7d2b;}.cls-14{fill:#2b478b;}.cls-15{fill:#233862;}.cls-16{fill:#ed985f;}.cls-17{fill:#ffb27d;}.cls-18{fill:#f58f3e;}.cls-19{fill:#ed975d;}.cls-20{fill:#cbe1fd;}.cls-21{fill:#2e3552;}</style></defs><g id="Capa_2" data-name="Capa 2"><g id="Слой_1" data-name="Слой 1"><path class="cls-1" d="M166.63,1612.79C87.12,1516.64,35,1392.92,12.41,1271.08-32.63,1027.79,54,764,220.71,582.86,359.45,432.18,564,379.11,762.45,373.2c85.77-2.55,171.48,3.09,256.77,11.68,55,5.54,111.5,16,166.91,14.23,52.45-1.7,85.69-43.56,114.79-82.3,47-62.62,93.18-124.33,155-173.51C1623.85,9.74,1882.32-48.5,2081.3,47.6a396,396,0,0,1,199.64,219.14c45.5,122.71,33.32,258.91-.2,382.9-24.49,90.89-43,188.46-11,280.1,33.29,95.31,116.61,153.8,177.09,230.31,106.49,134.69,77.46,305.84,26.13,457.79Z"/><path class="cls-2" d="M525.64,1160.41s134.74,70,120.16,94.27-144.5-88.83-144.5-88.83-138.09,67.93-167.54,114c0,0,167.73,22.26,147.63,42.19s-195.71,4.87-195.71,4.87-108.49,95.62-56.29,165.59,108.11,67,125.26,53.65S453.85,1425.39,465.5,1439,442.89,1541.75,399,1572.05c0,0,143.78,41.41,183.77-20.93s18.17-108.48,43.58-146.55,55.66-56.73,51.25-31.19-58.6,81.21-56.7,129.55-1.33,83.75,52,38.56,122.26-147.29,96-199.14l-3.29-6.48a27.8,27.8,0,0,1,3.29,6.48c13.59-5.39,52.92,1.4,82.24,7.7,4.77,1.36,11.59,2.94,21.09,4.8h0c4.17,1,7.56,1.84,9.92,2.44,62.4,18.29,136.55,92.71,136.55,92.71l12.12-9.08C968.16,1350.55,865.15,1342,865.15,1342c-76.62-13.26-122.5-51.48-122.5-51.48s23.27-149.1-93.39-162.53C649.26,1128,570.58,1128.73,525.64,1160.41Z"/><path class="cls-2" d="M697.77,663.26s21.74,116.37-.16,119.08-14.88-131.42-14.88-131.42-108.06-52.16-150.5-48.11c0,0,66.92,113.7,45,110.93s-97-117.84-97-117.84-110.84-20.68-128.72,45,10.82,98.56,27.24,102.69,121.81,2.9,119.06,16.58-74,35.49-113.64,23.12c0,0,43.66,108.19,101.15,102.79s75.33-41,110.93-43.65,61.58,6.92,43.77,16.48-78,3-106.79,27.43-52.07,39.43,1.3,50.45,149.18,4.3,168.4-36.74q1.26-2.67,2.4-5.13a21.66,21.66,0,0,1-2.4,5.13c9.84,5.76,24.57,33.18,34.79,54.21,1.46,3.58,3.76,8.53,7.19,15.25h0c1.38,3,2.49,5.53,3.26,7.27,18.76,47.1,8.68,128.39,8.68,128.39l11.4,3.08C793.63,1026.34,749.39,959,749.39,959c-28.67-53.42-27.24-100-27.24-100s102.73-57.35,54.93-135.43C777.08,723.59,738.81,675.63,697.77,663.26Z"/><path class="cls-2" d="M2021.13,366.44c-28.33-104.6-204.85-71.91-204.85-71.91s-119.86,183.05-154.73,187.41,71.92-176.52,71.92-176.52c-67.56-6.54-239.72,76.28-239.72,76.28s10.9,213.56-24,209.2,0-189.59,0-189.59c-65.38,19.61-126.4,95.89-126.4,95.89-76.27,124.21,87.17,215.74,87.17,215.74S1432.73,787,1387,872h0s-10.32,15.69-20.82,42.36H1384c1.46-4.78,3.06-9.4,4.84-13.83a.1.1,0,0,1,0-.08,1.67,1.67,0,0,0,.08-.2c1.22-2.75,3-6.67,5.16-11.44v0s0,0,0,0c5.45-10.66,9.13-18.54,11.45-24.22a.14.14,0,0,0,0-.06c16.32-33.46,39.82-77.06,55.5-86.2a34.67,34.67,0,0,1-3.81-8.18q1.82,3.92,3.81,8.18c30.51,65.37,183.06,76.27,268,58.84s47.94-41.41,2.18-80.32-141.65-28.65-170-43.9,13.07-30.51,69.73-26.15,85,61,176.52,69.73,161.26-163.44,161.26-163.44C1905.63,612.69,1792.31,577.83,1788,556s163.44-19.61,189.59-26.15S2049.46,471,2021.13,366.44Z"/><path class="cls-3" d="M2258.61,783.65H2011.73A35.89,35.89,0,0,0,1976,819.44V927.75a33,33,0,0,0,32.87,32.86h6.34l-11.9,50.24,74.68-50.24h182.81a35.85,35.85,0,0,0,35.75-35.75V821.54A38,38,0,0,0,2258.61,783.65Z"/><path class="cls-4" d="M2265.24,862.27H2007.82a6.4,6.4,0,0,1-6.38-6.37h0a6.4,6.4,0,0,1,6.38-6.38h257.42a6.39,6.39,0,0,1,6.37,6.38h0A6.39,6.39,0,0,1,2265.24,862.27Z"/><path class="cls-4" d="M2265.24,890.81H2007.82a6.4,6.4,0,0,1-6.38-6.38h0a6.4,6.4,0,0,1,6.38-6.37h257.42a6.39,6.39,0,0,1,6.37,6.37h0A6.39,6.39,0,0,1,2265.24,890.81Z"/><path class="cls-4" d="M2265.24,919.34H2007.82a6.4,6.4,0,0,1-6.38-6.37h0a6.4,6.4,0,0,1,6.38-6.38h257.42a6.39,6.39,0,0,1,6.37,6.38h0A6.39,6.39,0,0,1,2265.24,919.34Z"/><path class="cls-4" d="M2125,818H2015.71a7.61,7.61,0,0,1-7.59-7.59h0a7.61,7.61,0,0,1,7.59-7.59H2125a7.61,7.61,0,0,1,7.59,7.59h0A7.61,7.61,0,0,1,2125,818Z"/><rect class="cls-4" x="2147.15" y="802.77" width="77.75" height="15.18" rx="6"/><polygon class="cls-5" points="1757.92 202.21 1615.59 222.51 1710.04 158.13 1714.85 178.77 1749.46 185.04 1757.92 202.21"/><polygon class="cls-6" points="1615.59 222.51 1734.03 161.44 1850.13 155.6 1615.59 222.51"/><polygon class="cls-6" points="1710.04 158.13 1615.59 222.51 1688.71 121.89 1710.04 158.13"/><path class="cls-7" d="M1524.28,275.81v1264.7a56.44,56.44,0,0,1-56.45,56.44h-708a56.44,56.44,0,0,1-56.45-56.44V275.81a56.45,56.45,0,0,1,56.45-56.45h708A56.45,56.45,0,0,1,1524.28,275.81Z"/><rect class="cls-6" x="957.8" y="1293.22" width="382.12" height="144.51" rx="19.48" transform="translate(2297.72 2730.96) rotate(180)"/><rect class="cls-8" x="870.23" y="1101.46" width="382.12" height="128.13" rx="18.34" transform="translate(2122.59 2331.06) rotate(180)"/><rect class="cls-9" x="715.39" y="219.36" width="794.51" height="529.62"/><path class="cls-10" d="M1429.75,645.82a6.81,6.81,0,0,1-11.82,5.38c-2.55-2.81-10.91-10.14-18.73-10.13-3.68,0-7,1.68-10.1,5.12-12,13.25,5.05,32.8,5.22,33a6.8,6.8,0,1,1-10.18,9c-8.79-9.93-21.18-33.4-5.14-51.14,5.7-6.3,12.7-9.62,20.26-9.6,6.68,0,13.6,2.52,20.55,7.45a53.14,53.14,0,0,1,8.25,7.19A6.82,6.82,0,0,1,1429.75,645.82Z"/><path class="cls-10" d="M1386.18,642.81a5,5,0,0,1-8.26,3.67l-15.83-14.25a4.95,4.95,0,1,1,6.62-7.35l15.83,14.24A5,5,0,0,1,1386.18,642.81Z"/><path class="cls-11" d="M1370.61,638.54l-1.35.9a29.55,29.55,0,0,1-4.81,2.61h-.06a29.55,29.55,0,0,1-32.37-6.33c-17.86-17.77-41.49-30.1-70.58-36.78-1.13-.25-2.23-.5-3.34-.72a204.77,204.77,0,0,0-29.57-4,26.34,26.34,0,0,1-24.63-23.86l-.08-.9-.42-4.49a18.86,18.86,0,0,1,19.3-20.59,258.85,258.85,0,0,1,42,4.64,228,228,0,0,1,34.46,9.45c26.08,9.43,53.16,24.93,75.46,50.3A20,20,0,0,1,1370.61,638.54Z"/><path class="cls-12" d="M1364.39,642.06a29.55,29.55,0,0,1-32.37-6.33c-17.86-17.77-41.49-30.1-70.58-36.78-1.13-.25-2.23-.5-3.34-.72,2.56-24.06,5.21-48.49,5.21-48.49l1.35-.72a228,228,0,0,1,34.46,9.45s-5.48,24.2,14.41,35.92S1349.77,647.07,1364.39,642.06Z"/><path class="cls-8" d="M1056.74,532.23c-10.16-9.11-6.49-24.46-6.33-25.12l9.7,2.76-4.85-1.38,4.86,1.35c0,.09-2.18,9.48,3.07,14.19Z"/><path class="cls-8" d="M1193.22,532.23c10.16-9.11,6.48-24.46,6.32-25.12l-9.7,2.76,4.85-1.38-4.85,1.35c0,.09,2.18,9.48-3.08,14.19Z"/><path class="cls-13" d="M968.69,540V749h259.57V540a17.09,17.09,0,0,0-17-17H985.75a16.76,16.76,0,0,0-8.51,2.3,17.18,17.18,0,0,0-7.25,8.24A16.85,16.85,0,0,0,968.69,540Z"/><path class="cls-8" d="M1028.41,540V749H1288V540a17.1,17.1,0,0,0-17.06-17H1045.46A17.1,17.1,0,0,0,1028.41,540Z"/><rect class="cls-11" x="1098.48" y="512.56" width="82.42" height="10.42"/><rect class="cls-12" x="1065.83" y="512.56" width="47.66" height="10.42"/><path class="cls-11" d="M1264.36,549.13l-12,14.93a5.14,5.14,0,0,1-8,0l-4.82-6-7.7-9.54a3,3,0,0,1,2.35-4.93h27.59A3.38,3.38,0,0,1,1264.36,549.13Z"/><path class="cls-12" d="M1264.36,549.13l-12,14.93a5.14,5.14,0,0,1-8,0l-4.82-6a21.68,21.68,0,0,0,16.08-14.47h6.16A3.38,3.38,0,0,1,1264.36,549.13Z"/><path class="cls-11" d="M1013.6,582v0l1.66-4.88.34-1A30.26,30.26,0,0,0,1001,539.57a237.16,237.16,0,0,1-32.27-20.42c-27.35-20.66-46.35-44.69-56.72-71.7a33.91,33.91,0,0,0-37.29-21.38l-1.86.32A23,23,0,0,0,857.13,437a22.71,22.71,0,0,0-2.4,18.75c24.47,79.19,93,121.5,129,138.8A21.64,21.64,0,0,0,1013.6,582Z"/><path class="cls-12" d="M1013.61,582l1.66-4.88.34-1A30.26,30.26,0,0,0,1001,539.57a237.16,237.16,0,0,1-32.27-20.42c-27.35-20.66-46.35-44.69-56.72-71.7a33.91,33.91,0,0,0-37.29-21.38l-1.86.32A23,23,0,0,0,857.13,437c15.15-3.41,32.67-2.66,40,15.23,14.11,34.48,55.76,72,89.35,92.2C1019.33,564.19,1013.87,581.25,1013.61,582Z"/><path class="cls-10" d="M878.22,357.33a7.82,7.82,0,0,0-10.3,10.79c2.09,3.83,6.88,15.67,3.92,24.14-1.4,4-4.46,6.95-9.37,9-18.89,8-33.67-17.85-33.82-18.11A7.82,7.82,0,1,0,815,390.83c7.46,13.28,28.24,35.57,53.55,24.86,9-3.8,15.22-10.15,18.06-18.36,2.51-7.25,2.39-15.7-.34-25.1a62.35,62.35,0,0,0-4.68-11.67A7.81,7.81,0,0,0,878.22,357.33Z"/><path class="cls-10" d="M865,405.74a5.68,5.68,0,0,0-7.1,7.57l9.49,22.55a5.69,5.69,0,1,0,10.48-4.41l-9.49-22.54A5.67,5.67,0,0,0,865,405.74Z"/><path class="cls-10" d="M1089.67,381.11A12.63,12.63,0,1,0,1077,393.74,12.63,12.63,0,0,0,1089.67,381.11Z"/><path class="cls-10" d="M1077,376.26h0a1.82,1.82,0,0,0,1.81-1.81V323.33a1.82,1.82,0,0,0-1.81-1.81h0a1.82,1.82,0,0,0-1.82,1.81v51.12A1.82,1.82,0,0,0,1077,376.26Z"/><path class="cls-10" d="M1236.54,381.11a12.63,12.63,0,1,0-12.63,12.63A12.63,12.63,0,0,0,1236.54,381.11Z"/><rect class="cls-13" x="982.35" y="378.17" width="249.38" height="134.39" rx="24.79"/><rect class="cls-8" x="1033.5" y="378.17" width="249.38" height="134.39" rx="23.29"/><path class="cls-6" d="M1204.05,465.15H1102s10.4,21.58,56.17,21.59C1195.76,486.75,1204.05,465.15,1204.05,465.15Z"/><rect class="cls-12" x="1047.28" y="404.48" width="214.94" height="47.11" transform="translate(2309.5 856.07) rotate(180)"/><rect class="cls-6" x="1220.55" y="424.18" width="4.9" height="4.9" transform="translate(2446 853.26) rotate(180)"/><rect class="cls-6" x="1226.75" y="424.18" width="4.9" height="4.9" transform="translate(2458.41 853.26) rotate(180)"/><rect class="cls-6" x="1226.75" y="430.59" width="4.9" height="4.9" transform="translate(2458.41 866.07) rotate(180)"/><rect class="cls-6" x="1233.18" y="424.18" width="4.9" height="4.9" transform="translate(2471.26 853.26) rotate(180)"/><rect class="cls-6" x="1214.32" y="424.18" width="4.9" height="4.9" transform="translate(2433.54 853.26) rotate(180)"/><rect class="cls-6" x="1214.32" y="430.59" width="4.9" height="4.9" transform="translate(2433.54 866.07) rotate(180)"/><rect class="cls-6" x="1208.08" y="424.18" width="4.9" height="4.9" transform="translate(2421.07 853.26) rotate(180)"/><rect class="cls-6" x="1220.55" y="417.83" width="4.9" height="4.9" transform="translate(2446 840.57) rotate(180)"/><rect class="cls-6" x="1220.55" y="411.95" width="4.9" height="4.9" transform="translate(2446 828.8) rotate(180)"/><rect class="cls-6" x="1214.32" y="417.83" width="4.9" height="4.9" transform="translate(2433.54 840.57) rotate(180)"/><rect class="cls-6" x="1226.75" y="417.83" width="4.9" height="4.9" transform="translate(2458.41 840.57) rotate(180)"/><rect class="cls-6" x="1220.55" y="430.59" width="4.9" height="4.9" transform="translate(2446 866.07) rotate(180)"/><rect class="cls-6" x="1220.55" y="437.04" width="4.9" height="4.9" transform="translate(2446 878.99) rotate(180)"/><rect class="cls-6" x="1089.5" y="424.18" width="4.9" height="4.9" transform="translate(2183.91 853.26) rotate(180)"/><rect class="cls-6" x="1095.71" y="424.18" width="4.9" height="4.9" transform="translate(2196.32 853.26) rotate(180)"/><rect class="cls-6" x="1095.71" y="430.59" width="4.9" height="4.9" transform="translate(2196.32 866.07) rotate(180)"/><rect class="cls-6" x="1102.13" y="424.18" width="4.9" height="4.9" transform="translate(2209.17 853.26) rotate(180)"/><rect class="cls-6" x="1083.27" y="424.18" width="4.9" height="4.9" transform="translate(2171.44 853.26) rotate(180)"/><rect class="cls-6" x="1083.27" y="430.59" width="4.9" height="4.9" transform="translate(2171.44 866.07) rotate(180)"/><rect class="cls-6" x="1077.04" y="424.18" width="4.9" height="4.9" transform="translate(2158.98 853.26) rotate(180)"/><rect class="cls-6" x="1089.5" y="417.83" width="4.9" height="4.9" transform="translate(2183.91 840.57) rotate(180)"/><rect class="cls-6" x="1089.5" y="411.95" width="4.9" height="4.9" transform="translate(2183.91 828.8) rotate(180)"/><rect class="cls-6" x="1083.27" y="417.83" width="4.9" height="4.9" transform="translate(2171.44 840.57) rotate(180)"/><rect class="cls-6" x="1095.71" y="417.83" width="4.9" height="4.9" transform="translate(2196.32 840.57) rotate(180)"/><rect class="cls-6" x="1089.5" y="430.59" width="4.9" height="4.9" transform="translate(2183.91 866.07) rotate(180)"/><rect class="cls-6" x="1089.5" y="437.04" width="4.9" height="4.9" transform="translate(2183.91 878.99) rotate(180)"/><path class="cls-10" d="M1223.91,376.26h0a1.82,1.82,0,0,0,1.81-1.81V323.33a1.82,1.82,0,0,0-1.81-1.81h0a1.82,1.82,0,0,0-1.82,1.81v51.12A1.82,1.82,0,0,0,1223.91,376.26Z"/><path class="cls-6" d="M1089.58,538.47a3.52,3.52,0,1,0-3.51,3.51A3.52,3.52,0,0,0,1089.58,538.47Z"/><path class="cls-6" d="M1074.52,538.47A3.52,3.52,0,1,0,1071,542,3.53,3.53,0,0,0,1074.52,538.47Z"/><path class="cls-6" d="M1059.6,538.47a3.52,3.52,0,1,0-3.51,3.51A3.52,3.52,0,0,0,1059.6,538.47Z"/><path class="cls-14" d="M1214,288.19H1013.66A53.69,53.69,0,0,1,960,234.5h307.72A53.69,53.69,0,0,1,1214,288.19Z"/><path class="cls-14" d="M1469.28,1612.09H758.37c-38.25,0-69.37-32.77-69.37-73.06V277.29c0-40.29,31.12-73.07,69.37-73.07h710.91c38.25,0,69.37,32.78,69.37,73.07V1539C1538.65,1579.32,1507.53,1612.09,1469.28,1612.09ZM758.37,234.5c-22.4,0-40.62,19.2-40.62,42.79V1539c0,23.59,18.22,42.78,40.62,42.78h710.91c22.4,0,40.62-19.19,40.62-42.78V277.29c0-23.59-18.22-42.79-40.62-42.79Z"/><path class="cls-14" d="M702.48,1508.07h822.69a0,0,0,0,1,0,0v28.77a59.64,59.64,0,0,1-59.64,59.64H740a37.55,37.55,0,0,1-37.55-37.55v-50.86A0,0,0,0,1,702.48,1508.07Z"/><g id="girl_2" data-name="girl 2"><path class="cls-15" d="M1591.74,910.79A96.19,96.19,0,0,1,1678,935.43a255.35,255.35,0,0,1,31.43,36c25.29,35.31-23.13,70.26-16.7,82.22s21.36,21.42,14.84,46.39-49.59,57.39-63.63,58.83c-142.27,14.61-204-63.82-156.46-106.1s28.15-103.62,66.77-127.45C1566.2,917.91,1579.31,913.45,1591.74,910.79Z"/><path class="cls-16" d="M1664.1,1129.51s134,58.37,158.31,57.31,174.19-45.65,174.19-45.65l-3.82,25.78s-115.66,66.52-156.09,70.29c-39.81,3.72-175.93-35.72-189.07-44S1625.91,1137.93,1664.1,1129.51Z"/><path class="cls-17" d="M1680.38,1193.26c-11.76,8.16-26.52,14.9-45,19.17-69.43,16-96-42.64-106-82.92a59.6,59.6,0,0,1,23.53-7.23c5-.59,10.29-1,14.66-1.2,7.8-6,19.42-30.42,22-68.36l3.26.87,54.73,15s-2.51,17.4-3.74,33.84c-1,12.86-1.1,25.16,1.34,28.17,4.27.92,6.83,1.53,6.83,1.53l0,.05A352.2,352.2,0,0,1,1680.38,1193.26Z"/><path class="cls-16" d="M1647.47,1068.58s-2.52,17.38-3.74,33.84c-31-3.11-45.39-32.63-51-48.82Z"/><path class="cls-17" d="M1656.73,1084.91s-73.59-4.06-70.36-49.85-4.08-77.15,43-76.49,55,18.77,57.64,34.32S1676,1084.78,1656.73,1084.91Z"/><path class="cls-15" d="M1686.69,967.27c-10.37-14.58-19.18-12.18-24.28-8.38-38.59-25-66.82,5.83-66.82,5.83-7.28,32.5-32.31,49.62-32.31,49.62s13,10.42,44.25,3.5c39.94-8.85,53.65-43.48,55.51-48.8,4.2,4.35,9.62,7.12,13.78,16.56,4.94,11.21,8,17.72,8.13,36.13C1685,1021.73,1702.25,989.15,1686.69,967.27Z"/><path class="cls-6" d="M1508.34,1342.87c-6.64-34-28.31-169.69-6.64-213.37,7.78-15.69,38.31-17.1,71.82-15.73,10.42,6.74,50.14,32.17,66.46,29l.91-.21c7.69-1.92,10.59-7.32,4.18-12a146,146,0,0,1,37.2,2.27c11.63,2.2,43,18.44,43,18.44s-15.81,28.56-39.12,38.42c4,35.45-1.93,51.09-38.72,133-31.08,69.23,4.2,131.55,4.2,131.55s-183,147.12-184,72.21C1466.9,1470.07,1516.84,1386.29,1508.34,1342.87Z"/><path class="cls-13" d="M1660.73,1614.22a34,34,0,0,0,24.47-14.9c.88-1.32,1.83-2.74,2.83-4.26,20.83-31.53,28.93-128.09,75.78-231,11.41-25,52.37-29.55,63.54-57.86,0,0,27.49-91.76-52.62-94.47s-214.54,255.32-216.66,282.38C1556,1520.37,1505.11,1631.78,1660.73,1614.22Z"/><path class="cls-15" d="M1979.12,1612.11h-114s-4.26-18.19,3.23-30.56c6.62-11,4.08-17.19-.83-26.25a44.26,44.26,0,0,0,19.21,3.62c5.68-.33,11.69-2.91,17-6,4.91,5.59,25.92,29.4,32.49,34.12C1943.6,1592.44,1976.83,1590.53,1979.12,1612.11Z"/><path class="cls-13" d="M1830,1238.3c6.86,51.48,33.67,213.93,81,293.19,15.24,25.56-38.42,39.88-38.71,39.8-7.2-1.88-19.19-13.35-24.71-18.33-38.4-34.61-116.34-132.59-116.34-211.15,0-38.3-.68-111.46,27.18-130C1775.5,1200.31,1827.23,1217.86,1830,1238.3Z"/><path class="cls-8" d="M1592.74,1612.11s4.22-5.88,11.59-17c8.77-13.28,18.47-39.42,30.25-72.92,12.36-35.17,27-78.44,45.37-123.46,5.66-13.9,11.67-28,18.06-42,11.41-25,42.8-21.58,54-49.89,0,0,43.57-98.15-36.53-100.85s-232.33,262.54-241.08,288.23C1464.8,1522.28,1418.08,1639.05,1592.74,1612.11Z"/><path class="cls-14" d="M1895.42,1612.11h-114s-4.27-18.19,3.22-30.56c6.62-11,4.08-17.19-.82-26.25a44.19,44.19,0,0,0,19.2,3.62c5.68-.33,11.69-2.91,17-6,4.9,5.59,25.92,29.4,32.48,34.12C1859.9,1592.44,1893.13,1590.53,1895.42,1612.11Z"/><path class="cls-18" d="M1634.58,1522.14c12.36-35.17,27-78.44,45.37-123.46-4.79-34.11-15.12-64-32.49-76C1647.46,1322.7,1605.33,1453.23,1634.58,1522.14Z"/><path class="cls-8" d="M1763.4,1234.66c6.87,51.47,16.54,217.57,63.83,296.83,15.25,25.56-38.42,39.88-38.71,39.8-7.19-1.88-19.18-13.35-24.71-18.33-38.4-34.61-116.34-132.59-116.34-211.15,0-38.3,45-108.39,72.8-127C1737.43,1203.38,1760.67,1214.21,1763.4,1234.66Z"/><path class="cls-15" d="M2010.21,1074.84l-116.77-12.4a7.52,7.52,0,0,0-7.83,4.81L1843.83,1177a7.54,7.54,0,0,0,6.74,10.21l115.86,4.68a7.55,7.55,0,0,0,7.26-4.63l42.68-102A7.54,7.54,0,0,0,2010.21,1074.84Z"/><path class="cls-14" d="M2020.35,1075.9l-116.76-12.4a7.54,7.54,0,0,0-7.84,4.81L1854,1178.09a7.54,7.54,0,0,0,6.74,10.21l115.86,4.68a7.54,7.54,0,0,0,7.26-4.63l42.68-102A7.53,7.53,0,0,0,2020.35,1075.9Z"/><path class="cls-1" d="M1955.63,1127.16c1.43-3.92-.59-7.1-4.51-7.1s-8.25,3.18-9.68,7.1.6,7.09,4.51,7.09S1954.2,1131.08,1955.63,1127.16Z"/><path class="cls-1" d="M2016.86,1086.28c.7-1.93-.29-3.49-2.22-3.49a5.51,5.51,0,0,0-4.75,3.49c-.7,1.92.29,3.48,2.22,3.48A5.52,5.52,0,0,0,2016.86,1086.28Z"/><path class="cls-17" d="M1529.3,1129.51s161.83,59.59,186.15,58.37c15.71-.79,146.35-46.71,146.35-46.71l11.73,22.19s-127.15,81.72-162.11,81.32c-69-.8-185.46-43.16-198.6-51.49S1491.11,1137.93,1529.3,1129.51Z"/><path class="cls-17" d="M1861.8,1141.17s11.73-18.05,23.41-18.58,31.84,8,38.74,9.29,26.54,7.7,20.7,17.25-32.91,11.68-44.58,9.56-26.54,4.67-26.54,4.67Z"/><path class="cls-17" d="M1882,1123.15s18.57-8.52,23.88-10.11,4.24,0,2.65,5-11.15,9.84-11.15,11.42S1882,1123.15,1882,1123.15Z"/><path class="cls-17" d="M2008.33,1131.62s-11.71-18.53-15.55-19.28c-11.68-2.31-11.68,13.07-9.2,23,2.66,10.64,11.65,20.69,14.14,19.81S2011.08,1141.4,2008.33,1131.62Z"/><path class="cls-17" d="M2008.77,1135.33s3.74,20.78-16,31.62l5.84-14.3Z"/><path class="cls-6" d="M1670.5,1058.58s-7-2.75-26.53-1.17c0,0,1,7.64,15.48,8.39C1667.62,1066.23,1670.5,1058.58,1670.5,1058.58Z"/><path class="cls-6" d="M1612.68,1158.9s-14.47,45.82-64.18,56.24c0,0-82.09-25.29-41.22-81.21C1507.28,1133.93,1547.69,1103.9,1612.68,1158.9Z"/></g><path class="cls-6" d="M916.88,1356.74a82.92,82.92,0,0,1-12.07,43.18s0,0,0,0a82.86,82.86,0,0,1-7.06,9.88c-1.65,2-3.39,3.9-5.21,5.72A83.06,83.06,0,0,1,839,1439.75c-1.75.12-3.54.18-5.33.18a83.23,83.23,0,0,1-57-22.59,83.69,83.69,0,0,1-15.8-20.31,83.18,83.18,0,1,1,156-40.29Z"/><path class="cls-8" d="M800.61,1391.88c-4.58-4.1-2.93-11-2.85-11.31l4.37,1.24-2.19-.62,2.19.6s-1,4.27,1.38,6.4Z"/><path class="cls-8" d="M862.1,1391.88c4.57-4.1,2.92-11,2.85-11.31l-4.37,1.24,2.18-.62-2.19.6s1,4.27-1.38,6.4Z"/><path class="cls-13" d="M877.88,1395.39v31.84A82.69,82.69,0,0,1,839,1439.75c-1.75.12-3.54.18-5.33.18a83.23,83.23,0,0,1-57-22.59,83.69,83.69,0,0,1-15.8-20.31v-1.64a7.7,7.7,0,0,1,7.69-7.67H870.21A7.68,7.68,0,0,1,877.88,1395.39Z"/><path class="cls-8" d="M904.79,1395.39V1400a82.86,82.86,0,0,1-7.06,9.88c-1.65,2-3.39,3.9-5.21,5.72A83.06,83.06,0,0,1,839,1439.75c-1.75.12-3.54.18-5.33.18a82.78,82.78,0,0,1-45.87-13.8v-30.74a7.71,7.71,0,0,1,7.69-7.67H897.1A7.7,7.7,0,0,1,904.79,1395.39Z"/><rect class="cls-12" x="819.41" y="1383.02" width="37.13" height="4.7"/><rect class="cls-10" x="804.7" y="1383.02" width="21.47" height="4.7"/><path class="cls-10" d="M815.44,1323.8a5.69,5.69,0,1,0-5.69,5.69A5.69,5.69,0,0,0,815.44,1323.8Z"/><path class="cls-10" d="M809.75,1321.61h0a.82.82,0,0,0,.82-.82v-23a.82.82,0,0,0-.82-.82h0a.82.82,0,0,0-.81.82v23A.82.82,0,0,0,809.75,1321.61Z"/><path class="cls-10" d="M881.61,1323.8a5.69,5.69,0,1,0-5.69,5.69A5.69,5.69,0,0,0,881.61,1323.8Z"/><rect class="cls-13" x="767.09" y="1322.47" width="112.35" height="60.55" rx="11.17"/><rect class="cls-8" x="790.14" y="1322.47" width="112.35" height="60.55" rx="10.49"/><path class="cls-1" d="M867,1361.66H821s4.68,9.72,25.31,9.73C863.24,1371.39,867,1361.66,867,1361.66Z"/><rect class="cls-12" x="796.34" y="1334.33" width="96.84" height="21.22" transform="translate(1689.53 2689.88) rotate(180)"/><rect class="cls-1" x="874.41" y="1343.2" width="2.21" height="2.21" transform="translate(1751.03 2688.61) rotate(180)"/><rect class="cls-1" x="877.21" y="1343.2" width="2.21" height="2.21" transform="translate(1756.62 2688.61) rotate(180)"/><rect class="cls-1" x="877.21" y="1346.09" width="2.21" height="2.21" transform="translate(1756.62 2694.38) rotate(180)"/><rect class="cls-1" x="880.1" y="1343.2" width="2.21" height="2.21" transform="translate(1762.41 2688.61) rotate(180)"/><rect class="cls-1" x="871.6" y="1343.2" width="2.21" height="2.21" transform="translate(1745.41 2688.61) rotate(180)"/><rect class="cls-1" x="871.6" y="1346.09" width="2.21" height="2.21" transform="translate(1745.41 2694.38) rotate(180)"/><rect class="cls-1" x="868.79" y="1343.2" width="2.21" height="2.21" transform="translate(1739.8 2688.61) rotate(180)"/><rect class="cls-1" x="874.41" y="1340.34" width="2.21" height="2.21" transform="translate(1751.03 2682.89) rotate(180)"/><rect class="cls-1" x="874.41" y="1337.69" width="2.21" height="2.21" transform="translate(1751.03 2677.59) rotate(180)"/><rect class="cls-1" x="871.6" y="1340.34" width="2.21" height="2.21" transform="translate(1745.41 2682.89) rotate(180)"/><rect class="cls-1" x="877.21" y="1340.34" width="2.21" height="2.21" transform="translate(1756.62 2682.89) rotate(180)"/><rect class="cls-1" x="874.41" y="1346.09" width="2.21" height="2.21" transform="translate(1751.03 2694.38) rotate(180)"/><rect class="cls-1" x="874.41" y="1349" width="2.21" height="2.21" transform="translate(1751.03 2700.2) rotate(180)"/><rect class="cls-1" x="815.37" y="1343.2" width="2.21" height="2.21" transform="translate(1632.95 2688.61) rotate(180)"/><rect class="cls-1" x="818.16" y="1343.2" width="2.21" height="2.21" transform="translate(1638.54 2688.61) rotate(180)"/><rect class="cls-1" x="818.16" y="1346.09" width="2.21" height="2.21" transform="translate(1638.54 2694.38) rotate(180)"/><rect class="cls-1" x="821.06" y="1343.2" width="2.21" height="2.21" transform="translate(1644.33 2688.61) rotate(180)"/><rect class="cls-1" x="812.56" y="1343.2" width="2.21" height="2.21" transform="translate(1627.33 2688.61) rotate(180)"/><rect class="cls-1" x="812.56" y="1346.09" width="2.21" height="2.21" transform="translate(1627.33 2694.38) rotate(180)"/><rect class="cls-1" x="809.75" y="1343.2" width="2.21" height="2.21" transform="translate(1621.71 2688.61) rotate(180)"/><rect class="cls-1" x="815.37" y="1340.34" width="2.21" height="2.21" transform="translate(1632.95 2682.89) rotate(180)"/><rect class="cls-1" x="815.37" y="1337.69" width="2.21" height="2.21" transform="translate(1632.95 2677.59) rotate(180)"/><rect class="cls-1" x="812.56" y="1340.34" width="2.21" height="2.21" transform="translate(1627.33 2682.89) rotate(180)"/><rect class="cls-1" x="818.16" y="1340.34" width="2.21" height="2.21" transform="translate(1638.54 2682.89) rotate(180)"/><rect class="cls-1" x="815.37" y="1346.09" width="2.21" height="2.21" transform="translate(1632.95 2694.38) rotate(180)"/><rect class="cls-1" x="815.37" y="1349" width="2.21" height="2.21" transform="translate(1632.95 2700.2) rotate(180)"/><path class="cls-10" d="M875.92,1321.61h0a.82.82,0,0,0,.82-.82v-23a.82.82,0,0,0-.82-.82h0a.82.82,0,0,0-.81.82v23A.82.82,0,0,0,875.92,1321.61Z"/><path class="cls-6" d="M815.4,1394.69a1.58,1.58,0,1,0-1.58,1.59A1.58,1.58,0,0,0,815.4,1394.69Z"/><path class="cls-6" d="M808.62,1394.69a1.59,1.59,0,1,0-1.59,1.59A1.59,1.59,0,0,0,808.62,1394.69Z"/><path class="cls-6" d="M801.9,1394.69a1.59,1.59,0,1,0-1.59,1.59A1.59,1.59,0,0,0,801.9,1394.69Z"/><path class="cls-6" d="M1291.58,1168.61a83.18,83.18,0,0,0,83.17,83.18c1.79,0,3.57-.06,5.34-.17a82.93,82.93,0,0,0,53.47-24.19q2.75-2.75,5.22-5.73a83.17,83.17,0,1,0-147.2-53.09Z"/><path class="cls-15" d="M1326.44,1206.27a22,22,0,0,0,4.92,2.54c13,11.29,33.57,29.48,48.73,42.81a82.93,82.93,0,0,0,53.47-24.19q2.75-2.75,5.22-5.73a83.38,83.38,0,0,0,7.07-9.92,79.4,79.4,0,0,0-6.45-9.64c-13.38-17.31-24.29-23.18-21.3-45.53,1.62-12.14-6.17-55-34-57.23-2.33-.19-16.4-2.56-26.6.27C1332.76,1106.51,1298,1186.67,1326.44,1206.27Z"/><path class="cls-17" d="M1355.27,1201.5c-.13,0,11.57,7.09,20.83,5.18,8.7-1.79,17.55-13.57,17.44-13.6-3.58-.95-6.87-5-5.44-26.37l-1.66.22-27.89,3.72s.07,8.71-.42,16.88C1357.71,1194.39,1356.89,1200.87,1355.27,1201.5Z"/><path class="cls-19" d="M1358.55,1170.65s.07,8.71-.42,16.88c15.44.54,24.48-13,28.31-20.6Z"/><path class="cls-17" d="M1352.91,1178.06s36.44,2.9,37.9-19.82,7.15-37.65-16.06-40.46-28.28,5.56-30.62,13S1343.47,1176.72,1352.91,1178.06Z"/><path class="cls-15" d="M1348,1119s18.45,24.44,33.53,29.35,22,1.22,22,1.22a61.68,61.68,0,0,1-10.29-22.87,11.07,11.07,0,0,0-7.55-8.32C1374.89,1115.06,1354.11,1110.12,1348,1119Z"/><path class="cls-15" d="M1362.58,1120.34s-9.17,5.69-12.73,10.61c-3.44,4.75-6.85,17.15-6.09,22.54,0,0-6.85-25.53,2.26-35.25C1355.67,1107.94,1362.58,1120.34,1362.58,1120.34Z"/><path class="cls-8" d="M1317.77,1229.2a82.87,82.87,0,0,0,57,22.59h5.53l-.19-.17a82.93,82.93,0,0,0,53.47-24.19q2.75-2.75,5.22-5.73a94.27,94.27,0,0,0-8-14.69c-10.31-14.38-40.1-16.21-40.1-16.21h0l-.17.1c-11.33,6.69-18.79,8.81-23.68,8.81-7.23,0-8.88-4.58-9.2-5.75h0v0a1.82,1.82,0,0,1,0-.24h0s-21.5,3.65-31.08,12.57a13.73,13.73,0,0,0-4.14,6.35C1321.5,1215.55,1319.86,1221.57,1317.77,1229.2Z"/><rect class="cls-6" x="583.03" y="796.3" width="756" height="261.3" rx="36.84" transform="translate(1922.07 1853.89) rotate(180)"/><path class="cls-2" d="M828,926.92a97.59,97.59,0,0,1-14.19,50.79s0,0,0,0a97.15,97.15,0,0,1-8.3,11.61c-2,2.33-4,4.59-6.13,6.74a97.77,97.77,0,0,1-62.9,28.45c-2.06.13-4.16.2-6.27.2A97.83,97.83,0,1,1,828,926.92Z"/><path class="cls-8" d="M691.22,968.26c-5.38-4.83-3.44-13-3.35-13.31l5.14,1.46-2.57-.73,2.57.71c0,.05-1.15,5,1.63,7.52Z"/><path class="cls-8" d="M763.54,968.26c5.38-4.83,3.44-13,3.35-13.31l-5.14,1.46,2.57-.73-2.57.71c0,.05,1.15,5-1.63,7.52Z"/><path class="cls-13" d="M782.1,972.38v37.45a97.23,97.23,0,0,1-45.68,14.73c-2.06.13-4.16.2-6.27.2a97.86,97.86,0,0,1-85.59-50.45v-1.93a9.06,9.06,0,0,1,9-9H773.08A9,9,0,0,1,782.1,972.38Z"/><path class="cls-8" d="M813.75,972.38v5.38a97.15,97.15,0,0,1-8.3,11.61c-2,2.33-4,4.59-6.13,6.74a97.77,97.77,0,0,1-62.9,28.45c-2.06.13-4.16.2-6.27.2a97.2,97.2,0,0,1-53.94-16.23V972.38a9.06,9.06,0,0,1,9-9H804.71A9.06,9.06,0,0,1,813.75,972.38Z"/><rect class="cls-12" x="713.34" y="957.84" width="43.67" height="5.52"/><rect class="cls-10" x="696.04" y="957.84" width="25.26" height="5.52"/><circle class="cls-10" cx="701.98" cy="888.18" r="6.69"/><path class="cls-10" d="M702,885.61h0a1,1,0,0,0,1-1V857.57a1,1,0,0,0-1-1h0a1,1,0,0,0-1,1v27.08A1,1,0,0,0,702,885.61Z"/><circle class="cls-10" cx="779.8" cy="888.18" r="6.69"/><rect class="cls-13" x="651.8" y="886.63" width="132.14" height="71.21" rx="13.14"/><rect class="cls-8" x="678.91" y="886.63" width="132.14" height="71.21" rx="12.34"/><path class="cls-1" d="M769.28,932.71H715.21s5.51,11.44,29.77,11.44C764.89,944.16,769.28,932.71,769.28,932.71Z"/><rect class="cls-12" x="686.21" y="900.57" width="113.89" height="24.96" transform="translate(1486.31 1826.09) rotate(180)"/><rect class="cls-1" x="778.02" y="911" width="2.6" height="2.6" transform="translate(1558.64 1824.6) rotate(180)"/><rect class="cls-1" x="781.31" y="911" width="2.6" height="2.6" transform="translate(1565.22 1824.6) rotate(180)"/><rect class="cls-1" x="781.31" y="914.4" width="2.6" height="2.6" transform="translate(1565.22 1831.39) rotate(180)"/><rect class="cls-1" x="784.71" y="911" width="2.6" height="2.6" transform="translate(1572.02 1824.6) rotate(180)"/><rect class="cls-1" x="774.72" y="911" width="2.6" height="2.6" transform="translate(1552.03 1824.6) rotate(180)"/><rect class="cls-1" x="774.72" y="914.4" width="2.6" height="2.6" transform="translate(1552.03 1831.39) rotate(180)"/><rect class="cls-1" x="771.42" y="911" width="2.6" height="2.6" transform="translate(1545.43 1824.6) rotate(180)"/><rect class="cls-1" x="778.02" y="907.64" width="2.6" height="2.6" transform="translate(1558.64 1817.88) rotate(180)"/><rect class="cls-1" x="778.02" y="904.52" width="2.6" height="2.6" transform="translate(1558.64 1811.64) rotate(180)"/><rect class="cls-1" x="774.72" y="907.64" width="2.6" height="2.6" transform="translate(1552.03 1817.88) rotate(180)"/><rect class="cls-1" x="781.31" y="907.64" width="2.6" height="2.6" transform="translate(1565.22 1817.88) rotate(180)"/><rect class="cls-1" x="778.02" y="914.4" width="2.6" height="2.6" transform="translate(1558.64 1831.39) rotate(180)"/><rect class="cls-1" x="778.02" y="917.82" width="2.6" height="2.6" transform="translate(1558.64 1838.24) rotate(180)"/><rect class="cls-1" x="708.58" y="911" width="2.6" height="2.6" transform="translate(1419.76 1824.6) rotate(180)"/><rect class="cls-1" x="711.87" y="911" width="2.6" height="2.6" transform="translate(1426.34 1824.6) rotate(180)"/><rect class="cls-1" x="711.87" y="914.4" width="2.6" height="2.6" transform="translate(1426.34 1831.39) rotate(180)"/><rect class="cls-1" x="715.27" y="911" width="2.6" height="2.6" transform="translate(1433.14 1824.6) rotate(180)"/><rect class="cls-1" x="705.28" y="911" width="2.6" height="2.6" transform="translate(1413.16 1824.6) rotate(180)"/><rect class="cls-1" x="705.28" y="914.4" width="2.6" height="2.6" transform="translate(1413.16 1831.39) rotate(180)"/><rect class="cls-1" x="701.98" y="911" width="2.6" height="2.6" transform="translate(1406.55 1824.6) rotate(180)"/><rect class="cls-1" x="708.58" y="907.64" width="2.6" height="2.6" transform="translate(1419.76 1817.88) rotate(180)"/><rect class="cls-1" x="708.58" y="904.52" width="2.6" height="2.6" transform="translate(1419.76 1811.64) rotate(180)"/><rect class="cls-1" x="705.28" y="907.64" width="2.6" height="2.6" transform="translate(1413.16 1817.88) rotate(180)"/><rect class="cls-1" x="711.87" y="907.64" width="2.6" height="2.6" transform="translate(1426.34 1817.88) rotate(180)"/><rect class="cls-1" x="708.58" y="914.4" width="2.6" height="2.6" transform="translate(1419.76 1831.39) rotate(180)"/><rect class="cls-1" x="708.58" y="917.82" width="2.6" height="2.6" transform="translate(1419.76 1838.24) rotate(180)"/><path class="cls-10" d="M779.8,885.61h0a1,1,0,0,0,1-1V857.57a1,1,0,0,0-1-1h0a1,1,0,0,0-1,1v27.08A1,1,0,0,0,779.8,885.61Z"/><path class="cls-6" d="M708.62,971.56a1.86,1.86,0,1,0-1.86,1.87A1.86,1.86,0,0,0,708.62,971.56Z"/><path class="cls-6" d="M700.64,971.56a1.86,1.86,0,1,0-1.86,1.87A1.86,1.86,0,0,0,700.64,971.56Z"/><path class="cls-6" d="M692.74,971.56a1.87,1.87,0,1,0-1.87,1.87A1.87,1.87,0,0,0,692.74,971.56Z"/><rect class="cls-20" x="886.12" y="908.77" width="94.82" height="12.29"/><rect class="cls-20" x="886.12" y="933.36" width="118.18" height="12.29"/><rect class="cls-20" x="1013.72" y="933.36" width="87.03" height="12.29"/><rect class="cls-20" x="886.12" y="957.42" width="87.03" height="12.29"/><rect class="cls-20" x="991.13" y="908.77" width="63.21" height="12.29"/><rect class="cls-20" x="1067.98" y="908.77" width="127.85" height="12.29"/><rect class="cls-20" x="887.07" y="847.9" width="134.24" height="17.41"/><rect class="cls-20" x="1036.14" y="847.9" width="185.47" height="17.41"/><rect class="cls-6" x="898.69" y="1165.48" width="62.35" height="8.08"/><rect class="cls-6" x="898.69" y="1181.65" width="77.71" height="8.08"/><rect class="cls-6" x="982.59" y="1181.65" width="57.22" height="8.08"/><rect class="cls-6" x="898.69" y="1197.47" width="57.22" height="8.08"/><rect class="cls-6" x="967.74" y="1165.48" width="41.56" height="8.08"/><rect class="cls-6" x="1018.26" y="1165.48" width="84.06" height="8.08"/><rect class="cls-6" x="899.31" y="1125.46" width="88.27" height="11.45"/><rect class="cls-6" x="997.33" y="1125.46" width="121.95" height="11.45"/><rect class="cls-20" x="987.29" y="1360.75" width="62.34" height="8.08"/><rect class="cls-20" x="987.29" y="1376.92" width="77.71" height="8.08"/><rect class="cls-20" x="1071.19" y="1376.92" width="57.22" height="8.08"/><rect class="cls-20" x="987.29" y="1392.74" width="57.22" height="8.08"/><rect class="cls-20" x="1056.34" y="1360.75" width="41.56" height="8.08"/><rect class="cls-20" x="1106.87" y="1360.75" width="84.06" height="8.08"/><rect class="cls-20" x="987.92" y="1320.73" width="88.27" height="11.45"/><rect class="cls-20" x="1085.93" y="1320.73" width="121.95" height="11.45"/><path class="cls-14" d="M1438.09,309.58l-8.17,5.86-8.22-5.8a10.07,10.07,0,0,1,16.39-.06Z"/><path class="cls-14" d="M1429.92,291.1A24.26,24.26,0,0,0,1410,301.43l5.19,3.64a18,18,0,0,1,29.29-.11l5.17-3.7A24.31,24.31,0,0,0,1429.92,291.1Z"/><path class="cls-14" d="M1429.92,263.94a51.4,51.4,0,0,0-42.07,21.84l5.19,3.65a45.1,45.1,0,0,1,73.56-.28l5.15-3.7A51.4,51.4,0,0,0,1429.92,263.94Z"/><path class="cls-14" d="M1429.92,278.8a36.77,36.77,0,0,0-30,15.49l5.19,3.65a30.47,30.47,0,0,1,49.49-.2l5.14-3.68A36.75,36.75,0,0,0,1429.92,278.8Z"/><rect class="cls-21" y="1611.37" width="2567.71" height="8.42" rx="3.23"/></g></g></svg>