<svg xmlns="http://www.w3.org/2000/svg" viewBox="0 0 451.26 351.07"><defs><style>.cls-1{fill:#c5cbef;}.cls-2{fill:#dce2f7;}.cls-3{fill:#585afa;}.cls-4{fill:#3836bd;}.cls-5{fill:#f5f5fd;}.cls-6{fill:#aaafd7;}.cls-12,.cls-19,.cls-7,.cls-8,.cls-9{fill:none;stroke-linecap:round;stroke-linejoin:round;}.cls-7{stroke:#92cdf5;}.cls-7,.cls-8{stroke-width:1.97px;}.cls-19,.cls-8{stroke:#3836bd;}.cls-9{stroke:#f2516c;stroke-width:4px;}.cls-10{fill:#ffc6c2;}.cls-11{fill:#ffa69b;}.cls-12{stroke:#ffdad9;stroke-width:2px;}.cls-13{fill:#70bce5;}.cls-14{fill:#29a0c1;}.cls-15{fill:#fff;}.cls-16{fill:#f2516c;}.cls-17{fill:#db3e5f;}.cls-18{fill:#2c218a;}.cls-19{stroke-width:0.75px;}</style></defs><g id="Capa_2" data-name="Capa 2"><g id="OBJECTS"><circle class="cls-1" cx="304.06" cy="20.07" r="20.07"/><path class="cls-2" d="M429.65,171.27c11.49,40.73-11.14,102.6-63,86.42-14.75-4.6-27.37-14.19-39.41-23.89-15.24-12.28-31.9-26.9-51.81-30.42-26.23-4.65-53.71,2.85-76.95,14.93C151.38,242.79,94.21,321.56,33.42,287.54-9.18,263.71-11,193.39,27.6,165.7c10.71-7.69,22.79-13.38,33.11-21.59,19.77-15.71,30-38.71,32.35-63.46,1.11-11.72.88-23.83,5.23-34.77a44.78,44.78,0,0,1,35.23-27.33C167.64,14.2,192.83,39.38,217,59.23c27.54,22.59,58.4,35,93.46,40.92,42,7,85.88,11.67,110.47,51.17A77.41,77.41,0,0,1,429.65,171.27Z"/><path class="cls-1" d="M16.7,122.44c.41,20.79,25.2,22.54,37.78,11,7.36-6.76,11.2-16.67,12.49-26.58,1.37-10.63,2.83-28.56-4.73-37.47C43.17,46.88,16.43,108.59,16.7,122.44Z"/><path class="cls-1" d="M374.19,304.8c32.6-14.51,6.66-54.22-22.3-44.18C317.17,272.65,339.47,320.25,374.19,304.8Z"/><path class="cls-3" d="M318.29,59.18V343.73a7,7,0,0,1-7,7H103.15a7,7,0,0,1-7-7V59.18a7,7,0,0,1,7-7H311.33A7,7,0,0,1,318.29,59.18Z"/><path class="cls-4" d="M318.29,130.87V343.73a7,7,0,0,1-7,7H103.15a7,7,0,0,1-7-7V247.67Z"/><polygon class="cls-5" points="267.2 328.05 114.33 328.05 114.33 73 300.15 73 300.15 293.82 267.2 328.05"/><polygon class="cls-6" points="267.2 328.05 267.2 293.82 300.15 293.82 267.2 328.05"/><line class="cls-7" x1="169.88" y1="134.68" x2="226.77" y2="134.68"/><line class="cls-7" x1="169.88" y1="151.92" x2="190.17" y2="151.92"/><line class="cls-7" x1="200.87" y1="151.92" x2="249.26" y2="151.92"/><line class="cls-7" x1="178.22" y1="143.3" x2="269.87" y2="143.3"/><line class="cls-7" x1="284.77" y1="134.68" x2="244.09" y2="134.68"/><rect class="cls-8" x="135.77" y="134.68" width="21.71" height="21.71"/><polyline class="cls-9" points="143.07 143.31 147.97 148.42 166.69 134.68"/><line class="cls-7" x1="169.88" y1="170.2" x2="188.37" y2="170.2"/><line class="cls-7" x1="169.88" y1="187.44" x2="182.97" y2="187.44"/><line class="cls-7" x1="200.87" y1="187.44" x2="259.7" y2="187.44"/><line class="cls-7" x1="178.22" y1="178.82" x2="212.57" y2="178.82"/><line class="cls-7" x1="221.66" y1="178.82" x2="281.81" y2="178.82"/><line class="cls-7" x1="236.09" y1="170.2" x2="200.87" y2="170.2"/><rect class="cls-8" x="135.77" y="168.21" width="21.71" height="21.71"/><polyline class="cls-9" points="143.07 177.43 147.97 182.54 166.69 168.8"/><line class="cls-7" x1="169.88" y1="205.71" x2="200.87" y2="205.71"/><line class="cls-7" x1="169.88" y1="222.95" x2="228.25" y2="222.95"/><line class="cls-7" x1="243.67" y1="222.95" x2="274.85" y2="222.95"/><line class="cls-7" x1="178.22" y1="214.33" x2="217.38" y2="214.33"/><line class="cls-7" x1="269.07" y1="214.33" x2="236.09" y2="214.33"/><line class="cls-7" x1="284.77" y1="205.71" x2="212.57" y2="205.71"/><rect class="cls-8" x="135.77" y="201.74" width="21.71" height="21.71"/><polyline class="cls-9" points="143.07 210.37 147.97 215.48 166.69 201.74"/><line class="cls-7" x1="169.88" y1="241.23" x2="226.77" y2="241.23"/><line class="cls-7" x1="169.88" y1="258.47" x2="190.17" y2="258.47"/><line class="cls-7" x1="200.87" y1="258.47" x2="249.26" y2="258.47"/><line class="cls-7" x1="178.22" y1="249.85" x2="269.87" y2="249.85"/><line class="cls-7" x1="284.77" y1="241.23" x2="244.09" y2="241.23"/><rect class="cls-8" x="135.77" y="235.26" width="21.71" height="21.71"/><polyline class="cls-9" points="143.07 243.31 147.97 248.41 166.69 234.67"/><path class="cls-10" d="M267.38,42.69H240.69a7.37,7.37,0,0,1-7.34-8.5,26.54,26.54,0,0,0-25.78-31,26.5,26.5,0,0,0-26.83,26.5,26.87,26.87,0,0,0,.28,3.83A8.11,8.11,0,0,1,173,42.68H147.1A7.31,7.31,0,0,0,139.92,50V72.23a7.3,7.3,0,0,0,4,6.51,7.14,7.14,0,0,0,3.19.8H267.38a7.31,7.31,0,0,0,7.18-7.31V50A7.31,7.31,0,0,0,267.38,42.69Zm-60.14-27.5a14.45,14.45,0,1,1-14.45,14.45A14.45,14.45,0,0,1,207.24,15.19Z"/><path class="cls-11" d="M274.56,50V72.23a7.31,7.31,0,0,1-7.18,7.31H147.1a7.14,7.14,0,0,1-3.19-.8L247.36,42.68h20A7.31,7.31,0,0,1,274.56,50Z"/><line class="cls-12" x1="148.62" y1="49.79" x2="265.85" y2="49.79"/><line class="cls-12" x1="148.62" y1="56.8" x2="265.85" y2="56.8"/><line class="cls-12" x1="148.62" y1="63.82" x2="265.85" y2="63.82"/><path class="cls-10" d="M332.94,95.15l-3.11,12.77s16.26,10.85,25.15-6.38L345,89Z"/><polygon class="cls-13" points="326.64 199.54 313.89 266.96 369.48 321.11 377.81 310.66 344.03 261.86 353.29 191.6 326.64 199.54"/><polygon class="cls-13" points="348.68 193.22 378.87 182.63 351.46 326.13 336.5 324 348.68 193.22"/><polygon class="cls-14" points="352.07 200.91 344.03 261.86 336.58 255.97 352.07 200.91"/><polygon class="cls-14" points="339.49 291.89 352.17 322.42 354.96 307.8 339.49 291.89"/><path class="cls-3" d="M330.07,101.87s12.9,17,24.29-2.36l24.51,9.61,9.4,26L374,144.3l-4.62-14.42-2.55,24.05L381,187.79l-54.39,11.75L312.2,133.4l-6.76,3.12L297.25,121l19.1-14.87Z"/><polygon class="cls-10" points="305.44 136.52 297.25 121.01 291.01 126.92 294.52 102.51 306.23 85.18 295.18 76.92 288.68 82.43 286.79 78.08 283.93 79.93 289.35 88.54 276.27 128.98 279.29 146.21 305.44 136.52"/><polygon class="cls-11" points="313.37 198 301.29 211.85 318.53 211.85 313.37 198"/><polygon class="cls-11" points="331.78 99.92 342.41 102.23 346.21 90.55 345.01 89.04 332.94 95.15 331.78 99.92"/><polygon class="cls-10" points="325.22 83.32 332.06 97.02 341.37 97.75 346.86 89.59 339.4 70.73 322.72 77.23 325.22 83.32"/><path class="cls-10" d="M329,85.77a2.12,2.12,0,1,1-2.62-1.45A2.12,2.12,0,0,1,329,85.77Z"/><circle class="cls-10" cx="342.52" cy="79.7" r="2.12"/><path class="cls-15" d="M333.73,87.32H342a0,0,0,0,1,0,0v1.93a2.21,2.21,0,0,1-2.21,2.21h-3.85a2.21,2.21,0,0,1-2.21-2.21V87.32A0,0,0,0,1,333.73,87.32Z" transform="translate(-7.17 145.04) rotate(-23.98)"/><polygon class="cls-11" points="333.63 78.15 333.23 86.86 337.99 85.57 333.63 78.15"/><path class="cls-4" d="M342.52,79.7s2.25-2.14-1.37-10.74A3.6,3.6,0,0,0,338,67.33s-4-6.88-14.95-1.72c0,0-14.92,6.74,2.64,18.63,0,0,3.92,1.28,6.48-6.87a6.41,6.41,0,0,1,5.16-4.46c1.42-.2,2.75,0,3.29,1.39Z"/><polygon class="cls-4" points="369.38 129.88 357.68 155.18 370.81 191.07 381.03 187.79 366.84 153.93 369.38 129.88"/><polygon class="cls-16" points="313.37 198 412.8 156.94 418.95 171.86 318.53 211.85 313.37 198"/><path class="cls-11" d="M412.8,156.94l3-1.25a8.08,8.08,0,0,1,10.52,4.39h0A8.08,8.08,0,0,1,422,170.63l-3,1.23Z"/><polygon class="cls-4" points="312.2 133.41 314.85 116.31 305.44 136.52 312.2 133.41"/><polygon class="cls-11" points="294.52 102.51 287.33 126.41 291.01 126.92 294.52 102.51"/><polygon class="cls-17" points="418.95 171.86 318.53 211.85 317.13 208.08 417.69 168.79 418.95 171.86"/><polygon class="cls-10" points="370.81 191.07 381.03 162.9 374.01 144.3 388.27 135.08 398.15 161.26 384.21 188.32 375.53 200.1 365.14 200.91 359.59 195.49 370.81 191.07"/><polygon class="cls-11" points="370.81 191.07 365.14 200.91 359.59 195.49 370.81 191.07"/><polygon class="cls-18" points="371.12 319.05 373.19 334.26 368.8 345.7 374.5 350.69 390.44 318.47 376.8 311.93 371.12 319.05"/><polygon class="cls-18" points="339.01 324.36 337.48 329.48 334.2 337.25 337.48 350.14 345.57 350.14 351.25 340.48 347.2 331.05 347.55 325.57 339.01 324.36"/><polygon class="cls-4" points="374.24 315.13 377.81 330.45 370.16 346.89 368.8 345.7 372.79 331.31 371.12 319.05 374.24 315.13"/><polygon class="cls-4" points="340.72 324.6 338.11 336.12 339.42 343.74 343.77 343.74 345.85 335.9 344.41 325.13 340.72 324.6"/><path class="cls-11" d="M403.94,311.25c.23,4.61,2.94,8.69,5.76,12.34,1,1.35,2.3,2.77,4,3a2.17,2.17,0,0,0,1.66-.45,2.91,2.91,0,0,0,.7-1.14,18.63,18.63,0,0,0,.59-12.41c-1-3.17-3.49-8.2-6.95-9.31C405.11,301.76,403.76,307.73,403.94,311.25Z"/><path class="cls-3" d="M425.85,296.09c-1.53,6.3-1.81,12.81-2.08,19.28-.15,3.75-.25,7.73,1.64,11a3.84,3.84,0,0,0,3.06,2.21,4.26,4.26,0,0,0,2.8-1.56c4.4-4.43,7-10.42,8.26-16.53s1.37-12.41,1.4-18.65c0-3.89-.51-11.82-6.46-10.54C429.33,282.38,426.88,291.82,425.85,296.09Z"/><polyline class="cls-19" points="412.8 319.01 421.76 350.69 432.8 293.13"/><path class="cls-11" d="M32.32,205.22c3.19-3.91,7.07-7.35,9.37-11.84,5-9.68,1.46-21.31-1.63-31.73S34.7,138.9,41.4,130.34c3.94-5,10.31-7.7,14.11-12.82s5.92-13.11,12.27-13.66a9.51,9.51,0,0,1,7,2.77c6.68,6.05,6.58,16.58,4.45,25.34s-5.8,17.54-4.48,26.46c1.55,10.51,9.58,18.64,16.08,27s12,19.64,7.57,29.31c-3,6.66-10.07,10.81-13.19,17.44-5,10.58-1.76,23.56-15.42,28.25-7.36,2.53-18.11,2-24.93-1.91C25.28,247.41,17.52,223.32,32.32,205.22Z"/><path class="cls-3" d="M25.56,274.44c-4.37-10.73.71-24.17-5.56-33.91,7.5,1.55,15,3.34,22,6.54s13.4,7.89,17.6,14.3A25.32,25.32,0,0,1,64,276.74C62.23,302.52,32.22,290.79,25.56,274.44Z"/><path class="cls-16" d="M73.05,264.74c6.26-2.12,13.74,1.24,19.51-2A58.52,58.52,0,0,1,88.07,275a23.57,23.57,0,0,1-8.75,9.52,14.44,14.44,0,0,1-8.9,2C55.8,284.66,63.51,268,73.05,264.74Z"/><line class="cls-19" x1="62.28" y1="130.64" x2="62.28" y2="288.1"/><line class="cls-19" x1="48.51" y1="145.48" x2="62.28" y2="162.18"/><line class="cls-19" x1="62.28" y1="204.57" x2="75.78" y2="191.23"/><line class="cls-19" x1="45.67" y1="223.76" x2="62.28" y2="235.21"/><polygon class="cls-13" points="81.2 350.69 36.03 350.69 28.51 282.31 88.72 282.31 81.2 350.69"/><line class="cls-19" x1="12" y1="350.69" x2="450.88" y2="350.69"/></g></g></svg>