<svg xmlns="http://www.w3.org/2000/svg" xmlns:xlink="http://www.w3.org/1999/xlink" viewBox="0 0 2825.56 2000"><defs><style>.cls-1{fill:none;}.cls-2{fill:#c5cbef;}.cls-3{fill:#f7f8fd;}.cls-31,.cls-4,.cls-49,.cls-6,.cls-9{opacity:0.95;}.cls-4{fill:url(#linear-gradient);}.cls-5{fill:#96bfe6;}.cls-6{fill:url(#linear-gradient-2);}.cls-7{fill:#4598e6;}.cls-8{fill:url(#linear-gradient-3);}.cls-9{fill:url(#linear-gradient-4);}.cls-10{fill:#385369;}.cls-11{fill:#eea886;}.cls-12{fill:#434343;}.cls-13{fill:#a77860;}.cls-14{fill:#0e2d3d;}.cls-15{fill:#163342;}.cls-16{fill:#1d3b54;}.cls-17{fill:#285173;}.cls-18{fill:#ffbf55;}.cls-19{fill:#183c59;}.cls-20{fill:#616161;}.cls-21{fill:#e0cec7;}.cls-22{fill:#eea987;}.cls-23{fill:url(#linear-gradient-5);}.cls-24{fill:url(#linear-gradient-6);}.cls-25{fill:url(#linear-gradient-7);}.cls-26{fill:url(#linear-gradient-8);}.cls-27{fill:url(#linear-gradient-9);}.cls-28{fill:#fff;}.cls-29{fill:url(#linear-gradient-10);}.cls-30{fill:url(#linear-gradient-11);}.cls-31{fill:url(#linear-gradient-12);}.cls-32{fill:#344052;}.cls-33{fill:#eb4747;}.cls-34{fill:#393d63;}.cls-35{fill:#decbc4;}.cls-36{fill:#e8734d;}.cls-37{fill:#3c4145;}.cls-38{fill:#51565c;}.cls-39{fill:#f5e2d9;}.cls-40{fill:#d44040;}.cls-41{fill:#2d3133;}.cls-42{fill:#292c47;}.cls-43{fill:#424773;}.cls-44{fill:#3a3f47;}.cls-45{fill:#e2d2ca;}.cls-46{fill:#323657;}.cls-47{fill:#ffdf69;}.cls-48{fill:#ab9546;}.cls-50{fill:url(#linear-gradient-13);}.cls-51{fill:url(#linear-gradient-14);}.cls-52{fill:url(#linear-gradient-15);}.cls-53{fill:url(#linear-gradient-16);}.cls-54{fill:url(#linear-gradient-17);}.cls-55{fill:url(#linear-gradient-18);}.cls-56{fill:url(#linear-gradient-19);}.cls-57{fill:url(#linear-gradient-20);}.cls-58{fill:url(#linear-gradient-21);}.cls-59{fill:url(#linear-gradient-22);}.cls-60{fill:url(#linear-gradient-23);}</style><linearGradient id="linear-gradient" x1="1561.38" y1="1443.02" x2="1520.2" y2="696.46" gradientUnits="userSpaceOnUse"><stop offset="0" stop-color="#d1d7e0"/><stop offset="1" stop-color="#ebebff"/></linearGradient><linearGradient id="linear-gradient-2" x1="2235.16" y1="1651.15" x2="2235.16" y2="882.55" xlink:href="#linear-gradient"/><linearGradient id="linear-gradient-3" x1="498.84" y1="1873.23" x2="2480.3" y2="1873.23" gradientUnits="userSpaceOnUse"><stop offset="0.01" stop-color="#1a2257"/><stop offset="1" stop-color="#5e60f2"/></linearGradient><linearGradient id="linear-gradient-4" x1="1523.71" y1="1176.53" x2="1523.71" y2="614.52" xlink:href="#linear-gradient"/><linearGradient id="linear-gradient-5" x1="-3357.54" y1="1498.36" x2="-3230.16" y2="1498.36" gradientTransform="matrix(-1, 0, 0, 1, -2409.53, 0)" gradientUnits="userSpaceOnUse"><stop offset="0" stop-color="#3076a1"/><stop offset="1" stop-color="#48c9b6"/></linearGradient><linearGradient id="linear-gradient-6" x1="-3258.57" y1="1603.51" x2="-3026.98" y2="1603.51" xlink:href="#linear-gradient-5"/><linearGradient id="linear-gradient-7" x1="-3238.77" y1="1637.19" x2="-3064.95" y2="1637.19" xlink:href="#linear-gradient-5"/><linearGradient id="linear-gradient-8" x1="-3448.89" y1="1460.61" x2="-3187.86" y2="1460.61" xlink:href="#linear-gradient-5"/><linearGradient id="linear-gradient-9" x1="883.94" y1="1745.54" x2="731.96" y2="1289.61" gradientTransform="matrix(1, 0, 0, 1, 0, 0)" xlink:href="#linear-gradient-5"/><linearGradient id="linear-gradient-10" x1="766.35" y1="2043.3" x2="842.34" y2="1715.73" gradientUnits="userSpaceOnUse"><stop offset="0" stop-color="#c9c4c1"/><stop offset="1" stop-color="#fff6de"/></linearGradient><linearGradient id="linear-gradient-11" x1="732.13" y1="1787.67" x2="918.93" y2="1787.67" gradientTransform="translate(19.53)" xlink:href="#linear-gradient-10"/><linearGradient id="linear-gradient-12" x1="2033.02" y1="701.4" x2="2033.02" y2="384.81" xlink:href="#linear-gradient"/><linearGradient id="linear-gradient-13" x1="2471.5" y1="612.41" x2="2510.87" y2="612.41" xlink:href="#linear-gradient"/><linearGradient id="linear-gradient-14" x1="2457.4" y1="612.41" x2="2473.8" y2="612.41" xlink:href="#linear-gradient"/><linearGradient id="linear-gradient-15" x1="2358.43" y1="594.4" x2="2484.54" y2="594.4" xlink:href="#linear-gradient"/><linearGradient id="linear-gradient-16" x1="1658.1" y1="286.3" x2="1709.82" y2="286.3" xlink:href="#linear-gradient"/><linearGradient id="linear-gradient-17" x1="1658.1" y1="323.68" x2="1709.82" y2="323.68" xlink:href="#linear-gradient"/><linearGradient id="linear-gradient-18" x1="1658.1" y1="361.05" x2="1709.82" y2="361.05" xlink:href="#linear-gradient"/><linearGradient id="linear-gradient-19" x1="1731.18" y1="286.3" x2="1745.89" y2="286.3" xlink:href="#linear-gradient"/><linearGradient id="linear-gradient-20" x1="1731.18" y1="323.68" x2="1745.89" y2="323.68" xlink:href="#linear-gradient"/><linearGradient id="linear-gradient-21" x1="1731.18" y1="361.05" x2="1745.89" y2="361.05" xlink:href="#linear-gradient"/><linearGradient id="linear-gradient-22" x1="1526.27" y1="1118.67" x2="1596.94" y2="1118.67" xlink:href="#linear-gradient"/><linearGradient id="linear-gradient-23" x1="1500.95" y1="1118.67" x2="1530.41" y2="1118.67" xlink:href="#linear-gradient"/></defs><g id="Capa_2" data-name="Capa 2"><g id="Слой_1" data-name="Слой 1"><rect class="cls-1" width="2825.56" height="2000"/><circle class="cls-2" cx="2047.76" cy="212.94" r="118.71"/><path class="cls-3" d="M2790.79,1107.46c67.93,241-65.94,607-372.66,511.29-87.29-27.25-162-84-233.16-141.32-90.2-72.67-188.76-159.14-306.53-180-155.18-27.5-317.75,16.88-455.23,88.34-278.68,144.84-616.91,610.85-976.59,409.59-252-141-262.67-557-34.43-720.83C475.55,1029,547,995.36,608.07,946.82c117-93,177.61-229,191.41-375.43,6.54-69.34,5.21-141,30.91-205.75,34.05-85.72,116.93-150,208.46-161.67,201.87-25.7,350.85,123.22,494.06,240.7,162.89,133.62,345.47,207.23,552.91,242.05,248.37,41.69,508,69,653.5,302.7C2762,1025.8,2779,1065.64,2790.79,1107.46Z"/><path class="cls-2" d="M347.75,818.61c2.42,123,149.05,133.33,223.5,64.89,43.52-40,66.25-98.64,73.85-157.27,8.15-62.86,16.79-168.94-27.93-221.65C504.3,371.56,346.14,736.68,347.75,818.61Z"/><path class="cls-2" d="M2462.67,1897.42c192.84-85.84,39.36-320.71-132-261.36C2125.3,1707.23,2257.23,1988.87,2462.67,1897.42Z"/><rect class="cls-4" x="1259.98" y="496.46" width="527.46" height="527.46" rx="58.67"/><rect class="cls-5" x="1401.61" y="903.84" width="244.21" height="12.06"/><rect class="cls-5" x="1436.2" y="941.86" width="175.03" height="12.06"/><rect class="cls-6" x="1874.22" y="679.4" width="721.89" height="847.34" rx="69.12"/><rect class="cls-7" x="2201.53" y="1179.28" width="57.26" height="10.6"/><rect class="cls-5" x="1984.16" y="1276.45" width="333.16" height="20.53"/><rect class="cls-5" x="1984.16" y="1375.01" width="269.41" height="20.53"/><rect class="cls-5" x="1984.16" y="1325.73" width="157.94" height="20.53"/><path class="cls-7" d="M2404.48,763.9v10.37h61.06v57.3h10.36V763.9Zm-414.59,67.67h10.37v-57.3h61.06V763.9h-71.43Zm475.65,295.66v57.31h-61.06v10.37h71.42v-67.68Zm-465.28,0h-10.37v67.68h71.43v-10.37h-61.06Z"/><path class="cls-7" d="M2443.58,1397.05a61.06,61.06,0,1,1,61.06-61A61.13,61.13,0,0,1,2443.58,1397.05Zm0-110.29a49.24,49.24,0,1,0,49.24,49.24A49.29,49.29,0,0,0,2443.58,1286.76Z"/><polygon class="cls-7" points="2439.69 1360.03 2411.95 1332.29 2420.3 1323.93 2439.69 1343.32 2466.86 1316.14 2475.21 1324.5 2439.69 1360.03"/><path class="cls-8" d="M2480.3,1873.22c0,25.61-443.57,46.37-990.73,46.37s-990.73-20.76-990.73-46.37,443.56-46.36,990.73-46.36S2480.3,1847.62,2480.3,1873.22Z"/><rect class="cls-9" x="1345.95" y="516.19" width="355.53" height="305.04"/><path class="cls-10" d="M1659.51,701.89c-11.71-31-39.84-45.2-53.12-49.63-4.72-1.57-13.17-4.33-22.07-7.21l-33.56-10.82h-55.33s-19.16,6.42-39.53,13.56c0,0,0,0,0,0-18.76,6.58-38.52,13.75-45.18,17.1-13.91,6.94-37.31,56.59-42,62.28-2.44,2.93-13.3,22.27-24,43.87h59.61c6.3-10.82,11.15-19.21,11.15-19.21s3.77,8.27,8.34,19.21h191c3-12.7,4.9-28.71,4.9-28.71s10.23,13.91,21.4,28.71h55C1682.72,748.6,1666.11,719.37,1659.51,701.89Z"/><path class="cls-11" d="M1529.69,482.18s43.27,6.81,36.68,74.51-44.78,62.14-47.33,62.07-38.33,1.24-41.12-81.41C1477.92,537.35,1476.7,476.23,1529.69,482.18Z"/><path class="cls-11" d="M1567,537.57s4.73-5.06,6.47.06-6.46,28-6.76,29c0,0-.86,2-2,.89S1567,537.57,1567,537.57Z"/><path class="cls-11" d="M1479.08,536.71s-4.64-5.15-6.47-.06,5.85,28.09,6.19,29.16c0,0,.83,2,2,.94S1479.08,536.71,1479.08,536.71Z"/><path class="cls-12" d="M1567,548l-6.2,8.28s.18-18.15-.82-21-2.51-11.54-3.34-13.6-37.16-12.22-69.24,3c0,0,1.41,13-1.67,14.21s-1.56,21.27-1.56,21.27l-5.1-5.75s-7.79-52.08-5.87-57.51,8.06-38.06,73.89-18.69c0,0,20.52-4.35,24.64,9.82S1567,548,1567,548Z"/><path class="cls-11" d="M1556.13,633c0-.06-5.55-2.73-5.55-2.73-2.7-6-.7-31.45-.7-31.45s-55.1-14-53.53-3.3-4.74,35.64-4.74,35.64l-28.27,14s30.12,80.88,64.73,70.44,47.69-73.35,47.69-73.35Z"/><path class="cls-13" d="M1497.15,607.44s8.87,11.46,24.28,11.46c10.14,0,17.42-2.84,27.52-12.69,0,0-4.38,18.7-27.45,20.44C1521.5,626.65,1504.78,628.78,1497.15,607.44Z"/><path class="cls-14" d="M1338.06,879s31.8,15.55,23.93,57.86-11.34,48-2.54,64.54,19.17,87.05,11.25,100.41-98-58.73-110.44-119.23,7.92-87.4,15.13-97.43S1310,864.75,1338.06,879Z"/><path class="cls-15" d="M1326.07,1860.87h7.2v-34s14.14,9.42,23,22.45,21.07,11.92,39.63,11.08,17.74-8.31,16.08-18.84-20.51-13.86-26.61-15.52-19.94-25.51-24.39-31.32a79.39,79.39,0,0,1-9.28-15.52s-3.46-14.13-20.65,0-12.19,41.3-10.25,43.79S1326.07,1860.87,1326.07,1860.87Z"/><path class="cls-11" d="M1362.37,1826.05c6.37,4.16,23,0,23,0-4.71-6.1-33.67-46.84-33.67-46.84-17.6-10.25-24.55,3.86-24.55,3.86C1334.33,1785.27,1356,1821.89,1362.37,1826.05Z"/><path class="cls-11" d="M1547.67,1199.13s11.54,2.21,15.48-3.21c3.35-4.61,11-8.15,13.37-9.24,3.15-1.47,11.15-9.56,13-5.6s-12.55,14-15.16,16.68,14.15,3.91,17,6.54-.67,30.28-12.08,28.13-22.17-12-24.25-12a70.8,70.8,0,0,1-8.37-1.24Z"/><path class="cls-11" d="M1588.9,1203.17s34.49,8.91,36.29,11.42,1.21,4.36-2,3.66-33.57-7.64-33.57-7.64,39,17.4,41,19.14c1.12,1,.19,4.65-1.59,4.44s-41.47-15.25-41.47-15.25,36.43,16.32,37.61,18.25a2.75,2.75,0,0,1-3.45,3.79c-2.79-1-37.46-14.26-37.46-14.26s25.77,13.55,25.8,15.77c0,1.36-.64,4.54-7.18.84s-22.89-10.82-22.89-10.82Z"/><path class="cls-15" d="M1232.7,1863.19h4.43v-25a54.29,54.29,0,0,1,11.49,20c3.6,11.92,16.5,15.45,36.18,14.9s20-8.32,18.29-20-18.29-17.74-18.29-17.74c-7.48-6.65-26-34.22-26-34.22s-11.92-3.19-21.27,4.36-6.44,24.6-6.17,29S1232.7,1863.19,1232.7,1863.19Z"/><path class="cls-16" d="M1246.28,1269s-23.45,30.48-29.81,66.65,3.76,157.55,3.48,175.43-16.9,62.35-13.58,96,16.45,201.27,16.45,201.27l35.93-7.13s-2.08-170.86,0-185,6.25-65.65,7.08-71.47,52.78-158.64,52.78-184.72S1302.81,1226.47,1246.28,1269Z"/><path class="cls-16" d="M1364.06,1280.93s38.52,147,43.1,167.39,11.19,37.16,11.19,45.81c0,20.07-7.45,52.29-7.45,52.29L1362,1780.37h-46.59s26-140.35,26.66-167.8,21.87-66.56,17.72-78.2-66.93-145.92-66.93-145.92S1245.31,1238.25,1364.06,1280.93Z"/><path class="cls-11" d="M1284.8,1835.47l-26-34.22-21.27,4.36s5.72,15.32,16.06,26.84C1265.79,1846.1,1284.8,1835.47,1284.8,1835.47Z"/><path class="cls-17" d="M1348.15,1031.08a48.07,48.07,0,0,1,27.88,14.36c12,12.86,23.27,33.36,26.41,40.22s47.2,70.41,49.49,71.84,24.43,8.82,39.1,13.76c22.65,7.62,68,24.12,68,24.12l-9,28.54s-85.35-27.93-106.73-33.19c-26.14-6.44-86.31-83.64-86.31-83.64S1312.15,1054.51,1348.15,1031.08Z"/><path class="cls-18" d="M1320.44,1019.94s20.57,9.72,27.71,11.14,34.86,37.43,39.72,50.58,0,32.86-10,56-.58,30.86-5.15,54-3.1,109.73-2.24,122.59-133.74,32.34-160.31,8.91c0,0,18-78,39.29-100.3,4.6-4.81,4.12-36.91,1-44.91s-38.57-67.72-38.57-67.72-2.6-60.57,12.86-72.57c13.43-10.43,50-14.15,56.6-16.44S1307,1017.94,1320.44,1019.94Z"/><path class="cls-11" d="M1330.26,996.2s-.62,5.67-1.33,13.32c-.27,3-.57,6.37-.84,9.8-.82,10.26-1.48,21.27-1.08,26.91,0,0-21.38,21.43-45.69-25,0,0,10.22-19.15,2.53-45.21S1330.26,996.2,1330.26,996.2Z"/><path class="cls-19" d="M1390.09,1146.2s5.15-34.23-.32-55c0,0,0,17.9-9.82,43.32Z"/><path class="cls-11" d="M1264.89,1024.52s14.71,43.43,55.08,40.24,19.14-36.68,19.14-36.68-10.06-5.77-12.89-6.31-44.64-1.07-44.64-1.07Z"/><path class="cls-17" d="M1339.11,1028.08s21.15,58.5,21.15,118.12,1.7,156.73,9.08,187.39,28.4,125.51,28.4,125.51l16.47-8.52s-39.6-151.36-42.59-162.28,2.27-126.22,5.11-135.87,14.91-52.63,13-64.56c-2.37-15-16.43-37.27-39.15-56.39Z"/><path class="cls-17" d="M1272.87,1022.69a607.37,607.37,0,0,1,19.8,96c6.67,53.9-20.44,304.09-38.61,360.88l-70.43-11.36s15.16-176.84,35.74-209,27.13-60.66,4.91-127.83S1234,1030.9,1234,1030.9,1266.7,1023.39,1272.87,1022.69Z"/><polygon class="cls-20" points="1348.85 1201.16 1263.46 1349.05 1168.54 1294.25 1250.21 1144.21 1348.85 1201.16"/><polygon class="cls-21" points="1338.55 1206.25 1262.72 1337.6 1178.41 1288.92 1250.96 1155.67 1338.55 1206.25"/><polygon class="cls-20" points="1310.58 1194.45 1315.9 1185.23 1281.82 1165.55 1275.16 1174 1310.58 1194.45"/><path class="cls-11" d="M1306.51,1299.38s-3.88,0-5.59-.8c0,0-3-1.73-5.17-2.84a17.06,17.06,0,0,0-1.73-.77c-1.74-.61-5.75-1.41-9.52-4s-17.14-18.1-17.14-18.1l6.31-9.6,4.63-9.83s28.07,1.81,31.87,3.84c.37.21.73.42,1,.64,3,2,4.46,4.83,5.94,6.08.54.46,5.61,5.41,5.43,7.52a6.94,6.94,0,0,1-3.36,5.83s-.73,5.71-3.55,8.37c0,0-.5,5.29-4.94,7.61C1310.74,1293.3,1309.63,1298.61,1306.51,1299.38Z"/><path class="cls-17" d="M1248.65,1031.08s-25.93-7.42-40.79,21.15-14.79,40.76-16.77,54.72c-1.88,13.17-10.34,49.14-11.2,52.85s-20,48-11.23,63.49,98.58,61.37,98,64.8,15.54-34.63,15.54-34.63S1245.9,1233.21,1240,1227c-9.66-10.12-30-21-25.85-33.59,4.91-14.75,19.69-64.52,23.12-71.81S1270.5,1040.37,1248.65,1031.08Z"/><path class="cls-22" d="M1333.45,883.69s46.16,14.51,21.1,94.17-88.1-9.23-81.51-57.77S1333.45,883.69,1333.45,883.69Z"/><path class="cls-14" d="M1359.27,930.17s-22.94,22.51-61.32,25.33c0,0-14.76,17.3-15.89,24.09,0,0-34.25-58.38,7.85-93.38S1374.75,915.75,1359.27,930.17Z"/><path class="cls-22" d="M1298.41,957.08c-.3-5.8-3.87-19-12.49-15.3s.53,30.57,6.24,28.91C1292.16,970.69,1299.11,970.8,1298.41,957.08Z"/><path class="cls-13" d="M1328.93,1009.52c-.27,3-.57,6.37-.84,9.8,0,0-20.38-1.22-34-31.53C1295,989.12,1309.91,1011.05,1328.93,1009.52Z"/><path class="cls-23" d="M823.44,1738.05c29.6-20.82,64.24-165.89,66.31-252.29,1.06-44.26,14.14-62.7,25.68-79,11-15.55,20.57-29,15-59.82-10.6-58.94,17.29-84.38,17.57-84.63l-3.23-3.68c-1.24,1.09-30.29,27.33-19.15,89.18,5.18,28.81-3.37,40.86-14.19,56.12-11.36,16-25.49,35.92-26.59,81.68-2.22,92.73-37.63,229.7-64.23,248.4Z"/><path class="cls-24" d="M761.39,1695.74c-2.79-6.34-5.68-12.89-8.95-19.8-16.91-35.69-31.89-41.57-56.71-51.31-6.06-2.38-12.94-5.08-20.48-8.46-35.55-16-28.67-39.52-22.59-60.29.85-2.91,1.69-5.81,2.43-8.67,3.12-12.22-2.88-18.35-12-27.63-6.75-6.89-15.16-15.47-21.65-29-7.09-14.83-3.48-22.78.81-26.84,9-8.55,29.81-7,49.44,3.74,6.1,3.33,11.12,8.59,16.44,14.16,12.51,13.1,28.09,29.41,67.48,29.6,22.47.1,34.77,3.2,41.14,10.36,7.23,8.13,5.87,20.29,4,37.13-.65,5.82-1.39,12.43-1.84,19.56-2.68,42.54,22.44,73.24,22.69,73.54,15,17.86,33.49,54.94,25.51,77.75-3.34,9.57-10.82,15.59-22.23,17.9a63.2,63.2,0,0,1-12.52,1.35C784.81,1748.8,774.72,1726,761.39,1695.74Zm-92-224c-17.54-9.57-36.34-11.5-43.73-4.49-5.63,5.33-3,14.46.24,21.18,6.13,12.82,13.89,20.73,20.73,27.72,9.52,9.7,17,17.37,13.22,32.26-.75,2.92-1.61,5.87-2.48,8.83-6,20.68-11.75,40.22,19.91,54.45,7.43,3.34,14.25,6,20.26,8.38,25.05,9.83,41.6,16.32,59.34,53.77,3.3,7,6.2,13.55,9,19.91,15.32,34.71,24.56,55.66,58,48.89,9.59-1.94,15.85-6.89,18.58-14.71,7-20.11-9.79-55.31-24.65-73-1.08-1.31-26.62-32.44-23.81-77,.45-7.25,1.2-13.92,1.86-19.79,1.74-15.58,3-26.84-2.77-33.33-5.29-5.94-16.86-8.63-37.51-8.73-41.47-.19-57.85-17.34-71-31.11-5.27-5.52-9.81-10.28-15.24-13.24Z"/><path class="cls-25" d="M824.35,1777.06l4.89-.25c-.24-4.6-6.41-112.86-49.88-144.54-47.69-34.76-62.72-72.12-69.88-97.2-8.44-29.54-51.39-37.44-53.21-37.76l-.86,4.82c.42.08,41.76,7.69,49.36,34.29,7.36,25.77,22.8,64.15,71.71,99.8C818.08,1666.55,824.29,1776,824.35,1777.06Z"/><path class="cls-26" d="M816.07,1801.41c-10.22-5.09-9.85-25.57-9.29-56.57.71-39.17,1.68-92.82-18.83-142.17-21.78-52.42-2.35-67.74,16.44-82.55,21-16.6,40.92-32.27,2.77-103-17.52-32.49-23.08-54.47-17.51-69.17,5.51-14.52,21-20.18,37.36-26.17,28.26-10.35,60.29-22.07,56.16-81.89-1.27-18.34.88-29.62,6.78-35.49,6.41-6.38,15.85-5.69,26.78-4.89,16.52,1.21,35.23,2.58,51.53-18.69,1.69-5.31,17.27-52.74,35.91-60.86a13.18,13.18,0,0,1,11.41.06h0c12.87,6.15,20.33,13.45,22.83,22.32,4.34,15.41-7,32.79-20,52.92-20.54,31.64-43.83,67.49-19.68,110.16,31.93,56.41,15.07,76.16-8.27,103.48-13.38,15.66-28.54,33.4-38.67,62.34-8.15,23.28,5.75,45.47,19.2,66.93,16.86,26.92,34.3,54.76-2.42,78.92-60.7,39.94-120.65,170.31-121.25,171.62l-.25.54-.47.37c-11.18,8.77-19.32,13-25.46,13A11.08,11.08,0,0,1,816.07,1801.41ZM965.85,1613c32.72-21.53,18-45,1-72.23-13.41-21.4-28.6-45.65-19.67-71.15,10.44-29.8,25.91-47.92,39.56-63.9,22.88-26.77,38-44.46,7.74-97.89-25.61-45.25-.41-84,19.84-115.23,12.42-19.13,23.15-35.66,19.42-48.94-2.1-7.42-8.71-13.71-20.23-19.22h0a8.37,8.37,0,0,0-7.34,0c-17.29,7.53-33.17,57.74-33.33,58.25l-.13.4-.26.34c-18,23.74-39.07,22.2-56,20.95-10.13-.74-18.14-1.33-23,3.48s-6.51,15.09-5.36,31.68c4.39,63.49-31,76.43-59.36,86.82-16,5.84-29.74,10.89-34.46,23.32-5,13.27.44,34,17.24,65.11,40.1,74.36,17.65,92.06-4.05,109.18-18.16,14.32-35.31,27.84-14.95,76.83,20.9,50.29,19.92,104.53,19.2,144.14-.49,27-.87,48.38,6.59,52.1,4.36,2.17,12.71-1.5,24.82-10.92C847.94,1775.56,905.36,1652.78,965.85,1613Z"/><path class="cls-27" d="M720.25,1233.17c30.9-10.59,24.48,49,37.54,93s145.23,19.22,89.75,129.55,70.17,36.89,32.63,133.17-3.26,199.25-44.06,173.06-22.92-147.43-65.34-161.84-49.35-31.21-7.35-70.37-110.07-78-72.54-157.13S684.56,1245.41,720.25,1233.17Z"/><path class="cls-28" d="M821.89,1755.64c3.89-16.48,37.07-161.52,6.11-179.06-27.29-15.45-26.62-75.55-22.36-132.31,3.77-50.24-60.76-73.72-63.5-74.7l-1.64,4.62c.64.22,63.75,23.21,60.26,69.71-4.37,58.29-4.84,120.14,24.83,136.94,23.5,13.32,1.86,129.89-8.46,173.68Z"/><polygon class="cls-29" points="938.46 1704 894.35 1871.35 795.77 1871.35 751.66 1704 938.46 1704"/><path class="cls-30" d="M938.46,1704s-97.11,18.23-97.11,167.35H795.77L751.66,1704Z"/><rect class="cls-31" x="1839.26" y="301.14" width="387.53" height="349.02" rx="48.23"/><rect class="cls-7" x="2016.18" y="584.14" width="30.74" height="5.69"/><path class="cls-32" d="M2059.34,270.57s24.77,13.6,16.91,47-10.86,37.86-4.47,51.37,12,70.13,5.19,80.49-75.89-50.53-83.56-99.23,9.6-69.4,15.73-77.12S2037.5,258.15,2059.34,270.57Z"/><path class="cls-11" d="M2105.84,546.93h-26.51c-1.28-13.08-2.47-22.18-2.23-23.53.39-2.22-26.38-72.45-28.88-78.26s-12.33-21.37-13.61-36,17.83-20.59,17.83-20.59c25.82,4.63,34.56,40.34,34.56,40.34s10.84,72.42,16.33,92.8C2104.74,526.87,2105.5,536.1,2105.84,546.93Z"/><path class="cls-33" d="M2092.5,446.29,2053,462.94s-36.29-90.06-5.87-80S2091.11,411.8,2092.5,446.29Z"/><path class="cls-33" d="M2083.71,488.69c-1.15,8.94-5.87,40.61-4.82,49.17.18,1.41.76,4.65,1.64,9.07h-95.2c2.53-9,4.84-17,6.23-21.7,4.63-15.33.2-19.44-2.14-31.7-.91-4.81-4.11-13.93-7.59-24.23-1.17-3.44-2.37-7-3.53-10.63-4.18-13-6.13-26.25-7.33-34-5.74-36.63,22.42-40.15,22.42-40.15,10.47-1.93,28.76-7.58,28.76-7.58l28.64,6a31.08,31.08,0,0,1,6.7,4s0,0,0,0a52.14,52.14,0,0,1,6.45,5.64c3.13,3.22,9.36,12.41,15.57,22.52,1.9,3.1,3.82,6.28,5.62,9.42,5.82,10.07,10,18.2,9.83,27.37C2094.86,460.88,2084.86,479.75,2083.71,488.69Z"/><path class="cls-11" d="M2050.79,382.94s17.94,30.66,11.27,32.95-41.84-5.45-55.58-34.42C2006.48,381.47,2029.56,371,2050.79,382.94Z"/><path class="cls-11" d="M2048.22,396.94s-15.94,6.75-30.37-15.45c0,0,3.88-25.21-4.32-39.8s35.83,17.48,35.83,17.48-.71,3-1.45,7.45c-.37,2.27-.76,4.91-1.06,7.72-.25,2.33-.44,4.79-.52,7.23C2046.14,387.24,2046.55,392.87,2048.22,396.94Z"/><path class="cls-34" d="M2008.64,431.29c-3.28,16.87-26.82,38-26.82,38-1.16-3.44-2.36-7-3.51-10.62C1994.55,448.32,2008.64,431.29,2008.64,431.29Z"/><path class="cls-11" d="M2002.74,444.72c-1.49,6.15-8.36,68.44-7.61,70.57.44,1.21,3.76,15.62,7.09,31.64h-30.73c-3.15-10.32-5-18.89-4.56-23.74,2-21-5.16-88-5.16-88s-6.38-40.51,27.24-45.57c0,0,19.87,2.61,21.07,17.28S2004.23,438.59,2002.74,444.72Z"/><path class="cls-33" d="M1959.29,453.32l41.72,9.75s33.1-64.26,3.29-76C1972.88,374.71,1951.76,418.27,1959.29,453.32Z"/><path class="cls-22" d="M2055.49,274.13s36.26,13.31,13.28,75.89-69.9-10.68-62.82-49.14S2055.49,274.13,2055.49,274.13Z"/><path class="cls-32" d="M2074.33,312.17s-19.14,17.08-49.85,17.88c0,0-7.18,17.5-8.34,22.87,0,0-30.35-52.1,4.54-78.42S2087.21,301.26,2074.33,312.17Z"/><path class="cls-22" d="M2028.62,333.8c0-4.63-2.37-15.28-9.38-12.66s-.73,24.38,3.89,23.28C2023.13,344.42,2028.67,344.77,2028.62,333.8Z"/><path class="cls-13" d="M2046.37,380.5c-17-4.71-23.63-21-23.83-21.5,13.86,17.91,24.31,15.34,24.31,15.34C2046.6,376.67,2046.58,378.13,2046.37,380.5Z"/><path class="cls-7" d="M2125.13,364.3v5.56h32.77v30.76h5.57V364.3Zm-222.56,36.32h5.57V369.86h32.77V364.3h-38.34ZM2157.9,559.34v30.77h-32.77v5.56h38.34V559.34Zm-249.76,0h-5.57v36.33h38.34v-5.56h-32.77Z"/><rect class="cls-7" x="1503.19" y="844.91" width="41.05" height="7.6"/><path class="cls-7" d="M1646.74,551.26v7.43h43.78v41.09H1698V551.26Zm-297.27,48.52h7.44V558.69h43.77v-7.43h-51.21Zm341,212v41.1h-43.78v7.44H1698V811.77Zm-333.61,0h-7.44v48.54h51.21v-7.44h-43.77Z"/><path class="cls-35" d="M2440.76,1122.48H2406c-.64-1.39-1.15-2.6-1.58-3.57-10.3-24.33-63.4-80.12-63.4-80.12v.12a.1.1,0,0,0,0,.06v.07c0,.09-.06.15-.09.24s-.06.27-.12.45a1.07,1.07,0,0,0-.06.3c0,.09-.06.15-.09.24-2.18,8.13-12.88,48.63-18.23,82.21h-235c-.54-3.11-1.17-6.08-1.9-8.83a189.71,189.71,0,0,1-4.53-24.3c0-.39-.09-.75-.12-1.14-.18-1.42-.34-2.84-.46-4.24a223.16,223.16,0,0,1-.39-38.89c-.66,1.42-5.41,18.83-11.63,40.31-3.42,11.79-7.29,24.82-11.13,37.09h-55.48l69.63-200.89c1.54-1.21,19.61-9.94,32.79-16.23,13.45-6.4,29.68-15.81,44.33-23.84,7.5-4.11,14.57-7.83,20.71-10.64l.93-.42v0c10.13-4.63,16.87-7.68,16.87-7.68h0l4.38-.42c14.14-1.37,58-5.47,72.72-6.32,1.2-.09,2.23-.12,3-.15a11.78,11.78,0,0,1,1.48,0c1.84.12,10.91,3.26,22.79,7.8.45.15.9.33,1.35.51l1.7.63c1,.4,2.08.79,3.14,1.21,2.12.85,4.32,1.7,6.53,2.57l2.33.91c23.78,9.43,51,21.12,57.51,25.78,4.29,3.05,17.62,28.17,33.06,59.23C2413.74,1007.75,2434.08,1084.58,2440.76,1122.48Z"/><path class="cls-11" d="M2268.33,849c-.63,31.59-61.79,48.86-61.79,48.86s-25.58-32.07-19.47-35.14c2.4-1.21,3.38-6,3.68-11.36a112.21,112.21,0,0,0-.35-14.33c-.18-2.23-.36-3.67-.36-3.67s8.74-9.22,19.86-20.2c19.42-19.21,46.13-43.81,46.17-34a9.27,9.27,0,0,1-.22,1.85C2251.15,803.05,2268.33,849,2268.33,849Z"/><path class="cls-13" d="M2244.77,802.75h0c-.12.19-2.72,4.07-7.14,9.64-9.39,11.81-27,31.21-46.88,39a112.21,112.21,0,0,0-.35-14.33,31.45,31.45,0,0,1-6.08-.73,190.08,190.08,0,0,1,13.3-19.47l12.28-3.67Z"/><path class="cls-11" d="M2256.51,779.59c-5.29,11.51-10.31,19.85-11.74,23.16h0c-.93,2.16-3.45,5.66-7.14,9.64-10.08,10.86-28.82,25.18-47.23,24.67a31.45,31.45,0,0,1-6.08-.73c-7.43-1.62-16.21-5.08-21-14.54-38.16-74.7-10.53-135.78-10.53-135.78s104.32-29.5,120.64,1.9C2284.85,709.94,2268.94,752.55,2256.51,779.59Z"/><path class="cls-36" d="M2152.75,686s-9.69-.54-12.09-18.91c-2.37-18.15,2.42-23.18,2.42-23.18s43.07-18,58.54-20.37,53.49-4.6,62.41,5.6c0,0,21.66-5,27.56,30.92,9.36,57-31.9,112.43-31.9,112.43s.35-37.26-7.87-42.2-15.31,6.8-15.31,6.8l-16.81,3s25.53-55.13-5.1-57.17S2170.28,689.21,2152.75,686Z"/><path class="cls-11" d="M2237,722.25c1.6-16.42,31.29-22.69,29.3-5.48s-16.61,33.74-23.36,33.16S2235.75,734.76,2237,722.25Z"/><path class="cls-37" d="M2410.75,956c-9.67-31-18-55.48-21.76-58.14-6.5-4.66-58-18.83-82.44-28.41l-2.33-.91c-2.21-.87-4.41-1.72-6.53-2.57-1.06-.42-2.11-.81-3.14-1.21l-1.7-.63c-.45-.18-.9-.36-1.35-.51,0,0-.07.09-.13.12a400,400,0,0,0-27,34.51c-25.27,35.9-58.18,94.08-53.13,147.79,1.63,17.22,3.62,42,7,69.75.24,2.21.51,4.41.81,6.65h114c1.39-29.08,3.87-67.37,7.62-82.21,0-.09.06-.15.09-.24a1.07,1.07,0,0,1,.06-.3c0-.15.09-.3.12-.45s.06-.15.09-.24V1039a.1.1,0,0,1,0-.06s27.59,43.13,29,83.57h71.75C2438.31,1084.91,2427.34,1009.21,2410.75,956Z"/><path class="cls-37" d="M2169.76,871.24s-8.61,28.65-19.73,100.19v0c-.4,2.39-.76,4.83-1.15,7.34,0,.27-.09.58-.12.88-.28,1.63-.52,3.32-.76,5l-.09.6c-.18,1.12-.36,2.27-.51,3.44-.43,2.81-.85,5.72-1.27,8.65-4.17,29.19-9.74,75.58-15.39,125.09h-45.06c-2.45-13.75-4.74-26.27-4.56-34.85a4.5,4.5,0,0,0-.21.58c-3.6,10-7.56,20.82-11.58,31.37-.36,1-.72,1.93-1.09,2.9h-77.67l77.37-202.4c1.54-1.21,21.46-11.94,34.64-18.19,13.75-6.56,31.13-14.63,46.54-21.73,7.37-3.42,14.29-6.59,20.16-9.28Z"/><path class="cls-38" d="M2274.54,942l-29.77,16.81,12.73,13-27.93,150.69h-10.52c-3.87-30.47-6.07-57.82-7.79-76.4-7.77-83,75.1-176.71,80.24-182.42,4,1.51,8.28,3.17,12.72,4.92Z"/><path class="cls-38" d="M2170.21,870.46s-11.12,36.29-24.05,126.93c-4.17,29.16-9.77,75.58-15.42,125.09h-4.38l-5.77-142.38,14.17-15.35L2122.16,949l27-68.84c7.37-3.42,14.29-6.59,20.16-9.28Z"/><path class="cls-39" d="M2293,864l-24.67-15s-.69,13.53-61.79,48.86l17.35,48.87Z"/><path class="cls-39" d="M2190.29,855.84s1,14.61,16.25,42L2172.68,942l-2.46-71.59Z"/><path class="cls-40" d="M2206.64,897.89s6.56,26.25,4.2,33.6c0,0-14.43,5.25-24.8-1.31C2186,930.18,2193.38,911.8,2206.64,897.89Z"/><path class="cls-40" d="M2198.68,987.14c-6.92,47.15-6.92,94.84-4.35,135.34h-28.92q-.59-8.57-1.12-17.89c-5.38-93.36,27.62-176.77,27.62-176.77l14.72-3.69S2201.89,965.38,2198.68,987.14Z"/><path class="cls-41" d="M2082.05,1045.32c-1.1,22.4-.94,42.29-.94,42.29v0c0,.1,0,.71-.07,1.71-.05-.38-.1-.75-.14-1.13-3.59,10-7.56,20.81-11.56,31.37a334.15,334.15,0,0,1-.9-34.18c1.6-62.81,21.36-95.74,21.36-95.74C2085.26,1000.6,2083.09,1024.09,2082.05,1045.32Z"/><polygon class="cls-42" points="1811.71 1122.75 1719.31 1173.54 1626.5 1027.51 1738.74 988.52 1811.71 1122.75"/><polygon class="cls-28" points="1805.86 1118.36 1719.44 1165.86 1632.65 1029.29 1737.62 992.83 1805.86 1118.36"/><path class="cls-11" d="M1837.5,1092.82s-16.08-7.69-23.14-11.71-25.22-9.55-26.69-10.86-53.83-4.54-57-7.28-6.26,6.42,7.31,9.4,32.46,10.24,33.49,15.54-13.94,6.57-15.45,10.94.42,3.38,2.57,4.32,17.81-7.74,24.7-5.27,17.41-1,22.69.86,31,10.44,31,10.44Z"/><path class="cls-11" d="M1714.8,1155.22s-13.51-12.16-20-17.25-18.81-20-20.62-20.93-25.24-49-29.06-50.88,3.62-8.41,11.7,3.22,22.29,26.61,27.69,25.51.76-15.69,4.29-18.82,3.36-.92,5.07.74-.35,19.8,4.65,25.33,5.89,16.78,9.65,21,21.89,25.1,21.89,25.1Z"/><path class="cls-43" d="M2005.8,1805.24s2.93,20.29,3.29,23.34,32.52-1.8,32.52-1.8l2.6-24.15S2009.82,1802.38,2005.8,1805.24Z"/><path class="cls-42" d="M2008.75,1826s-10.19,12.22-20,17.55-25.33,7.44-31.16,13c-4.2,4-15.31,21.12,25.6,20.78s60.65,2.42,65-4.16-6.34-48.5-6.34-48.5S2032.15,1828.11,2008.75,1826Z"/><path class="cls-43" d="M1775.45,1805.24s2.92,20.29,3.28,23.34,32.52-1.8,32.52-1.8l2.6-24.15S1779.46,1802.38,1775.45,1805.24Z"/><path class="cls-42" d="M1778.39,1826s-10.18,12.22-20,17.55-46.1,9.71-51.93,15.22c-4.21,4-11.2,20,46.37,18.52,40.91-1.07,60.65,2.42,65-4.16s-6.34-48.5-6.34-48.5S1802.35,1828.35,1778.39,1826Z"/><path class="cls-42" d="M1979.18,1283.93s30.21,48,28,91.38,10.95,90.75,15.49,136.07c5.06,50.53,25.76,170.14,26.51,197.17s-3.21,113.32-3.21,113.32l-41.45,1s-34.8-209.11-43.82-230.45-53.72-173.45-55.22-190.52S1979.18,1283.93,1979.18,1283.93Z"/><path class="cls-42" d="M1820.16,1290.43s-22.77,118.91-25.77,145.46-5,128.51-6.51,145.1-10,217.18-18,241.83h53S1863.5,1677,1863.5,1608s31.42-150,51.71-195.5,66.71-46.6,79.17-131C1994.38,1281.47,1837,1263.64,1820.16,1290.43Z"/><path class="cls-11" d="M1928.77,880.41s-40.55-15.15-59.24,15.72-16.9,92.65,3.54,100.25,51.14,3.63,61.61-15.69,19.91-47.23,19.45-65.89S1939.42,885.79,1928.77,880.41Z"/><path class="cls-11" d="M1877.47,997.79s1.69,11-1.1,16.35,52.53,5.53,52.53,5.53,4.49-29.33,13-54.12S1877.47,997.79,1877.47,997.79Z"/><path class="cls-44" d="M1941.91,965.55s-3.82,6.3-19.4,3.86-34.6-23.18-41.11-25.46-6.57-6.1-6.57-6.1l-4.07,5.95-6.92.44s6.31-18.55-3.2-26.11,9.87-60,59.85-42.57c0,0,38.39,10.58,37,32.41S1950.5,954.68,1941.91,965.55Z"/><path class="cls-45" d="M1873.09,1013.49s.17-10.31,4.84-11.3,51.56-5.49,57.29-3.24v12S1924.17,1017.75,1873.09,1013.49Z"/><path class="cls-11" d="M1875.86,929.91c.88-3.66,10.19-14.13,13.75-2.92s-5.38,26.28-10.38,25S1873.65,939.2,1875.86,929.91Z"/><path class="cls-46" d="M1687,1135.23h.07C1686.78,1135.36,1686.73,1135.38,1687,1135.23Z"/><path class="cls-47" d="M2013.26,1398.27s-24.86,7.32-67.27,12-148.35-1.69-149-6.7,22.79-186.54,21.46-195.89-2-42.66-2-42.66c-.53,9.13-9.83,46.41-21.05,66.74-4.06,7.34-17.66,30.35-24.22,25.12-31.74-25.34-80.89-120.84-84-121.65,2.61-1.14,23.29-10.66,26.19-11.62,2.54-.85,25.44,23.39,39.31,38.42,6.19,6.7,10.58,11.57,10.58,11.57,4-9,18.6-65.8,23.13-85.46,10.23-44.32,8.66-46.16,8.66-46.16,31-9.39,78.11-28.48,78.11-28.48l62.13-2.54s57,12.56,79.48,22.7c2.13,1,2.14,50.87,8,64l-18.62,39.28s-10.76,77.81-13,112.41C1990.05,1265.19,2013.26,1398.27,2013.26,1398.27Z"/><path class="cls-47" d="M2025.27,1162.4c-1.63,5.24-9,9.67-13.78,11.6a17.8,17.8,0,0,1-10,1l-2.43-.45h0l-42.58-7.9s-9.31-107.29,58.17-133C2016.48,1034.23,2040.17,1114.36,2025.27,1162.4Z"/><path class="cls-48" d="M2011.49,1174h0a17.8,17.8,0,0,1-10,1l-2.43-.45h0l4.2-54.83Z"/><path class="cls-48" d="M1763.19,1173.59l-5.2,22s-5.65-22.12-5.38-33.61C1758.8,1168.72,1763.19,1173.59,1763.19,1173.59Z"/><path class="cls-44" d="M1940.32,884.05s53.14-6.66.9,82.11Z"/><polygon class="cls-42" points="1669.22 1019.67 1663.82 1010.39 1706.37 995.71 1711.77 1004.94 1669.22 1019.67"/><g class="cls-49"><polygon class="cls-50" points="2480.73 621.98 2510.87 621.98 2501.64 602.84 2471.5 602.84 2480.73 621.98"/><polygon class="cls-51" points="2466.62 621.98 2473.8 621.98 2464.58 602.84 2457.4 602.84 2466.62 621.98"/><polygon class="cls-52" points="2362.48 599.18 2484.53 599.18 2480.48 589.62 2358.43 589.62 2362.48 599.18"/></g><rect class="cls-53" x="1658.1" y="278.51" width="51.72" height="15.59" rx="2.82"/><rect class="cls-54" x="1658.1" y="315.88" width="51.72" height="15.59" rx="2.82"/><rect class="cls-55" x="1658.1" y="353.26" width="51.72" height="15.59" rx="2.82"/><rect class="cls-56" x="1731.18" y="278.51" width="14.72" height="15.59" rx="2.82"/><rect class="cls-57" x="1731.18" y="315.88" width="14.72" height="15.59" rx="2.82"/><rect class="cls-58" x="1731.18" y="353.26" width="14.72" height="15.59" rx="2.82"/><polygon class="cls-59" points="1542.83 1135.85 1596.94 1135.85 1580.38 1101.5 1526.27 1101.5 1542.83 1135.85"/><polygon class="cls-60" points="1517.51 1135.85 1530.41 1135.85 1513.85 1101.5 1500.95 1101.5 1517.51 1135.85"/></g></g></svg>