<svg xmlns="http://www.w3.org/2000/svg" viewBox="0 0 195 381.15"><defs><style>.cls-1{isolation:isolate;}.cls-2{fill:#9baeba;}.cls-11,.cls-2{opacity:0.36;}.cls-11,.cls-18,.cls-19,.cls-2,.cls-9{mix-blend-mode:multiply;}.cls-3{fill:#edbd9a;}.cls-4{fill:#2955d8;}.cls-5{fill:#5a3a2e;}.cls-6{fill:#d49f79;}.cls-7{fill:#fff;}.cls-8{fill:#ffc701;}.cls-9{opacity:0.3;}.cls-10{fill:#ababab;}.cls-12{fill:#f0f0f0;}.cls-13{fill:#c29371;}.cls-14{fill:#d4d4d4;}.cls-15{fill:#0697f2;}.cls-16{fill:#0110b3;}.cls-17{fill:#412b80;}.cls-18{opacity:0.43;}.cls-19{opacity:0.5;}.cls-20{fill:#a3a3a3;}</style></defs><g class="cls-1"><g id="Capa_2" data-name="Capa 2"><g id="OBJECTS"><ellipse class="cls-2" cx="79.61" cy="366.04" rx="60.84" ry="15.11"/><path class="cls-3" d="M148.9,75.17s-1.29-2.83-3.79-1.74c0,0-1.79-2.55-4.07-1.26,0,0-1.07-7.53-1.54-10.5s-3.24-2-2.77,1,.86,9.12,1,12.85c.06,1.58-.68,2.56-1.25,1.72a6.42,6.42,0,0,1-.89-3.53c-.47-3-3.91-2.35-3.91-2.35s-.08,4.62.17,7a20.18,20.18,0,0,0,6,11s.8,24.23-4.9,32.63c0,0-16-7.73-24.51-13.57-4.47-3.07-7.49-5.2-10.88-6.48,1.83,10.94-3.85,21.44,2.09,30.46,3.3,1.48,31,10.09,39.16,8.8,8.91-1.41,12.49-13.43,11-29.24-.9-12.24-1.71-22-1.71-22,2-1.38,3-3.12,3.14-7.61,0-1.27.61-2.35.78-3.91C152,76.08,148.9,75.17,148.9,75.17Z"/><path class="cls-4" d="M101.19,196.93s1.53,70-3.94,149.72c0,0-11.89.59-19.55,0L72.3,228.32s-1.18-2.36-1.18,1.18S64.4,347.44,64.4,347.44H44.85c-7-74.3-3.22-149.33-3.22-149.33Z"/><path class="cls-5" d="M98.44,61.5S101.19,56,100,51.86s-5.9-6.48-5.9-6.48,2.95-7.08-1.77-11.21c0,0,1.77,7.08-8.26,4.72s-16.51-4.72-22.41.59c0,0-2.36-1.77-3-3.54,0,0,0,3.54,1.18,5.31,0,0-1.18,1.18-3.53,0a23.56,23.56,0,0,0,2.35,3s-6.88,5.31-2.55,21.23c0,0,.79,11.79,8.45,19.46Z"/><path class="cls-3" d="M100.91,103.93c-3.45-3-7.93-4.94-16.82-7.25V88.87h0c6.38.39,11-3.55,13-9.87,3-9.43,1.18-20.64,1.18-20.64a11.55,11.55,0,0,0-5.9-10.61s-2.36,4.71-10,2.94S68.76,47.15,67,54.22,68.17,66,68.17,70.73l-3,.59s0-5.89-2.95-7.66S52.84,66,55.79,71.91a10.46,10.46,0,0,0,8.84,5.9L64,95.5s-18.28,2.36-28.89,10C24.83,113,18.41,131,10.48,140.68c.13,8.13.71,16.35,3.4,23.84l0,0c5.89-3.54,19.46-17.1,27.71-33a608.65,608.65,0,0,0,0,63.1s21.23,5.3,58.39,0V136.19l.39.39C98,126.06,98.83,114.83,100.91,103.93Z"/><path class="cls-6" d="M84.09,89a32.75,32.75,0,0,1-11.2-3.54S74.07,92,84.09,95.8Z"/><path class="cls-5" d="M62,74.42h0a.45.45,0,0,1-.39-.49c.53-4.8-1.91-5.39-2-5.42a.44.44,0,0,1,.18-.86c.13,0,3.34.73,2.71,6.38A.45.45,0,0,1,62,74.42Z"/><path class="cls-5" d="M59,72.06a.47.47,0,0,1-.25-.07.46.46,0,0,1-.12-.62,2.28,2.28,0,0,1,1.58-1.1,2.44,2.44,0,0,1,1.74.58.43.43,0,0,1,0,.62.44.44,0,0,1-.62,0,1.51,1.51,0,0,0-1-.36,1.44,1.44,0,0,0-1,.71A.45.45,0,0,1,59,72.06Z"/><path class="cls-5" d="M78.29,87.64c2.26,3.15,13.37,2.36,15.24-2.75,0,0,.59-4.72,1.18-11.21a10.12,10.12,0,0,1-3.54-2.36c-1.77-1.76-2.36-2.35-4.72-1.17a4.7,4.7,0,0,0-4.72.58,16.19,16.19,0,0,1-4.12,2.36S76,84.5,78.29,87.64ZM80,74.27c5.31,0,6.49-1.77,6.49-1.77,2.36,2.36,6.49,1.77,6.49,1.77-.59,4.72-1.18,6.49-3.54,6.49s-1.77-3.54-1.77-3.54H85.27s0,3-2.36,3.54C79.43,81.63,80,74.27,80,74.27Z"/><path class="cls-5" d="M86.43,76.54a9.86,9.86,0,0,1-4.92-1.29.45.45,0,0,1-.16-.61.44.44,0,0,1,.6-.16,9.6,9.6,0,0,0,7.87.57.44.44,0,0,1,.58.23.45.45,0,0,1-.24.58A10.27,10.27,0,0,1,86.43,76.54Z"/><path class="cls-5" d="M86.45,68.82A.44.44,0,0,1,86,68.5a.44.44,0,0,1,.3-.55l3.51-1a31.64,31.64,0,0,1-4.41-10.86.44.44,0,0,1,.33-.53.44.44,0,0,1,.53.33c1.72,7.46,4.6,11,4.63,11a.43.43,0,0,1,.08.42.44.44,0,0,1-.3.29L86.57,68.8Z"/><path class="cls-5" d="M81.73,56.58s.59-2.36-3.53-1.77a14.48,14.48,0,0,0-7.08,4.13,1.21,1.21,0,0,0,1.77,1.18c1.77-.59,3-2.36,7.07-2.36C81.73,57.76,81.73,56.58,81.73,56.58Z"/><path class="cls-5" d="M88.81,56.41s-.55-2.1,3.14-1.6a12.89,12.89,0,0,1,6.33,3.63,1.07,1.07,0,0,1-1.56,1.06c-1.59-.51-2.65-2.08-6.33-2C88.81,57.46,88.81,56.41,88.81,56.41Z"/><circle class="cls-5" cx="78.2" cy="63.07" r="1.77"/><path class="cls-7" d="M101.49,214.92a.32.32,0,0,1-.14,0c-4.07-1-7.12-4.26-8.82-9.38a27.54,27.54,0,0,1-1.36-7.39.59.59,0,0,1,.58-.61.61.61,0,0,1,.6.58c0,.14.4,13.44,9.28,15.66a.58.58,0,0,1,.43.71A.59.59,0,0,1,101.49,214.92Z"/><path class="cls-7" d="M71.51,222.9l-.14-1.17c5.66-.71,5.74-7,5.74-7.24V198.07h1.17v16.42C78.28,214.57,78.21,222.06,71.51,222.9Z"/><path class="cls-7" d="M41.34,216.4a.6.6,0,0,1-.58-.48.58.58,0,0,1,.46-.69,12.09,12.09,0,0,0,9.87-9.13,19.78,19.78,0,0,0,.57-7.31.6.6,0,0,1,.5-.67.58.58,0,0,1,.67.5c0,.15,2,15-11.37,17.76Z"/><path class="cls-7" d="M71.71,227.93a.58.58,0,0,1-.59-.58l-.3-27.75a.59.59,0,0,1,.58-.6.6.6,0,0,1,.6.58l.3,27.75a.59.59,0,0,1-.58.6Z"/><circle class="cls-5" cx="92.94" cy="62.48" r="1.77"/><path class="cls-8" d="M87.63,96.68s-1.77,11.8-9.43,13-17.11-4.13-18.88-13.57l-4.91.59s9.67,30.9-8,38.83c-1.78.8-6,6-6,6s-.59,27.13,1.18,56.61c0,0,29.49,4.13,59.56-1.18l0-60.64s-10-7.17-8.81-37.84Z"/><path class="cls-4" d="M81.73,345c2.09,2.09,5.9,2.36,11.8.59a4.69,4.69,0,0,1,4.72.59c2.35,1.77,10,8.26,15.92,10.62s11.79,1.77,13,7.66v2.95H78.79s-1.77-9.43-.59-14.74,1.35-4.77.59-7.08C78.2,343.77,80,343.18,81.73,345Z"/><path class="cls-7" d="M109.16,357.63a.6.6,0,0,1-.54-.34.59.59,0,0,1,.29-.78l3-1.38a.59.59,0,0,1,.49,1.07l-3,1.38A.52.52,0,0,1,109.16,357.63Z"/><path class="cls-7" d="M106.8,355.86a.59.59,0,0,1-.25-1.12l3-1.38a.59.59,0,0,1,.49,1.08l-3,1.37A.52.52,0,0,1,106.8,355.86Z"/><path class="cls-7" d="M104.44,354.09a.58.58,0,0,1-.54-.34.59.59,0,0,1,.3-.78l3-1.38a.59.59,0,0,1,.49,1.08l-3,1.37A.52.52,0,0,1,104.44,354.09Z"/><path class="cls-7" d="M102.08,352.33a.59.59,0,0,1-.24-1.13l3-1.38a.59.59,0,0,1,.78.3.58.58,0,0,1-.29.78l-3.05,1.37A.53.53,0,0,1,102.08,352.33Z"/><path class="cls-7" d="M99.72,350.56a.6.6,0,0,1-.54-.35.59.59,0,0,1,.3-.78l3-1.38a.59.59,0,0,1,.78.3.58.58,0,0,1-.29.78L100,350.5A.53.53,0,0,1,99.72,350.56Z"/><path class="cls-7" d="M88.22,363.24a.58.58,0,0,1-.58-.51c-1.67-11.12-8.67-11.48-9-11.49a.59.59,0,0,1-.57-.6.6.6,0,0,1,.6-.57,8.69,8.69,0,0,1,4.43,1.68c2.07,1.45,4.73,4.51,5.67,10.81a.59.59,0,0,1-.49.67Z"/><path class="cls-7" d="M107.09,364.41a.59.59,0,0,1-.08-1.17c8.22-1.09,8.76-5.76,8.78-5.95a.6.6,0,0,1,.64-.54.59.59,0,0,1,.54.64c0,.23-.59,5.79-9.8,7Z"/><path class="cls-7" d="M126.55,365h0l-48.36-1.17a.59.59,0,0,1-.57-.61.58.58,0,0,1,.59-.57h0l48.36,1.18a.58.58,0,0,1,.57.6A.59.59,0,0,1,126.55,365Z"/><path class="cls-4" d="M62.57,346.13s2.06,7.67,2.06,21.23H39.86s-1.77-5.3,3-11.2S48.12,345,48.12,345,61.09,340.83,62.57,346.13Z"/><path class="cls-7" d="M39.57,364.71a.6.6,0,0,1-.59-.59.59.59,0,0,1,.59-.59l25.06-.29a.58.58,0,0,1,.59.58.58.58,0,0,1-.58.59l-25.06.3Z"/><path class="cls-7" d="M62.27,364.41a.59.59,0,0,1-.59-.58,36.92,36.92,0,0,1,1.61-11.61.59.59,0,0,1,1.11.41,36,36,0,0,0-1.54,11.2A.58.58,0,0,1,62.27,364.41Z"/><path class="cls-7" d="M57,348.49H49.89a.58.58,0,0,1-.59-.59.59.59,0,0,1,.59-.59H57a.6.6,0,0,1,.59.59A.59.59,0,0,1,57,348.49Z"/><path class="cls-7" d="M56.38,350.85H49.3a.58.58,0,0,1-.59-.59.59.59,0,0,1,.59-.59h7.08a.6.6,0,0,1,.59.59A.59.59,0,0,1,56.38,350.85Z"/><path class="cls-7" d="M55.79,353.21H48.71a.59.59,0,0,1,0-1.18h7.08a.59.59,0,1,1,0,1.18Z"/><path class="cls-7" d="M55.2,355.57H48.12a.59.59,0,1,1,0-1.18H55.2a.59.59,0,0,1,0,1.18Z"/><g class="cls-9"><path class="cls-6" d="M49.89,198.7s-3.15-50.52-3.34-73.91l-4.92,7.87s-.18,2.93-.33,8.74l-.85.1c-.59,27.13.48,27.19,1.18,56.61Z"/></g><g class="cls-9"><path class="cls-10" d="M40.58,238.85l1.05-40.74,3.82-.07,4.44.66L50,344.43l-2,.72-.45,2.11-2.7.13C40,291.06,40.58,238.85,40.58,238.85Z"/></g><g class="cls-11"><path class="cls-6" d="M87,41.84C78.79,41.84,67,39.48,64,46s-2.36,17.25-2.36,17.25-4.12,2.21-3.53,5.16,1.76,8.25,8.84,8.25L66.4,95.5H64l.36-10.85a28.14,28.14,0,0,1-5.75-9.13,10.64,10.64,0,0,1-2.86-3.61,5.7,5.7,0,0,1,.4-6.3c0-.12,0-.18,0-.18C51.85,49.51,58.73,44.2,58.73,44.2a23.56,23.56,0,0,1-2.35-3c2.35,1.18,3.53,0,3.53,0-1.18-1.77-1.18-5.31-1.18-5.31.59,1.77,3,3.54,3,3.54,5.9-5.31,12.39-2.95,22.41-.59s8.26-4.72,8.26-4.72S95.3,41.84,87,41.84Z"/></g><path class="cls-6" d="M147.38,78a.31.31,0,0,1-.19,0c-2.9-.31-6.64-.83-6.68-.84a.29.29,0,0,1-.25-.33.3.3,0,0,1,.34-.25s3.76.52,6.66.83a.3.3,0,0,1,.26.33A.33.33,0,0,1,147.38,78Z"/><path class="cls-6" d="M147.65,90a5.39,5.39,0,0,1-3.4-.35.29.29,0,0,1-.18-.38.3.3,0,0,1,.38-.18c2.52.92,3.42.17,3.43.16a.3.3,0,0,1,.4.44A1.73,1.73,0,0,1,147.65,90Z"/><path class="cls-8" d="M86.3,97.19a43.86,43.86,0,0,1,20.59,8.7c10.4,7.83,25.19,14,25.19,14s5.4-17,4-29.82c0,0,7,3.24,13.63.8,0,0,7,34.91-3.71,46.39s-47.19-1.79-47.19-1.79S90.45,126.5,86.3,97.19Z"/><rect class="cls-7" x="133.74" y="118.96" width="0.78" height="10.98" transform="translate(-35.68 56.31) rotate(-20.99)"/><polyline class="cls-12" points="57.11 194.41 51 207.15 79 221.15 98 181.15 70 167.15 57.11 194.41"/><path class="cls-3" d="M24.79,154.43s15.87,20,30.23,23.31a21.63,21.63,0,0,1,3.91-.78,21.39,21.39,0,0,0,7-1.57,2.47,2.47,0,0,1,.78,3.91c-1.57,1.57-3.91,1.57-3.91,2.35L66,183.21c1.56.78,2.34,1.57,2.34,3.13s-.78,1.56-.78,1.56c-.2.63.89,2.07-1.56,3.13a2.3,2.3,0,0,1-2.35,2.35c0,.78-.78,1.56-2.35,1.56-3.92,0-10.85-2.43-13.92-6.32,0,0-24.08-8.12-44.61-27.06,0,0-4.33-3.88-1.17-9.94,4.18-6.73,15.13-21.59,23-33.32,5.34.71-4.41,35.61,1.05,35.4C25.3,153.94,25,154.19,24.79,154.43Z"/><path class="cls-13" d="M67.54,188.16a.18.18,0,0,1-.1,0c-1-.38-2.53-1-4.34-1.93a.29.29,0,0,1,.26-.52c1.79.89,3.32,1.53,4.29,1.91a.28.28,0,0,1,.17.37A.3.3,0,0,1,67.54,188.16Z"/><path class="cls-13" d="M66,191.29l-.11,0c-1-.38-2.53-1-4.34-1.93a.3.3,0,0,1-.13-.39.29.29,0,0,1,.4-.13c1.79.89,3.32,1.53,4.29,1.9a.29.29,0,0,1,.16.38A.28.28,0,0,1,66,191.29Z"/><path class="cls-13" d="M63.69,193.66l-.11,0c-1-.39-2.56-1-4.39-1.95a.3.3,0,0,1,.26-.53c1.82.91,3.37,1.55,4.35,1.93a.29.29,0,0,1,.16.38A.28.28,0,0,1,63.69,193.66Z"/><path class="cls-13" d="M62.1,184.85a.3.3,0,0,1-.13-.56,1.83,1.83,0,0,0,1-1.54.3.3,0,0,1,.3-.29.29.29,0,0,1,.29.29,2.39,2.39,0,0,1-1.36,2.06A.22.22,0,0,1,62.1,184.85Z"/><path class="cls-13" d="M60.53,188a.3.3,0,0,1-.26-.16.3.3,0,0,1,.13-.39,1.84,1.84,0,0,0,1-1.54.3.3,0,0,1,.59,0,2.42,2.42,0,0,1-1.36,2.06A.35.35,0,0,1,60.53,188Z"/><path class="cls-13" d="M59,190.32a.29.29,0,0,1-.26-.16.3.3,0,0,1,.13-.4,1.85,1.85,0,0,0,1-1.53.29.29,0,1,1,.58,0,2.4,2.4,0,0,1-1.36,2.06A.31.31,0,0,1,59,190.32Z"/><path class="cls-13" d="M56.62,193.45a.3.3,0,0,1-.26-.16.3.3,0,0,1,.13-.4,1.83,1.83,0,0,0,1-1.54.3.3,0,0,1,.59,0,2.44,2.44,0,0,1-1.36,2.07A.35.35,0,0,1,56.62,193.45Z"/><path class="cls-8" d="M40.94,141.77,27.65,155.06s11,12.51,24.24,20.33a78.39,78.39,0,0,1-7.82,13.3S5,172.26.28,158.19c-2.44-7.32,11.74-27.77,23.46-41.45,10.82-12.63,19.32-19.58,32.84-20.33,0,0,4.69,16.42,3.13,27.37-.61,4.3-12.51,21.9-12.51,21.9l-.78-10.17Z"/><rect class="cls-7" x="37.66" y="137.46" width="14.38" height="0.78" transform="translate(-84.34 72.09) rotate(-45)"/><path class="cls-12" d="M62.84,91.72l11.73,14.85-7,7.82s-7.82-12.51-8.6-18Z"/><polygon class="cls-14" points="74.57 106.57 74.76 109.9 72.03 109.41 74.57 106.57"/><path class="cls-12" d="M85.52,91.72l-9.19,14.85,7,7.82s4.69-12.51,5.47-18Z"/><path class="cls-14" d="M76.33,106.57l-.2,3.33a14.78,14.78,0,0,0,2.74-.49Z"/><polygon class="cls-14" points="62.84 91.72 64.17 91.72 64.11 93.28 62.84 91.72"/><polygon class="cls-14" points="85.52 91.72 84.09 91.72 84.09 93.86 85.52 91.72"/><path class="cls-12" d="M51.89,175.39,54.24,177l-7.82,12.51-2.06-1.17A75.47,75.47,0,0,0,51.89,175.39Z"/><path class="cls-12" d="M136.85,90.25l-.29-2a21.52,21.52,0,0,0,12.82,1.82l0,1.55S144.07,94.19,136.85,90.25Z"/><path class="cls-5" d="M67,64.44A15,15,0,0,0,77.21,76.27l5.18,13.1S66.75,87,65.18,71.38l1.57-7Z"/><path class="cls-5" d="M94.12,76.86a13.45,13.45,0,0,0,4.59-8.41s.1,13.1-6.16,17.79Z"/><g class="cls-9"><path class="cls-6" d="M101.16,128.47s28.24,9.66,38,7.24c9.34-2.33,10-25.91,10.49-44,.32,3.29,2.57,10.83,2.35,19.55,0,14.07-2.57,25.58-11,28.93-11.73,4.69-36.48-2.17-39.88-3.91Z"/></g><circle class="cls-8" cx="153.55" cy="40.1" r="10.17"/><rect class="cls-15" x="113.67" y="68.26" width="8.6" height="9.38" rx="2" transform="translate(-18.52 97.64) rotate(-41.98)"/><path class="cls-15" d="M152.6,87.33h0a3,3,0,0,1-4.26.19L122.63,61.27a3,3,0,0,1-.19-4.27h0a3,3,0,0,1,4.27-.19l25.7,26.25A3,3,0,0,1,152.6,87.33Z"/><path class="cls-15" d="M112.89,67.47S134.78,46.36,141,21.33c0,0,7,25.81,28.94,32.85,0,0-29.72,7-46.14,24.24Z"/><path class="cls-16" d="M112.89,67.47a94.46,94.46,0,0,0,13.68-16l12.91,14.47a104.54,104.54,0,0,0-15.64,12.51Z"/><path class="cls-17" d="M171.21,55.33a16.82,16.82,0,0,1-7-1.85,44.35,44.35,0,0,1-13.95-11.36,44.19,44.19,0,0,1-8.89-15.65c-1.52-5.32-.92-9.46,1.69-11.67,5.2-4.4,16.51.71,25.74,11.62h0a44.19,44.19,0,0,1,8.89,15.65c1.52,5.32.92,9.46-1.69,11.67A7.17,7.17,0,0,1,171.21,55.33Zm-23.36-39.8a5,5,0,0,0-3.3,1.06c-1.83,1.56-2.18,4.92-1,9.23A41.87,41.87,0,0,0,152,40.6,41.85,41.85,0,0,0,165.2,51.36c4.05,1.93,7.43,2.14,9.27.59s2.18-4.92.95-9.23A41.87,41.87,0,0,0,167,27.94C160.58,20.37,152.82,15.53,147.85,15.53Z"/><g class="cls-18"><path class="cls-6" d="M131.66,71.38s4.69-1.76,4.69,3.82Z"/></g><g class="cls-18"><path class="cls-6" d="M137.91,78.42s-3.13,5.48,3.13,3.91c0,0,0,2.35,3.13,1.57a2.42,2.42,0,0,0,3.13,1.56c2.34-.78,4.69-7,4.69-7l-10.85-6.84Z"/></g><path class="cls-3" d="M148.86,76.08l-3.13,7s-.78,2.35,1.57,1.57c1.56-.52,3.47-4.18,4.57-6.55A3.24,3.24,0,0,0,148.86,76.08Z"/><path class="cls-3" d="M145.46,73.73,142,81.59s-.87,2.62,1.75,1.75,5.15-7.26,5.15-7.26Z"/><path class="cls-3" d="M141.59,72l-3.49,7.87s-.92,2.83,1.7,2S145,74.51,145,74.51Z"/><path class="cls-3" d="M131.66,71.38s3.91-.78,3.91,3.29A4.72,4.72,0,0,1,131.66,71.38Z"/><path class="cls-13" d="M141.43,82.23a.28.28,0,0,1-.15,0,.29.29,0,0,1-.1-.4,50.19,50.19,0,0,0,3.88-8.54.29.29,0,0,1,.56.18,50.84,50.84,0,0,1-3.94,8.66A.29.29,0,0,1,141.43,82.23Z"/><path class="cls-13" d="M144.56,83.8a.26.26,0,0,1-.18-.07.29.29,0,0,1,0-.41,31.29,31.29,0,0,0,4.42-7.89.3.3,0,0,1,.38-.17.3.3,0,0,1,.17.38,32.31,32.31,0,0,1-4.51,8A.31.31,0,0,1,144.56,83.8Z"/><g class="cls-9"><path class="cls-6" d="M56.58,96.41c-13.52.75-22,7.7-32.84,20.33C12,130.42-2.16,150.87.28,158.19,4.85,171.92,42.15,187.87,44,188.65l2.43-3.87S25.3,173.83,17.48,168.35,1.84,155.06,23,127.69c16-20.71,28.95-28.16,33.86-30.42C56.67,96.72,56.58,96.41,56.58,96.41Z"/></g><g class="cls-19"><path class="cls-20" d="M174.32,52.05c-1.87,1.43-5.17,1.19-9.12-.69a41.07,41.07,0,0,1-12.43-9.93l-37.64,34.8,1.74,1.92a1.56,1.56,0,0,0,2.2.12l2.43-2.19,2.34,2.34a84,84,0,0,1,6.7-6c.57-.45,1.16-.88,1.75-1.31l5.11-3.4a125.91,125.91,0,0,1,30.25-12.94,13.17,13.17,0,0,0,3.56.54A7.17,7.17,0,0,0,176,53.74c.1-.08.19-.18.29-.27Z"/></g><g class="cls-19"><path class="cls-20" d="M160.69,33s.29,7.13-5.77,11c0,0,2.54,3.13,4.89,4.11C163.72,44.79,166.06,39.32,160.69,33Z"/></g><path class="cls-17" d="M158.11,13.69a1.54,1.54,0,0,1-.55-.11,1.57,1.57,0,0,1-.91-2l4-10.55a1.57,1.57,0,1,1,2.93,1.11l-4,10.56A1.59,1.59,0,0,1,158.11,13.69Z"/><path class="cls-17" d="M175.06,25.64A1.57,1.57,0,0,1,174,22.91l8.21-7.43a1.56,1.56,0,0,1,2.1,2.32l-8.21,7.43A1.58,1.58,0,0,1,175.06,25.64Z"/><path class="cls-17" d="M181.75,43.4a1.57,1.57,0,0,1-.23-3.12l11.69-1.72a1.56,1.56,0,1,1,.45,3.09L182,43.38Z"/><rect class="cls-7" x="100.8" y="125.34" width="0.78" height="11.24"/><path class="cls-13" d="M62.76,181.73h-.09c-.81-.32-2.1-.85-3.6-1.6a.25.25,0,0,1,.22-.44c1.48.74,2.75,1.27,3.55,1.58a.24.24,0,0,1,.14.32A.24.24,0,0,1,62.76,181.73Z"/><polygon class="cls-12" points="63.24 181.44 67.1 173.28 75 173.15 71 182.15 63.24 181.44"/></g></g></g></svg>