<svg id="svg-1" xmlns="http://www.w3.org/2000/svg" version="1.1" xmlns:xlink="http://www.w3.org/1999/xlink" xmlns:svgjs="http://svgjs.com/svgjs" width="400px" height="400px" viewBox="50 -50 225 450">
	<g class="logo" opacity="1">
		<defs id="">
		</defs>
		<g id="" transform="scale(1.041769041769042)" opacity="1">
			<g id="" class="" transform="translate(42.87431499675375, 33.298805307764454) scale(0.9402137105890375)" light-content="false" non-strokable="false" fill="#121212">
				<path d="M219.6 48.1c-22.9-22.9-53.4-35.5-85.8-35.5S71 25.2 48.1 48.1s-35.5 53.4-35.5 85.8 12.6 62.9 35.5 85.8 53.4 35.5 85.8 35.5 62.9-12.6 85.8-35.5 35.5-53.4 35.5-85.8-12.7-62.9-35.6-85.8z">
				</path>
				<path d="M133.8 0C59.9 0 0 59.9 0 133.8s59.9 133.8 133.8 133.8 133.8-59.9 133.8-133.8S207.8 0 133.8 0zm0 260.1c-69.7 0-126.3-56.5-126.3-126.3S64.1 7.6 133.8 7.6s126.3 56.5 126.3 126.3-56.5 126.2-126.3 126.2z">
				</path>
			</g>
			<g id="" class="" transform="translate(82.5370343205822, 72.96370152284067) scale(1.722744088364102)" light-content="true" non-strokable="false" fill="#ffffff">
				<path d="M71.928 68.603a22.858 22.858 0 0 0 1.869-8.457c.16-5.968-1.953-11.641-5.949-15.974-4.007-4.344-9.426-6.821-15.258-6.979-2.314-.063-4.6.253-6.836.938a1.441 1.441 0 1 0 .019 2.762c10.866 3.17 17.993 11.74 17.735 21.326-.182 6.768-4.044 12.948-10.598 16.959a1.44 1.44 0 1 0 .874 2.666c4.774-.404 9.081-2.366 12.471-5.374 2.833 3.827 4.223 8.536 4.004 13.734a1.44 1.44 0 0 0 1.441 1.502c.514 0 1.001-.275 1.261-.741 3.704-6.675 3.274-15.363-1.033-22.362zm-6.543 4.701c-.018.018-.023.04-.04.059a18.882 18.882 0 0 1-5.424 3.89c4.024-4.171 6.319-9.379 6.47-14.954.25-9.311-5.507-17.747-14.739-22.226.286-.005.571-.005.859.004 5.049.135 9.743 2.284 13.218 6.051 3.484 3.777 5.326 8.729 5.186 13.94a19.936 19.936 0 0 1-1.854 7.908c-.446.62-.854 1.283-1.283 1.988-.721 1.187-1.467 2.416-2.393 3.34zm7.092 9.828a22.941 22.941 0 0 0-4.171-8.756 22.307 22.307 0 0 0 2.033-2.73c1.849 3.645 2.578 7.678 2.138 11.486zM58.214 29.348c0-4.081-4.376-7.401-9.755-7.401-5.381 0-9.759 3.32-9.759 7.401 0 4.082 4.378 7.402 9.759 7.402 5.379 0 9.755-3.32 9.755-7.402zm-16.631 0c0-2.449 3.148-4.519 6.876-4.519 3.725 0 6.873 2.069 6.873 4.519s-3.147 4.52-6.873 4.52c-3.728-.001-6.876-2.07-6.876-4.52zM28.122 18.944a1.441 1.441 0 0 0-2.788-.278c-1.931 5.504-.338 13.183 4.156 20.039.268.407.721.651 1.206.651l.05-.001a1.441 1.441 0 0 0 1.207-.734 18.455 18.455 0 0 1 2.334-3.249c.464-.52.49-1.296.063-1.845-3.297-4.239-5.509-9.418-6.228-14.583zm2.611 16.247c-1.156-2.081-2.026-4.221-2.585-6.299a34.34 34.34 0 0 0 3.222 5.465c-.22.275-.433.553-.637.834zm19.363-24.128c4.86 2.225 9.1 5.942 11.939 10.468a1.44 1.44 0 0 0 1.801.555 22.704 22.704 0 0 1 4.313-1.413 1.44 1.44 0 0 0 .841-2.283C64.041 11.903 56.928 7.97 50.621 8.313a1.44 1.44 0 0 0-.525 2.75zm15.208 7.39c-.5.158-.999.334-1.495.526a30.828 30.828 0 0 0-5.296-5.896c2.41 1.255 4.743 3.085 6.791 5.37z">
				</path>
			</g>
			<g id="" class="" transform="translate(168.76068115234375, 27.720937728881836) scale(1)" light-content="false" fill="#121212">
				<path d="M-102.43 238.99C-102.2 238.79 -102.1 238.54 -102.13 238.24C-102.15 237.94 -102.28 237.66 -102.51 237.39C-102.72 237.14 -102.98 236.98 -103.28 236.91C-103.58 236.83 -103.85 236.89 -104.08 237.09L-112.9 244.74L-116.07 241.09L-111.28 229.19C-110.89 228.28 -110.84 227.66 -111.14 227.31C-111.38 227.04 -111.69 226.88 -112.09 226.82C-112.49 226.77 -112.82 226.85 -113.07 227.06C-113.22 227.2 -113.31 227.34 -113.34 227.5L-118.01 239.3C-121.12 236.76 -124.27 236.87 -127.45 239.62C-129.46 241.37 -130.41 243.19 -130.31 245.09C-130.2 247 -129.34 248.88 -127.73 250.74L-123.32 255.83C-122.87 256.27 -122.43 256.31 -122.01 255.95ZM-114.54 246.16L-122.59 253.13L-125.98 249.22C-128.47 246.35 -128.38 243.75 -125.72 241.45C-123.02 239.11 -120.42 239.37 -117.93 242.25Z M-115.35 223.38C-115.1 223.22 -114.96 222.99 -114.93 222.7C-114.91 222.41 -114.98 222.14 -115.15 221.89L-122.52 210.53C-122.86 210 -123.35 209.94 -123.99 210.35C-124.27 210.53 -124.45 210.76 -124.55 211.03C-124.64 211.3 -124.61 211.56 -124.46 211.79L-117.84 222L-126.68 227.73L-129.93 222.73C-130.27 222.19 -130.73 222.11 -131.3 222.49C-131.58 222.67 -131.76 222.88 -131.86 223.14C-131.95 223.39 -131.91 223.65 -131.74 223.91L-128.49 228.91L-137.27 234.61L-143.89 224.4C-144.06 224.14 -144.29 224.01 -144.58 224C-144.87 224 -145.15 224.08 -145.43 224.26C-146.05 224.66 -146.18 225.13 -145.84 225.66L-138.47 237.02C-138.3 237.27 -138.09 237.45 -137.83 237.55C-137.56 237.66 -137.31 237.62 -137.05 237.46Z M-131.51 210.48C-128.98 209.3 -127.43 207.76 -126.86 205.89C-126.28 204.01 -126.49 202.01 -127.48 199.9C-128.51 197.69 -129.89 196.21 -131.62 195.44C-133.36 194.67 -135.04 194.66 -136.67 195.43C-137.22 195.68 -137.55 195.94 -137.67 196.21C-137.78 196.47 -137.74 196.81 -137.55 197.22C-137.23 197.91 -136.75 198.15 -136.12 197.94C-135.51 197.74 -135.01 197.61 -134.6 197.55C-134.2 197.48 -133.68 197.48 -133.03 197.54C-132.39 197.61 -131.78 197.9 -131.22 198.41C-130.65 198.93 -130.14 199.68 -129.69 200.64C-128.1 204.04 -129.06 206.56 -132.57 208.21L-143.25 213.21C-146.74 214.84 -149.26 214.01 -150.81 210.7C-151.17 209.92 -151.4 209.18 -151.48 208.5C-151.57 207.81 -151.54 207.23 -151.4 206.75C-151.25 206.28 -151.03 205.85 -150.72 205.45C-150.42 205.06 -150.12 204.75 -149.83 204.53C-149.54 204.31 -149.23 204.11 -148.9 203.93C-148.35 203.61 -148.24 203.1 -148.57 202.39C-148.76 201.97 -148.99 201.72 -149.26 201.64C-149.52 201.55 -149.93 201.64 -150.48 201.89C-152.09 202.65 -153.15 203.92 -153.67 205.72C-154.18 207.51 -153.93 209.5 -152.91 211.68C-151.91 213.82 -150.5 215.28 -148.67 216.06C-146.85 216.85 -144.69 216.65 -142.18 215.48Z M-133.42 188.94C-133.13 188.84 -132.93 188.66 -132.83 188.39C-132.73 188.12 -132.73 187.84 -132.82 187.55L-136.51 175.91C-136.68 175.38 -137.14 175.23 -137.89 175.47C-138.62 175.7 -138.89 176.08 -138.73 176.62L-135.45 186.95L-158.87 194.38C-159.45 194.56 -159.61 195.05 -159.36 195.85C-159.1 196.65 -158.69 196.95 -158.11 196.77Z M-145.15 173.88C-142.38 173.4 -140.47 172.33 -139.43 170.67C-138.39 169.01 -138.08 167 -138.48 164.62C-138.89 162.25 -139.87 160.46 -141.4 159.24C-142.93 158.03 -145.09 157.66 -147.86 158.14L-166.56 161.36C-167.16 161.46 -167.39 161.93 -167.25 162.75C-167.11 163.58 -166.74 163.94 -166.14 163.83L-147.44 160.61C-145.54 160.28 -144.03 160.5 -142.9 161.27C-141.78 162.05 -141.07 163.29 -140.77 165.02C-140.47 166.74 -140.73 168.16 -141.53 169.26C-142.33 170.36 -143.68 171.08 -145.58 171.4L-164.28 174.63C-164.88 174.73 -165.11 175.19 -164.96 176.02C-164.82 176.84 -164.45 177.2 -163.85 177.1Z M-166.99 154.42C-166.66 154.41 -166.38 154.31 -166.16 154.12C-165.94 153.94 -165.83 153.7 -165.84 153.42L-166.08 147.04L-141.64 146.14C-141.34 146.13 -141.1 146 -140.93 145.75C-140.76 145.5 -140.69 145.2 -140.7 144.85C-140.71 144.52 -140.81 144.23 -141 143.98C-141.18 143.74 -141.43 143.62 -141.73 143.63L-166.17 144.53L-166.41 138.18C-166.42 137.88 -166.55 137.65 -166.79 137.49C-167.04 137.34 -167.33 137.27 -167.66 137.28C-167.96 137.29 -168.22 137.38 -168.45 137.55C-168.67 137.73 -168.77 137.97 -168.76 138.27L-168.2 153.51C-168.19 153.82 -168.06 154.05 -167.81 154.2C-167.57 154.36 -167.29 154.43 -166.99 154.42Z M-142.08 136.93C-141.78 136.96 -141.51 136.83 -141.28 136.55C-141.05 136.26 -140.92 135.95 -140.89 135.59C-140.84 135.04 -141.02 134.69 -141.44 134.55L-147.11 132.26L-146.12 121.77L-140.13 120.57C-139.69 120.46 -139.44 120.17 -139.4 119.69C-139.36 119.33 -139.44 118.98 -139.62 118.64C-139.81 118.29 -140.05 118.1 -140.35 118.07C-140.38 118.07 -140.42 118.07 -140.47 118.08C-140.52 118.09 -140.56 118.09 -140.58 118.09L-167.03 123.55C-167.63 123.7 -167.97 124.17 -168.05 124.98C-168.12 125.79 -167.88 126.31 -167.31 126.54L-142.35 136.87C-142.3 136.9 -142.21 136.92 -142.08 136.93ZM-149.21 131.41L-164.03 125.36L-148.34 122.21Z M-139.59 114.25C-139.29 114.32 -139.03 114.27 -138.8 114.08C-138.56 113.89 -138.4 113.63 -138.31 113.28C-138.23 112.96 -138.24 112.66 -138.35 112.37C-138.46 112.08 -138.66 111.9 -138.95 111.82L-159.73 106.36L-146.48 103.35C-145.89 103.22 -145.55 102.97 -145.46 102.6C-145.35 102.21 -145.52 101.81 -145.97 101.4L-155.91 92.26L-135.24 97.69C-134.95 97.77 -134.68 97.71 -134.45 97.51C-134.21 97.31 -134.05 97.05 -133.97 96.73C-133.88 96.39 -133.89 96.08 -134 95.8C-134.11 95.52 -134.31 95.34 -134.6 95.26L-159.36 88.76C-160.15 88.56 -160.64 88.86 -160.86 89.67C-161.04 90.38 -160.65 91.18 -159.68 92.06L-149.12 101.6L-163 104.72C-164.28 105.01 -165.02 105.51 -165.2 106.22C-165.42 107.03 -165.13 107.54 -164.34 107.75Z M-132.28 89.81C-131.99 89.92 -131.73 89.9 -131.47 89.74C-131.22 89.58 -131.03 89.34 -130.9 89.01C-130.78 88.7 -130.75 88.4 -130.82 88.09C-130.89 87.79 -131.07 87.59 -131.35 87.47L-155.44 77.95C-156.01 77.73 -156.44 78.01 -156.75 78.78C-157.06 79.56 -156.93 80.06 -156.36 80.29Z M-129.17 82.01C-128.9 82.14 -128.64 82.15 -128.37 82.03C-128.11 81.91 -127.91 81.71 -127.77 81.44L-121.58 69.4C-121.3 68.84 -121.49 68.38 -122.17 68.03C-122.46 67.88 -122.75 67.83 -123.03 67.89C-123.32 67.94 -123.52 68.09 -123.65 68.34L-129.21 79.16L-138.58 74.35L-135.85 69.04C-135.56 68.48 -135.72 68.04 -136.33 67.72C-136.62 67.57 -136.9 67.52 -137.17 67.57C-137.44 67.62 -137.64 67.78 -137.78 68.05L-140.51 73.36L-149.81 68.58L-144.25 57.76C-144.11 57.48 -144.11 57.22 -144.25 56.96C-144.39 56.71 -144.61 56.5 -144.9 56.35C-145.55 56.02 -146.02 56.13 -146.31 56.69L-152.5 68.74C-152.64 69.01 -152.69 69.28 -152.65 69.56C-152.6 69.84 -152.45 70.05 -152.18 70.19Z M-119.97 64.84C-119.72 65.02 -119.45 65.06 -119.17 64.96C-118.88 64.87 -118.64 64.68 -118.43 64.39C-118.24 64.12 -118.14 63.84 -118.14 63.53C-118.14 63.22 -118.26 62.97 -118.51 62.8L-135.62 50.57L-112.73 53.93C-111.67 54.1 -110.95 53.92 -110.58 53.41C-110.39 53.14 -110.29 52.85 -110.29 52.54C-110.29 52.23 -110.41 51.99 -110.66 51.81L-131.73 36.75C-132.22 36.4 -132.71 36.56 -133.2 37.24C-133.68 37.92 -133.68 38.44 -133.19 38.79L-116.04 51.05L-138.48 47.63C-139.78 47.45 -140.64 47.65 -141.05 48.22C-141.54 48.91 -141.52 49.43 -141.01 49.8Z M-126.93 31.34C-126.69 31.56 -126.43 31.69 -126.14 31.72C-125.85 31.75 -125.61 31.66 -125.42 31.46L-121.01 26.83L-103.3 43.69C-103.08 43.9 -102.82 43.98 -102.53 43.93C-102.23 43.88 -101.96 43.72 -101.72 43.46C-101.49 43.23 -101.35 42.95 -101.31 42.65C-101.26 42.34 -101.35 42.08 -101.57 41.87L-119.28 25.01L-114.9 20.41C-114.69 20.19 -114.62 19.94 -114.68 19.65C-114.74 19.37 -114.89 19.11 -115.13 18.88C-115.35 18.68 -115.6 18.55 -115.88 18.51C-116.16 18.48 -116.4 18.57 -116.61 18.79L-127.13 29.83C-127.34 30.05 -127.41 30.31 -127.35 30.59C-127.29 30.88 -127.15 31.13 -126.93 31.34Z M-98.83 29.42C-97.08 31.62 -95.24 32.78 -93.3 32.91C-91.37 33.04 -89.46 32.35 -87.57 30.85C-85.69 29.35 -84.6 27.64 -84.29 25.73C-83.98 23.82 -84.71 21.76 -86.46 19.56L-93.81 10.34C-95.55 8.16 -97.38 7 -99.32 6.87C-101.25 6.74 -103.16 7.43 -105.04 8.93C-106.93 10.43 -108.02 12.14 -108.33 14.05C-108.63 15.97 -107.92 18.02 -106.18 20.2ZM-96.87 27.85L-104.22 18.63C-106.62 15.62 -106.41 12.99 -103.6 10.75C-100.78 8.5 -98.17 8.89 -95.77 11.9L-88.42 21.12C-86.01 24.16 -86.2 26.79 -89.02 29.04C-91.84 31.28 -94.45 30.89 -96.87 27.85Z M-84.57 -4.12C-84.47 -3.92 -84.3 -3.75 -84.09 -3.6L-70.21 6.26C-70.15 6.32 -70.09 6.4 -70.03 6.52L-65.64 15.12C-65.5 15.39 -65.28 15.55 -64.97 15.59C-64.66 15.63 -64.36 15.58 -64.07 15.43C-63.75 15.27 -63.53 15.05 -63.4 14.78C-63.26 14.52 -63.26 14.25 -63.4 13.98L-67.8 5.37C-67.82 5.33 -67.85 5.23 -67.87 5.07L-67.7 -11.98C-67.71 -12.23 -67.77 -12.45 -67.87 -12.66C-68.01 -12.93 -68.26 -13.09 -68.61 -13.13C-68.96 -13.18 -69.28 -13.13 -69.58 -12.98C-69.94 -12.8 -70.12 -12.42 -70.11 -11.85L-70.06 3.71L-82.61 -5.47C-83.06 -5.8 -83.47 -5.88 -83.83 -5.69C-84.13 -5.54 -84.36 -5.31 -84.53 -5C-84.69 -4.69 -84.71 -4.39 -84.57 -4.12Z M-47.66 4C-47.43 4.81 -46.47 5.46 -44.77 5.96C-43.07 6.46 -41.16 6.41 -39.04 5.8C-36.67 5.12 -34.98 3.95 -33.95 2.3C-32.92 0.64 -32.77 -1.44 -33.49 -3.95C-33.94 -5.53 -34.62 -6.78 -35.53 -7.69C-36.44 -8.61 -37.42 -9.18 -38.46 -9.42C-39.51 -9.66 -40.62 -9.85 -41.79 -9.99C-42.97 -10.13 -44.05 -10.23 -45.04 -10.28C-46.04 -10.34 -46.93 -10.64 -47.73 -11.17C-48.53 -11.71 -49.08 -12.5 -49.38 -13.55C-49.82 -15.06 -49.63 -16.28 -48.82 -17.23C-48.01 -18.18 -46.84 -18.87 -45.3 -19.31C-44.35 -19.58 -43.47 -19.71 -42.66 -19.69C-41.85 -19.68 -41.21 -19.61 -40.73 -19.5C-40.25 -19.39 -39.93 -19.35 -39.79 -19.39C-39.49 -19.48 -39.29 -19.7 -39.17 -20.06C-39.05 -20.43 -39.03 -20.76 -39.12 -21.05C-39.3 -21.68 -40.1 -22.03 -41.53 -22.08C-42.95 -22.13 -44.41 -21.94 -45.9 -21.51C-46.82 -21.25 -47.68 -20.89 -48.46 -20.44C-49.24 -19.99 -49.97 -19.42 -50.64 -18.73C-51.31 -18.03 -51.75 -17.16 -51.96 -16.11C-52.17 -15.06 -52.1 -13.9 -51.73 -12.63C-51.39 -11.44 -50.87 -10.47 -50.17 -9.74C-49.47 -9 -48.7 -8.5 -47.87 -8.22C-47.04 -7.95 -46.14 -7.76 -45.16 -7.68L-42.24 -7.41C-41.26 -7.32 -40.37 -7.15 -39.56 -6.91C-38.74 -6.7 -37.99 -6.28 -37.32 -5.64C-36.65 -5 -36.15 -4.13 -35.84 -3.04C-35.37 -1.4 -35.48 -0.02 -36.19 1.12C-36.89 2.26 -38.1 3.08 -39.83 3.57C-40.88 3.87 -41.84 3.99 -42.72 3.91C-43.6 3.83 -44.28 3.65 -44.76 3.37L-46.09 2.6C-46.47 2.37 -46.76 2.28 -46.96 2.34C-47.22 2.41 -47.43 2.64 -47.57 3.01C-47.72 3.38 -47.75 3.71 -47.66 4Z M-27.12 1.46C-27.07 1.77 -26.93 1.99 -26.68 2.13C-26.42 2.27 -26.15 2.32 -25.85 2.28L-12.45 0.33C-11.82 0.24 -11.56 -0.18 -11.67 -0.94C-11.72 -1.26 -11.85 -1.53 -12.06 -1.73C-12.26 -1.93 -12.51 -2.01 -12.78 -1.97L-24.83 -0.21L-26.34 -10.64L-20.43 -11.5C-19.81 -11.59 -19.54 -11.98 -19.64 -12.65C-19.69 -12.98 -19.81 -13.24 -20 -13.43C-20.2 -13.62 -20.45 -13.69 -20.75 -13.64L-26.66 -12.78L-28.16 -23.13L-16.12 -24.89C-15.82 -24.93 -15.6 -25.08 -15.48 -25.35C-15.35 -25.61 -15.31 -25.9 -15.35 -26.23C-15.46 -26.96 -15.83 -27.27 -16.45 -27.18L-29.85 -25.23C-30.15 -25.19 -30.4 -25.07 -30.61 -24.87C-30.81 -24.68 -30.89 -24.43 -30.84 -24.13Z M-7.81 -0.9C-7.81 -0.59 -7.69 -0.35 -7.46 -0.18C-7.23 0 -6.96 0.08 -6.66 0.08L5.55 -0.09C6.11 -0.09 6.38 -0.49 6.37 -1.28C6.36 -2.04 6.08 -2.41 5.52 -2.41L-5.32 -2.26L-5.65 -26.83C-5.65 -27.44 -6.08 -27.74 -6.91 -27.72C-7.75 -27.71 -8.16 -27.4 -8.16 -26.8Z M9.93 -0.79C9.9 -0.49 9.98 -0.24 10.19 -0.03C10.4 0.17 10.65 0.29 10.95 0.32L24.4 1.89C25.03 1.96 25.39 1.62 25.48 0.87C25.52 0.54 25.46 0.25 25.31 0.01C25.16 -0.24 24.95 -0.38 24.67 -0.41L12.58 -1.82L13.8 -12.29L19.73 -11.59C20.36 -11.52 20.72 -11.82 20.8 -12.5C20.83 -12.83 20.78 -13.11 20.64 -13.35C20.51 -13.58 20.29 -13.71 19.98 -13.75L14.05 -14.44L15.26 -24.83L27.35 -23.42C27.65 -23.38 27.9 -23.48 28.09 -23.7C28.28 -23.92 28.4 -24.19 28.44 -24.52C28.52 -25.25 28.25 -25.65 27.62 -25.72L14.17 -27.29C13.87 -27.33 13.6 -27.28 13.35 -27.14C13.1 -27 12.96 -26.78 12.93 -26.48Z M30.17 -5C29.47 -2.3 29.66 -0.13 30.74 1.51C31.82 3.15 33.49 4.27 35.75 4.85C38.11 5.46 40.14 5.35 41.83 4.5C43.53 3.66 44.61 2.37 45.06 0.62C45.21 0.03 45.22 -0.39 45.09 -0.64C44.96 -0.9 44.68 -1.09 44.24 -1.2C43.5 -1.39 43.01 -1.18 42.77 -0.56C42.54 0.04 42.32 0.51 42.11 0.86C41.9 1.21 41.57 1.62 41.11 2.07C40.65 2.53 40.04 2.81 39.28 2.92C38.52 3.02 37.62 2.94 36.59 2.67C32.96 1.73 31.63 -0.62 32.6 -4.37L35.56 -15.79C36.53 -19.52 38.78 -20.92 42.31 -20.01C43.15 -19.79 43.86 -19.5 44.44 -19.12C45.02 -18.75 45.45 -18.36 45.73 -17.94C46 -17.53 46.19 -17.08 46.3 -16.6C46.41 -16.11 46.46 -15.69 46.44 -15.32C46.43 -14.96 46.38 -14.59 46.31 -14.22C46.2 -13.59 46.53 -13.18 47.29 -12.98C47.73 -12.87 48.07 -12.88 48.3 -13.03C48.54 -13.18 48.73 -13.55 48.89 -14.14C49.33 -15.86 49.03 -17.49 47.97 -19.03C46.92 -20.58 45.23 -21.65 42.89 -22.25C40.61 -22.85 38.59 -22.69 36.82 -21.78C35.05 -20.88 33.82 -19.09 33.13 -16.42Z M50.4 0.7C49.33 3.27 49.21 5.45 50.05 7.23C50.89 9.01 52.38 10.34 54.54 11.24C56.78 12.18 58.81 12.35 60.61 11.75C62.41 11.16 63.65 10.03 64.35 8.37C64.58 7.81 64.65 7.39 64.56 7.12C64.47 6.84 64.21 6.62 63.79 6.44C63.09 6.15 62.57 6.3 62.25 6.87C61.94 7.43 61.65 7.87 61.39 8.19C61.14 8.51 60.75 8.86 60.23 9.25C59.71 9.64 59.07 9.83 58.3 9.82C57.53 9.82 56.66 9.61 55.68 9.2C52.21 7.76 51.23 5.25 52.72 1.67L57.25 -9.22C58.74 -12.77 61.16 -13.85 64.53 -12.45C65.33 -12.11 65.99 -11.72 66.52 -11.27C67.04 -10.82 67.41 -10.37 67.62 -9.92C67.84 -9.48 67.96 -9.01 68 -8.51C68.04 -8.01 68.03 -7.58 67.96 -7.23C67.9 -6.87 67.8 -6.51 67.68 -6.15C67.48 -5.54 67.75 -5.09 68.47 -4.79C68.89 -4.61 69.23 -4.58 69.48 -4.7C69.74 -4.81 69.98 -5.15 70.21 -5.71C70.9 -7.35 70.83 -9.01 70 -10.68C69.17 -12.36 67.65 -13.66 65.43 -14.59C63.25 -15.49 61.22 -15.62 59.35 -14.98C57.47 -14.33 56 -12.73 54.94 -10.18Z M66.23 15.43C66.09 15.7 66.08 15.97 66.21 16.24C66.33 16.51 66.55 16.73 66.87 16.9C67.16 17.05 67.45 17.11 67.76 17.08C68.07 17.04 68.29 16.89 68.44 16.62L80.74 -6.17C81.03 -6.7 80.81 -7.17 80.07 -7.57C79.34 -7.97 78.82 -7.9 78.53 -7.36Z M77.29 13.52C75.71 15.84 75.14 17.94 75.58 19.83C76.03 21.72 77.25 23.34 79.24 24.7C81.23 26.06 83.18 26.6 85.1 26.33C87.02 26.06 88.77 24.76 90.36 22.44L97.01 12.7C98.58 10.4 99.14 8.3 98.7 6.41C98.25 4.53 97.03 2.91 95.04 1.55C93.05 0.19 91.1 -0.35 89.18 -0.08C87.26 0.19 85.51 1.47 83.94 3.78ZM79.37 14.93L86.01 5.19C88.19 2.01 90.76 1.43 93.73 3.46C96.71 5.49 97.11 8.1 94.93 11.28L88.29 21.02C86.1 24.22 83.52 24.81 80.54 22.78C77.57 20.75 77.18 18.13 79.37 14.93ZM96.01 -4.33C95.86 -4.1 95.8 -3.84 95.85 -3.54C95.89 -3.25 96.02 -3.03 96.23 -2.89C96.36 -2.8 96.48 -2.76 96.61 -2.77L101.19 -2.27C101.53 -2.22 101.81 -2.36 102.04 -2.7C102.2 -2.93 102.27 -3.18 102.25 -3.45C102.24 -3.72 102.12 -3.94 101.89 -4.09C101.78 -4.17 101.68 -4.19 101.57 -4.17L96.75 -4.66C96.44 -4.71 96.2 -4.6 96.01 -4.33Z M90.87 31.68C90.67 31.9 90.59 32.16 90.64 32.45C90.7 32.75 90.86 33.02 91.12 33.26C91.36 33.48 91.63 33.62 91.94 33.66C92.24 33.7 92.5 33.61 92.71 33.39L107.06 18.02L100.75 40.27C100.44 41.31 100.52 42.04 100.99 42.47C101.23 42.7 101.5 42.83 101.81 42.87C102.11 42.92 102.37 42.83 102.58 42.61L120.25 23.67C120.67 23.23 120.57 22.72 119.96 22.15C119.35 21.58 118.83 21.52 118.42 21.96L104.04 37.36L110.34 15.56C110.69 14.3 110.61 13.42 110.09 12.94C109.48 12.37 108.95 12.31 108.52 12.77Z M111.47 52.92C111.26 53.07 111.14 53.28 111.11 53.57C111.08 53.85 111.16 54.13 111.35 54.4L115.22 59.91C116.61 61.88 118.25 63.08 120.15 63.51C122.05 63.94 124.15 63.35 126.45 61.73L135.91 55.08C138.19 53.48 139.45 51.71 139.69 49.78C139.93 47.84 139.35 45.89 137.97 43.92L134.1 38.41C133.91 38.14 133.68 37.97 133.41 37.9C133.14 37.82 132.9 37.86 132.69 38.01ZM114.04 54.19L132.98 40.87L136.07 45.26C137.06 46.67 137.44 48.04 137.19 49.37C136.95 50.7 136.04 51.92 134.47 53.03L125.01 59.68C123.43 60.79 121.97 61.23 120.62 61.02C119.28 60.8 118.11 59.99 117.12 58.58Z M123.42 70.73C123.15 70.87 122.99 71.08 122.93 71.36C122.88 71.64 122.92 71.92 123.06 72.19L129.17 84.27C129.45 84.84 129.94 84.95 130.62 84.61C130.91 84.46 131.12 84.25 131.24 83.99C131.37 83.73 131.36 83.48 131.24 83.23L125.74 72.37L135.14 67.61L137.84 72.94C138.13 73.5 138.57 73.63 139.19 73.32C139.48 73.18 139.69 72.98 139.8 72.73C139.92 72.49 139.91 72.23 139.77 71.96L137.08 66.63L146.41 61.91L151.91 72.77C152.04 73.04 152.26 73.2 152.55 73.24C152.84 73.27 153.13 73.22 153.42 73.07C154.08 72.74 154.26 72.29 153.98 71.72L147.86 59.64C147.73 59.37 147.53 59.17 147.28 59.04C147.03 58.91 146.77 58.92 146.5 59.05Z M134.5 95.47C134.21 95.55 134.01 95.73 133.91 96.01C133.8 96.29 133.8 96.61 133.89 96.95C133.98 97.26 134.15 97.52 134.39 97.72C134.63 97.91 134.89 97.97 135.18 97.89L145.07 95.1L146.55 100.38C147.21 102.69 148.36 104.37 150 105.39C151.65 106.42 153.81 106.55 156.5 105.79L156.86 105.69C159.55 104.94 161.32 103.7 162.18 101.98C163.04 100.26 163.15 98.26 162.5 95.96L160.6 89.23C160.36 88.56 159.97 88.3 159.44 88.45ZM147.16 94.52L158.76 91.25L160.25 96.52C161.22 99.99 159.85 102.24 156.14 103.29L155.71 103.41C153.83 103.94 152.3 103.88 151.11 103.24C149.93 102.6 149.11 101.45 148.64 99.79Z M139.55 115.02C139.25 115.06 139.03 115.2 138.88 115.45C138.74 115.7 138.68 115.98 138.72 116.28L140.54 129.7C140.63 130.33 141.05 130.59 141.8 130.49C142.13 130.44 142.39 130.32 142.59 130.11C142.8 129.9 142.88 129.66 142.84 129.39L141.21 117.33L151.65 115.91L152.45 121.83C152.53 122.46 152.92 122.73 153.59 122.63C153.92 122.59 154.18 122.47 154.37 122.28C154.56 122.09 154.64 121.84 154.6 121.54L153.8 115.62L164.16 114.22L165.79 126.28C165.83 126.58 165.99 126.8 166.25 126.93C166.51 127.06 166.8 127.1 167.13 127.06C167.86 126.96 168.18 126.59 168.09 125.97L166.28 112.55C166.23 112.25 166.12 111.99 165.92 111.79C165.73 111.59 165.48 111.5 165.18 111.55Z M141.78 134.36C141.48 134.36 141.23 134.48 141.06 134.72C140.88 134.96 140.79 135.25 140.78 135.61C140.78 135.94 140.87 136.23 141.05 136.48C141.22 136.74 141.46 136.87 141.77 136.87L153.44 136.93L153.42 141.76L141.97 147.56C141.09 147.98 140.64 148.42 140.64 148.88C140.63 149.24 140.77 149.57 141.03 149.87C141.29 150.18 141.59 150.33 141.92 150.33C142.12 150.33 142.29 150.28 142.42 150.18L153.71 144.39C154.37 148.35 156.81 150.34 161.01 150.36C163.68 150.38 165.59 149.63 166.77 148.13C167.94 146.63 168.54 144.65 168.55 142.19L168.59 135.45C168.54 134.82 168.24 134.5 167.68 134.5ZM155.61 136.94L166.26 137L166.23 142.17C166.21 145.98 164.44 147.87 160.91 147.85C157.34 147.83 155.56 145.92 155.58 142.12Z M144.26 153.51C143.43 153.39 142.44 154.01 141.28 155.35C140.13 156.7 139.39 158.46 139.07 160.64C138.72 163.08 139.09 165.1 140.17 166.72C141.26 168.34 143.09 169.33 145.68 169.71C147.31 169.94 148.73 169.83 149.93 169.38C151.14 168.93 152.07 168.27 152.72 167.42C153.36 166.56 153.99 165.63 154.6 164.62C155.21 163.6 155.74 162.66 156.2 161.77C156.66 160.89 157.3 160.2 158.12 159.69C158.94 159.18 159.88 159 160.96 159.16C162.52 159.38 163.56 160.06 164.09 161.19C164.62 162.31 164.77 163.67 164.54 165.25C164.4 166.23 164.15 167.08 163.8 167.81C163.45 168.54 163.13 169.1 162.83 169.5C162.53 169.89 162.37 170.16 162.35 170.31C162.3 170.61 162.42 170.89 162.71 171.15C162.99 171.41 163.28 171.56 163.58 171.6C164.23 171.7 164.88 171.11 165.51 169.83C166.14 168.55 166.57 167.14 166.79 165.61C166.93 164.66 166.96 163.73 166.87 162.84C166.78 161.94 166.56 161.04 166.2 160.15C165.84 159.25 165.23 158.49 164.36 157.86C163.49 157.24 162.4 156.83 161.1 156.64C159.87 156.46 158.77 156.54 157.81 156.88C156.86 157.21 156.08 157.7 155.49 158.35C154.9 158.99 154.36 159.74 153.88 160.59L152.43 163.15C151.95 164 151.43 164.75 150.88 165.39C150.35 166.05 149.65 166.56 148.79 166.91C147.94 167.26 146.94 167.35 145.81 167.19C144.13 166.95 142.92 166.27 142.17 165.16C141.42 164.06 141.17 162.61 141.43 160.83C141.59 159.75 141.88 158.83 142.31 158.06C142.74 157.29 143.19 156.74 143.64 156.42L144.89 155.53C145.26 155.27 145.46 155.05 145.48 154.84C145.52 154.57 145.41 154.29 145.13 154C144.85 153.72 144.56 153.56 144.26 153.51Z M144.89 174.96C142.19 174.17 140.01 174.28 138.36 175.28C136.7 176.29 135.54 177.95 134.86 180.26C134.18 182.57 134.27 184.6 135.12 186.34C135.97 188.08 137.74 189.35 140.45 190.14L151.76 193.46C154.44 194.24 156.6 194.13 158.26 193.12C159.91 192.11 161.08 190.45 161.76 188.14C162.44 185.83 162.35 183.8 161.5 182.06C160.65 180.32 158.88 179.06 156.21 178.27ZM144.19 177.37L155.5 180.68C159.2 181.77 160.54 184.03 159.53 187.49C158.52 190.94 156.16 192.13 152.47 191.05L141.15 187.73C137.43 186.64 136.07 184.37 137.09 180.91C138.1 177.46 140.46 176.28 144.19 177.37Z M131.81 193.49C131.54 193.36 131.27 193.36 131.01 193.51C130.74 193.65 130.54 193.88 130.39 194.2C130.25 194.5 130.2 194.81 130.26 195.11C130.31 195.41 130.48 195.63 130.75 195.76L149.81 204.66L126.69 205.53C125.61 205.56 124.94 205.86 124.67 206.44C124.53 206.74 124.49 207.04 124.54 207.34C124.6 207.65 124.76 207.86 125.04 207.99L148.5 218.95C149.06 219.21 149.51 218.96 149.86 218.2C150.22 217.45 150.12 216.94 149.57 216.68L130.48 207.76L153.15 207.02C154.47 206.96 155.28 206.61 155.58 205.97C155.93 205.21 155.82 204.7 155.25 204.43Z M123.3 211.46C123.05 211.29 122.75 211.28 122.42 211.42C122.08 211.56 121.81 211.78 121.61 212.07C121.3 212.54 121.3 212.93 121.6 213.25L125.51 217.96L119.67 226.73L113.83 224.94C113.38 224.82 113.03 224.97 112.76 225.37C112.57 225.67 112.47 226.01 112.46 226.4C112.46 226.8 112.58 227.08 112.84 227.25C112.86 227.26 112.89 227.28 112.94 227.3C112.99 227.31 113.03 227.33 113.05 227.34L138.93 235.07C139.53 235.22 140.05 234.96 140.5 234.29C140.95 233.61 140.98 233.04 140.59 232.57L123.5 211.64C123.47 211.59 123.41 211.53 123.3 211.46ZM126.96 219.7L137.14 232.05L121.84 227.39Z M110.21 230.09C109.98 229.88 109.73 229.81 109.44 229.86C109.16 229.92 108.91 230.06 108.71 230.29L100.64 239.44C100.27 239.86 100.38 240.33 100.97 240.85C101.54 241.35 102.01 241.4 102.38 240.98L109.55 232.85L127.97 249.1C128.43 249.5 128.93 249.39 129.49 248.76C130.04 248.14 130.09 247.62 129.63 247.22Z">
				</path>
			</g>
		</g>
	</g>
</svg>
