<svg xmlns="http://www.w3.org/2000/svg" viewBox="0 0 439.54 428.36"><defs><style>.cls-1{fill:#ecf5fd;}.cls-2{fill:#dceaf2;}.cls-3{fill:#6d3d33;}.cls-4{fill:#e2a567;}.cls-5{fill:#d78340;}.cls-6{fill:#d16e32;}.cls-7{fill:#ecc58b;}.cls-8{fill:#96c8d8;}.cls-9{fill:#80aab7;}.cls-10{fill:#e9bfa3;}.cls-11{fill:#cd5b66;}.cls-12{fill:#dd9878;}.cls-13{fill:#a94e56;}.cls-14{fill:#fdfaf5;}.cls-15{fill:#678791;}.cls-16{fill:#fff;}.cls-17{fill:#d7826f;}.cls-18{fill:#dd9b9b;}.cls-19{fill:#669a86;}.cls-20{fill:#97c5b3;}.cls-21{fill:#c4dedb;}</style></defs><g id="Capa_2" data-name="Capa 2"><g id="OBJECTS"><path class="cls-1" d="M129.24,371.67c-25.91-3-51.46-13.29-69.94-31.7C44.31,325,34.23,302.6,41.14,282.6c6.4-18.52,25.53-30.49,31.68-49.09,6.93-20.92-4.33-42.91-12.35-63.44-9.67-24.75-14.87-52.19-8.53-78C55.69,76.8,65.52,61,81,58.36c15.76-2.65,30.33,9.2,46.23,10.81,13.45,1.36,26.48-4.71,38.27-11.33,27.73-15.54,53.73-35.18,84.25-44.08S318,9.9,336.26,35.93c11,15.71,12.94,35.81,19,54a121.21,121.21,0,0,0,28.58,46.67c11,11.14,24.32,20.41,32,34,12.54,22.2,6.74,50.82-6.41,72.66-8.28,13.76-19.4,26.23-23.82,41.67-3.93,13.71-2.22,28.73-7.37,42-7.11,18.35-25.55,29.46-43.26,38-16.13,7.83-33.42,14.86-51.33,14-26.42-1.25-50.37-13.6-77.47-13.05C180.08,366.54,155.82,374.72,129.24,371.67Z"/><path class="cls-2" d="M429.79,418c0,2.87-21.36,5.2-47.7,5.2s-47.69-2.33-47.69-5.2,21.35-5.2,47.69-5.2S429.79,415.1,429.79,418Z"/><path class="cls-2" d="M88.59,418c0,2.87-17.66,5.2-39.44,5.2S9.71,420.84,9.71,418s17.66-5.2,39.44-5.2S88.59,415.1,88.59,418Z"/><ellipse class="cls-2" cx="226.78" cy="414.45" rx="103.95" ry="13.91"/><path class="cls-3" d="M136.36,401.94s0,9.79,2.75,13.45,10.09,3.67,13.45,1.53,4.9-18,4.9-18l-13.15-6.42Z"/><path class="cls-3" d="M290.45,401.94s0,9.79,2.75,13.45,10.09,3.67,13.45,1.53,4.9-18,4.9-18l-13.15-6.42Z"/><path class="cls-4" d="M157.3,268.34s-22.93-75.21-11.92-110.07,135.29-24.3,152.25-11-4.12,115.56-10.54,126.57-97.23,9.63-98.6,9.17S157.3,268.34,157.3,268.34Z"/><path class="cls-5" d="M151.42,240.77a51.74,51.74,0,0,1,6.46-30.55c3.4-6,8-11.35,10.65-17.69,3.43-8.22,3.27-17.36,4.4-26.16s4.14-18.17,11.72-23.18c6.59-4.35,15.13-4.43,23.11-4.36,5.92,0,11.84.11,17.74.63a111.89,111.89,0,0,1,20.31,3.72c5.55,1.56,11.34,3.83,14.47,8.53,1.79,2.68,2.51,5.89,3.19,9q1.68,7.68,3.35,15.36c2,8.95,3.93,18,7.8,26.31,3.13,6.76,7.46,13,10.14,19.93C286.94,228,288,234,289,239.91c.84,4.88,1.16,11-3.2,13.59a12,12,0,0,1-5.2,1.33c-24.43,2.1-47.66-10.69-72.13-12.26-13.42-.86-26.78,1.68-40.13,3.24-2,.24-4.22.42-6-.6-1.42-.83-2.29-2.32-3.59-3.33s-3-1.47-4.41-2.33-2.7-2.38-2.32-4"/><path class="cls-5" d="M138.19,403.17s147.8,10.08,167.15,0,16.6-70.7,15.68-72-10.18-38.49-10.18-38.49-36-2.6-42.24-2.6-87.38,6.4-93.3,7.48-50,1.7-50.42,4.75S138.19,403.17,138.19,403.17Z"/><path class="cls-6" d="M144.06,327.16c2.07,3.67,6,5.92,10.1,7s8.32,1.2,12.5,1.65c2.84.3,5.77.8,8.13,2.42s4,4.63,3.15,7.36c-.49,1.63-1.76,3-2.12,4.63s.33,3.57,1,5.24a26.76,26.76,0,0,0,4,7.36c1.82,2.13,4.51,3.72,7.3,3.51,4.47-.33,7.3-4.74,10-8.36,3.86-5.27,9.28-10,15.79-10.62,2.14-.21,4.33,0,6.44-.38,2.29-.45,4.38-1.67,6.68-2.06,3.5-.6,7,.75,10.19,2.35,4.79,2.43,9.26,5.47,14.17,7.65S261.82,358.36,267,357a9,9,0,0,0,4.61-2.61c2.74-3.18,1.64-8.07,2.95-12.06,1.36-4.16,5.26-7,9.27-8.76s8.36-2.74,12.23-4.78,7.41-5.51,7.87-9.86a9.43,9.43,0,0,0-6-9.55c-2.52-.91-5.31-.67-8-.43q-65.84,6-132,6.57c-3.32,0-9.1-1-12.2.65C142,318.18,142.23,323.89,144.06,327.16Z"/><path class="cls-5" d="M335.64,281.85C317.92,275.26,272.69,266,272.69,266s-9.08,37.88-7.12,37.52S309.4,316.29,310,315.4,335.64,281.85,335.64,281.85Z"/><path class="cls-6" d="M282.52,272.61q5.16,5.82,10.34,11.63a24.66,24.66,0,0,1,4.59,6.42,24.4,24.4,0,0,1,1.27,4.33c.4,1.75.71,3.83-.55,5.1s-3,1-4.61.67a39,39,0,0,1-9.05-3.46,21.27,21.27,0,0,1-5-3.25,24.83,24.83,0,0,1-4.47-6.41c-1.64-3-3.33-6.14-3.24-9.53s2.71-7,6.11-6.82"/><path class="cls-5" d="M108.87,281.85c17.71-6.59,60.6-15.82,60.6-15.82s11.42,37.88,9.47,37.52-43.83,12.74-44.44,11.85S108.87,281.85,108.87,281.85Z"/><path class="cls-6" d="M165.64,276.4a6.17,6.17,0,0,1,2.74-1.6,4.11,4.11,0,0,1,4.13,2.07,7.36,7.36,0,0,1,.78,4.76c-.74,5.84-5.37,10.31-9.72,14.27l-3.82,3.49a11.7,11.7,0,0,1-4.29,2.87c-2.18.64-6.52.7-7.55-1.76s1.93-5.82,3.23-7.64A90.92,90.92,0,0,1,165.64,276.4Z"/><path class="cls-4" d="M323.77,279.34c19,.48,21.4,11.32,20.79,28.13s-8.87,86.22-17.12,95.39-21.4,4.59-24.76.31-4.29-91.11-2.76-104.26S311.54,279,323.77,279.34Z"/><path class="cls-4" d="M120.74,279.34c-18.95.48-21.41,11.32-20.79,28.13s8.86,86.22,17.12,95.39,21.4,4.59,24.76.31,4.28-91.11,2.75-104.26S133,279,120.74,279.34Z"/><path class="cls-5" d="M125.3,299.13a7.29,7.29,0,0,0-1.13-2.45,10.27,10.27,0,0,0-.79-1,2.67,2.67,0,0,0-2-1.41h-.22a3.78,3.78,0,0,0-2.14-.07c-1.83.47-2.74,2-3.4,3.61a9.09,9.09,0,0,0-.22,5.6,7.5,7.5,0,0,0,1.79,3.13.25.25,0,0,0,0,.07,3.76,3.76,0,0,0,5.8.75,8.18,8.18,0,0,0,2.52-5.56A8.38,8.38,0,0,0,125.3,299.13Z"/><path class="cls-5" d="M330.2,298.51a4.54,4.54,0,0,0-2.24-3.85,4.17,4.17,0,0,0-2.21-.52,4.81,4.81,0,0,0-2.37.73,8.29,8.29,0,0,0-2.27,2.34,9.71,9.71,0,0,0-1.55,4.79c-.16,2.08.41,4.48,2.32,5.62a4.44,4.44,0,0,0,4.23,0,6.1,6.1,0,0,0,2.23-2.11,8.16,8.16,0,0,0,1.38-4c0-.16.1-.32.14-.49A8.35,8.35,0,0,0,330.2,298.51Z"/><path class="cls-7" d="M323.5,290.37a11.26,11.26,0,0,0-1.3-2.05,8.83,8.83,0,0,0-1.78-1.78c-.34-.25-1.7-1.2-2-.43-.12.34.11.63.28.9s.46.57.66.83c.46.64.84,1.06,1.25,1.71s.67,1.26,1,1.9a9.85,9.85,0,0,0,.52.89,2.8,2.8,0,0,0,.91.74.36.36,0,0,0,.48-.13c.05-.12.13-.24.19-.38a1.38,1.38,0,0,0,.13-.82A4.72,4.72,0,0,0,323.5,290.37Z"/><path class="cls-7" d="M319.67,294.54a1.16,1.16,0,0,0-.15-.26l-.14-.12-.54-.52a1.74,1.74,0,0,0-.37-.3l-.31-.17a.93.93,0,0,0-.47-.17h-.13l-.16,0a.1.1,0,0,0-.12.12.88.88,0,0,1,.05.15s0,.07,0,.1a.81.81,0,0,0,.18.45l.19.29a2.3,2.3,0,0,0,.32.37l.55.49.16.13a.89.89,0,0,0,.33.18.78.78,0,0,0,.4,0,.3.3,0,0,0,.29-.29v-.13A.6.6,0,0,0,319.67,294.54Z"/><path class="cls-7" d="M317.09,304.45c-.36.09-.73.06-1.09.16a8.31,8.31,0,0,0-1.09.39,14.26,14.26,0,0,0-1.94,1.2,13.43,13.43,0,0,0-1.8,1.49,5.14,5.14,0,0,0-.7,1,3.9,3.9,0,0,0-.28.49,1.72,1.72,0,0,0-.06.56.3.3,0,0,0,.37.28,1.42,1.42,0,0,0,.5-.13,3.58,3.58,0,0,0,.39-.29,8.52,8.52,0,0,0,.91-.67c.53-.49,1.07-1,1.62-1.45a19.32,19.32,0,0,1,1.63-1.23c.3-.21.57-.46.85-.69s.49-.56.81-.78A.16.16,0,0,0,317.09,304.45Z"/><path class="cls-7" d="M320.32,309.35a.25.25,0,0,0-.37-.28l-.17.08a.81.81,0,0,0-.48.22c-.12.1-.27.19-.38.3a3.34,3.34,0,0,0-.36.48l-.29.39c-.19.27-.37.53-.54.82a2.87,2.87,0,0,0-.26.49c-.05.14-.08.29-.12.44a.34.34,0,0,0,.49.37l.4-.22a3.69,3.69,0,0,0,.41-.38,7.41,7.41,0,0,0,.65-.72l.31-.37a3.26,3.26,0,0,0,.38-.47c.08-.14.13-.3.2-.45a.87.87,0,0,0,.1-.51Z"/><path class="cls-7" d="M330.36,321.18c-.17-1-.36-2-.58-2.94a16.92,16.92,0,0,0-1.93-5.47.34.34,0,0,0-.62.17,36.24,36.24,0,0,0,.87,5.65c.16.94.3,1.89.41,2.84a4.55,4.55,0,0,0,.83,2.65.56.56,0,0,0,.86-.11A4.11,4.11,0,0,0,330.36,321.18Z"/><path class="cls-7" d="M335.94,310.61a3,3,0,0,0-.22-.83,6.57,6.57,0,0,0-.4-.62,12.59,12.59,0,0,0-1-1.31l-.45-.56-.23-.28a2.7,2.7,0,0,0-.34-.25c-.19-.12-.72-.66-.94-.37s-.05.41,0,.61.06.48.12.7a8.08,8.08,0,0,0,.37.79l.34.7a13.19,13.19,0,0,0,.75,1.32,3.23,3.23,0,0,0,.29.43,2.25,2.25,0,0,0,.39.3,1.67,1.67,0,0,0,.35.24.72.72,0,0,0,.38,0h.05a.49.49,0,0,0,.45-.31A.75.75,0,0,0,335.94,310.61Z"/><path class="cls-7" d="M339,299.06a11.52,11.52,0,0,0-2-.34,4.82,4.82,0,0,0-.93,0,1.31,1.31,0,0,0-.9.3l-.08,0a.18.18,0,0,0,0,.33l.07,0a1.23,1.23,0,0,0,.75.47,6.58,6.58,0,0,0,1.05.23,10.58,10.58,0,0,0,1.95.09.63.63,0,0,0,.56-.43.77.77,0,0,0,0-.15A.61.61,0,0,0,339,299.06Z"/><path class="cls-7" d="M335.67,290.4c0-.15,0-.29-.05-.43a.43.43,0,0,0-.72-.19l-.25.22a.93.93,0,0,0-.19.11l-.17.13a2.2,2.2,0,0,0-.31.41,5.72,5.72,0,0,0-.45.53,5.8,5.8,0,0,0-.34.52l-.3.49a.93.93,0,0,0-.18.42.81.81,0,0,1,0,.16.24.24,0,0,0,.12.21.82.82,0,0,0,.44.14,3.12,3.12,0,0,0,.52-.08,2.85,2.85,0,0,0,1.05-.58,2.62,2.62,0,0,0,.64-.86l.09-.18c0-.09.09-.19.12-.28a1.57,1.57,0,0,0,.05-.3c0-.06,0-.13,0-.19A1,1,0,0,0,335.67,290.4Z"/><path class="cls-7" d="M115.94,293a3.2,3.2,0,0,0-.18-.52c-.1-.3-.19-.61-.31-.91a13.88,13.88,0,0,0-1-2c-.36-.61-.68-1.25-1.08-1.84a9.4,9.4,0,0,0-.69-.87,8.2,8.2,0,0,0-.85-.71.33.33,0,0,0-.55.32,8,8,0,0,0,.2,1.09c.12.32.24.65.39,1,.3.66.73,1.28,1.09,1.91a15.36,15.36,0,0,0,1.24,1.75c.22.28.47.53.7.79a2.86,2.86,0,0,0,.36.41,3.26,3.26,0,0,0,.4.24.16.16,0,0,0,.24-.13C115.94,293.3,116,293.14,115.94,293Z"/><path class="cls-7" d="M118.8,289.93l-.15-.75a1.87,1.87,0,0,0-.13-.42c-.06-.12-.11-.23-.17-.34s-.22-.45-.32-.67a.26.26,0,0,0-.47.19c0,.26.07.51.11.77s0,.25,0,.38a1.54,1.54,0,0,0,.12.34c.09.23.19.46.28.68l.15.36a.75.75,0,0,0,.26.3.17.17,0,0,0,.29-.07.9.9,0,0,0,.05-.4C118.85,290.18,118.82,290.05,118.8,289.93Z"/><path class="cls-7" d="M112.62,300.25a2.68,2.68,0,0,0-1.54.21,9.92,9.92,0,0,0-1.48.59l-.62.32a3.44,3.44,0,0,0-.7.5q-.27.22-.54.48a1.9,1.9,0,0,0-.47.65c-.12.27,0,.68.37.65a2.23,2.23,0,0,0,.8-.19l.54-.23a6,6,0,0,0,.78-.35l.64-.37,1.26-.69c.43-.26,1-.44,1.24-.88A.47.47,0,0,0,112.62,300.25Z"/><path class="cls-7" d="M114,306.74l-.84.53a2.21,2.21,0,0,0-.41.4l-.36.41-.69.79a3.16,3.16,0,0,0-.38.44c-.09.15-.17.32-.25.48s.16.66.45.45c.14-.09.28-.18.41-.28a2.27,2.27,0,0,0,.41-.41c.23-.27.47-.53.71-.8l.34-.39a3,3,0,0,0,.37-.45c.17-.3.3-.64.45-1C114.25,306.82,114.12,306.65,114,306.74Z"/><path class="cls-7" d="M119.26,321a18.88,18.88,0,0,1-.45-2.69,21.34,21.34,0,0,1,0-2.77c0-.45,0-.91.11-1.37a6.61,6.61,0,0,0,0-1.54.36.36,0,0,0-.66-.18,3.6,3.6,0,0,0-.65,1.35c-.12.51-.21,1-.28,1.54a17.2,17.2,0,0,0,.33,6.12,8,8,0,0,0,.59,1.46,2.4,2.4,0,0,0,.85,1,.34.34,0,0,0,.49-.2A7.41,7.41,0,0,0,119.26,321Z"/><path class="cls-7" d="M126.64,313.68a2.42,2.42,0,0,0-.23-.49l-.33-.62a2.66,2.66,0,0,0-.48-.72l-.49-.48a.54.54,0,0,0-.59-.11.53.53,0,0,0-.34.5c0,.22,0,.44,0,.66a1.39,1.39,0,0,0,.1.5l.13.34c.08.22.16.44.25.66a3,3,0,0,0,.2.49,1.69,1.69,0,0,0,.4.4.82.82,0,0,0,.88.16.8.8,0,0,0,.49-.73A2.11,2.11,0,0,0,126.64,313.68Z"/><path class="cls-7" d="M136.5,307.09a9.24,9.24,0,0,0-.92-.11c-.35,0-.7,0-1.05,0a11.74,11.74,0,0,1-1.85-.32,27.58,27.58,0,0,1-4.15-1.78c-.12-.05-.32,0-.26.2a2.91,2.91,0,0,0,.38.77,10.27,10.27,0,0,0,.71.77,6.54,6.54,0,0,0,1.64,1.17,9.42,9.42,0,0,0,4.05,1.09c.64,0,1.7,0,2.13-.59S137.12,307.18,136.5,307.09Z"/><path class="cls-7" d="M133.78,299.35a.43.43,0,0,0-.33-.45h0a1.76,1.76,0,0,0-1.11,0,3.31,3.31,0,0,0-.41.14l-.45.12-.15,0h-.1a3.86,3.86,0,0,0-.59.12c-.14,0-.28.06-.42.11a1.71,1.71,0,0,1-.38.13.38.38,0,0,0-.16.62,2.06,2.06,0,0,0,.29.3,2,2,0,0,0,.62.35,2.44,2.44,0,0,0,1.34.07,2.67,2.67,0,0,0,1.11-.34C133.43,300.27,133.88,299.88,133.78,299.35Z"/><path class="cls-7" d="M130.62,286.65c-.27.16-.54.27-.82.41a2.7,2.7,0,0,0-.81.77c-.46.56-.87,1.14-1.29,1.73a15.35,15.35,0,0,0-1.11,1.65,7.4,7.4,0,0,0-.46,1,1.93,1.93,0,0,0-.16.46c0,.19,0,.38,0,.57s.15.18.24.14a2.47,2.47,0,0,1,.43-.11,1.22,1.22,0,0,0,.41-.27,7.87,7.87,0,0,0,.81-.72,15.72,15.72,0,0,0,1.36-1.67c.4-.52.82-1,1.18-1.6A3.11,3.11,0,0,0,131,288c0-.31.08-.61.15-.92A.34.34,0,0,0,130.62,286.65Z"/><path class="cls-7" d="M171.28,155.22a18.19,18.19,0,0,0-2.37-1.73,12.07,12.07,0,0,0-2.66-1.28,3.82,3.82,0,0,0-1.57-.19,2.94,2.94,0,0,0-1.36.46.55.55,0,0,0-.19.75,3.35,3.35,0,0,0,.74.89,5.68,5.68,0,0,0,1.19.75c.28.14.57.25.86.37l.15.06.2.09a13.07,13.07,0,0,1,1.18.6c.36.2.72.42,1.07.65l.51.36.18.13.2.16a9,9,0,0,0,1.14.9,4.45,4.45,0,0,0,.75.39,5.62,5.62,0,0,0,.7.1.85.85,0,0,0,.83-.84A3.53,3.53,0,0,0,171.28,155.22Z"/><path class="cls-7" d="M171.08,161.52a1.69,1.69,0,0,0-.74-.52,5.4,5.4,0,0,0-1-.39c-.33-.09-.66-.21-1-.27a5.59,5.59,0,0,0-.59-.08.92.92,0,0,0-.76.23l.29-.17a2.58,2.58,0,0,0-.83.19.33.33,0,0,0-.12.46,2.42,2.42,0,0,0,.73.52,2,2,0,0,0,1.07.38l1,.1.46,0a2.9,2.9,0,0,0,.51,0,1.88,1.88,0,0,0,.94-.21A.19.19,0,0,0,171.08,161.52Z"/><path class="cls-7" d="M166.4,190.62a4.61,4.61,0,0,0-2.41.2,11.84,11.84,0,0,0-2.47,1c-1.73.93-3.41,2-5.08,3-.77.47-2.18,1-2.19,2s1.22,1,1.88.6c1.75-1,3.43-2.22,5.11-3.36.85-.58,1.74-1.1,2.6-1.66s1.82-.87,2.61-1.45A.22.22,0,0,0,166.4,190.62Z"/><path class="cls-7" d="M166.87,185.9h0C166.77,185.94,166.62,186.05,166.87,185.9Z"/><path class="cls-7" d="M167.82,184.06a1.55,1.55,0,0,0-1-.43h-.49a3.59,3.59,0,0,0-1.26.22,4.35,4.35,0,0,0-1.15.55c-.2.15-.39.29-.57.45a1.31,1.31,0,0,0-.48.76,1.42,1.42,0,0,0-.16.36.71.71,0,0,0,.67.88,1.17,1.17,0,0,0,.32,0,1.1,1.1,0,0,0,.27,0,1.24,1.24,0,0,0,.42-.09l.46-.15c.31-.09.6-.19.9-.3a6.42,6.42,0,0,0,1.13-.43h0l.26-.09a1.58,1.58,0,0,0,.69-.47,1,1,0,0,0,.27-.64A.85.85,0,0,0,167.82,184.06Z"/><path class="cls-7" d="M281.48,197.45a30.84,30.84,0,0,0-2.79-2c-.95-.65-1.93-1.26-2.9-1.88s-2.1-1.37-3.2-1.95c-.8-.42-2.29-1.17-3.09-.41a.47.47,0,0,0,0,.66,2.67,2.67,0,0,0,1.16.56,7.31,7.31,0,0,1,1.47.76c.94.61,1.85,1.27,2.76,1.92s1.86,1.37,2.81,2l1.36,1c.36.25,1,.57,1.25,1,.11.2,0,.36,0,.6a.83.83,0,0,0,.23.57,1.5,1.5,0,0,0,1.1.09A1,1,0,0,0,282,200,1.92,1.92,0,0,0,281.48,197.45Z"/><path class="cls-7" d="M276.89,187.31a1.39,1.39,0,0,0-.82-.66,4.52,4.52,0,0,0-.53-.11c-.41-.08-.84-.07-1.26-.11h0l-.51-.07-.49,0h-.07a3.65,3.65,0,0,0-.46-.07,1,1,0,0,0-.38.05l0,0h-.09a.7.7,0,0,0-.49,1.18l.1.11c0-.07-.06-.07,0,0s.23.3.37.4.31.19.47.28a5.66,5.66,0,0,0,1.25.51,5.09,5.09,0,0,0,1.34.23c.22,0,.45-.05.67-.08a1.25,1.25,0,0,0,1-.68A1,1,0,0,0,276.89,187.31Z"/><path class="cls-7" d="M281.49,161.89a7.25,7.25,0,0,0-3.58-.36,31.7,31.7,0,0,0-3.63.51c-2.26.45-4.73,1.06-6.43,2.7a.43.43,0,0,0,.3.73c2.2-.09,4.31-.89,6.48-1.25a27.81,27.81,0,0,1,3.28-.33,12.18,12.18,0,0,0,3.36-.32C281.94,163.34,282.28,162.23,281.49,161.89Z"/><path class="cls-7" d="M272.16,155.42a3.16,3.16,0,0,0-1.3,0,12.72,12.72,0,0,0-1.37.26,12.91,12.91,0,0,0-1.25.38,5.72,5.72,0,0,0-1.23.63.35.35,0,0,0,.18.65l.66,0a2.59,2.59,0,0,0,.73-.07,11.3,11.3,0,0,0,1.29-.25,10.13,10.13,0,0,0,1.32-.42,3.25,3.25,0,0,0,1.11-.65A.32.32,0,0,0,272.16,155.42Z"/><path class="cls-8" d="M142,304.61C152.87,289.1,178.86,275,178.86,275h92.79s24.54,15.51,29,25.79c0,0-79,21.57-80.66,21.13S142,304.61,142,304.61Z"/><path class="cls-9" d="M178.09,287.42s-4.28,6.27-1.53,8.41a16.18,16.18,0,0,0,8.87,3.21c2.75.15,29.35,7.95,32.41,9s7.72,2.59,7.72,2.59,23-10.24,28.66-11.15,12.08-2.75,12.84-3.52,2.29-7.34-1.68-9.94-62.68-3.82-62.83-3.82S178.09,287.42,178.09,287.42Z"/><path class="cls-3" d="M218.39,101.12c-32.41,0-41.68,29.77-41.68,52.26s-4,51.6-7.93,60.86,104.85,6.62,104.85,6.62-12.9-43-13.56-65.83S253.79,101.12,218.39,101.12Z"/><path class="cls-10" d="M230.24,315.37s16.33,2.74,22.57,6.65,25.17,24.67,23.72,27.76-1.55,4.6-4,4c0,0-1.17,2.79-3.82,2.78,0,0-1.75,2.85-4.15,2.53a3.29,3.29,0,0,1-4,1.33c-2.76-.88-10.65-18.89-14.5-21.71s-16.22-5.28-20.66-5.38-6.83-13.7-5.34-13.57S230.24,315.37,230.24,315.37Z"/><path class="cls-8" d="M159.56,295.63c-18.17-.25-25.43,17.58-13.25,27.62s80.45,12.62,83.19,12.31,7-17.08,4.46-20.79S179.27,295.91,159.56,295.63Z"/><path class="cls-10" d="M213.51,320.17s-15.93,4.52-21.7,9.09-22.31,27.3-20.53,30.21,2.05,4.39,4.4,3.51c0,0,1.46,2.64,4.1,2.35,0,0,2.06,2.64,4.4,2.05a3.29,3.29,0,0,0,4.11.88c2.64-1.17,8.5-19.94,12-23.16s15.54-7,19.94-7.63,5.28-14.36,3.81-14.07S213.51,320.17,213.51,320.17Z"/><path class="cls-11" d="M192,192.18c-16.81,3.06-22.31,8.87-26.29,14.68s-15.59,33.94-17.43,51.06,23.55,27.82,29.35,30S262.32,290,262.32,290s22.63-9.78,28.44-22.32-18.65-61.76-26-67.87c-6-5-19.57-8.56-19.57-8.56l-30.27,2.44Z"/><path class="cls-10" d="M208.66,177.2s-4.73,15-16.66,15c0,0,7.6,15.29,27.48,15s25.72-15.9,25.72-15.9-15.94-1.53-16.81-14.68Z"/><path class="cls-8" d="M281.58,292.77c18-2.25,27.21,14.68,16.21,26s-78.58,21.4-81.33,21.4S207.6,324,209.74,320,262,295.22,281.58,292.77Z"/><path class="cls-12" d="M230.13,182.58a13.75,13.75,0,0,1-1.68-5.35c-.69-.2-1.39-.4-2.1-.57l-17.69.54a28.77,28.77,0,0,1-6.59,10.68,11.07,11.07,0,0,0,1.1.39c5.64,1.65,13.27,2.65,18.68.36C225.5,187.08,228.36,185.38,230.13,182.58Z"/><path class="cls-10" d="M194.58,146.76s-6-.33-6,6.62,6,7.28,6,7.28,6.95,25.15,23.81,25.47c17.54.33,22.38-25.28,22.38-25.28s6.14-1.8,5.74-7.8-5.28-5.66-5.28-5.66-19.53-6.25-22.51-21.14C218.72,126.25,210.79,143.79,194.58,146.76Z"/><path class="cls-12" d="M193.83,152a4.86,4.86,0,0,0-.69-1.56,1.59,1.59,0,0,0-1.44-.73,1.07,1.07,0,0,0-1,1,.38.38,0,0,0,.75.1.35.35,0,0,1,.32-.26.5.5,0,0,1,.51.26,2.71,2.71,0,0,1,.38.87,5.07,5.07,0,0,1,.13.56.91.91,0,0,0-.76.1,1.84,1.84,0,0,0-.78,1.3,1.47,1.47,0,0,0,.62,1.68,1.54,1.54,0,0,0,1.51-.12,1.92,1.92,0,0,0,.74-1.53A5.45,5.45,0,0,0,193.83,152Z"/><path class="cls-12" d="M242.23,154.08a4,4,0,0,1,.24-1,7.46,7.46,0,0,1,.61-1.15l.15-.23s.11-.11.14-.16h0a.5.5,0,0,0,.89-.29c0-.78-.94-1-1.5-.67a2.19,2.19,0,0,0-.62.7,8.51,8.51,0,0,0-.54.92,4.27,4.27,0,0,0-.23,3.78c.27.56.79,1.18,1.46,1.14a1.58,1.58,0,0,0,1.25-1.23,1.68,1.68,0,0,0-.32-1.77A1.23,1.23,0,0,0,242.23,154.08Z"/><path class="cls-13" d="M245,191.18a54.73,54.73,0,0,1-3,5,27.54,27.54,0,0,1-3.85,4.15,26.53,26.53,0,0,1-10.26,5.62,27.55,27.55,0,0,1-12.73.55,34,34,0,0,1-6.47-2,52.72,52.72,0,0,1-6.33-2.95,29.44,29.44,0,0,1-5.62-4.1,49.53,49.53,0,0,1-4.55-5.16c-.25-.32-.72.09-.54.42a28.17,28.17,0,0,0,8.64,9.27,39.34,39.34,0,0,0,6.31,3.53,39.92,39.92,0,0,0,6.77,2.6,28.84,28.84,0,0,0,29.78-10.15,21.5,21.5,0,0,0,3.56-6C247.06,190.88,245.54,190.28,245,191.18Z"/><path class="cls-13" d="M180.69,218.45a.26.26,0,0,0-.48-.13,9.26,9.26,0,0,0-.89,2c-.24.71-.52,1.4-.73,2.12-.44,1.51-.87,3-1.26,4.54s-.74,3-1.12,4.45c-.18.72-.38,1.44-.53,2.17a5,5,0,0,0-.16,1.22,3.88,3.88,0,0,0,.31,1,.29.29,0,0,0,.48.12,4.1,4.1,0,0,0,.75-.75,4.94,4.94,0,0,0,.4-1c.22-.71.37-1.44.55-2.16.38-1.53.76-3,1.13-4.58s.69-3,1-4.49c.16-.73.23-1.48.36-2.22A9.1,9.1,0,0,0,180.69,218.45Z"/><path class="cls-13" d="M263.26,237.58c-.17-1-.47-1.89-.72-2.81-.53-1.91-1.09-3.81-1.72-5.68s-1.27-3.7-2.06-5.48c-.41-.9-.79-1.8-1.21-2.69-.22-.47-.45-1-.69-1.43s-.27-.68-.66-.75a.32.32,0,0,0-.38.22c-.14.33.05.71.14,1s.28.94.42,1.41c.28.94.6,1.88.88,2.82.55,1.83,1.21,3.63,1.79,5.46s1.11,3.63,1.6,5.46c.25.93.45,1.89.73,2.81.12.43.28.85.44,1.26a5.71,5.71,0,0,0,.87,1.21c.12.16.43.18.48-.06a7.8,7.8,0,0,0,.29-1.25A8,8,0,0,0,263.26,237.58Z"/><path class="cls-13" d="M273.29,252.71a9.78,9.78,0,0,0-3.29,2.68q-1.59,1.75-3.15,3.52c-1,1.15-2,2.29-3,3.46a17.89,17.89,0,0,0-1.37,1.75c-.27.42-.55,1.08-.72,1.29a.25.25,0,0,0,.11.42c1.23.33,2.27-.91,3-1.72,1.1-1.18,2.14-2.42,3.2-3.64s2.08-2.37,3.09-3.57a10.5,10.5,0,0,0,2.47-3.86C273.67,252.86,273.49,252.63,273.29,252.71Z"/><path class="cls-13" d="M177.16,265a9.11,9.11,0,0,0-1.35-1.92c-.49-.62-1-1.21-1.52-1.79-1.09-1.17-2.21-2.3-3.33-3.44-.55-.56-1.11-1.1-1.67-1.65s-1.18-1-1.75-1.55c-.32-.3-.89-1.13-1.39-1a.41.41,0,0,0-.29.63.08.08,0,0,0,.14,0s.35.4.4.46c.22.26.44.51.65.77.44.52.79,1.09,1.24,1.6.89,1,1.78,2,2.68,3s1.76,1.92,2.66,2.85c.47.48,1,.91,1.48,1.36a7.42,7.42,0,0,0,1.58,1.22A.35.35,0,0,0,177.16,265Z"/><path class="cls-2" d="M165.46,239.16l9.77,50.74a5.61,5.61,0,0,0,5.51,4.55h80.67a5.61,5.61,0,0,0,5.59-5l5.64-51.55a5.61,5.61,0,0,0-5.63-6.22l-96.08.8A5.62,5.62,0,0,0,165.46,239.16Z"/><path class="cls-14" d="M228.27,261.67a8,8,0,0,0-2.05-3.52l-1.61-1.24a8,8,0,0,0-4-1.09,8.17,8.17,0,0,0-8,8c.09.71.19,1.42.28,2.12a8,8,0,0,0,2.05,3.52l1.61,1.24a8,8,0,0,0,4,1.09,8.17,8.17,0,0,0,8-8C228.46,263.08,228.36,262.37,228.27,261.67Z"/><path class="cls-15" d="M295.52,319.37a12.89,12.89,0,0,1-2.42,2,14.06,14.06,0,0,1-2.85,1.49,72.61,72.61,0,0,1-7.36,2.39c-5.26,1.49-10.54,2.84-15.85,4.14l-16.39,4c-5.32,1.32-10.63,2.61-16,3.67-5.76,1.13-11.59,1.82-17.4,2.66a1,1,0,0,0-.09-.13,30.6,30.6,0,0,1-7.06-13.23,14.58,14.58,0,0,1-.56-3.82,4.23,4.23,0,0,1,1.56-3.1,12.94,12.94,0,0,1,2.82-1.73l3.92-2a281.64,281.64,0,0,1,31.94-13.91q4.54-1.58,9.16-2.94l4.56-1.32A19.35,19.35,0,0,0,268,296s0-.05,0-.05a15.24,15.24,0,0,0-4.29.57c-1.46.35-2.92.72-4.37,1.13q-4.33,1.22-8.63,2.65c-5.6,1.89-11.14,4-16.55,6.43-2.87,1.27-5.73,2.59-8.57,3.93a21.35,21.35,0,0,0-3.82-1.69c-1.48-.58-3-1.19-4.42-1.79a70,70,0,0,0-9.16-3.19c-6.67-1.68-13-3.31-19.2-4.76-1.76-.41-3.53-.74-5.3-1.09a28.09,28.09,0,0,0-5.44-.9c-.27,0-.43.43-.15.55a26.41,26.41,0,0,0,4.57,1.26c1.59.38,3.18.78,4.77,1.18q4.83,1.21,9.65,2.47c6.28,1.64,12.7,3.07,18.79,5.36,1.63.61,3.25,1.26,4.88,1.89a22.87,22.87,0,0,0,3.72,1.24q-3.48,1.65-6.94,3.34l-4.14,2.06a16,16,0,0,0-2.91,1.76,5.74,5.74,0,0,0-2,2.69,8.2,8.2,0,0,0,0,4,31.77,31.77,0,0,0,7.72,15.54.6.6,0,0,0,1-.09,67.07,67.07,0,0,0,16-1.42c5.51-1,11-2.29,16.39-3.62l16.72-4.11c5.4-1.33,10.81-2.61,16.14-4.17a80.16,80.16,0,0,0,8.38-3,15.51,15.51,0,0,0,3.15-1.72,5.11,5.11,0,0,0,1.29-1.25,7.36,7.36,0,0,0,.72-1.56A.26.26,0,0,0,295.52,319.37Z"/><path class="cls-15" d="M187.49,332.31a3.83,3.83,0,0,0-1.88-.56l-2.39-.29-4.38-.53c-2.84-.35-5.68-.73-8.51-1.19a88.21,88.21,0,0,1-16.79-4.29,43.87,43.87,0,0,1-4.45-1.92c-1.44-.72-2.8-1.59-4.17-2.43a.27.27,0,0,0-.32.42A25.18,25.18,0,0,0,152,326a63.4,63.4,0,0,0,8.13,2.9,120.88,120.88,0,0,0,17.39,3.29l5,.63,2.62.31a4.39,4.39,0,0,0,2.36-.1C187.79,332.87,187.69,332.47,187.49,332.31Z"/><path class="cls-12" d="M191.69,334.79v0c0-.11,0-.11,0-.07h0A.09.09,0,0,0,191.69,334.79Z"/><path class="cls-12" d="M193.29,332.61a.48.48,0,0,0-.45-.33h-.07a.91.91,0,0,0-.33,0l-.23.05a1.94,1.94,0,0,0-.5.2,2.87,2.87,0,0,0-1.29,1.72,2.35,2.35,0,0,0-.1.58V335a1.18,1.18,0,0,0,.1.38c-.08-.21,0,0,0,0a.65.65,0,0,0,.78.44l.19-.08.07,0a.45.45,0,0,0,.14-.1l0-.06,0,0a1.7,1.7,0,0,1,.14-.1c.14-.06.11-.27,0-.34a.69.69,0,0,1-.13-.11v0c0-.06,0-.11,0-.17v0a.06.06,0,0,0,0,0h0a.07.07,0,0,1,0-.05c0-.06,0-.13,0-.19a1.34,1.34,0,0,1,.07-.18l0-.05a3.62,3.62,0,0,1,.2-.33l0,0,.14-.16.12-.13.08-.07h0a1.12,1.12,0,0,0,.22-.16h0l.07-.05.17-.09a.88.88,0,0,0,.15-.12h0l.06,0A.48.48,0,0,0,193.29,332.61Z"/><path class="cls-12" d="M192.41,333.59Z"/><path class="cls-3" d="M211.1,149.33a4,4,0,0,0-2-1.3,4.2,4.2,0,0,0-2.14-.16,3.17,3.17,0,0,0-1.71.83,2.82,2.82,0,0,0-.52.77.91.91,0,0,0,0,.89.65.65,0,0,0,.55.36,1.13,1.13,0,0,0,.8-.38l.12-.12.07-.05.07,0,.12-.07a2.61,2.61,0,0,1,.28-.17l.11-.06h0a2.3,2.3,0,0,1,.35-.1l.1,0h.58l.38.09.17.06.12,0,.08,0,.2.1.34.19a3.45,3.45,0,0,0,.87.46A.93.93,0,0,0,211.1,149.33Z"/><path class="cls-3" d="M210.46,157.92c0-.52-.11-1-.19-1.55a1.45,1.45,0,0,0-.36-.68,1.47,1.47,0,0,0-.56-.52l-.49-.21a1.55,1.55,0,0,0-.8,0,.94.94,0,0,0-.51.14,1.53,1.53,0,0,0-.65.41c-.11.14-.21.28-.32.41a2,2,0,0,0-.27,1l-.05,1,0,.47a1.4,1.4,0,0,0,0,.33,1.84,1.84,0,0,0,0,.35c0,.08.05.16.07.23h0a1.26,1.26,0,0,0,.18.49,1.87,1.87,0,0,0,.87.75,1.82,1.82,0,0,0,.56.27,1.44,1.44,0,0,0,.77,0,1.42,1.42,0,0,0,.71-.23,1.9,1.9,0,0,0,.69-.69.84.84,0,0,0,.13-.27.64.64,0,0,0,.1-.26.5.5,0,0,0,0-.12,2.76,2.76,0,0,0,.07-.74Z"/><path class="cls-3" d="M227,150.69a3.83,3.83,0,0,0,.87-.46l.34-.19.19-.1.09,0,.12,0,.16-.06.38-.09h.58l.1,0a2,2,0,0,1,.35.1h0l.12.06.28.17.12.07.07,0,.06.05.13.12a1.11,1.11,0,0,0,.79.38.66.66,0,0,0,.56-.36.91.91,0,0,0,0-.89,2.79,2.79,0,0,0-2.24-1.6A4.21,4.21,0,0,0,228,148a4,4,0,0,0-2,1.3A.94.94,0,0,0,227,150.69Z"/><path class="cls-3" d="M226.6,158.46a2.74,2.74,0,0,0,.06.74s0,.08,0,.12a16.06,16.06,0,0,0,.23.53,1.9,1.9,0,0,0,.69.69,1.43,1.43,0,0,0,.72.23,1.44,1.44,0,0,0,.77,0,1.88,1.88,0,0,0,.55-.27,1.78,1.78,0,0,0,.87-.75,1.26,1.26,0,0,0,.18-.49h0c0-.07.05-.15.07-.23a3.17,3.17,0,0,0,.06-.35,1.35,1.35,0,0,0,0-.33l0-.47-.05-1a2.06,2.06,0,0,0-.28-1l-.31-.41a1.6,1.6,0,0,0-.65-.41.94.94,0,0,0-.51-.14,1.59,1.59,0,0,0-.81,0l-.48.21a1.43,1.43,0,0,0-.57.52,1.45,1.45,0,0,0-.36.68c-.08.52-.15,1-.18,1.55Z"/><path class="cls-12" d="M220.45,166.76a1.55,1.55,0,0,0-.69.37l.06,0a.47.47,0,0,0-.09.06l-.2.12h0l-.06,0h0l-.22.07h-.3s-.15,0,0,0-.07,0-.15,0h0l-.1,0-.22-.07-.05,0,0,0-.2-.12,0,0,0,0a.75.75,0,0,0-.47-.21h-.09a.33.33,0,0,0-.4.23.82.82,0,0,0,0,.73,2.62,2.62,0,0,0,.4.48,2.51,2.51,0,0,0,1.2.67,2.93,2.93,0,0,0,1.41-.07,1.7,1.7,0,0,0,1.28-1.13A.8.8,0,0,0,220.45,166.76Z"/><path class="cls-12" d="M219.05,166.82l0,0h0Z"/><path class="cls-16" d="M223.07,174.16v-.07a1.07,1.07,0,0,0-.81-1,1.47,1.47,0,0,0-1.07-.11,3.43,3.43,0,0,0-.76.33l-.14.07a6.36,6.36,0,0,1-.66.17,5.76,5.76,0,0,1-.59,0l-.14,0a2.47,2.47,0,0,1-.36-.11c-.23-.08-.48-.13-.71-.19a2.6,2.6,0,0,0-.56-.06h0l-.15,0a.75.75,0,0,0-.94.73,3,3,0,0,0,.12.78,2.46,2.46,0,0,0,.61,1,3.62,3.62,0,0,0,1.84.92,4.47,4.47,0,0,0,2.12,0,5.53,5.53,0,0,0,1-.38,2.28,2.28,0,0,0,1.06-.92A1.22,1.22,0,0,0,223.07,174.16Z"/><path class="cls-17" d="M237.58,164.45a2.92,2.92,0,0,0-2.11-2,5.08,5.08,0,0,0-.75-.25,4.58,4.58,0,0,0-1.38-.11,7,7,0,0,0-.9.13,5.59,5.59,0,0,0-.89.33,3.46,3.46,0,0,0-1.11.77,2.86,2.86,0,0,0-.6.92,2.35,2.35,0,0,0-.22,1.11,2.58,2.58,0,0,0,.21.87,2.7,2.7,0,0,0,.47.75,3,3,0,0,0,.73.59,4.93,4.93,0,0,0,2.66.64,13.59,13.59,0,0,0,1.43-.16,3,3,0,0,0,1.26-.45,2.75,2.75,0,0,0,1.18-1.54A3.06,3.06,0,0,0,237.58,164.45Z"/><path class="cls-17" d="M207.08,164.45a2.91,2.91,0,0,0-2.11-2,4.71,4.71,0,0,0-.75-.25,4.51,4.51,0,0,0-1.37-.11,6.73,6.73,0,0,0-.9.13,5.36,5.36,0,0,0-.9.33,3.53,3.53,0,0,0-1.1.77,2.9,2.9,0,0,0-.61.92,2.35,2.35,0,0,0-.22,1.11,2.58,2.58,0,0,0,.21.87,2.7,2.7,0,0,0,.47.75,3.2,3.2,0,0,0,.73.59,5,5,0,0,0,2.66.64,13.59,13.59,0,0,0,1.43-.16,3,3,0,0,0,1.27-.45,2.77,2.77,0,0,0,1.17-1.54A3.06,3.06,0,0,0,207.08,164.45Z"/><path class="cls-18" d="M325,.76,237.79,0a12.88,12.88,0,0,0-12.95,12.74l-.44,49.91a12.89,12.89,0,0,0,12.74,13l2.1,0c.07.93.14,1.86.22,2.79.23,2.61.4,5.24.5,7.86a2.29,2.29,0,0,0,1.61,2.15,2.33,2.33,0,0,0,2.52-1,50.67,50.67,0,0,0,4.14-6.4c.61-1.12,1.18-2.25,1.72-3.4.29-.63.57-1.27.84-1.91l73.57.64a12.89,12.89,0,0,0,13-12.74l.44-49.91A12.89,12.89,0,0,0,325,.76Z"/><path class="cls-16" d="M316.39,16.3c-2.2-.12-4.4-.2-6.61-.28l-.12,0c-2.5-.2-5-.21-7.54-.19-15-.29-30.06,0-45.07.06-1.89,0-2.83,1.79-2.83,3.59s.94,3.6,2.83,3.59c15,0,30.05.35,45.07.05,2.52,0,5,0,7.54-.18l.13,0c2.2-.08,4.4-.16,6.6-.28,1.7.09,2.51-1.53,2.47-3.15S318.09,16.21,316.39,16.3Z"/><path class="cls-16" d="M315.83,33.77q-4.05-.17-8.11-.28l-.14,0c-3.07-.21-6.17-.22-9.26-.19-18.43-.3-36.89,0-55.31,0a3.4,3.4,0,0,0-3.47,3.6A3.39,3.39,0,0,0,243,40.52c18.42,0,36.88.35,55.31,0,3.09,0,6.19,0,9.26-.19l.14,0q4.06-.12,8.11-.28a2.86,2.86,0,0,0,3-3.16A2.85,2.85,0,0,0,315.83,33.77Z"/><path class="cls-16" d="M315.83,52.67q-4.05-.16-8.11-.28l-.14,0c-3.07-.21-6.17-.22-9.26-.19-18.43-.3-36.89,0-55.31,0a3.6,3.6,0,0,0,0,7.19c18.42,0,36.88.34,55.31,0,3.09,0,6.19,0,9.26-.19l.14,0q4.06-.11,8.11-.28a2.85,2.85,0,0,0,3-3.15A2.84,2.84,0,0,0,315.83,52.67Z"/><path class="cls-8" d="M171.08,4.24H101A12.88,12.88,0,0,0,88.19,17.08V67A12.88,12.88,0,0,0,101,79.85h63.89l1.17,2.93c.51,1.27,1.07,2.53,1.61,3.79a31.44,31.44,0,0,1,1.48,3.61,2.1,2.1,0,0,0,3.8.5,21.6,21.6,0,0,0,2.72-8.14,29.22,29.22,0,0,0,.33-3.69A12.89,12.89,0,0,0,183.93,67V17.08A12.88,12.88,0,0,0,171.08,4.24Z"/><path class="cls-16" d="M113.16,18.7A4.12,4.12,0,0,0,112,16.89L110.87,16a5.52,5.52,0,0,0-2.83-.77l-1.49.2a5.67,5.67,0,0,0-2.47,1.44l-.42.53a4.07,4.07,0,0,0-1.14,1.78,4.12,4.12,0,0,0-.48,2.13,4.13,4.13,0,0,0,.48,2.14,4.13,4.13,0,0,0,1.14,1.78l1.12.86a5.53,5.53,0,0,0,2.8.76l1.47-.2a5.53,5.53,0,0,0,2.44-1.42l.51-.43A4.12,4.12,0,0,0,113.16,23a4.21,4.21,0,0,0,.48-2.16A4.17,4.17,0,0,0,113.16,18.7Z"/><path class="cls-16" d="M113.16,38.5A4.15,4.15,0,0,0,112,36.7l-1.13-.88a5.61,5.61,0,0,0-2.83-.76l-1.49.2a5.67,5.67,0,0,0-2.47,1.44l-.42.53A4.07,4.07,0,0,0,102.52,39a5,5,0,0,0,0,4.26,4.16,4.16,0,0,0,1.14,1.79c.38.28.75.57,1.12.86a5.53,5.53,0,0,0,2.8.76l1.47-.2a5.53,5.53,0,0,0,2.44-1.42l.51-.44a4,4,0,0,0,1.16-1.8,5.1,5.1,0,0,0,0-4.32Z"/><path class="cls-16" d="M113.16,58.31a4.15,4.15,0,0,0-1.16-1.8l-1.13-.88a5.61,5.61,0,0,0-2.83-.76l-1.49.2a5.48,5.48,0,0,0-2.47,1.44l-.42.52a4.16,4.16,0,0,0-1.14,1.79,5,5,0,0,0,0,4.26,4.07,4.07,0,0,0,1.14,1.78l1.12.87a5.63,5.63,0,0,0,2.8.76l1.47-.2a5.45,5.45,0,0,0,2.44-1.43l.51-.43a4.15,4.15,0,0,0,1.16-1.8,5.1,5.1,0,0,0,0-4.32Z"/><path class="cls-16" d="M167.09,18.84c-14.47-.21-29,0-43.43.08-2.59,0-2.59,4,0,4,14.47,0,29,.3,43.43.08a1.94,1.94,0,0,0,2-2.09A1.94,1.94,0,0,0,167.09,18.84Z"/><path class="cls-16" d="M167.09,38c-14.47-.22-29,0-43.43.08-2.59,0-2.59,4,0,4,14.47,0,29,.29,43.43.08a2.09,2.09,0,0,0,0-4.18Z"/><path class="cls-16" d="M167.09,57.14c-14.47-.22-29,0-43.43.08-2.59,0-2.59,4,0,4,14.47,0,29,.29,43.43.08a2.09,2.09,0,0,0,0-4.18Z"/><path class="cls-11" d="M121.09,9.59c-.84-1.14-2.8-.21-3.71.31a17.77,17.77,0,0,0-3.19,2.55,30.61,30.61,0,0,0-2.8,3,32,32,0,0,0-2.61,3.73,20.81,20.81,0,0,0-1,1.91c0,.08-.06.16-.1.24l-.49-.44a5.24,5.24,0,0,0-2-1.42.35.35,0,0,0-.45.34,5.16,5.16,0,0,0,1,2.17l1.57,2.37a1.27,1.27,0,0,0,2,.25A12.92,12.92,0,0,0,110.55,23c.35-.59.65-1.21,1-1.8a25.62,25.62,0,0,1,2.16-3.1,30.09,30.09,0,0,1,2.74-2.9c1-.91,2.09-1.64,3.1-2.52C120.26,12.1,121.88,10.67,121.09,9.59Z"/><path class="cls-11" d="M121.09,30c-.84-1.14-2.8-.21-3.71.31a17.4,17.4,0,0,0-3.19,2.56,29.42,29.42,0,0,0-2.8,3,32,32,0,0,0-2.61,3.73,19.73,19.73,0,0,0-1,1.92c0,.08-.06.15-.1.23l-.49-.44a5.24,5.24,0,0,0-2-1.42.35.35,0,0,0-.45.34,5.16,5.16,0,0,0,1,2.17l1.57,2.37a1.27,1.27,0,0,0,2,.25,12.92,12.92,0,0,0,1.27-1.58c.35-.59.65-1.21,1-1.8a25.62,25.62,0,0,1,2.16-3.1,30.09,30.09,0,0,1,2.74-2.9c1-.91,2.09-1.64,3.1-2.52C120.26,32.46,121.88,31,121.09,30Z"/><path class="cls-11" d="M121.09,50.31c-.84-1.14-2.8-.21-3.71.31a17.4,17.4,0,0,0-3.19,2.56,28.51,28.51,0,0,0-2.8,3,31,31,0,0,0-2.61,3.72,19.73,19.73,0,0,0-1,1.92c0,.08-.06.15-.1.23l-.49-.44a5.24,5.24,0,0,0-2-1.42.35.35,0,0,0-.45.34,5.26,5.26,0,0,0,1,2.18l1.57,2.36a1.27,1.27,0,0,0,2,.25,12.92,12.92,0,0,0,1.27-1.58c.35-.59.65-1.21,1-1.8a25.62,25.62,0,0,1,2.16-3.1,30.09,30.09,0,0,1,2.74-2.9c1-.91,2.09-1.64,3.1-2.51C120.26,52.82,121.88,51.39,121.09,50.31Z"/><path class="cls-18" d="M125.77,164.3l0,0a5.32,5.32,0,0,0-.61-.26h0a3.26,3.26,0,0,1-.4-.24c-.26-.17-.5-.37-.76-.55L122.37,162c-1.06-.75-2.07-1.57-3.1-2.35s-1.92-1.48-2.91-2.19V115.13a12.88,12.88,0,0,0-12.84-12.84H12.85A12.88,12.88,0,0,0,0,115.13v49.92A12.88,12.88,0,0,0,12.85,177.9h90.67a12.9,12.9,0,0,0,12.18-8.8l2.89-.15,3.22-.11a8.61,8.61,0,0,0,4-.64,2.28,2.28,0,0,0,1.09-2.27A2.19,2.19,0,0,0,125.77,164.3Z"/><path class="cls-16" d="M70.88,128.58A16.22,16.22,0,0,0,69,127.42c-5.85-3.32-10.63-7.94-16-11.93-4.94-3.67-4.75,5.27-4.73,7.93,0,5.74.89,11.33.27,17.09a4.79,4.79,0,0,0,.21,2.71c2.09,4.05,17.66-6.33,20.23-8.14C71.24,133.51,73.77,130.79,70.88,128.58Z"/><path class="cls-16" d="M73.07,151.51c-10.61.09-21.21.07-31.82.07-5.22,0-5.23,5,0,5,10.61,0,21.21,0,31.82.07C78.42,156.7,78.43,151.47,73.07,151.51Z"/><path class="cls-16" d="M82.67,162.81c-17,.08-34.05.06-51.08.06-8.38,0-8.39,5,0,5,17,0,34.05,0,51.08.06C91.26,168,91.27,162.76,82.67,162.81Z"/><path class="cls-4" d="M346.09,144.28a1.94,1.94,0,0,0-3.87,0c-.32,4-.12,8-.12,12v12.24c0,8.07.1,16.15.23,24.22,0,2.36,3.71,2.37,3.67,0,.13-8.07.24-16.15.23-24.22,0-4,0-8,0-12S346.41,148.33,346.09,144.28Z"/><path class="cls-3" d="M348.42,193.52a4.6,4.6,0,0,0-1.19-2l-.93-.73a4.76,4.76,0,0,0-2.33-.63,5.15,5.15,0,0,0-3.27,1.36,3.35,3.35,0,0,0-.95,1.48,3.43,3.43,0,0,0-.4,1.78l.16,1.23a4.69,4.69,0,0,0,1.19,2l.93.72a4.59,4.59,0,0,0,2.34.63,3.55,3.55,0,0,0,1.78-.4,3.4,3.4,0,0,0,1.48-.95,3.55,3.55,0,0,0,1-1.49,3.4,3.4,0,0,0,.39-1.78Z"/><path class="cls-3" d="M386.94,305.42q-.09-41.39-.13-82.75V200.58q0-29.82,0-59.64c0-2.08-2.52-3.12-5-3.12s-5,1-5,3.12q0,38.66,0,77.3,0,14,0,28-.06,52.65-.2,105.31c-.05,19.72-.28,39.45-.06,59.17,0,1.58,1.39,2.58,3.14,3a4.23,4.23,0,0,0,4.44,0c1.75-.45,3.12-1.46,3.14-3C387.5,375.63,387,340.52,386.94,305.42Z"/><path class="cls-7" d="M350.12,78.7s-20.18,49.07-22,68.33c0,0,61,17,111.44,0,0,0-13.3-54.11-22-68.79C417.53,78.24,379,65.4,350.12,78.7Z"/><path class="cls-3" d="M415.63,413.48a5.27,5.27,0,0,0-1.16-3.07,4.72,4.72,0,0,0-3.73-1.83q-27.6,0-55.21.06a5,5,0,0,0-3.83,1.9,4.37,4.37,0,0,0-1,2.94,5.17,5.17,0,0,0,1.14,3,4.63,4.63,0,0,0,3.7,1.82q27.6.06,55.21.06a5.09,5.09,0,0,0,3.9-2A4.44,4.44,0,0,0,415.63,413.48Z"/><path class="cls-4" d="M396.25,86.75c-1.35-1-3.2-.6-4.73-.39-1.71.22-3.42.5-5.11.83a80.73,80.73,0,0,0-10,2.68,75.71,75.71,0,0,0-18.67,9.28c-2.93,2-6.45,4.57-8.18,7.76a.18.18,0,0,0,.2.26,29.32,29.32,0,0,0,5.34-3.14c1.72-1.14,3.47-2.23,5.23-3.32A83.49,83.49,0,0,1,372,94.76a79.43,79.43,0,0,1,12.21-4q3.13-.73,6.31-1.22c1.9-.28,4.47-.11,5.92-1.57A.81.81,0,0,0,396.25,86.75Z"/><path class="cls-4" d="M420.3,116a7.15,7.15,0,0,1-1.19-.85,3.09,3.09,0,0,0-1.86-.48,29.44,29.44,0,0,0-4,.54c-2.47.38-4.93.84-7.37,1.36a137.3,137.3,0,0,0-14.24,3.86,126.17,126.17,0,0,0-27,12.59c-2.31,1.43-4.53,3-6.7,4.63a41,41,0,0,0-3.18,2.71,10.94,10.94,0,0,0-2.64,2.88.36.36,0,0,0,.4.52,9.25,9.25,0,0,0,2.8-1.29c1.12-.62,2.28-1.18,3.38-1.82L365,137c4.21-2.43,8.56-4.57,13-6.61a136.63,136.63,0,0,1,27.19-9.24q4-.9,8-1.56c1.29-.21,2.58-.4,3.87-.58a3.89,3.89,0,0,0,2.27-.85,13.17,13.17,0,0,1,1.1-1.27A.57.57,0,0,0,420.3,116Z"/><path class="cls-19" d="M10.37,320.24c.58-5.74,2.08-11.35,2.91-17.06,2.59-17.87-1.53-36.07-7.53-53.09,15.9,11.62,29.41,28.9,29.77,48.58.09,4.89-.63,9.77-.52,14.66A43.1,43.1,0,0,0,40.27,333c2.57,4.68,6,8.89,8,13.83s2.33,11.09-1.1,15.19c-8.65,10.32-19.82-2.34-25.87-8.36C12.75,345.08,9.17,332.1,10.37,320.24Z"/><path class="cls-19" d="M49.31,323.46c1-10.85,2.9-21.93,8.56-31.24,3.14-5.17,7.32-9.61,11.05-14.37a99.09,99.09,0,0,0,19.87-46.27c11.84,20.19,11.52,46.92-.81,66.82-3.35,5.4-7.51,10.35-10,16.21-5.67,13.49-1.38,29.3-5.62,43.3-1.42,4.69-4,9.28-8.18,11.8-3.42,2.05-8.46,2.45-11.82,0-3.71-2.67-3.09-7-3.4-11.32A213.53,213.53,0,0,1,49.31,323.46Z"/><path class="cls-20" d="M33.56,340.52c-3.75-7.17-6.12-15.27-5.35-23.32.65-6.86,3.51-13.27,6.06-19.68,3.82-9.6,7-19.88,5.65-30.11-.53-3.92-1.74-7.73-2.32-11.64-1.57-10.52,1.5-21.35,6.87-30.52s12.94-16.88,20.88-23.95c-5.26,15.15-2.65,31.75-.35,47.63s4.1,32.76-2.55,47.36c-3.58,7.87-9.54,14.86-10.87,23.41-1.69,10.87,4.49,21.29,6.09,32.17.6,4.06.34,8.72-2.67,11.5-5.55,5.13-8.11-1.09-9.73-4.89C42.54,352.08,36.84,346.79,33.56,340.52Z"/><path class="cls-5" d="M11.36,359.48S17,403.58,23,416.55c0,0,30.27,9.95,49.73,0,7.35-12.1,12.54-40.64,13.4-55.34C86.16,361.21,52.43,350,11.36,359.48Z"/><path class="cls-7" d="M78.75,370a16.32,16.32,0,0,0-6.85-1.47,28.08,28.08,0,0,0-7.11,1.5,8.86,8.86,0,0,1-3.23.43,12.12,12.12,0,0,1-3.41-1.09,17.52,17.52,0,0,0-6.95-1.81,24.16,24.16,0,0,0-6.83,1.21A34.52,34.52,0,0,1,37,370.52c-2.72.17-5.19-.78-7.75-1.56a17.92,17.92,0,0,0-7.89-.81c-2.32.35-5.5,1.26-6.78,3.4a.8.8,0,0,0,.68,1.19,15.61,15.61,0,0,0,3.14-.82,15.69,15.69,0,0,1,3.39-.62,17,17,0,0,1,6.94,1.09,26,26,0,0,0,7.14,1.79,23.61,23.61,0,0,0,6.89-.92,50.62,50.62,0,0,1,6.75-1.52,11.79,11.79,0,0,1,6.34,1.15c2.26,1,4.55,2,7.09,1.77s4.82-1.29,7.3-1.69a11.75,11.75,0,0,1,6.12.75c1.62.65,4.4,3.41,6,1.37C84.15,372.78,80.42,370.76,78.75,370Z"/><path class="cls-7" d="M79,380.81a3.17,3.17,0,0,0-1.55-1.94,14.09,14.09,0,0,0-2.85-1.16,14.43,14.43,0,0,0-6.3-.38c-2.32.37-4.44,1.65-6.78,1.86s-4.55-.93-6.64-1.85a17.72,17.72,0,0,0-13.2-.9c-2.24.79-4.26,2.34-6.69,2.52S30.05,378,27.82,377c-3.69-1.65-8.36-3.37-11.87-.39-.3.26.1.79.42.55,3.63-2.64,8.26-.24,11.76,1.38A18.65,18.65,0,0,0,34,380.4c2.25.24,4.25-.53,6.3-1.36a17.59,17.59,0,0,1,6.57-1.54A15.82,15.82,0,0,1,53.45,379a27.4,27.4,0,0,0,5.66,2.19,12.06,12.06,0,0,0,6.28-.74,14.47,14.47,0,0,1,6.92-.91,12.37,12.37,0,0,1,3.32.95c.48.21.93.54,1.42.71a5.65,5.65,0,0,0,1.53.16A.4.4,0,0,0,79,380.81Z"/><path class="cls-7" d="M74.13,407.42c-1.57-.13-3.17-.09-4.73-.37-1.72-.32-3.41-.83-5.1-1.28-3.55-.94-7.19-1.5-10.76-.32-3.41,1.12-6.56,3.29-10.29,3s-7.19-2.13-11-2.47a14.26,14.26,0,0,0-6,.77,8.64,8.64,0,0,0-4.52,2.93c-.13.2.09.43.3.38,1.74-.38,3.36-1.17,5.14-1.45a14.31,14.31,0,0,1,5.34.13c3.65.81,6.91,2.84,10.64,3.37s7.06-1.07,10.59-2.26a12.4,12.4,0,0,1,4.82-.76,23.63,23.63,0,0,1,4.92,1c3.59,1,8,2.68,11.56.68C76.73,409.87,75.85,407.56,74.13,407.42Z"/><path class="cls-20" d="M90,253.9a.11.11,0,0,0-.2,0,17.76,17.76,0,0,0-1.28,4.6c-.36,1.84-.75,3.69-1.17,5.52a77.26,77.26,0,0,1-2.94,10c-2.41,6.45-6.27,12.47-10,18.24C67.17,303.52,59,315,57.84,328.83c-.66,8.18.9,16.41,2.85,24.31a1.29,1.29,0,0,0,2.49-.69c-1.73-7-3.43-14.13-3.2-21.39a48.29,48.29,0,0,1,5.38-19.61c6-12.23,15.28-22.56,20.1-35.39a83.08,83.08,0,0,0,3.38-11.21c.41-1.84.74-3.7,1-5.57A15.7,15.7,0,0,0,90,253.9Z"/><path class="cls-20" d="M36.2,351.71a45.92,45.92,0,0,1-8.27-13.38,66.2,66.2,0,0,1-4-15.47,37.37,37.37,0,0,1-.19-9.27c.35-3,1.05-5.87,1.43-8.83a52.12,52.12,0,0,0-.76-16.85,62.88,62.88,0,0,0-2.84-9.5c-.52-1.4-1.08-2.78-1.67-4.15a26.37,26.37,0,0,0-2.26-4.62.19.19,0,0,0-.34.14,36.5,36.5,0,0,0,1.39,4.05c.53,1.5,1,3,1.47,4.52a75.41,75.41,0,0,1,2,8.4,48.32,48.32,0,0,1,.24,17.86c-.59,2.93-1.38,5.79-1.76,8.76a38.09,38.09,0,0,0,.06,9.24,67.14,67.14,0,0,0,3.82,16.06c2.12,5.54,5.12,11.13,9.42,15.3C35.43,355.43,37.54,353.25,36.2,351.71Z"/><path class="cls-21" d="M49.06,248.23a75.09,75.09,0,0,1,2-15.14,124.14,124.14,0,0,1,4.6-14.35c.1-.29-.32-.45-.47-.2a58.29,58.29,0,0,0-5.27,12.25A69.77,69.77,0,0,0,47.2,244c-1.11,9.29.28,18.35,1.15,27.59a62.41,62.41,0,0,1,.09,13.73,39.7,39.7,0,0,1-4.29,12.78c-2,3.95-3.95,7.9-4.62,12.32a53.11,53.11,0,0,0,.17,13.91c.54,5,1.15,9.92,2.07,14.83a53.2,53.2,0,0,0,1.63,7c.78,2.36,1.55,4.81,3.49,6.46.5.44,1.55.2,1.47-.61-.21-2.18-1.14-4-1.85-6.07s-1.31-4.06-1.89-6.11a82.49,82.49,0,0,1-2.07-13,75.66,75.66,0,0,1-.8-13.53c.3-4.58,1.91-8.62,3.94-12.68,2-3.9,3.87-7.77,4.76-12.08a49.07,49.07,0,0,0,.66-13.31C50.5,266.21,48.8,257.34,49.06,248.23Z"/></g></g></svg>