<svg xmlns="http://www.w3.org/2000/svg" xmlns:xlink="http://www.w3.org/1999/xlink" viewBox="0 0 1819.61 1830.98"><defs><style>.cls-1{isolation:isolate;}.cls-2{fill:#e8913a;}.cls-3{fill:#ffc155;}.cls-4{fill:url(#linear-gradient);}.cls-5{fill:#ffdc94;}.cls-6{fill:#ffca55;}.cls-7{fill:#ded4ce;}.cls-8{fill:#3f444f;opacity:0.24;mix-blend-mode:hard-light;}.cls-9{fill:#ff7e55;}.cls-10{fill:#e66947;}.cls-11{fill:#494f5c;}.cls-12{fill:#c2c2c2;opacity:0.3;}.cls-13{fill:#eea886;}.cls-14{fill:#162d40;}.cls-15{fill:#0e1e2b;}.cls-16{fill:#eddad3;}.cls-17{fill:#db9c7c;}.cls-18{fill:#eb4747;}.cls-19{fill:#1d3b54;}.cls-20{fill:#fccca2;}.cls-21{fill:#ab3434;}.cls-22{fill:#ffcc63;}.cls-23{fill:#285173;}.cls-24{fill:#d6c5be;}.cls-25{fill:#252e3b;}.cls-26{fill:#fae6de;}.cls-27{fill:#a77860;}.cls-28{fill:#2c5396;}.cls-29{fill:#202338;}.cls-30{fill:#81807e;}.cls-31{fill:#292c47;}.cls-32{fill:#d8d5e0;}.cls-33{fill:#5d676c;}.cls-34{fill:#7f827f;}.cls-35{fill:#b4b1ba;}.cls-36{fill:#eae6f2;}.cls-37{fill:#1f3b6b;}.cls-38{fill:#323657;}</style><linearGradient id="linear-gradient" x1="1230.74" y1="1349.04" x2="744.82" y2="206.49" gradientUnits="userSpaceOnUse"><stop offset="0" stop-color="#ff9f55"/><stop offset="1" stop-color="#ffd255"/></linearGradient></defs><g class="cls-1"><g id="Capa_2" data-name="Capa 2"><g id="Слой_1" data-name="Слой 1"><path class="cls-2" d="M1510.38,360.78H817.84C640.21,372.6,641,568.27,641,568.27h0v935.06H1334.4V568.27S1337.69,371.94,1510.38,360.78Z"/><rect class="cls-3" x="592.67" y="580.09" width="8" height="719.68"/><path class="cls-3" d="M1392.14,251.06h-423V16.74h423Zm-415-8h407V24.74h-407Z"/><path class="cls-3" d="M600.67,495.45h-423V200.71h423Zm-415-8h407V208.71h-407Z"/><path class="cls-3" d="M1799.26,965.38h-423V730.19h423Zm-415-8h407V738.19h-407Z"/><path class="cls-4" d="M1482.7,348.08c-172.7,11.16-176,207.5-176,207.5v935.06H613.3V555.58s-.79-195.68,176.85-207.5Z"/><rect class="cls-5" x="704.36" y="592.35" width="476.28" height="42.02"/><rect class="cls-5" x="704.36" y="689.53" width="406.68" height="29.77"/><rect class="cls-5" x="704.36" y="768.11" width="204.44" height="44.21"/><rect class="cls-5" x="969.2" y="768.11" width="211.44" height="44.21"/><rect class="cls-5" x="704.36" y="853.26" width="325.69" height="31.52"/><rect class="cls-5" x="704.36" y="932.05" width="366.95" height="17.51"/><rect class="cls-5" x="704.36" y="1010.85" width="441.26" height="17.51"/><path class="cls-5" d="M910.29,1187.46H702.86v-99.31H910.29Zm-204.43-3H907.29v-93.31H705.86Z"/><rect class="cls-5" x="960.01" y="1089.65" width="185.61" height="22.76"/><rect class="cls-5" x="960.01" y="1137.8" width="131.56" height="22.76"/><rect class="cls-5" x="704.36" y="1247.24" width="396.83" height="17.51"/><rect class="cls-5" x="704.36" y="1326.04" width="209.03" height="17.51"/><path class="cls-6" d="M1485.31,875.19l-20.45-33.49a5.83,5.83,0,0,1,10-6.07l14.46,23.68,38.44-22.76a5.83,5.83,0,0,1,5.94,10Z"/><path class="cls-6" d="M1499,926.8a73.55,73.55,0,1,1,73.55-73.54A73.62,73.62,0,0,1,1499,926.8Zm0-136.58a63,63,0,1,0,63,63A63.11,63.11,0,0,0,1499,790.22Z"/><polygon class="cls-6" points="1146.49 109.38 1147.93 140.29 1160.2 139.72 1157.79 87.87 1104.84 90.33 1105.41 102.6 1137.42 101.11 1080.99 163.04 1022.28 109.56 1014.01 118.64 1081.8 180.4 1146.49 109.38"/><path class="cls-6" d="M330.51,309a27.23,27.23,0,0,0-5.29-4.32,60.36,60.36,0,0,0-8.09-4.43A66.19,66.19,0,0,0,307,296.6a57.68,57.68,0,0,0-11.3-1.94l-.14,41.43,3.8.81a175.53,175.53,0,0,1,19.5,5.87,55.52,55.52,0,0,1,14.68,7.85A31.8,31.8,0,0,1,342.85,362q3.28,6.72,3.25,16.32,0,10.61-3.86,18.1a35.27,35.27,0,0,1-10.55,12.48,47.12,47.12,0,0,1-15.64,7.45A75.77,75.77,0,0,1,296.93,419l-.07,21-10.4,0,.07-21.42a100.52,100.52,0,0,1-27.4-5.79,86.19,86.19,0,0,1-23.78-13.19l10.27-19.18a35.22,35.22,0,0,0,6.39,5.23A72.16,72.16,0,0,0,261.8,391a90.53,90.53,0,0,0,12.29,4.65,79.11,79.11,0,0,0,13.9,2.85l.14-41.43c-.8-.27-1.64-.51-2.5-.71s-1.7-.44-2.5-.71a169,169,0,0,1-18.5-6,46.38,46.38,0,0,1-13.08-7.54,29.45,29.45,0,0,1-7.87-10.34A34.16,34.16,0,0,1,241,317.49a42.34,42.34,0,0,1,3.46-17.4A38.14,38.14,0,0,1,254.13,287a45.73,45.73,0,0,1,14.54-8.56A67.78,67.78,0,0,1,287,274.61l.06-20.21,10.41,0-.07,20.22a76.93,76.93,0,0,1,24,5.28,87,87,0,0,1,19.38,10.67Zm-66.06,5q0,8.4,5.86,12.63t17.89,7.46l.13-39.43q-12.21.57-18,5.65T264.45,314Zm57.62,66.63q0-8.81-7-13.33t-19.58-8.17l-.13,39.63q12.8-.15,19.73-4.74T322.07,380.6Z"/><rect class="cls-7" x="393.98" y="284.62" width="166.13" height="23.64"/><rect class="cls-7" x="393.98" y="336.26" width="130.58" height="23.64"/><rect class="cls-7" x="393.98" y="387.9" width="146.51" height="23.64"/><rect class="cls-7" x="1603.08" y="810.14" width="118.7" height="23.64"/><rect class="cls-7" x="1603.08" y="861.79" width="133.19" height="23.64"/><rect class="cls-7" x="1195.96" y="70.43" width="151.03" height="23.64"/><rect class="cls-7" x="1195.96" y="122.08" width="118.7" height="23.64"/><rect class="cls-7" x="1195.96" y="173.72" width="133.19" height="23.64"/><polygon class="cls-7" points="1486.69 1121.66 1358.37 1121.66 1358.37 1113.66 1478.69 1113.66 1478.69 970.58 1486.69 970.58 1486.69 1121.66"/><polygon class="cls-7" points="871.2 334.06 863.2 334.06 863.2 292.44 1141.62 292.44 1141.62 263.15 1149.62 263.15 1149.62 300.44 871.2 300.44 871.2 334.06"/><polygon class="cls-7" points="560.12 825.09 414.06 825.09 414.06 510.05 422.06 510.05 422.06 817.09 560.12 817.09 560.12 825.09"/><path class="cls-3" d="M1358.46,697.2h-8V602c-.12-1.58-10.27-184.21,143.84-210.78l1.36,7.88C1348.57,424.44,1358.33,600,1358.45,601.72Z"/><polygon class="cls-3" points="1819.61 880.17 1811.61 880.17 1811.61 718.7 1638.32 718.7 1638.32 710.7 1819.61 710.7 1819.61 880.17"/><polygon class="cls-3" points="319.67 519.48 155.13 519.48 155.13 364.45 163.13 364.45 163.13 511.48 319.67 511.48 319.67 519.48"/><polygon class="cls-3" points="958.03 122.08 950.03 122.08 950.03 0 1154.22 0 1154.22 8 958.03 8 958.03 122.08"/><polygon class="cls-3" points="1362.37 1530.86 1212.6 1530.86 1212.6 1522.86 1354.37 1522.86 1354.37 1295.72 1362.37 1295.72 1362.37 1530.86"/><path class="cls-5" d="M1247.71,1372.19H1117.3V1241.77h130.41Zm-118.41-12h106.41V1253.77H1129.3Z"/><polygon class="cls-5" points="1184.56 1334.05 1138.76 1290.88 1152.48 1276.32 1185.47 1307.42 1257.47 1248.27 1270.16 1263.72 1184.56 1334.05"/><path class="cls-8" d="M1142.9,996.79C1045.06,828.3,829.13,771,660.61,868.88a353.53,353.53,0,0,0-47.31,32.85v80.93A294.55,294.55,0,0,1,689.71,919c140.84-81.79,321.31-33.9,403.1,106.93a293.52,293.52,0,0,1,39.71,136.9c.13,3.65.21,7.27.21,10.92,0,101.65-52.61,200.57-146.85,255.28-125.29,72.73-282,42.89-372.58-63.75v81a349.56,349.56,0,0,0,68.9,44.39H993.42q10.92-5.37,21.56-11.56C1183.48,1381.24,1240.76,1165.31,1142.9,996.79Z"/><rect class="cls-9" x="-35.06" y="1562.75" width="570.2" height="96.94" transform="translate(1473.66 2688.87) rotate(140.19)"/><rect class="cls-10" x="465.53" y="1382.15" width="30.46" height="73.58" transform="translate(1758.5 2201.19) rotate(140.19)"/><path class="cls-11" d="M441.39,1351.16c97.86,168.5,313.78,225.78,482.29,127.92s225.78-313.78,127.93-482.29S737.82,771,569.32,868.87,343.54,1182.65,441.39,1351.16Zm50.1-29.1A294.88,294.88,0,0,1,598.41,919c140.84-81.79,321.31-33.91,403.09,106.92a293.48,293.48,0,0,1,39.73,136.89h0c3.91,105.43-49,209.51-146.64,266.19C753.75,1510.77,573.28,1462.9,491.49,1322.06Z"/><path class="cls-12" d="M465.35,1085s307.11-233.19,575.88,77.78h0a293.48,293.48,0,0,0-39.73-136.89C919.72,885.06,739.25,837.18,598.41,919A293.8,293.8,0,0,0,465.35,1085Z"/><path class="cls-13" d="M1270,1313.07a56.33,56.33,0,0,1-11.75,3c-5.1.5-12.5,5.84-14.39,8.16s-17.33,18.9-17.6,21,4,1.41,5.36-.27,14.89-15,14.89-15-15.11,16.83-15,18.8,2.37,3.66,5.16,1.92c0,0,2.23,4.57,6.16.61l7.87-7.86s-3.33,4.8,1,3.42c2.32-.73,10.11-10.64,12.29-12.11s10.52-14.16,10.52-14.16Z"/><path class="cls-14" d="M1323.73,1639.1s-5.75,11.5-9.23,13.76-23,21.26-27,23-16.9,4.18-16.72,10.28,33.27,4.18,39.72,1.92,17.25-16.9,21.61-16.73,2.78,18,2.78,18h4.71s5.92-18.82,5.75-25.44-3.84-24.74-3.84-24.74Z"/><path class="cls-14" d="M1404.43,1632s-2.53,11.39-6.69,15.36-19.74,20.79-23.69,22.59-11.55,3.07-13.9,6-1,11.38,13.9,10.48,19.67-.77,23.2-3.75,14.9-13.29,18.29-13.56v16.4h4.07s7.18-21.55,4.61-30.63-2.44-21.41-2.44-21.41Z"/><path class="cls-13" d="M1398.54,1144.34s6.76,17.42,1.5,30.89c0,0,24.81-1.57,25.75-4.39s-1-28.93,2.42-36.64S1398.54,1144.34,1398.54,1144.34Z"/><path class="cls-13" d="M1443.47,1378a19,19,0,0,0-1.22,6.61c.17,2.22-1.06,5.86-1.53,7.83s-1.58,10.63-1.31,12.77c.11.87,2.94,5.92,3,7.72s-.36,5.47,1.22,5.37,2.83-3.31,2.83-3.31a2.25,2.25,0,0,0,1.53,2c2.73.65,3.88-.69,3.88-.69s1.24,1.56,2.45,1.55a5,5,0,0,0,3.75-1.36,4.54,4.54,0,0,0,3.08.32,4.12,4.12,0,0,0,2.88-2.75s3,0,3.59-1.58.21-3,.34-4.31-2-12.51-7.18-19.8-2.55-16.45-2.55-16.45Z"/><path class="cls-15" d="M1435.68,1439.21,1432.6,1418a6.28,6.28,0,0,1,5.3-7.1l33.64-4.88a6.26,6.26,0,0,1,7.09,5.3l3.08,21.21a6.27,6.27,0,0,1-5.3,7.1l-33.64,4.88A6.27,6.27,0,0,1,1435.68,1439.21Zm2.82-24.15a2.06,2.06,0,0,0-1.74,2.33l3.08,21.22a2.06,2.06,0,0,0,2.33,1.74l33.64-4.88a2.05,2.05,0,0,0,1.74-2.33l-3.07-21.22a2.07,2.07,0,0,0-2.34-1.74Z"/><rect class="cls-16" x="1402.87" y="1430.76" width="125.49" height="91.37" transform="translate(3127.97 2727.25) rotate(171.75)"/><path class="cls-17" d="M1445.84,1414s-2-10,.25-12.74,3.15.86,3.15.86-1-3.52,1.79-4.62,3.61,3.15,3.61,3.15a3,3,0,0,1,3.08-3c3.08-.07,3,3.62,3,3.62s2.26-4.09,4.68-1.15c4.08,5,2.21,12.26,2.21,12.26s-.62,1.72-3.59,1.58c0,0-1.23,4.32-6,2.43,0,0-3.94,3.38-6.2-.19C1451.84,1416.29,1447.44,1419.65,1445.84,1414Z"/><path class="cls-18" d="M1396.14,1169.34s-14.66,5.08-21.29,6.49-20.49,7.8-19.36,31.86,5.26,44.92,6.76,55.26.57,36.66-1.87,49.44c0,0,35.15,8.65,76.5,0,0,0-7.33-21.81-7.14-27.44s24.44-52.07,25.56-59.41,6-39.66-5.07-46.8-20.11-6.2-24.81-9.4S1403,1167.05,1396.14,1169.34Z"/><path class="cls-18" d="M1377.31,1175.23s-16.18-.44-27.65,24.94-14.29,40.23-16.92,43.8-11.84,17.48-20.86,24.25-46.59,44.88-46.59,44.88l10.31,13.2s54.14-38.35,59.77-44.92,39.89-56.4,41.94-63.92S1395.19,1183,1377.31,1175.23Z"/><path class="cls-18" d="M1474.38,1301.3c.11,10.15-10.43,79.42-10.43,79.42l-19.92.85s6.39-68.71,8.64-84.5c.67-4.66.1-11.9-1-19.79h0c-.71-5-1.65-10.29-2.65-15.33-2.75-13.92-5.91-26.07-5.91-26.07s-17.95-59.14,9.63-54.8a67.1,67.1,0,0,1,12.64,29.14c3.1,17.77,6.2,44.27,5.64,54.71S1474.31,1293.83,1474.38,1301.3Z"/><path class="cls-19" d="M1360.38,1312.39s-6.4,15.11-7,18.93-20.6,53.7-22,68.29c-1.41,14.76-5.64,54.14-7.15,59.78s3.39,30.83,4.14,36.47.38,97.75-6.39,143.24c0,0,15.79,6.76,27.82,0,0,0,19.92-71.06,18.8-112s-6.33-58.27,0-74.81,43.58-66.17,47.34-71.43,27.31-34.36,5-65.87S1360.38,1312.39,1360.38,1312.39Z"/><path class="cls-19" d="M1437.34,1447c-2,13.16.11,30.45,4.24,78.58s-7.24,106.39-7.24,106.39c-14.28,4.89-30.73,0-30.73,0,.38-3.38,0-117.3,0-127.45s-2.91-21.67-3.66-33.32c-.52-7.94-4.21-22.58-8.37-37.52-1.24-4.48-2.53-9-3.78-13.34h0c-.71-2.44-1.4-4.84-2.07-7.16-5.85-20.31-13.72-98.7-13.72-98.7s43.63-35.14,64.87-2.06,10.34,57.15,9.59,61.28S1439.32,1433.83,1437.34,1447Z"/><path class="cls-18" d="M1357,1250.84s2.94,59.2-11.16,93.32c0,0,46.52,15.51,106.58,0,0,0-12.87-42.44-11.84-48.92s23.5-81.3,16.59-98.9S1363.9,1195.31,1357,1250.84Z"/><path class="cls-13" d="M1412.45,1075.73c-10.48-1.19-37.6.94-35.53,41.73s16.92,38.35,31.77,34,32.52-35.9,32.52-44.36S1442.33,1079.11,1412.45,1075.73Z"/><path class="cls-20" d="M1378.42,1098.78s11.8,15,23.67,18.65c0,0,9.13,16.33,25.06,20.49,0,0,34-32.49,5.41-56.93S1378.23,1086.31,1378.42,1098.78Z"/><path class="cls-13" d="M1399.85,1111.82c.4-2.23,5.35-6.77,9.16-1.69s-3.14,16.91-5.78,16.91S1398.35,1120.28,1399.85,1111.82Z"/><path class="cls-20" d="M1437.35,1088.34c.85-1.29,26.6-12.9,32,11.35s-20.74,52.45-25.32,64.57,0,40.89,0,40.89-13.64-14.79-18.39-29.92C1420.39,1158.63,1418.64,1116.75,1437.35,1088.34Z"/><path class="cls-14" d="M1419.25,1376.28c-.33.75-22.07,49-27.67,57.38-1.24-4.48-2.53-9-3.78-13.34h0S1418.53,1377.34,1419.25,1376.28Z"/><path class="cls-21" d="M1456.2,1228s-.69,30.7-4.55,49.27c-.71-5-1.65-10.29-2.65-15.33C1449.16,1261.25,1455.45,1232.81,1456.2,1228Z"/><path class="cls-13" d="M684.78,1385a17.22,17.22,0,0,1,3.59,4.94c.74,1.89,3.18,4.39,4.34,5.81s5.47,8.11,6.09,10c.25.76-.08,6,.6,7.5s2.44,4.35,1.11,4.89-3.62-1.61-3.62-1.61a2.05,2.05,0,0,1-.49,2.22,3,3,0,0,1-3.57.49s-.28,2.24-1.28,2.7a3.4,3.4,0,0,1-3.58-.11,4,4,0,0,1-2.43,2,3.53,3.53,0,0,1-3.39-1.43s-2.44,1.05-3.54,0a11.32,11.32,0,0,1-2.06-3c-.63-1-3.23-11.07-1.89-19.07s-4.9-14-4.9-14Z"/><path class="cls-15" d="M706.85,1446.49H672.32a6.38,6.38,0,0,1-6.36-6.36v-21.77a6.37,6.37,0,0,1,6.36-6.36h34.53a6.37,6.37,0,0,1,6.36,6.36v21.77A6.38,6.38,0,0,1,706.85,1446.49Zm-34.53-30.23a2.1,2.1,0,0,0-2.09,2.1v21.77a2.1,2.1,0,0,0,2.09,2.09h34.53a2.1,2.1,0,0,0,2.09-2.09v-21.77a2.1,2.1,0,0,0-2.09-2.1Z"/><rect class="cls-22" x="624.82" y="1437.14" width="129.53" height="92.81"/><path class="cls-13" d="M634.57,1188.8s-6.64.1-9.47,19.94,2.53,28.13,3.17,36.38,10.33,61.58,10.59,63.94,1.56,30.73,5.34,38.26,31.53,50.21,31.91,52.34,13.48-7.43,13.48-7.43-21.81-45.65-23.08-50.86-10-31.81-8.65-39.93-3.89-52.91-3.38-57.89S647.28,1191.83,634.57,1188.8Z"/><path class="cls-23" d="M634.57,1188.8s-6.64.1-9.47,19.94-.27,27,1.44,35.58c1.62,8.12,7.12,57.8,7.38,60.16s6.85,32.31,10.28,42.84c2.6,8,27.36,50,27.73,52.09s19.24-9.8,19.24-9.8-24.2-47.22-25.47-52.43-5.36-23.24-5.49-31.48c-.15-9.67-6.24-57.17-5.73-62.15S653.08,1195.59,634.57,1188.8Z"/><path class="cls-16" d="M579.06,1651.5s11.55,17.16,16.21,21.3c0,0,10.72,3.75,11.38,11,.44,4.77,0,12.42-12.23,12.77s-20.1-3.93-22.34-11.35-6.47-10.73-6.47-10.73V1690h-2.76s-.69-15-.86-17.76-2-13.37,3.83-18.07S579.06,1651.5,579.06,1651.5Z"/><path class="cls-16" d="M657.44,1637.79a49.69,49.69,0,0,0,5.77,9.66c2.77,3.61,11.39,18.45,15.18,19.48s15.52,3.11,16.56,9.66,1.55,11.21-10,11.73-19.14,1.2-24.66-6.9-14.31-14-14.31-14v21.15h-4.48s-2.07-22-3.28-23.56-4.31-18.46,6.38-27.25S657.44,1637.79,657.44,1637.79Z"/><path class="cls-13" d="M571.3,1320.31s-14.59,19-18.55,41.47,2.34,98,2.17,109.16-10.52,38.8-8.45,59.76,19.35,123.51,19.35,123.51l13.24-2.71s-1.29-106.32,0-115.11,3.89-40.86,4.41-44.48,32.84-98.71,32.84-114.94S606.48,1293.83,571.3,1320.31Z"/><path class="cls-13" d="M644.59,1327.72s24,91.49,26.82,104.16,7,23.13,7,28.51c0,12.49-4.64,32.54-4.64,32.54l-16.29,144.86H644.59s-8.11-84.59-9.4-101.66,9.31-43.46,6.73-50.7-41.65-90.8-41.65-90.8S570.69,1301.16,644.59,1327.72Z"/><path class="cls-13" d="M597.26,1673.67s-10.07,5.18-19.21-1.65-12.23-17.81-12.23-17.81l13.24-2.71Z"/><path class="cls-13" d="M678.39,1666.93s-10.35,2.59-14.31,0-17.45-25.38-21.92-26.74c0,0,4.33-8.78,15.28-2.4C657.44,1637.79,675.46,1663.14,678.39,1666.93Z"/><path class="cls-19" d="M675.27,1446.47s-44,25.92-126.59,25.92c0,0-4.68-95.74,7.32-122.68s91.68-10.18,91.68-10.18S672.43,1426.67,675.27,1446.47Z"/><path class="cls-16" d="M615.1,1181.65s12.8,6,17.24,6.94,21.69,23.29,24.72,31.47,0,20.44-6.23,34.85-.35,19.2-3.2,33.6-5.33,44.89-4.8,52.89-71.91,9.52-88.45-5.06c0,0,16.62-24.89,18.76-28.45s.35-22.94-1.6-27.91-15-47.32-15-47.32-10.64-32.51-1-40c8.36-6.49,31.14-8.81,35.23-10.23S606.74,1180.41,615.1,1181.65Z"/><path class="cls-24" d="M619.19,1210.19l7.77-9.11-6.75-24S617.94,1190.45,619.19,1210.19Z"/><path class="cls-13" d="M598.94,1090.8c7.61-2.68,35.56-9.25,42.14,26.49s-13.16,61.16-31.29,54.41-29.34-31.47-30.41-50.32S589.34,1094.18,598.94,1090.8Z"/><path class="cls-25" d="M641.08,1117.29s1.37-30.58-29-31.65-38.59,24-36.1,42.21A44.68,44.68,0,0,0,591,1155.72s-1.1-14.76,4.8-18.6,29.55-11.47,39.86-29.25C635.69,1107.87,640.47,1113.48,641.08,1117.29Z"/><path class="cls-25" d="M603.17,1114.05c-4,12.18-15.88,19.21-26.53,15.71s-16-16.21-12-28.39,15.88-19.21,26.53-15.71S607.18,1101.87,603.17,1114.05Z"/><path class="cls-13" d="M621.21,1166.88s-2.56,23.49-2,31.13c0,0-13.3,13.33-28.43-15.56,0,0,6.36-11.91,1.57-28.13S621.21,1166.88,621.21,1166.88Z"/><polygon class="cls-13" points="619.19 1198.01 619.19 1210.19 603.88 1198.75 619.19 1198.01"/><polygon class="cls-24" points="619.19 1210.19 612.83 1202.32 591.42 1180.98 584.49 1187.65 619.19 1210.19"/><path class="cls-23" d="M588.45,1183s18,27.26,18.82,39.26-6.67,101.78-12.71,130.64-49.64-3.26-49.64-3.26,29.3-47.42,18.06-85.4-15.34-53.16-15.34-53.16,3.87-21.15,17.58-24.12C577.25,1184.38,588.45,1183,588.45,1183Z"/><path class="cls-23" d="M658.24,1223.7s3.24,11.47-9.38,36.81c0,0,.2,32.45.55,42.58s2.76,48.45,2.76,48.45l-12.49,7.31a3.52,3.52,0,0,1-5.28-3.46c3.54-29.17,15-139.79-9.8-169.53l10,2.94S652.28,1203.3,658.24,1223.7Z"/><path class="cls-13" d="M598.89,1130.66a4.69,4.69,0,0,0-6.94-2c-2.13,1.6-3.37,6.4,0,12.62S607.25,1151.85,598.89,1130.66Z"/><polygon class="cls-26" points="626.97 1201.08 636.77 1203.79 620.21 1177.1 626.97 1201.08"/><polygon class="cls-26" points="612.83 1202.32 603.88 1214.06 585.49 1183.42 591.42 1180.98 612.83 1202.32"/><path class="cls-27" d="M620.68,1172.05l-.44,4.71s-10.57,2-24.41-14.9C595.83,1161.86,605.64,1173.83,620.68,1172.05Z"/><path class="cls-13" d="M675.08,1315.82s6.22,4,9.8,1.77c3-1.91,8.35-2.17,10-2.26,2.19-.11,8.76-2.95,8.93-.2s-10.62,5.21-12.77,6.18,7.34,5.61,8.41,7.83-7.51,17.53-13.66,13.58-10.14-12.21-11.36-12.69a45,45,0,0,1-4.59-2.69Z"/><path class="cls-13" d="M557,1191.26s8.63-2.14,16.09,5.86,11.21,21.16,13.16,25.43,26.67,43.73,28.09,44.62,26.54,21.16,37.92,32,33.56,22.94,33.56,22.94l-8.36,11.74s-67.38-35.92-75.92-49.07-42.6-49.61-42.6-49.61S538.59,1204.52,557,1191.26Z"/><path class="cls-13" d="M698.21,1327.88s18,13.32,18.51,15.21-.32,2.83-2.06,1.65-17.81-12.36-17.81-12.36,18.71,19.35,19.43,20.82c.42.86-1,2.76-2,2.22s-20.63-18.66-20.63-18.66,17.43,18.1,17.67,19.5a1.74,1.74,0,0,1-2.91,1.41c-1.38-1.26-18.52-17.14-18.52-17.14s11.87,14,11.36,15.28c-.31.79-1.44,2.49-4.39-1.21s-10.82-11.7-10.82-11.7Z"/><path class="cls-19" d="M651.83,1254.16s.59,40.49-1.88,60l-1.09-53.67Z"/><path class="cls-23" d="M561.45,1188.29s4.91.83,12.38,8.83,11.2,21.16,13.16,25.43,26.66,43.73,28.09,44.62,22,15,33.38,25.87,32.56,23.8,32.56,23.8L670.15,1333s-59.43-32.91-68.85-45.45c-10.07-13.39-46-52.7-46-52.7S532.07,1199,561.45,1188.29Z"/><path class="cls-17" d="M697,1415.49s-2.32-9-5.22-10.36-2.24,1.95-2.24,1.95-.59-3.27-3.29-3.09-1.72,4-1.72,4a2.68,2.68,0,0,0-3.68-1.21c-2.56,1.15-1,4.14-1,4.14s-3.46-2.47-4.3.89c-1.4,5.68,3,10.93,3,10.93s1.18,1.16,3.56-.11c0,0,2.71,3.06,5.85-.36,0,0,4.56,1.23,5-2.59C692.94,1419.69,697.88,1420.72,697,1415.49Z"/><path class="cls-19" d="M602,1297l-20.34-32.82s17.35,20.48,19.15,22.68,2,2.36,2,2.36S602.23,1295.89,602,1297Z"/><path class="cls-13" d="M814.15,1376.14A103.4,103.4,0,0,0,818,1389c1.2,3.16,1.8,23.92,1.67,26.61-.1,2.25-1.59.92-2.35-.57-.44-.85-1.8-8-3.13-11.84-1.12-3.21-2.08-4.4-2.64-3.37s-1.59,14.38-.37,20.08-.05,18.84-3.05,16.94-10-25.65-9.43-34.6,3.78-20.16,3.78-20.16Z"/><path class="cls-28" d="M811.34,1388.17s9.79-65.1,12.38-77.47c1.18-5.61,4.42-19.55,6.47-31,.67-3.77,1.24-7.65,1.73-11.45v0c1.92-15.18,2.41-29,2.41-29s8.49-38.91-16.05-41.3c0,0-6.58,2-7,4.75-1.48,10.4-4.87,32.88-5,38.2-.12,4.33-6.47,48-6.56,49.53-.18,3-1.66,23.21-2.26,32.09-1.4,20.73-1.93,67.08-1.93,67.08Z"/><path class="cls-29" d="M803.51,1665.66s-9.48,10.58-19.1,12.79-16.35,5-16.42,11.12,27.68,10.07,38.69,4c16.43-9.14,18.11-6.38,19.93-11s-2.19-16.77-2.07-18.23C824.68,1662.55,803.51,1665.66,803.51,1665.66Z"/><path class="cls-29" d="M900.19,1668.41s-7,10.31-16.3,12.69-15.15,6.8-15.6,12.7,21.68,13.63,37.23,3.27c10.21-6.81,14-6.43,16.08-10.75s-1.08-16.46-.87-17.86C921,1666.72,900.19,1668.41,900.19,1668.41Z"/><path class="cls-30" d="M804.57,1660.59a42.93,42.93,0,0,0-1.06,5.07c.18.1,21.68,2.66,21-1.32-.53-3.22-1.28-6.73-1.28-6.73Z"/><path class="cls-30" d="M900.47,1663.32a49.3,49.3,0,0,0-.28,5.09c.17.12,20.66,4,20.54,0a32.17,32.17,0,0,0-1.3-7Z"/><path class="cls-31" d="M824.12,1363.88s-7.82,75.91-11.89,101.9c-4.75,30.38-6.36,55.49-7.69,71.22-1.66,19.78-2,117.08-3.15,122.86s25.89,1.6,25.89,1.6,13.31-127.14,18.28-148.2c4.62-19.62,21.78-104.07,26-98.71s9.45,98.55,12.57,114,12.63,136.58,12.63,136.58,21.54,4.29,27.27-.56c0,0,2.6-104.37.61-133.38-.76-11,13-132.53-4.63-181.43C910.72,1323.93,824.12,1363.88,824.12,1363.88Z"/><path class="cls-32" d="M958.09,1374.66s-13.18,4-18.7,3-2.73-68.74-2.95-82.83c-.16-11.44-6.42-41.61-6.42-41.61v0s0,0,0,0v0c-.62,2.26-9.07,33.58-9.36,48.63-.31,15.61,2,75.35,2,75.35l-21,9.88-72.53,2.09-10.57.16s1.67-35.42,2.29-47.55c.38-7.71,1.88-21.52,1.49-35,0,0,.25-14.17-1.16-20.28-.15-26.94-1.78-53.63-1.78-53.63q-1.37-18.33-1.89-34.3c2.94-1.56,6.48-3.38,9.32-4.73,8.78-4.18,21-9.81,28.85-13.41,4.6-2.11,9.09-3.65,9.09-3.65s31.36-3,33.91-2.85a80.28,80.28,0,0,1,9.86,3.38c11.12,4.22,32.56,12.81,36,15.26,5,3.59,15.59,88.76,16.07,94.73C961.49,1298.19,958.09,1374.66,958.09,1374.66Z"/><path class="cls-13" d="M898.56,1174c-2.3,21.13-25.77,21.13-25.77,21.13s-9.72-8.5-9.41-14.79c0-.13,0-.27,0-.4.14-1.16,1.45-2.6,1.59-4.92,0-.32,0-.64,0-1s0-.63,0-.94c0-1.61-.1-3.19-.19-4.3,0-.38-.07-.72-.1-1s-.06-.62-.06-.62,3.78-4,8.59-8.73c8.4-8.31,20-19,20-14.72a3.7,3.7,0,0,1-.1.8C891.13,1154.13,898.56,1174,898.56,1174Z"/><path class="cls-33" d="M896.37,1348.57s1.9,12,2.06,15.1l4-.8s-1.11-12.68-1.76-14.8Z"/><path class="cls-34" d="M962.26,1418.34s-1.23-16.8-5.73-19.34-1.83,2.62-1.83,2.62,2.68,12.16,3.31,17.1C958,1419,962.26,1418.34,962.26,1418.34Z"/><polygon class="cls-34" points="917.87 1430.2 977.07 1412.44 978 1485.66 919.37 1522.01 917.87 1430.2"/><polygon class="cls-34" points="919.37 1522.01 926.84 1523.27 983.84 1486.62 982.02 1412.7 977.07 1412.44 919.37 1522.01"/><path class="cls-35" d="M882.56,1186.46l-9.77,8.69s11.27-.75,13.38-2.63Z"/><path class="cls-31" d="M820.61,1378.06s45.9,3.91,86.09,0v13.19s-60.36,8.72-88.1-2.52Z"/><path class="cls-28" d="M855.72,1180.58l-8.72,4c-6.67,3.08-14.19,6.58-20.13,9.4-3.14,1.5-7,3.26-10.06,4.53.35,10.84.88,22.46,1.8,34.9,0,0,.87,30.39,2.62,59.22a57.36,57.36,0,0,1,.56,12.67c-.43,5.63-1,11.79-1.78,18.21l0,.24c-.17,1.53-.36,3.06-.54,4.61,0,0,0,0,0,.07-3.9,32.11-10.51,69-14,80.1-.73,2.33,1.78,4.48,3.58,6.14l12.55,7.91s5.17-47.64,6.89-63.81c1.66-15.61,6.87-36.53,9.16-56.92h0c2.9-25.87,6.89-51.21,9-66.27,5.6-39.19,13.06-56.73,13.06-56.73Z"/><path class="cls-28" d="M935.49,1295.46c1,13.08-4.57,85.44,1,86.46s25.81-3.45,25.81-3.45,2.54-78,1.73-86.22c-.6-6-10.08-95.26-15.08-98.85-2.89-2.08-24.31-9.67-34.82-13.81-1.92-.76-3.79-1.48-5.51-2.13-2.23,2.48-25.87,46.22-27.72,81.77-.56,10.82,2,33.67,3.9,52.33,2.06,19.92,4.34,35.46,6,52.11,3.29,32.81,5.6,58.92,5.6,58.92L929,1408.05c5.28-2.64,12.6-13.49,10.61-19-7.54-21.15-17-57.27-17.06-75.82,0,0,3.64-45.43,6.53-55.42C929.1,1257.76,934.25,1278.83,935.49,1295.46Z"/><path class="cls-13" d="M941.57,1381.07s-1.61,7.29-3.79,14.59-4.24,9.65-3.26,13.8c.74,3.13,4.33,5.44,5.21,4.42s1.13-13.25,6.2-13.27-1.29,15.15,1.71,14,14.5-7.68,13.68-13.83-5.53-10.53-5.37-19.73c.14-8.35-2.51-11.8-2.51-11.8Z"/><path class="cls-34" d="M945.42,1400.1s-6.72,1.83-6,24.63l7.61-1.39s-.33-12.61,1.85-19.51C948.91,1403.83,948.45,1399.38,945.42,1400.1Z"/><path class="cls-28" d="M934.63,1332l.33,57.51s11.48-.51,27.3-6.35l1.09-81.1Z"/><path class="cls-32" d="M862.11,1188s-.84,12,9.32,12.28,18.21-9.47,18.21-9.47l-16.85,4.35-10.26-8.69Z"/><path class="cls-36" d="M897.2,1170.06s-9.62,12.35-14.64,16.4l8.23,13.81,14.2-24.16Z"/><path class="cls-35" d="M864.1,1188.73l8.69,6.42s-7.63-13.92-7.79-20.11Z"/><polygon class="cls-36" points="865 1175.04 859.43 1178.98 853.21 1197.52 864.1 1188.73 865 1175.04"/><path class="cls-37" d="M820.07,1270.89s2.47,21.4,1.16,40.93-6.64,50.74-6.64,50.74S814.54,1294.05,820.07,1270.89Z"/><path class="cls-13" d="M837.37,1113.17s-6.13,14.91-2.13,16.71c3.31,1.48-2,16-2.65,18.39s6.06,3.32,7.6,4.63,7.53,18.79,13,18.77,28.79-11,34.66-18.56,8-39.12,2.26-51.73S848.21,1087.11,837.37,1113.17Z"/><path class="cls-38" d="M836.17,1116.38s-9.37-14.42,3.55-27.2,41,4.31,44,4.76,20.67,4.22,14.8,31.08c-5.23,23.92-5.73,24.55-5.73,24.55s-7-12.65-10.29-14.54c-5.13-3-15.49-1-15.49-1s3.59-13.74-4.39-14.8S843.73,1112.64,836.17,1116.38Z"/><path class="cls-13" d="M874.54,1125.56c.49-1.89,1.89-9.91,9.06-6s-2.14,19.7-3.29,20S870.37,1141.42,874.54,1125.56Z"/><path class="cls-27" d="M886.9,1154.18c-.16.41-5.5,13.36-21.86,19.9,0-.31,0-.63,0-.94,0-1.61-.1-3.19-.19-4.3,0-.38-.07-.72-.1-1C864.76,1167.87,882.34,1159.6,886.9,1154.18Z"/></g></g></g></svg>